<?xml version="1.0" encoding="UTF-8"?>
<!DOCTYPE svg PUBLIC "-//W3C//DTD SVG 1.1//EN"
  "http://www.w3.org/Graphics/SVG/1.1/DTD/svg11.dtd">
<!-- Created with Inkpad (http://www.taptrix.com/) --><svg xmlns:inkpad="http://taptrix.com/inkpad/svg_extensions" height="780pt" xmlns:xlink="http://www.w3.org/1999/xlink" xmlns="http://www.w3.org/2000/svg" width="972pt" version="1.1" viewBox="0,0,972,780">
<defs>
<linearGradient y1="422.46" id="LinearGradient" x1="28.926" y2="285.42" x2="-112.07" gradientUnits="userSpaceOnUse" gradientTransform="matrix(-0 -0.695082 -0.645927 0 751.403 553.736)">
<stop stop-color="#008400" offset="0"/>
<stop stop-color="#00a000" offset="1"/>
</linearGradient>
<linearGradient y1="422.46" id="LinearGradient_2" x1="28.926" y2="285.42" x2="-112.07" gradientUnits="userSpaceOnUse" gradientTransform="matrix(-0 -0.695082 -0.645927 0 980.111 325.664)">
<stop stop-color="#008400" offset="0"/>
<stop stop-color="#00a000" offset="1"/>
</linearGradient>
<linearGradient y1="456.75" id="LinearGradient_3" x1="-53.632" y2="216.93" x2="-135.5" gradientUnits="userSpaceOnUse" gradientTransform="matrix(-0 -0.695082 -0.645927 0 911.019 513.363)">
<stop stop-color="#006400" offset="0"/>
<stop stop-color="#00a000" offset="1"/>
</linearGradient>
<linearGradient y1="1272.6" id="LinearGradient_4" x1="462.51" y2="323.12" x2="428.25" gradientUnits="userSpaceOnUse" gradientTransform="matrix(0 0.645927 -0.645927 0 911.021 250.017)">
<stop stop-color="#000000" offset="0"/>
<stop stop-color="#986601" offset="0.5"/>
<stop stop-color="#000400" offset="1"/>
</linearGradient>
</defs>
<g id="layer1" inkpad:layerName="layer1">
<g opacity="1">
<g opacity="1">
<path d="M665.913+467.889C664.126+502.449+634.465+528.883+599.663+526.93C564.863+524.978+538.1+495.378+539.888+460.817C541.676+426.257+571.337+399.823+606.138+401.776C640.938+403.728+667.701+433.328+665.913+467.889Z" opacity="0.5" fill="#000000"/>
<path d="M659.747+467.543C657.959+502.103+628.298+528.537+593.497+526.584C558.696+524.632+531.934+495.032+533.721+460.471C535.509+425.911+565.17+399.477+599.971+401.43C634.772+403.382+661.535+432.982+659.747+467.543Z" opacity="1" fill="#015a01"/>
</g>
<g opacity="1">
<path d="M438.914+600.039C437.126+634.6+407.465+661.034+372.664+659.081C337.863+657.128+311.1+627.529+312.888+592.968C314.676+558.408+344.337+531.974+379.138+533.926C413.939+535.879+440.702+565.479+438.914+600.039Z" opacity="0.5" fill="#000400"/>
<path d="M445.424+594.263C443.636+628.824+413.975+655.258+379.173+653.305C344.373+651.352+317.61+621.752+319.398+587.192C321.186+552.632+350.847+526.197+385.648+528.15C420.448+530.103+447.211+559.703+445.424+594.263Z" opacity="1" fill="#006000"/>
</g>
<g opacity="1">
<path d="M352.551+619.811C350.764+654.371+377.526+683.971+412.327+685.924C447.128+687.877+476.789+661.443+478.577+626.883C480.365+592.322+453.603+562.722+418.802+560.769C384.001+558.817+354.339+585.25+352.551+619.811Z" opacity="0.5" fill="#000400"/>
<path d="M355.942+613.86C354.155+648.42+380.917+678.02+415.718+679.973C450.519+681.926+480.18+655.492+481.968+620.931C483.756+586.371+456.994+556.771+422.192+554.818C387.392+552.865+357.73+579.299+355.942+613.86Z" opacity="1" fill="#339900"/>
</g>
<g opacity="1">
<path d="M497.604+636.574C495.816+671.134+522.578+700.734+557.379+702.687C592.18+704.639+621.841+678.206+623.629+643.645C625.417+609.085+598.655+579.485+563.854+577.532C529.053+575.579+499.391+602.013+497.604+636.574Z" opacity="0.5" fill="#000000"/>
<path d="M488.495+632.992C486.707+667.552+513.469+697.152+548.271+699.105C583.071+701.058+612.733+674.624+614.521+640.063C616.308+605.503+589.546+575.903+554.745+573.95C519.944+571.997+490.283+598.431+488.495+632.992Z" opacity="1" fill="url(#LinearGradient)"/>
</g>
<g opacity="1">
<path d="M614.758+417.161C612.97+451.722+583.309+478.156+548.508+476.203C513.707+474.25+486.944+444.651+488.732+410.09C490.52+375.53+520.181+349.096+554.982+351.048C589.783+353.001+616.546+382.601+614.758+417.161Z" opacity="0.5" fill="#000000"/>
<path d="M608.434+419.868C606.646+454.429+576.985+480.863+542.184+478.91C507.383+476.957+480.62+447.358+482.408+412.797C484.196+378.237+513.857+351.803+548.658+353.755C583.459+355.708+610.221+385.308+608.434+419.868Z" opacity="1" fill="#00ac00"/>
</g>
<g opacity="1">
<path d="M580.922+648.502C579.135+683.062+549.474+709.497+514.672+707.544C479.872+705.591+453.109+675.991+454.897+641.431C456.685+606.87+486.346+580.436+521.147+582.389C555.948+584.342+582.71+613.941+580.922+648.502Z" opacity="0.5" fill="#000000"/>
<path d="M578.121+642.203C576.333+676.764+546.672+703.198+511.87+701.245C477.07+699.292+450.307+669.693+452.095+635.132C453.883+600.572+483.544+574.138+518.345+576.09C553.146+578.043+579.909+607.643+578.121+642.203Z" opacity="1" fill="#006400"/>
</g>
<g opacity="1">
<path d="M676.523+530.533C674.735+565.093+645.074+591.527+610.272+589.574C575.472+587.621+548.709+558.022+550.497+523.461C552.285+488.901+581.946+462.467+616.747+464.419C651.547+466.372+678.31+495.972+676.523+530.533Z" opacity="0.5" fill="#000000"/>
<path d="M670.33+530.185C668.542+564.745+638.881+591.18+604.079+589.227C569.279+587.274+542.516+557.674+544.304+523.114C546.092+488.553+575.753+462.119+610.554+464.072C645.354+466.025+672.117+495.624+670.33+530.185Z" opacity="1" fill="#007c00"/>
</g>
<g opacity="1">
<path d="M547.722+404.662C545.935+439.222+516.273+465.656+481.472+463.703C446.672+461.75+419.909+432.151+421.697+397.59C423.485+363.03+453.146+336.596+487.947+338.548C522.747+340.501+549.51+370.101+547.722+404.662Z" opacity="0.5" fill="#000000"/>
<path d="M538.341+407.206C536.554+441.766+506.893+468.2+472.091+466.248C437.291+464.295+410.528+434.695+412.316+400.134C414.104+365.574+443.765+339.14+478.566+341.093C513.366+343.046+540.129+372.645+538.341+407.206Z" opacity="1" fill="#009c00"/>
</g>
<g opacity="1">
<path d="M512.85+416.882C511.062+451.442+481.401+477.876+446.6+475.923C411.799+473.971+385.036+444.371+386.824+409.81C388.612+375.25+418.273+348.816+453.074+350.769C487.875+352.722+514.638+382.321+512.85+416.882Z" opacity="0.5" fill="#000000"/>
<path d="M512.532+423.032C510.744+457.592+481.083+484.027+446.282+482.074C411.481+480.121+384.718+450.521+386.506+415.96C388.294+381.4+417.955+354.966+452.756+356.919C487.557+358.872+514.319+388.471+512.532+423.032Z" opacity="1" fill="#008c00"/>
</g>
<g opacity="1">
<path d="M665.314+611.33C663.526+645.89+633.865+672.325+599.064+670.372C564.263+668.419+537.5+638.819+539.288+604.258C541.076+569.698+570.737+543.264+605.538+545.217C640.339+547.17+667.102+576.769+665.314+611.33Z" opacity="0.5" fill="#000000"/>
<path d="M659.306+607.922C657.518+642.482+627.857+668.917+593.056+666.964C558.255+665.011+531.492+635.411+533.28+600.851C535.068+566.29+564.729+539.856+599.53+541.809C634.331+543.762+661.094+573.362+659.306+607.922Z" opacity="1" fill="#008400"/>
</g>
<g opacity="1">
<path d="M665.504+558.697C663.717+593.257+634.055+619.692+599.254+617.739C564.453+615.786+537.691+586.186+539.479+551.626C541.266+517.065+570.927+490.631+605.729+492.584C640.529+494.537+667.292+524.136+665.504+558.697Z" opacity="0.5" fill="#000000"/>
<path d="M659.198+561.405C657.41+595.965+627.749+622.4+592.948+620.447C558.147+618.494+531.384+588.894+533.172+554.333C534.96+519.773+564.621+493.339+599.422+495.292C634.223+497.245+660.986+526.844+659.198+561.405Z" opacity="1" fill="#007800"/>
</g>
<g opacity="1">
<path d="M635.392+455.2C633.604+489.761+603.943+516.195+569.142+514.242C534.342+512.289+507.579+482.69+509.367+448.129C511.154+413.569+540.816+387.134+575.617+389.087C610.417+391.04+637.18+420.64+635.392+455.2Z" opacity="0.5" fill="#000400"/>
<path d="M629.086+457.908C627.298+492.469+597.637+518.903+562.836+516.95C528.035+514.997+501.272+485.397+503.06+450.837C504.848+416.277+534.509+389.843+569.31+391.795C604.111+393.748+630.874+423.348+629.086+457.908Z" opacity="1" fill="#339900"/>
</g>
<g opacity="1">
<path d="M463.878+419.716C462.091+454.276+488.853+483.877+523.654+485.829C558.455+487.782+588.116+461.348+589.904+426.788C591.692+392.227+564.93+362.627+530.128+360.674C495.328+358.722+465.666+385.155+463.878+419.716Z" opacity="0.5" fill="#000000"/>
<path d="M457.572+422.424C455.784+456.984+482.547+486.585+517.348+488.537C552.148+490.49+581.81+464.056+583.598+429.496C585.385+394.935+558.623+365.335+523.822+363.382C489.021+361.43+459.36+387.863+457.572+422.424Z" opacity="1" fill="#00b000"/>
</g>
<g opacity="1">
<path d="M639.425+609.374C637.637+643.934+607.976+670.368+573.175+668.415C538.375+666.463+511.612+636.863+513.4+602.302C515.187+567.742+544.848+541.308+579.649+543.261C614.45+545.213+641.213+574.813+639.425+609.374Z" opacity="0.5" fill="#000000"/>
<path d="M630.316+605.792C628.529+640.352+598.868+666.786+564.066+664.834C529.266+662.881+502.503+633.281+504.291+598.72C506.079+564.16+535.74+537.726+570.541+539.679C605.342+541.632+632.104+571.231+630.316+605.792Z" opacity="1" fill="#006000"/>
</g>
<g opacity="1">
<path d="M628.769+551.976C626.981+586.536+597.32+612.97+562.519+611.017C527.718+609.065+500.956+579.465+502.743+544.904C504.531+510.344+534.192+483.91+568.993+485.863C603.794+487.816+630.557+517.415+628.769+551.976Z" opacity="0.5" fill="#000400"/>
<path d="M622.418+554.69C620.63+589.251+590.969+615.685+556.168+613.732C521.367+611.779+494.604+582.18+496.392+547.619C498.18+513.058+527.841+486.624+562.642+488.577C597.443+490.53+624.206+520.13+622.418+554.69Z" opacity="1" fill="#009400"/>
</g>
<g opacity="1">
<path d="M610.321+451.771C608.533+486.332+578.872+512.766+544.071+510.813C509.27+508.86+482.507+479.261+484.295+444.7C486.083+410.14+515.744+383.706+550.545+385.658C585.346+387.611+612.109+417.211+610.321+451.771Z" opacity="0.5" fill="#000000"/>
<path d="M606.885+457.72C605.098+492.28+575.437+518.714+540.635+516.762C505.835+514.809+479.072+485.209+480.86+450.649C482.648+416.088+512.309+389.654+547.11+391.607C581.911+393.56+608.673+423.159+606.885+457.72Z" opacity="1" fill="#008400"/>
</g>
<g opacity="1">
<path d="M624.511+500.145C622.724+534.705+593.063+561.139+558.261+559.186C523.461+557.233+496.698+527.634+498.486+493.073C500.274+458.513+529.935+432.079+564.736+434.031C599.536+435.984+626.299+465.584+624.511+500.145Z" opacity="0.5" fill="#000000"/>
<path d="M618.205+502.861C616.417+537.422+586.756+563.856+551.955+561.903C517.154+559.95+490.391+530.351+492.179+495.79C493.967+461.23+523.628+434.796+558.429+436.748C593.23+438.701+619.993+468.301+618.205+502.861Z" opacity="1" fill="#007800"/>
</g>
<g opacity="1">
<path d="M400.803+635.079C399.015+669.639+425.777+699.239+460.579+701.192C495.379+703.145+525.041+676.711+526.829+642.151C528.616+607.59+501.854+577.99+467.053+576.037C432.252+574.085+402.591+600.518+400.803+635.079Z" opacity="0.5" fill="#000000"/>
<path d="M407.11+632.362C405.322+666.922+432.084+696.523+466.885+698.475C501.686+700.428+531.347+673.994+533.135+639.434C534.923+604.873+508.161+575.273+473.36+573.321C438.559+571.368+408.897+597.801+407.11+632.362Z" opacity="1" fill="#008c00"/>
</g>
<g opacity="1">
<path d="M293.161+526.982C291.373+561.542+318.136+591.142+352.937+593.095C387.737+595.048+417.399+568.614+419.187+534.054C420.975+499.493+394.212+469.893+359.411+467.94C324.61+465.988+294.949+492.421+293.161+526.982Z" opacity="0.5" fill="#000400"/>
<path d="M299.468+524.265C297.68+558.825+324.442+588.425+359.243+590.378C394.044+592.331+423.706+565.897+425.493+531.337C427.281+496.776+400.519+467.176+365.718+465.223C330.917+463.271+301.256+489.704+299.468+524.265Z" opacity="1" fill="#007400"/>
</g>
<g opacity="1">
<path d="M342.097+426.157C340.309+460.717+367.071+490.317+401.872+492.27C436.673+494.223+466.335+467.789+468.122+433.228C469.91+398.668+443.148+369.068+408.347+367.115C373.546+365.162+343.885+391.596+342.097+426.157Z" opacity="0.5" fill="#000000"/>
<path d="M346.572+429.483C344.784+464.043+371.546+493.643+406.347+495.596C441.148+497.549+470.81+471.115+472.597+436.555C474.385+401.994+447.623+372.394+412.822+370.441C378.021+368.489+348.36+394.922+346.572+429.483Z" opacity="1" fill="#007c00"/>
</g>
<g opacity="1">
<path d="M433.529+453.252C431.741+487.812+458.503+517.412+493.305+519.365C528.105+521.318+557.767+494.884+559.555+460.323C561.342+425.763+534.58+396.163+499.779+394.21C464.978+392.257+435.317+418.691+433.529+453.252Z" opacity="0.5" fill="#000000"/>
<path d="M430.093+459.2C428.306+493.761+455.068+523.361+489.869+525.314C524.67+527.266+554.331+500.833+556.119+466.272C557.907+431.712+531.145+402.112+496.343+400.159C461.543+398.206+431.881+424.64+430.093+459.2Z" opacity="1" fill="#006c00"/>
</g>
<g opacity="1">
<path d="M296.792+483.49C295.004+518.051+321.766+547.651+356.567+549.603C391.368+551.556+421.03+525.123+422.817+490.562C424.605+456.002+397.843+426.402+363.042+424.449C328.241+422.496+298.579+448.93+296.792+483.49Z" opacity="0.5" fill="#000000"/>
<path d="M303.301+477.714C301.514+512.274+328.276+541.875+363.077+543.827C397.878+545.78+427.539+519.346+429.327+484.786C431.115+450.226+404.353+420.625+369.551+418.673C334.751+416.72+305.089+443.153+303.301+477.714Z" opacity="1" fill="#008000"/>
</g>
<g opacity="1">
<path d="M330.016+466.978C328.228+501.539+354.991+531.139+389.792+533.092C424.593+535.044+454.254+508.611+456.042+474.05C457.83+439.49+431.067+409.89+396.266+407.937C361.466+405.984+331.804+432.418+330.016+466.978Z" opacity="0.5" fill="#000000"/>
<path d="M339.283+467.498C337.496+502.059+364.258+531.659+399.059+533.612C433.86+535.564+463.521+509.131+465.309+474.57C467.097+440.01+440.335+410.41+405.533+408.457C370.733+406.504+341.071+432.938+339.283+467.498Z" opacity="1" fill="url(#LinearGradient_2)"/>
</g>
<g opacity="1">
<path d="M461.257+579.9C459.47+614.461+429.809+640.895+395.007+638.942C360.207+636.989+333.444+607.39+335.232+572.829C337.02+538.269+366.681+511.835+401.482+513.787C436.282+515.74+463.045+545.34+461.257+579.9Z" opacity="0.5" fill="#000400"/>
<path d="M467.564+577.184C465.776+611.744+436.115+638.178+401.314+636.225C366.514+634.273+339.751+604.673+341.538+570.112C343.326+535.552+372.987+509.118+407.788+511.07C442.589+513.023+469.352+542.623+467.564+577.184Z" opacity="1" fill="#339900"/>
</g>
<g opacity="1">
<path d="M469.694+516.14C467.906+550.701+494.668+580.301+529.47+582.253C564.27+584.206+593.932+557.773+595.72+523.212C597.507+488.652+570.745+459.051+535.944+457.099C501.143+455.146+471.482+481.58+469.694+516.14Z" opacity="0.5" fill="#000000"/>
<path d="M466.303+522.091C464.515+556.652+491.278+586.252+526.079+588.205C560.879+590.157+590.541+563.724+592.329+529.163C594.117+494.603+567.354+465.003+532.553+463.05C497.752+461.097+468.091+487.531+466.303+522.091Z" opacity="1" fill="url(#LinearGradient_3)"/>
</g>
<g opacity="1">
<path d="M442.084+507.54C440.296+542.1+410.635+568.534+375.834+566.581C341.034+564.629+314.271+535.029+316.059+500.468C317.846+465.908+347.507+439.474+382.309+441.427C417.109+443.38+443.872+472.979+442.084+507.54Z" opacity="0.5" fill="#000000"/>
<path d="M448.074+510.947C446.286+545.507+416.625+571.941+381.824+569.988C347.024+568.036+320.261+538.436+322.049+503.875C323.836+469.315+353.497+442.881+388.299+444.834C423.099+446.786+449.862+476.386+448.074+510.947Z" opacity="1" fill="#339900"/>
</g>
<g opacity="1">
<path d="M346.317+510.41C344.529+544.97+371.292+574.571+406.093+576.523C440.893+578.476+470.555+552.043+472.343+517.482C474.131+482.922+447.368+453.321+412.567+451.369C377.766+449.416+348.105+475.85+346.317+510.41Z" opacity="0.5" fill="#000400"/>
<path d="M355.743+507.864C353.955+542.424+380.717+572.024+415.518+573.977C450.319+575.93+479.981+549.496+481.768+514.936C483.556+480.375+456.794+450.775+421.993+448.822C387.192+446.87+357.531+473.303+355.743+507.864Z" opacity="1" fill="#44aa00"/>
</g>
<g opacity="1">
<path d="M413.648+477.421C411.86+511.982+438.623+541.582+473.424+543.535C508.225+545.487+537.886+519.054+539.674+484.493C541.462+449.933+514.699+420.333+479.898+418.38C445.098+416.427+415.436+442.861+413.648+477.421Z" opacity="0.5" fill="#000000"/>
<path d="M413.331+483.545C411.544+518.105+438.306+547.705+473.107+549.658C507.908+551.611+537.569+525.177+539.357+490.617C541.145+456.056+514.383+426.456+479.582+424.503C444.781+422.551+415.119+448.984+413.331+483.545Z" opacity="1" fill="#009400"/>
</g>
<g opacity="1">
<path d="M479.773+592.241C477.986+626.801+504.748+656.401+539.549+658.354C574.35+660.306+604.011+633.873+605.799+599.312C607.587+564.752+580.825+535.152+546.024+533.199C511.223+531.246+481.561+557.68+479.773+592.241Z" opacity="0.5" fill="#000000"/>
<path d="M472.145+590.277C470.357+624.837+497.119+654.438+531.921+656.39C566.721+658.343+596.383+631.909+598.171+597.349C599.958+562.788+573.196+533.188+538.395+531.236C503.594+529.283+473.933+555.716+472.145+590.277Z" opacity="1" fill="#2ca02c"/>
</g>
<g opacity="1">
<path d="M451.216+547.636C449.428+582.197+476.19+611.797+510.991+613.75C545.792+615.702+575.453+589.269+577.241+554.708C579.029+520.148+552.267+490.548+517.466+488.595C482.665+486.642+453.003+513.076+451.216+547.636Z" opacity="0.5" fill="#000000"/>
<path d="M445.067+547.292C443.279+581.852+470.042+611.452+504.843+613.405C539.644+615.357+569.305+588.924+571.093+554.363C572.881+519.803+546.118+490.203+511.317+488.25C476.517+486.297+446.855+512.731+445.067+547.292Z" opacity="1" fill="#217821"/>
</g>
<g opacity="1">
<path d="M375.072+516.681C373.174+551.235+399.843+580.919+434.638+582.981C469.433+585.043+499.179+558.703+501.077+524.149C502.975+489.595+476.307+459.912+441.511+457.85C406.716+455.787+376.97+482.127+375.072+516.681Z" opacity="0.5" fill="#000000"/>
<path d="M374.755+522.805C372.857+557.359+399.526+587.042+434.321+589.104C469.116+591.167+498.862+564.827+500.76+530.273C502.658+495.719+475.99+466.035+441.194+463.973C406.399+461.911+376.653+488.251+374.755+522.805Z" opacity="1" fill="#217821"/>
</g>
<g opacity="1">
<path d="M365.093+591.187C363.305+625.747+390.068+655.348+424.869+657.3C459.669+659.253+489.331+632.819+491.119+598.259C492.907+563.699+466.144+534.098+431.343+532.146C396.542+530.193+366.881+556.626+365.093+591.187Z" opacity="0.5" fill="#000000"/>
<path d="M368.484+585.232C366.697+619.792+393.459+649.392+428.26+651.345C463.061+653.297+492.722+626.864+494.51+592.303C496.298+557.743+469.536+528.143+434.734+526.19C399.934+524.237+370.272+550.671+368.484+585.232Z" opacity="1" fill="#006400"/>
</g>
<g opacity="1">
<path d="M530.82+537.371C529.032+571.931+499.371+598.365+464.57+596.413C429.769+594.46+403.006+564.86+404.794+530.299C406.582+495.739+436.243+469.305+471.044+471.258C505.845+473.211+532.608+502.81+530.82+537.371Z" opacity="0.5" fill="#000000"/>
<path d="M534.211+531.42C532.423+565.98+502.762+592.414+467.961+590.461C433.16+588.508+406.397+558.909+408.185+524.348C409.973+489.788+439.634+463.354+474.435+465.307C509.236+467.259+535.999+496.859+534.211+531.42Z" opacity="1" fill="#00ac00"/>
</g>
<g opacity="1">
<path d="M437.103+616.79C435.315+651.35+462.078+680.95+496.879+682.903C531.679+684.856+561.341+658.422+563.129+623.861C564.917+589.301+538.154+559.701+503.353+557.748C468.552+555.796+438.891+582.229+437.103+616.79Z" opacity="0.5" fill="#000000"/>
<path d="M440.573+609.308C438.785+643.868+465.548+673.468+500.349+675.421C535.149+677.374+564.811+650.94+566.599+616.379C568.387+581.819+541.624+552.219+506.823+550.266C472.023+548.313+442.361+574.747+440.573+609.308Z" opacity="1" fill="#007800"/>
</g>
<g opacity="1">
<path d="M412.767+573.121C410.979+607.681+437.742+637.281+472.543+639.234C507.343+641.187+537.005+614.753+538.793+580.192C540.581+545.632+513.818+516.032+479.017+514.079C444.217+512.127+414.555+538.56+412.767+573.121Z" opacity="0.34496" fill="#000000"/>
<path d="M420.792+567.43C419.004+601.99+445.766+631.59+480.567+633.543C515.368+635.496+545.03+609.062+546.818+574.501C548.605+539.941+521.843+510.341+487.042+508.388C452.241+506.435+422.58+532.869+420.792+567.43Z" opacity="1" fill="#009800"/>
</g>
<path d="M343.384+917.732C377.261+903.824+415.667+894.824+418.482+871.353C421.298+847.882+443.246+837.877+458.532+827.062C480.833+811.285+483.77+709.857+476.675+683.756C476.222+682.09+468.776+678.796+458.355+674.811C456.21+673.99+404.102+694.223+401.74+693.353C400.719+692.977+428.438+682.979+434.781+680.037C435.386+679.756+421.066+675.19+421.68+674.908C422.622+674.475+438.5+678.325+439.433+677.899C445.971+674.913+451.816+672.279+450.639+672.36C442.967+672.888+421.977+663.28+399.018+649.426C398.573+649.158+391.93+648.669+384.144+648.138C383.602+648.101+378.776+651.098+378.224+651.06C377.771+651.03+381.593+647.965+381.136+647.934C370.554+647.221+359.097+646.474+358.505+646.109C358.103+645.861+363.955+645.834+370.934+645.845C371.386+645.845+364.521+641.343+364.981+641.344C365.435+641.345+373.214+645.849+373.673+645.851C383.094+645.874+393.317+645.925+392.788+645.593C384.65+640.487+376.396+634.926+368.513+629.162C367.843+628.672+362.036+627.664+355.34+626.565C354.836+626.482+348.764+628.788+348.252+628.705C347.734+628.62+352.775+626.146+352.251+626.061C343.542+624.645+334.439+623.189+333.602+622.565C333.068+622.167+338.433+622.362+344.474+622.626C345.116+622.654+339.071+616.905+339.722+616.934C340.369+616.963+347.712+622.77+348.355+622.798C354.734+623.08+360.643+623.314+360.091+622.897C355.15+619.158+350.364+615.29+345.841+611.463C345.621+611.277+340.98+610.461+335.849+609.576C335.346+609.489+330.825+611.877+330.316+611.79C329.794+611.7+333.285+609.134+332.765+609.044C327.333+608.108+322.221+607.218+321.993+607.023C321.499+606.601+343.38+609.364+342.893+608.944C337.367+604.174+332.292+599.529+327.881+595.348C327.343+594.838+315.699+591.396+315.181+590.901C314.843+590.577+325.625+593.196+325.297+592.879C316.19+584.113+310.506+577.924+310.506+577.924C310.506+577.924+314.94+581.105+320.599+585.232C320.971+585.503+319.302+580.262+319.683+580.54C320.141+580.874+322.651+586.731+323.12+587.074C328.696+591.156+334.943+595.786+339.213+599.119C339.892+599.648+339.21+574.103+339.888+574.635C340.696+575.267+341.193+582.773+341.711+589.802C341.75+590.33+346.737+585.345+346.776+585.865C346.815+586.38+341.907+592.399+341.946+592.9C342.329+597.743+342.75+601.768+343.332+602.224C352.665+609.553+362.286+617.142+372.131+624.283C372.556+624.591+372.748+613.253+372.925+601.154C372.937+600.313+358.524+582.176+358.536+581.332C358.554+580.063+372.898+598.009+372.917+596.752C373.089+585.133+373.382+572.647+373.795+572.94C374.361+573.344+375.264+590.481+376.128+605.599C376.166+606.269+385.792+594.353+385.83+595.013C385.867+595.657+376.317+608.876+376.354+609.507C376.949+619.702+377.509+628.118+377.906+628.395C394.826+640.218+412.363+650.337+430.206+655.249L427.136+635.389L418.513+631.304L404.597+631.425L416.164+630.192L401.443+623.217L390.584+622.635L398.865+621.996L385.044+615.449L405.348+623.522L401.621+612.159L406.731+623.8L426.129+631.784L410.495+604.575L397.156+596.077L408.792+601.611L398.634+583.932L405.105+592.874L404.281+585.021L406.935+595.403L417.128+609.488L419.206+602.891L417.381+595.49L419.901+600.685L422.788+591.52L419.124+611.665L430.612+631.116L432.354+619.897L430.308+613.79L432.728+617.487L434.257+607.636L434.234+623.277L439.242+617.553L434.232+625.454L434.216+636.483L440.888+657.767L478.674+664.802C481.577+652.719+480.042+648.455+478.335+640.596C447.836+615.855+425.233+590.9+400.095+561.384C399.777+561.01+395.404+559.472+389.475+557.487C389.123+557.369+368.221+564.009+367.859+563.888C367.424+563.743+387.525+556.836+387.077+556.687C373.775+552.269+354.982+546.273+354.316+545.478C353.841+544.911+365.458+547.814+376.299+550.493C376.578+550.562+369.862+537.141+370.139+537.21C370.385+537.271+377.626+550.82+377.87+550.881C386.787+553.081+394.736+555.003+394.344+554.529C389.181+548.282+380.594+535.987+371.339+522.258C370.749+521.384+332.394+510.144+331.8+509.26C331.578+508.929+342.878+511.607+352.971+514.055C353.588+514.204+348.19+503.102+348.795+503.25C349.416+503.401+354.425+514.165+355.301+514.327C361.875+515.544+368.361+517.826+368.361+517.826L351.834+492.835L336.447+483.575C336.447+483.575+350.73+490.914+350.091+489.936C343.656+480.106+336.845+469.904+333.421+464.748C337.861+469.307+348.753+484.843+359.289+499.88C359.558+500.264+360.053+498.082+360.601+495.289C360.668+494.944+357.721+486.507+357.79+486.147C357.857+485.798+360.94+493.525+361.008+493.168C361.786+489.065+362.585+484.706+362.954+485.232C363.431+485.912+360.837+501.712+361.31+502.386C369.5+514.057+378.506+527.15+381.943+530.929C382.447+531.484+386.201+506.23+386.706+506.785C387.149+507.274+386.816+513.934+386.466+520.73C386.419+521.64+391.121+515.724+391.075+516.623C391.047+517.173+386.271+524.546+386.244+525.083C385.977+530.536+385.81+535.187+386.179+535.592C396.117+546.536+406.053+557.48+416.212+567.861C416.821+568.484+418.191+561.596+419.632+554.003C419.718+553.552+414.74+539.443+414.827+538.988C414.946+538.358+420.128+551.38+420.247+550.75C421.789+542.601+423.953+535.401+423.953+535.401C423.953+535.401+423.933+540.279+423.146+545.848C423.07+546.383+428.19+542.037+428.11+542.591C428.084+542.769+422.859+547.84+422.833+548.02C421.368+558.052+419.299+570.516+420.127+571.324C431.568+582.489+448.087+600.015+460.524+608.656L469.248+594.783L463.959+611.896L484.419+625.457L484.009+599.297L444.87+532.18L437.371+529.601L424.928+529.821L433.091+528.129L398+516.059L423.026+522.646L415.123+507.944L427.294+523.77L443.084+527.926L419.326+490.164L411.084+488.111L398.075+490.727L408.942+487.578L389.72+482.791L405.57+485.172L399.999+476.942L407.52+485.845L417.54+487.564L390.667+445.102L386.465+442.208L378.364+440.571L384.644+440.954L375.538+434.684L388.599+441.835L370.345+412.992L383.027+432.178L381.534+423.644L384.536+434.461L405.065+465.52L405.711+461.118L402.264+450.568L406.109+458.41L407.695+447.618L406.608+468.194L428.505+501.527L430.953+496.241L429.651+486.947L431.824+494.36L436.584+484.083L429.982+503.592L487.972+590.224L489.543+551.921L478.126+539.185L456.227+533.58L475.788+536.612L457.091+509.072L438.39+498.847L455.384+506.558L431.049+470.714L449.022+494.953L449.573+480.46L450.422+496.84L470.586+524.035L472.47+510.423L473.2+527.629L489.983+546.721L488.456+484.839L469.521+465.669L456.001+464.737L442.54+469.971L453.808+464.586L424.763+462.584L446.35+463.12L439.091+452.022L447.709+462.825L467.275+463.031L437.794+435.885L417.182+427.172L434.254+432.226L406.982+404.035L425.631+421.296L425.271+405.044L428.72+424.155L453.775+447.346L452.257+420.897L443.68+407.394L451.999+416.404L451.126+401.201L455.154+427.978L463.55+417.088L456.165+434.055L457.082+449.644L489.426+480.344L489.2+453.451L467.082+428.016L489.143+446.722L489.021+432.145L464.731+397.422L476.977+412.922L475.886+397.255L479.732+416.409L488.987+428.123L488.659+389.086L480.673+370.715L488.625+385.064L488.436+362.598L489.552+397.481L508.503+371.406L497.88+389.182L510.894+384.836L496.137+392.099L490.312+400.175L490.845+437.896L506.77+420.81L490.974+441.91L491.49+458.038L513.849+440.36L508.881+405.384L516.519+437.828L549.455+409.337L531.729+427.415L551.069+425.621L530.673+430.186L492.413+462.727L494.161+520.148L509.806+506.575L509.482+489.008L505.31+476.777L509.416+485.474L509.065+466.434L510.671+493.065L516.763+483.814L510.802+495.229L511.362+504.505L536.231+472.183L535.982+459.392L531.24+447.539L535.918+456.111L535.617+440.601L537.754+470.204L553.099+450.26L553.196+434.32L554.528+448.403L562.995+437.398L546.398+461.278L569.769+450.03L556.603+457.174L565.958+456.58L554.591+458.266L544.799+463.579L520.545+498.477L530.285+496.932L537.569+490.131L532.573+496.569L542.764+494.951L519.904+500.731L495.072+523.054L497.849+588.99L518.587+559.196L511.464+519.342L516.671+537.866L520.343+522.541L518.244+543.464L521.347+554.501L549.572+514.68L549.383+507.745L545.098+498.643L549.317+505.3L548.437+472.996L551.321+498.445L555.752+487.56L551.79+501.457L553.328+511.334L584.823+467.25L584.325+446.311L586.547+464.156L609.596+432.573L597.181+451.294L605.799+445.325L595.788+453.394L573.044+487.688L591.519+479.297L593.542+475.112L593.528+467.809L594.554+473.019L597.471+466.987L593.187+478.232L612.95+469.564L601.951+475.494L609.184+475.795L600.218+476.429L584.852+484.715L606.506+482.974L594.853+484.402L600.772+486.571L592.614+484.676L582.661+485.896L570.63+492.383L532.834+550.394L557.052+539.459L529.699+556.778L501.659+598.244L502.245+623.247L520.253+611.855L527.973+596.755L527.887+581.718L530.165+592.465L537.844+577.444L526.326+608.448C546.754+594.778+564.43+579.547+581.39+563.909C581.692+563.63+581.142+560.2+580.184+555.263C580.098+554.82+570.541+546.194+570.448+545.728C570.36+545.283+579.738+553+579.645+552.536C578.528+546.973+577.063+540.123+575.732+533.771C575.574+533.018+566.453+522.357+566.3+521.621C566.173+521.011+575.013+530.323+574.891+529.728C573.178+521.434+571.913+514.798+572.336+514.405C572.833+513.943+578.287+536.604+580.384+545.058C580.498+545.517+588.529+532.524+588.643+532.982C588.863+533.867+581.164+548.196+581.379+549.057C583.046+555.712+584.523+561.317+584.925+560.941C592.744+553.629+607.503+539.411+621.237+526.352C621.524+526.08+622.485+519.42+623.531+511.958C623.591+511.526+616.537+500.549+616.598+500.112C616.711+499.301+623.94+509.026+624.054+508.211C625.24+499.716+626.408+491.376+626.727+491.074C626.92+490.891+626.493+496.567+625.965+503.196C625.943+503.466+631.163+498.029+631.141+498.302C631.112+498.664+625.842+504.737+625.813+505.104C625.111+513.855+624.323+523.422+624.571+523.187C633.246+514.96+641.231+507.482+646.419+502.884C637.814+512.676+624.516+526.968+610.826+541.273C610.505+541.609+622.952+538.039+633.196+535.143C633.657+535.012+638.385+522.123+638.836+521.996C639.489+521.812+634.509+534.315+635.134+534.139C640.835+532.537+645.169+531.352+644.977+531.552C644.773+531.766+641.975+533.261+636.453+535.101C633.866+535.963+630.977+536.917+628.051+537.883C627.285+538.135+638.53+541.752+637.764+542.005C637.313+542.153+624.851+538.938+624.402+539.086C615.665+541.97+607.582+544.654+607.294+544.954C593.596+559.2+579.875+573.077+570.41+582.12C569.662+582.834+583.224+581.302+596.983+579.737C597.424+579.687+609.211+560.999+609.651+560.949C610.291+560.876+599.584+579.442+600.221+579.369C613.236+577.891+625.429+576.539+624.711+577.21C623.802+578.058+602.753+581.318+585.536+584.114C584.888+584.22+597.896+590.918+597.259+591.022C596.675+591.117+582.445+584.618+581.874+584.712C571.821+586.362+563.823+587.765+563.264+588.275C545.473+604.487+526.35+619.59+505.051+632.879C506.966+645.268+505.571+656.987+510.923+664.607L546.653+646.62L545.014+627.001L538.891+615.208L544.641+622.538L543.639+610.54L547.434+631.884L560.623+617.014L548.605+635.693L551.48+645.039C563.322+642.659+574.172+637.388+584.489+630.566C585.101+630.162+585.433+625.99+585.681+620.69C585.712+619.962+572.731+609.07+572.762+608.307C572.786+607.718+585.826+617.264+585.849+616.661C586.2+607.519+586.664+593.104+587.629+592.409C588.373+591.873+588.792+604.192+589.421+612.163C589.492+613.057+600.296+598.411+600.367+599.284C600.429+600.057+589.758+616.351+589.822+617.089C590.278+622.427+590.749+626.596+591.278+626.193C600.325+619.288+609.68+610.902+619.077+602.556C619.381+602.286+619.749+598.227+620.124+593.82C620.177+593.187+615.401+587.204+615.455+586.567C615.509+585.93+620.393+590.639+620.446+590.018C620.787+586.068+621.119+582.655+621.397+582.409C622.181+581.714+622.654+599.386+623.438+598.694C628.043+594.631+632.648+590.633+637.223+586.881C637.919+586.31+644.017+567.664+644.711+567.106C645.177+566.731+640.24+584.439+640.705+584.069C643.513+581.84+657.847+566.422+660.618+564.456C659.554+567.199+642.831+586.221+636.608+592.54C636.083+593.073+651.791+588.181+651.254+588.72C650.529+589.447+633.556+595.608+632.816+596.342C621.745+607.323+609.428+618.665+610.975+618.665C619.739+618.204+627.145+617.831+633.348+617.534C634.216+617.492+646.436+607.314+647.257+607.275C648.127+607.234+637.595+617.333+638.414+617.296C703.541+614.306+607.749+621.594+606.303+622.851C589.247+637.684+569.441+652.258+550.774+658.873C549.65+659.271+561.209+662.493+575.012+666.1C575.374+666.195+581.627+662.175+587.978+658.088C588.475+657.768+591.602+643.649+592.098+643.33C593+642.749+589.928+657.165+590.799+656.607C595.765+653.422+601.29+649.591+601.588+649.668C602.298+649.852+578.66+667.049+579.377+667.235C597.511+671.924+617.548+676.831+617.548+676.831C617.548+676.831+547.846+662.042+545.655+663.886C533.592+674.06+515.39+681.838+515.173+683.837C512.018+712.934+511.786+822.484+540.416+832.854C558.833+839.527+563.594+839.548+567.64+863.873C571.686+888.198+613.822+912.989+647.884+929.744C618.347+909.09+573.124+912.224+559.969+875.422C546.813+838.621+543.12+848.606+529.602+847.036C542.605+863.644+543.203+874.334+539.323+889.321C535.443+904.309+536.077+910.948+548.481+929.156C560.885+947.363+560.806+977.235+565.036+1001.16C557.998+976.637+555.932+944.262+539.122+928.495C522.311+912.727+523.812+902.797+528.578+887.976C533.345+873.155+523.955+864.278+511.519+851.09C509.386+864.488+498.547+881.249+511.686+895.997C524.824+910.745+524.48+914.574+510.145+930.651C495.81+946.728+506.509+975.839+508.96+999.286C505.386+977.065+486.535+951.226+499.737+932.342C512.939+913.457+504.284+909.025+494.741+896.079C485.198+883.133+487.906+866.586+488.54+851.071C478.545+861.834+468.728+871.216+471.422+886.238C474.116+901.259+471.527+909.72+453.269+923.529C435.012+937.339+432.25+963.165+424.26+983.124C428.473+961.841+428.253+935.645+445.202+920.93C462.151+906.216+465.232+895.315+458.806+880.529C452.38+865.743+463.072+858.691+469.512+848.735C454.8+840.314+441.087+843.897+426.993+876.728C412.9+909.558+369.837+903.259+343.381+917.729L343.384+917.732Z" opacity="1" fill="url(#LinearGradient_4)"/>
<path d="M332.433+920.595C366.31+906.687+404.716+897.687+407.531+874.216C410.347+850.744+432.295+840.739+447.581+829.924C469.882+814.147+472.819+712.72+465.724+686.618C465.271+684.953+457.824+681.658+447.404+677.673C445.259+676.853+393.151+697.086+390.788+696.215C389.768+695.839+417.487+685.842+423.83+682.899C424.435+682.619+410.115+678.053+410.729+677.771C411.671+677.337+427.549+681.187+428.481+680.761C435.02+677.775+440.865+675.142+439.687+675.223C432.016+675.751+411.026+666.142+388.067+652.289C387.622+652.021+380.978+651.531+373.193+651C372.651+650.963+367.824+653.96+367.273+653.923C366.82+653.892+370.642+650.827+370.185+650.796C359.603+650.083+348.146+649.336+347.554+648.971C347.152+648.724+353.004+648.696+359.983+648.707C360.435+648.708+353.57+644.205+354.03+644.206C354.484+644.207+362.263+648.712+362.722+648.713C372.142+648.737+382.366+648.787+381.837+648.455C373.699+643.35+365.445+637.788+357.562+632.025C356.892+631.535+351.085+630.526+344.388+629.427C343.885+629.345+337.813+631.65+337.301+631.567C336.783+631.482+341.824+629.009+341.3+628.924C332.591+627.508+323.488+626.051+322.651+625.428C322.117+625.029+327.482+625.225+333.523+625.489C334.165+625.517+328.12+619.768+328.771+619.797C329.418+619.826+336.761+625.632+337.404+625.661C343.783+625.943+349.692+626.177+349.14+625.76C344.199+622.021+339.413+618.152+334.89+614.326C334.669+614.139+330.029+613.324+324.898+612.439C324.395+612.352+319.874+614.74+319.365+614.652C318.843+614.562+322.334+611.997+321.814+611.907C316.381+610.971+311.27+610.08+311.042+609.885C310.548+609.463+332.429+612.227+331.942+611.806C326.416+607.037+321.341+602.392+316.93+598.21C316.392+597.7+304.748+594.258+304.23+593.763C303.892+593.44+314.674+596.059+314.346+595.742C305.239+586.976+299.555+580.786+299.555+580.786C299.555+580.786+303.988+583.968+309.648+588.095C310.02+588.366+308.351+583.124+308.732+583.402C309.19+583.737+311.7+589.593+312.169+589.936C317.745+594.019+323.992+598.649+328.262+601.982C328.941+602.511+328.259+576.966+328.937+577.497C329.745+578.13+330.242+585.635+330.76+592.664C330.799+593.193+335.786+588.208+335.825+588.728C335.864+589.243+330.955+595.262+330.995+595.762C331.378+600.605+331.799+604.63+332.381+605.087C341.714+612.416+351.335+620.005+361.18+627.145C361.605+627.454+361.797+616.115+361.973+604.016C361.986+603.175+347.573+585.039+347.585+584.195C347.603+582.926+361.947+600.872+361.966+599.614C362.138+587.995+362.431+575.509+362.844+575.803C363.41+576.207+364.313+593.344+365.177+608.461C365.215+609.131+374.841+597.216+374.879+597.876C374.916+598.519+365.366+611.739+365.403+612.37C365.998+622.565+366.558+630.981+366.955+631.258C383.875+643.081+401.412+653.199+419.255+658.111L416.185+638.251L407.562+634.167L393.646+634.288L405.213+633.054L390.491+626.08L379.633+625.498L387.914+624.859L374.093+618.312L394.397+626.384L390.67+615.022L395.78+626.663L415.178+634.647L399.544+607.438L386.205+598.939L397.841+604.473L387.683+586.795L394.154+595.737L393.33+587.883L395.984+598.265L406.177+612.35L408.255+605.754L406.43+598.352L408.949+603.548L411.836+594.383L408.173+614.527L419.661+633.979L421.402+622.759L419.356+616.653L421.776+620.35L423.305+610.499L423.283+626.14L428.291+620.416L423.28+628.317L423.265+639.346L429.937+660.63L467.723+667.665C470.626+655.582+469.091+651.318+467.384+643.458C436.885+618.718+414.282+593.762+389.144+564.246C388.826+563.873+384.453+562.335+378.524+560.349C378.172+560.231+357.27+566.871+356.908+566.75C356.473+566.605+376.574+559.698+376.126+559.55C362.824+555.132+344.031+549.136+343.365+548.34C342.89+547.773+354.507+550.677+365.348+553.356C365.627+553.425+358.911+540.004+359.188+540.073C359.434+540.133+366.674+553.683+366.919+553.744C375.836+555.944+383.785+557.865+383.393+557.391C378.23+551.144+369.643+538.85+360.388+525.12C359.798+524.246+321.443+513.007+320.849+512.122C320.626+511.791+331.926+514.47+342.02+516.917C342.637+517.067+337.239+505.964+337.844+506.112C338.465+506.263+343.474+517.027+344.35+517.19C350.924+518.407+357.41+520.689+357.41+520.689L340.884+495.694L325.497+486.435C325.497+486.435+339.78+493.774+339.14+492.796C332.706+482.966+325.894+472.764+322.47+467.608C326.911+472.167+337.803+487.703+348.339+502.74C348.608+503.124+349.103+500.942+349.65+498.149C349.718+497.804+346.771+489.367+346.84+489.007C346.906+488.658+349.99+496.385+350.058+496.028C350.835+491.925+351.635+487.566+352.004+488.092C352.48+488.772+349.887+504.572+350.36+505.246C358.549+516.917+367.556+530.01+370.992+533.789C371.497+534.344+375.251+509.09+375.755+509.645C376.199+510.134+375.866+516.794+375.515+523.59C375.468+524.5+380.17+518.584+380.125+519.483C380.097+520.033+375.32+527.406+375.294+527.943C375.027+533.396+374.86+538.047+375.228+538.452C385.166+549.396+395.103+560.34+405.262+570.721C405.871+571.344+407.24+564.456+408.682+556.863C408.767+556.412+403.79+542.303+403.876+541.848C403.995+541.218+409.178+554.24+409.297+553.61C410.838+545.461+413.002+538.261+413.002+538.261C413.002+538.261+412.983+543.139+412.195+548.708C412.12+549.243+417.24+544.897+417.159+545.451C417.133+545.629+411.909+550.701+411.883+550.88C410.417+560.912+408.348+573.376+409.177+574.184C420.617+585.349+437.137+602.875+449.574+611.517L458.298+597.643L453.009+614.756L473.469+628.317L473.059+602.157L433.92+535.04L426.421+532.461L413.977+532.681L422.141+530.989L387.05+518.919L412.076+525.506L404.172+510.804L416.344+526.63L432.133+530.786L408.376+493.024L400.134+490.971L387.125+493.587L397.991+490.438L378.769+485.651L394.62+488.033L389.049+479.802L396.569+488.705L406.59+490.424L379.717+447.962L375.514+445.068L367.413+443.431L373.694+443.814L364.587+437.544L377.649+444.695L359.395+415.852L372.076+435.038L370.584+426.504L373.585+437.321L394.114+468.38L394.761+463.978L391.313+453.428L395.159+461.271L396.744+450.479L395.657+471.054L417.555+504.387L420.003+499.101L418.701+489.807L420.874+497.22L425.633+486.944L419.032+506.452L477.022+593.084L478.593+554.781L467.175+542.045L445.277+536.44L464.838+539.472L446.14+511.932L427.439+501.707L444.434+509.418L420.099+473.574L438.072+497.813L438.623+483.32L439.471+499.7L459.636+526.895L461.519+513.284L462.25+530.489L479.032+549.581L477.506+487.699L458.57+468.53L445.051+467.598L431.589+472.831L442.857+467.446L413.812+465.444L435.399+465.98L428.14+454.882L436.758+465.685L456.324+465.891L426.843+438.745L406.231+430.032L423.303+435.086L396.031+406.895L414.68+424.155L414.32+407.904L417.769+427.015L442.824+450.206L441.306+423.757L432.729+410.254L441.048+419.264L440.175+404.061L444.203+430.838L452.599+419.948L445.214+436.915L446.132+452.504L478.475+483.204L478.249+456.311L456.132+430.876L478.193+449.582L478.07+435.005L453.78+400.283L466.026+415.782L464.935+400.115L468.781+419.269L478.036+430.983L477.708+391.946L469.723+373.575L477.674+387.924L477.485+365.458L478.601+400.341L497.552+374.266L486.929+392.042L499.943+387.696L485.186+394.959L479.361+403.035L479.894+440.756L495.819+423.67L480.023+444.77L480.539+460.898L502.898+443.22L497.93+408.244L505.568+440.688L538.504+412.197L520.778+430.275L540.118+428.481L519.723+433.046L481.462+465.587L483.21+523.008L498.855+509.435L498.531+491.868L494.359+479.638L498.465+488.335L498.114+469.294L499.72+495.925L505.812+486.674L499.851+498.089L500.411+507.365L525.28+475.043L525.031+462.252L520.289+450.399L524.967+458.971L524.666+443.461L526.803+473.064L542.148+453.12L542.245+437.18L543.577+451.263L552.044+440.258L535.447+464.138L558.818+452.89L545.652+460.034L555.007+459.44L543.639+461.126L533.848+466.439L509.594+501.337L519.334+499.792L526.618+492.991L521.622+499.429L531.814+497.811L508.953+503.591L484.121+525.914L486.898+591.85L507.636+562.056L500.513+522.202L505.72+540.726L509.392+525.401L507.293+546.324L510.396+557.362L538.621+517.54L538.432+510.605L534.147+501.504L538.366+508.16L537.486+475.857L540.37+501.305L544.801+490.419L540.839+504.317L542.377+514.194L573.872+470.11L573.374+449.171L575.596+467.016L598.646+435.433L586.23+454.154L594.848+448.185L584.837+456.254L562.093+490.548L580.568+482.157L582.592+477.972L582.577+470.669L583.604+475.879L586.52+469.847L582.236+481.092L601.999+472.424L591+478.354L598.233+478.655L589.267+479.289L573.901+487.575L595.555+485.834L583.902+487.262L589.821+489.431L581.664+487.536L571.71+488.756L559.679+495.243L521.883+553.254L546.102+542.319L518.748+559.638L490.708+601.104L491.294+626.107L509.302+614.715L517.022+599.615L516.936+584.578L519.215+595.325L526.893+580.304L515.375+611.308C535.803+597.638+553.48+582.407+570.439+566.769C570.741+566.49+570.191+563.06+569.233+558.123C569.147+557.68+559.59+549.054+559.498+548.588C559.41+548.143+568.787+555.86+568.694+555.396C567.577+549.833+566.112+542.983+564.781+536.631C564.623+535.878+555.502+525.217+555.349+524.481C555.222+523.87+564.062+533.183+563.94+532.588C562.227+524.294+560.962+517.658+561.385+517.265C561.882+516.803+567.336+539.464+569.433+547.918C569.547+548.377+577.579+535.384+577.692+535.842C577.912+536.727+570.213+551.056+570.429+551.917C572.095+558.572+573.572+564.177+573.975+563.801C581.793+556.489+596.552+542.271+610.287+529.212C610.573+528.94+611.534+522.28+612.58+514.818C612.64+514.386+605.586+503.409+605.647+502.972C605.761+502.161+612.989+511.886+613.103+511.071C614.289+502.576+615.458+494.236+615.776+493.934C615.969+493.751+615.542+499.427+615.014+506.056C614.993+506.326+620.212+500.889+620.19+501.162C620.161+501.524+614.891+507.598+614.862+507.964C614.16+516.715+613.372+526.282+613.62+526.047C622.295+517.82+630.28+510.342+635.468+505.744C626.863+515.536+613.565+529.828+599.876+544.133C599.554+544.469+612.002+540.899+622.245+538.003C622.706+537.872+627.434+524.983+627.885+524.856C628.538+524.672+623.558+537.175+624.183+536.999C629.884+535.397+634.219+534.212+634.027+534.412C633.822+534.626+631.024+536.121+625.502+537.961C622.915+538.823+620.026+539.777+617.1+540.742C616.334+540.995+627.579+544.612+626.813+544.865C626.362+545.013+613.9+541.798+613.452+541.946C604.715+544.83+596.631+547.514+596.344+547.814C582.645+562.06+568.924+575.937+559.459+584.98C558.711+585.694+572.273+584.162+586.032+582.597C586.473+582.547+598.26+563.859+598.7+563.809C599.34+563.736+588.633+582.302+589.27+582.229C602.285+580.751+614.478+579.399+613.76+580.07C612.851+580.919+591.803+584.178+574.585+586.974C573.937+587.08+586.945+593.778+586.309+593.882C585.724+593.977+571.495+587.478+570.923+587.572C560.87+589.222+552.872+590.625+552.313+591.135C534.523+607.347+515.399+622.45+494.1+635.739C496.015+648.128+494.62+659.847+499.973+667.466L535.703+649.48L534.063+629.861L527.94+618.068L533.69+625.398L532.688+613.4L536.483+634.744L549.672+619.874L537.655+638.553L540.529+647.899C552.372+645.519+563.222+640.248+573.539+633.426C574.15+633.022+574.482+628.849+574.73+623.55C574.763+622.822+561.78+611.93+561.812+611.167C561.835+610.578+574.875+620.124+574.899+619.521C575.25+610.379+575.713+595.964+576.679+595.269C577.423+594.733+577.842+607.052+578.47+615.023C578.541+615.917+589.345+601.271+589.416+602.144C589.479+602.917+578.808+619.211+578.871+619.949C579.328+625.287+579.798+629.456+580.327+629.053C589.375+622.148+598.729+613.761+608.126+605.416C608.43+605.146+608.799+601.087+609.173+596.68C609.227+596.047+604.45+590.064+604.504+589.427C604.558+588.79+609.442+593.499+609.496+592.879C609.836+588.928+610.168+585.515+610.446+585.269C611.23+584.574+611.703+602.246+612.487+601.554C617.093+597.491+621.698+593.493+626.272+589.74C626.968+589.17+633.066+570.524+633.76+569.966C634.226+569.591+629.289+587.299+629.754+586.929C632.563+584.7+646.896+569.282+649.668+567.316C648.603+570.059+631.88+589.081+625.657+595.401C625.133+595.933+640.841+591.041+640.303+591.58C639.579+592.307+622.605+598.468+621.865+599.202C610.794+610.184+598.478+621.525+600.024+621.525C608.788+621.064+616.194+620.691+622.398+620.394C623.265+620.352+635.485+610.174+636.306+610.135C637.176+610.094+626.644+620.194+627.463+620.156C692.59+617.166+596.798+624.454+595.353+625.711C578.296+640.544+558.491+655.118+539.824+661.733C538.7+662.131+550.258+665.353+564.062+668.96C564.424+669.055+570.676+665.035+577.027+660.948C577.525+660.628+580.651+646.509+581.147+646.19C582.049+645.609+578.977+660.025+579.848+659.467C584.815+656.282+590.339+652.45+590.638+652.528C591.347+652.712+567.709+669.909+568.426+670.095C586.56+674.784+606.597+679.691+606.597+679.691C606.597+679.691+536.895+664.902+534.704+666.746C522.642+676.92+504.439+684.698+504.222+686.697C501.067+715.794+500.835+825.344+529.465+835.714C547.883+842.387+552.643+842.408+556.689+866.733C560.735+891.058+602.871+915.849+636.934+932.604C607.396+911.95+562.173+915.084+549.018+878.282C535.862+841.481+532.169+851.466+518.651+849.896C531.654+866.504+532.253+877.194+528.373+892.181C524.492+907.169+525.126+913.808+537.53+932.016C549.934+950.223+549.855+980.095+554.085+1004.02C547.048+979.497+544.982+947.122+528.171+931.355C511.36+915.587+512.861+905.657+517.627+890.836C522.394+876.015+513.004+867.138+500.568+853.95C498.435+867.349+487.596+884.109+500.735+898.857C513.873+913.605+513.53+917.434+499.194+933.511C484.86+949.588+495.559+978.7+498.009+1002.15C494.435+979.925+475.584+954.086+488.786+935.202C501.988+916.317+493.333+911.885+483.79+898.939C474.247+885.993+476.955+869.446+477.589+853.931C467.594+864.695+457.777+874.076+460.471+889.098C463.165+904.119+460.576+912.58+442.318+926.389C424.061+940.199+421.3+966.025+413.309+985.984C417.522+964.701+417.302+938.505+434.251+923.79C451.2+909.076+454.282+898.175+447.855+883.389C441.429+868.603+452.121+861.551+458.561+851.595C443.849+843.174+430.136+846.758+416.043+879.588C401.949+912.418+358.886+906.119+332.43+920.589L332.433+920.595Z" opacity="0.33" fill="#000000"/>
</g>
</g>
</svg>
