<?xml version="1.0" encoding="UTF-8"?>
<!DOCTYPE svg PUBLIC "-//W3C//DTD SVG 1.1//EN"
  "http://www.w3.org/Graphics/SVG/1.1/DTD/svg11.dtd">
<!-- Created with Inkpad (http://www.taptrix.com/) --><svg xmlns:inkpad="http://taptrix.com/inkpad/svg_extensions" height="900pt" xmlns:xlink="http://www.w3.org/1999/xlink" xmlns="http://www.w3.org/2000/svg" width="1440pt" version="1.1" viewBox="0,0,1440,900">
<defs>
<linearGradient y1="422.46" id="LinearGradient" x1="28.926" y2="285.42" x2="-112.07" gradientUnits="userSpaceOnUse" gradientTransform="matrix(-0.695082 0 0 0.645927 553.736 220.597)">
<stop stop-color="#008400" offset="0"/>
<stop stop-color="#00a000" offset="1"/>
</linearGradient>
<linearGradient y1="422.46" id="LinearGradient_2" x1="28.926" y2="285.42" x2="-112.07" gradientUnits="userSpaceOnUse" gradientTransform="matrix(-0.695082 0 0 0.645927 325.664 -8.11093)">
<stop stop-color="#008400" offset="0"/>
<stop stop-color="#00a000" offset="1"/>
</linearGradient>
<linearGradient y1="456.75" id="LinearGradient_3" x1="-53.632" y2="216.93" x2="-135.5" gradientUnits="userSpaceOnUse" gradientTransform="matrix(-0.695082 0 0 0.645927 513.363 60.981)">
<stop stop-color="#006400" offset="0"/>
<stop stop-color="#00a000" offset="1"/>
</linearGradient>
<linearGradient y1="1272.6" id="LinearGradient_4" x1="462.51" y2="323.12" x2="428.25" gradientUnits="userSpaceOnUse" gradientTransform="matrix(0.645927 0 0 0.645927 250.017 60.9791)">
<stop stop-color="#000000" offset="0"/>
<stop stop-color="#986601" offset="0.5"/>
<stop stop-color="#000400" offset="1"/>
</linearGradient>
</defs>
<g id="layer1" inkpad:layerName="layer1">
<g opacity="1">
<g opacity="1">
<path d="M1097.54+459.42C1094.85+500.404+1057.23+531.588+1013.5+529.071C969.768+526.554+936.495+491.288+939.181+450.303C941.866+409.319+979.492+378.135+1023.22+380.652C1066.95+383.17+1100.22+418.435+1097.54+459.42Z" opacity="0.5" fill="#000000"/>
<path d="M1089.79+458.973C1087.1+499.958+1049.48+531.142+1005.75+528.625C962.02+526.108+928.747+490.842+931.433+449.857C934.118+408.873+971.744+377.689+1015.47+380.206C1059.2+382.724+1092.47+417.989+1089.79+458.973Z" opacity="1" fill="#015a01"/>
</g>
<g opacity="1">
<path d="M810.469+614.863C807.784+655.847+770.158+687.031+726.429+684.514C682.7+681.996+649.428+646.731+652.113+605.746C654.798+564.762+692.424+533.578+736.153+536.095C779.881+538.613+813.154+573.878+810.469+614.863Z" opacity="0.5" fill="#000400"/>
<path d="M818.726+608.049C816.041+649.033+778.415+680.217+734.686+677.7C690.958+675.183+657.685+639.917+660.37+598.932C663.056+557.948+700.682+526.764+744.411+529.281C788.139+531.799+821.411+567.064+818.726+608.049Z" opacity="1" fill="#006000"/>
</g>
<g opacity="1">
<path d="M701.64+637.816C698.954+678.801+732.227+714.066+775.955+716.584C819.684+719.101+857.31+687.918+859.996+646.933C862.681+605.948+829.409+570.682+785.68+568.165C741.952+565.648+704.325+596.831+701.64+637.816Z" opacity="0.5" fill="#000400"/>
<path d="M705.978+630.777C703.293+671.761+736.565+707.027+780.294+709.544C824.022+712.062+861.649+680.878+864.334+639.893C867.019+598.909+833.747+563.643+790.019+561.125C746.29+558.608+708.664+589.792+705.978+630.777Z" opacity="1" fill="#339900"/>
</g>
<g opacity="1">
<path d="M883.794+658.538C881.108+699.522+914.381+734.788+958.11+737.305C1001.84+739.823+1039.46+708.639+1042.15+667.654C1044.83+626.67+1011.56+591.404+967.834+588.887C924.106+586.369+886.479+617.553+883.794+658.538Z" opacity="0.5" fill="#000000"/>
<path d="M872.387+654.236C869.702+695.221+902.974+730.487+946.703+733.004C990.431+735.521+1028.06+704.338+1030.74+663.353C1033.43+622.368+1000.16+587.103+956.428+584.585C912.699+582.068+875.072+613.251+872.387+654.236Z" opacity="1" fill="url(#LinearGradient)"/>
</g>
<g opacity="1">
<path d="M1033.86+398.952C1031.18+439.937+993.553+471.121+949.823+468.604C906.095+466.086+872.822+430.821+875.508+389.836C878.193+348.852+915.819+317.668+959.548+320.185C1003.28+322.702+1036.55+357.968+1033.86+398.952Z" opacity="0.5" fill="#000000"/>
<path d="M1025.88+402.127C1023.19+443.111+985.567+474.296+941.838+471.778C898.11+469.261+864.837+433.996+867.522+393.011C870.208+352.026+907.834+320.842+951.563+323.359C995.291+325.877+1028.56+361.142+1025.88+402.127Z" opacity="1" fill="#00ac00"/>
</g>
<g opacity="1">
<path d="M988.395+673.169C985.71+714.153+948.084+745.337+904.355+742.82C860.627+740.302+827.354+705.037+830.039+664.052C832.725+623.068+870.35+591.884+914.08+594.401C957.808+596.919+991.08+632.184+988.395+673.169Z" opacity="0.5" fill="#000000"/>
<path d="M984.952+665.681C982.267+706.665+944.641+737.85+900.912+735.332C857.184+732.815+823.911+697.55+826.596+656.565C829.282+615.581+866.908+584.396+910.636+586.914C954.365+589.431+987.638+624.696+984.952+665.681Z" opacity="1" fill="#006400"/>
</g>
<g opacity="1">
<path d="M1110.08+533.788C1107.4+574.772+1069.77+605.956+1026.04+603.439C982.313+600.922+949.04+565.656+951.726+524.672C954.411+483.687+992.037+452.503+1035.77+455.02C1079.49+457.538+1112.77+492.803+1110.08+533.788Z" opacity="0.5" fill="#000000"/>
<path d="M1102.3+533.34C1099.61+574.324+1061.99+605.508+1018.26+602.991C974.532+600.474+941.259+565.208+943.944+524.224C946.629+483.239+984.255+452.055+1027.98+454.572C1071.71+457.09+1104.99+492.355+1102.3+533.34Z" opacity="1" fill="#007c00"/>
</g>
<g opacity="1">
<path d="M949.742+383.738C947.057+424.722+909.431+455.907+865.702+453.389C821.974+450.872+788.701+415.607+791.386+374.622C794.072+333.637+831.697+302.453+875.426+304.97C919.155+307.488+952.427+342.753+949.742+383.738Z" opacity="0.5" fill="#000000"/>
<path d="M937.916+386.702C935.23+427.686+897.604+458.871+853.875+456.353C810.147+453.836+776.875+418.571+779.56+377.586C782.245+336.601+819.871+305.417+863.6+307.934C907.328+310.452+940.601+345.717+937.916+386.702Z" opacity="1" fill="#009c00"/>
</g>
<g opacity="1">
<path d="M905.744+398.032C903.059+439.016+865.433+470.2+821.703+467.683C777.975+465.166+744.702+429.901+747.388+388.916C750.073+347.931+787.699+316.747+831.428+319.264C875.157+321.782+908.429+357.047+905.744+398.032Z" opacity="0.5" fill="#000000"/>
<path d="M905.266+405.326C902.581+446.31+864.955+477.494+821.226+474.977C777.497+472.459+744.225+437.194+746.91+396.209C749.595+355.225+787.221+324.041+830.95+326.558C874.679+329.075+907.951+364.34+905.266+405.326Z" opacity="1" fill="#008c00"/>
</g>
<g opacity="1">
<path d="M1094.97+629.563C1092.28+670.548+1054.66+701.732+1010.93+699.214C967.198+696.697+933.925+661.432+936.611+620.447C939.296+579.463+976.922+548.279+1020.65+550.796C1064.38+553.313+1097.65+588.578+1094.97+629.563Z" opacity="0.5" fill="#000000"/>
<path d="M1087.46+625.486C1084.77+666.471+1047.15+697.655+1003.42+695.138C959.688+692.62+926.415+657.355+929.1+616.37C931.786+575.386+969.412+544.201+1013.14+546.719C1056.87+549.236+1090.14+584.501+1087.46+625.486Z" opacity="1" fill="#008400"/>
</g>
<g opacity="1">
<path d="M1095.87+567.132C1093.19+608.117+1055.56+639.301+1011.83+636.784C968.104+634.266+934.831+599.001+937.517+558.016C940.202+517.032+977.828+485.847+1021.56+488.365C1065.28+490.882+1098.56+526.147+1095.87+567.132Z" opacity="0.5" fill="#000000"/>
<path d="M1087.91+570.308C1085.22+611.292+1047.6+642.477+1003.87+639.959C960.141+637.442+926.868+602.177+929.554+561.192C932.239+520.208+969.865+489.023+1013.59+491.541C1057.32+494.058+1090.59+529.323+1087.91+570.308Z" opacity="1" fill="#007800"/>
</g>
<g opacity="1">
<path d="M1059.32+444.193C1056.64+485.177+1019.01+516.361+975.284+513.844C931.556+511.326+898.283+476.061+900.969+435.076C903.654+394.092+941.281+362.908+985.01+365.425C1028.74+367.942+1062.01+403.208+1059.32+444.193Z" opacity="0.5" fill="#000400"/>
<path d="M1051.36+447.368C1048.68+488.353+1011.05+519.537+967.321+517.019C923.593+514.502+890.32+479.237+893.006+438.252C895.691+397.268+933.317+366.083+977.046+368.601C1020.77+371.118+1054.05+406.383+1051.36+447.368Z" opacity="1" fill="#339900"/>
</g>
<g opacity="1">
<path d="M844.139+401.111C841.453+442.095+874.725+477.361+918.454+479.878C962.183+482.396+999.809+451.212+1002.49+410.227C1005.18+369.243+971.908+333.977+928.179+331.46C884.451+328.942+846.824+360.126+844.139+401.111Z" opacity="0.5" fill="#000000"/>
<path d="M836.176+404.287C833.49+445.271+866.763+480.537+910.491+483.054C954.219+485.571+991.846+454.388+994.532+413.403C997.217+372.418+963.945+337.153+920.216+334.635C876.488+332.118+838.861+363.302+836.176+404.287Z" opacity="1" fill="#00b000"/>
</g>
<g opacity="1">
<path d="M1062.44+627.093C1059.76+668.078+1022.13+699.262+978.403+696.745C934.675+694.227+901.402+658.962+904.087+617.977C906.773+576.993+944.398+545.809+988.127+548.326C1031.86+550.843+1065.13+586.108+1062.44+627.093Z" opacity="0.5" fill="#000000"/>
<path d="M1051.04+622.792C1048.35+663.776+1010.73+694.961+966.996+692.443C923.268+689.926+889.995+654.661+892.681+613.676C895.366+572.691+932.992+541.507+976.721+544.024C1020.45+546.542+1053.72+581.807+1051.04+622.792Z" opacity="1" fill="#006000"/>
</g>
<g opacity="1">
<path d="M1049.77+558.948C1047.09+599.932+1009.46+631.116+965.732+628.599C922.004+626.081+888.731+590.816+891.416+549.831C894.102+508.847+931.728+477.663+975.456+480.18C1019.19+482.698+1052.46+517.963+1049.77+558.948Z" opacity="0.5" fill="#000400"/>
<path d="M1041.75+562.13C1039.07+603.115+1001.44+634.299+957.713+631.782C913.984+629.264+880.711+593.999+883.397+553.014C886.082+512.03+923.708+480.846+967.437+483.363C1011.17+485.88+1044.44+521.146+1041.75+562.13Z" opacity="1" fill="#009400"/>
</g>
<g opacity="1">
<path d="M1027.85+439.98C1025.16+480.965+987.536+512.149+943.807+509.632C900.079+507.114+866.806+471.849+869.492+430.864C872.177+389.88+909.803+358.696+953.532+361.213C997.26+363.73+1030.53+398.995+1027.85+439.98Z" opacity="0.5" fill="#000000"/>
<path d="M1023.45+447.017C1020.77+488.001+983.141+519.185+939.413+516.668C895.684+514.151+862.411+478.885+865.097+437.9C867.782+396.916+905.408+365.732+949.137+368.249C992.865+370.767+1026.14+406.032+1023.45+447.017Z" opacity="1" fill="#008400"/>
</g>
<g opacity="1">
<path d="M1045.08+497.442C1042.39+538.426+1004.76+569.61+961.036+567.093C917.307+564.575+884.035+529.31+886.72+488.325C889.405+447.341+927.031+416.157+970.76+418.674C1014.49+421.192+1047.76+456.457+1045.08+497.442Z" opacity="0.5" fill="#000000"/>
<path d="M1037.11+500.628C1034.43+541.612+996.801+572.796+953.072+570.279C909.344+567.762+876.071+532.496+878.756+491.512C881.442+450.527+919.068+419.343+962.797+421.86C1006.53+424.378+1039.8+459.643+1037.11+500.628Z" opacity="1" fill="#007800"/>
</g>
<g opacity="1">
<path d="M762.11+656.206C759.425+697.19+792.697+732.456+836.426+734.973C880.154+737.491+917.781+706.307+920.466+665.322C923.151+624.338+889.879+589.072+846.151+586.554C802.422+584.037+764.796+615.221+762.11+656.206Z" opacity="0.5" fill="#000000"/>
<path d="M770.074+653.019C767.389+694.004+800.661+729.269+844.39+731.787C888.118+734.304+925.744+703.12+928.43+662.136C931.115+621.151+897.843+585.886+854.114+583.368C810.386+580.851+772.759+612.035+770.074+653.019Z" opacity="1" fill="#008c00"/>
</g>
<g opacity="1">
<path d="M628.147+527.361C625.461+568.346+658.733+603.611+702.462+606.129C746.191+608.646+783.817+577.462+786.503+536.478C789.188+495.493+755.916+460.227+712.187+457.71C668.459+455.193+630.832+486.376+628.147+527.361Z" opacity="0.5" fill="#000400"/>
<path d="M636.11+524.175C633.425+565.159+666.697+600.425+710.426+602.942C754.154+605.46+791.781+574.276+794.466+533.291C797.152+492.307+763.88+457.041+720.151+454.524C676.422+452.006+638.796+483.19+636.11+524.175Z" opacity="1" fill="#007400"/>
</g>
<g opacity="1">
<path d="M690.948+408.047C688.262+449.031+721.535+484.297+765.263+486.815C808.992+489.332+846.618+458.148+849.303+417.163C851.989+376.179+818.717+340.913+774.988+338.396C731.26+335.879+693.633+367.062+690.948+408.047Z" opacity="0.5" fill="#000000"/>
<path d="M696.532+412.018C693.846+453.003+727.118+488.269+770.848+490.786C814.576+493.303+852.202+462.12+854.888+421.135C857.573+380.15+824.301+344.885+780.572+342.367C736.844+339.85+699.217+371.034+696.532+412.018Z" opacity="1" fill="#007c00"/>
</g>
<g opacity="1">
<path d="M805.557+440.715C802.872+481.699+836.144+516.965+879.873+519.482C923.601+522+961.228+490.816+963.913+449.831C966.599+408.847+933.327+373.581+889.598+371.064C845.869+368.546+808.243+399.73+805.557+440.715Z" opacity="0.5" fill="#000000"/>
<path d="M801.163+447.751C798.477+488.736+831.749+524.001+875.479+526.519C919.207+529.036+956.833+497.852+959.519+456.867C962.204+415.883+928.932+380.617+885.203+378.1C841.474+375.583+803.848+406.766+801.163+447.751Z" opacity="1" fill="#006c00"/>
</g>
<g opacity="1">
<path d="M633.262+475.793C630.577+516.778+663.849+552.044+707.578+554.561C751.306+557.078+788.933+525.895+791.618+484.91C794.303+443.925+761.031+408.66+717.302+406.142C673.574+403.625+635.947+434.809+633.262+475.793Z" opacity="0.5" fill="#000000"/>
<path d="M641.52+468.979C638.834+509.964+672.106+545.23+715.835+547.747C759.564+550.264+797.19+519.081+799.876+478.096C802.561+437.111+769.289+401.846+725.56+399.328C681.831+396.811+644.205+427.995+641.52+468.979Z" opacity="1" fill="#008000"/>
</g>
<g opacity="1">
<path d="M675.243+456.399C672.557+497.384+705.829+532.649+749.558+535.167C793.287+537.684+830.913+506.5+833.598+465.516C836.284+424.531+803.012+389.265+759.283+386.748C715.555+384.231+677.928+415.414+675.243+456.399Z" opacity="0.5" fill="#000000"/>
<path d="M686.887+457.07C684.202+498.054+717.474+533.32+761.203+535.837C804.931+538.354+842.558+507.171+845.243+466.186C847.929+425.202+814.656+389.936+770.927+387.418C727.199+384.901+689.573+416.085+686.887+457.07Z" opacity="1" fill="url(#LinearGradient_2)"/>
</g>
<g opacity="1">
<path d="M838.815+591.103C836.13+632.088+798.504+663.272+754.775+660.755C711.047+658.237+677.774+622.972+680.46+581.987C683.145+541.003+720.771+509.818+764.5+512.336C808.228+514.853+841.501+550.118+838.815+591.103Z" opacity="0.5" fill="#000400"/>
<path d="M846.779+587.917C844.094+628.901+806.467+660.086+762.739+657.568C719.01+655.051+685.738+619.786+688.423+578.801C691.108+537.816+728.734+506.632+772.463+509.15C816.191+511.667+849.464+546.932+846.779+587.917Z" opacity="1" fill="#339900"/>
</g>
<g opacity="1">
<path d="M850.229+515.521C847.544+556.505+880.816+591.771+924.545+594.288C968.273+596.806+1005.9+565.622+1008.59+524.637C1011.27+483.653+977.998+448.387+934.27+445.87C890.541+443.352+852.915+474.536+850.229+515.521Z" opacity="0.5" fill="#000000"/>
<path d="M845.891+522.56C843.206+563.545+876.478+598.811+920.206+601.328C963.935+603.845+1001.56+572.662+1004.25+531.677C1006.93+490.692+973.66+455.427+929.931+452.909C886.203+450.392+848.576+481.576+845.891+522.56Z" opacity="1" fill="url(#LinearGradient_3)"/>
</g>
<g opacity="1">
<path d="M815.626+505.16C812.941+546.144+775.315+577.329+731.586+574.811C687.858+572.294+654.585+537.029+657.27+496.044C659.956+455.059+697.582+423.875+741.31+426.392C785.039+428.91+818.311+464.175+815.626+505.16Z" opacity="0.5" fill="#000000"/>
<path d="M823.114+509.236C820.429+550.22+782.803+581.404+739.074+578.887C695.345+576.37+662.073+541.104+664.758+500.119C667.443+459.135+705.069+427.951+748.798+430.468C792.527+432.986+825.799+468.251+823.114+509.236Z" opacity="1" fill="#339900"/>
</g>
<g opacity="1">
<path d="M695.187+508.011C692.502+548.996+725.773+584.261+769.502+586.779C813.231+589.296+850.857+558.113+853.543+517.128C856.228+476.143+822.956+440.877+779.227+438.36C735.499+435.843+697.872+467.027+695.187+508.011Z" opacity="0.5" fill="#000400"/>
<path d="M707.069+505.046C704.384+546.03+737.656+581.296+781.385+583.813C825.113+586.33+862.74+555.147+865.425+514.162C868.111+473.177+834.839+437.912+791.11+435.394C747.381+432.877+709.755+464.061+707.069+505.046Z" opacity="1" fill="#44aa00"/>
</g>
<g opacity="1">
<path d="M780.257+469.27C777.571+510.254+810.843+545.52+854.572+548.037C898.3+550.554+935.927+519.371+938.612+478.386C941.298+437.401+908.025+402.136+864.296+399.618C820.568+397.101+782.942+428.285+780.257+469.27Z" opacity="0.5" fill="#000000"/>
<path d="M779.781+476.531C777.096+517.516+810.367+552.781+854.096+555.299C897.825+557.816+935.451+526.633+938.137+485.648C940.822+444.663+907.55+409.398+863.821+406.88C820.092+404.363+782.466+435.547+779.781+476.531Z" opacity="1" fill="#009400"/>
</g>
<g opacity="1">
<path d="M861.938+605.848C859.253+646.832+892.525+682.098+936.254+684.615C979.982+687.133+1017.61+655.949+1020.29+614.964C1022.98+573.98+989.707+538.714+945.979+536.197C902.25+533.679+864.624+564.863+861.938+605.848Z" opacity="0.5" fill="#000000"/>
<path d="M852.372+603.475C849.687+644.459+882.959+679.725+926.688+682.242C970.416+684.76+1008.04+653.576+1010.73+612.591C1013.41+571.607+980.141+536.341+936.412+533.824C892.684+531.306+855.058+562.49+852.372+603.475Z" opacity="1" fill="#2ca02c"/>
</g>
<g opacity="1">
<path d="M826.599+552.774C823.913+593.759+857.185+629.025+900.914+631.542C944.643+634.059+982.269+602.876+984.955+561.891C987.64+520.906+954.368+485.641+910.639+483.123C866.911+480.606+829.284+511.789+826.599+552.774Z" opacity="0.5" fill="#000000"/>
<path d="M818.873+552.33C816.188+593.314+849.46+628.58+893.189+631.097C936.917+633.614+974.543+602.431+977.229+561.446C979.914+520.462+946.642+485.196+902.914+482.678C859.185+480.161+821.559+511.345+818.873+552.33Z" opacity="1" fill="#217821"/>
</g>
<g opacity="1">
<path d="M731.259+515.616C728.436+556.592+761.589+591.956+805.309+594.603C849.029+597.25+886.761+566.179+889.585+525.202C892.408+484.226+859.255+448.862+815.535+446.215C771.815+443.568+734.083+474.639+731.259+515.616Z" opacity="0.5" fill="#000000"/>
<path d="M730.784+522.878C727.96+563.854+761.113+599.218+804.833+601.865C848.553+604.512+886.285+573.44+889.109+532.464C891.932+491.488+858.779+456.124+815.059+453.477C771.339+450.83+733.607+481.901+730.784+522.878Z" opacity="1" fill="#217821"/>
</g>
<g opacity="1">
<path d="M717.77+603.936C715.085+644.92+748.357+680.186+792.086+682.703C835.814+685.221+873.44+654.037+876.126+613.052C878.811+572.068+845.539+536.802+801.81+534.285C758.082+531.767+720.456+562.951+717.77+603.936Z" opacity="0.5" fill="#000000"/>
<path d="M722.109+596.891C719.424+637.876+752.696+673.141+796.425+675.658C840.153+678.176+877.78+646.992+880.465+606.007C883.15+565.023+849.878+529.757+806.149+527.24C762.421+524.722+724.795+555.906+722.109+596.891Z" opacity="1" fill="#006400"/>
</g>
<g opacity="1">
<path d="M926.811+541.057C924.126+582.042+886.5+613.226+842.771+610.709C799.042+608.191+765.77+572.926+768.455+531.941C771.14+490.957+808.766+459.773+852.495+462.29C896.223+464.807+929.496+500.073+926.811+541.057Z" opacity="0.5" fill="#000000"/>
<path d="M931.149+534.018C928.464+575.002+890.838+606.186+847.109+603.669C803.381+601.152+770.108+565.886+772.794+524.902C775.479+483.917+813.105+452.733+856.834+455.25C900.562+457.768+933.835+493.033+931.149+534.018Z" opacity="1" fill="#00ac00"/>
</g>
<g opacity="1">
<path d="M807.98+634.721C805.295+675.706+838.567+710.971+882.296+713.489C926.024+716.006+963.651+684.822+966.336+643.837C969.021+602.853+935.749+567.587+892.02+565.07C848.292+562.553+810.666+593.736+807.98+634.721Z" opacity="0.5" fill="#000000"/>
<path d="M812.438+625.866C809.752+666.851+843.025+702.116+886.753+704.634C930.482+707.151+968.108+675.967+970.793+634.982C973.479+593.998+940.207+558.732+896.478+556.215C852.75+553.698+815.123+584.881+812.438+625.866Z" opacity="1" fill="#007800"/>
</g>
<g opacity="1">
<path d="M777.937+582.781C775.252+623.766+808.524+659.031+852.253+661.549C895.981+664.066+933.608+632.882+936.293+591.898C938.978+550.913+905.706+515.648+861.977+513.13C818.249+510.613+780.622+541.797+777.937+582.781Z" opacity="0.34496" fill="#000000"/>
<path d="M788.098+576.077C785.412+617.061+818.685+652.327+862.413+654.844C906.142+657.362+943.768+626.178+946.454+585.193C949.139+544.209+915.867+508.943+872.138+506.426C828.41+503.908+790.783+535.092+788.098+576.077Z" opacity="1" fill="#009800"/>
</g>
<path d="M686.341+991.152C729.109+974.85+777.509+964.396+781.346+936.571C785.183+908.747+812.904+897.006+832.26+884.266C860.497+865.68+865.474+745.385+856.884+714.384C856.336+712.405+847.015+708.454+833.965+703.667C831.278+702.682+765.509+726.38+762.55+725.334C761.272+724.882+796.247+713.184+804.26+709.73C805.024+709.401+787.078+703.902+787.854+703.571C789.044+703.062+808.958+707.721+810.135+707.221C818.393+703.717+825.776+700.627+824.294+700.716C814.642+701.298+788.375+689.779+759.684+673.214C759.129+672.893+750.782+672.274+741.001+671.6C740.319+671.552+734.214+675.079+733.52+675.032C732.951+674.993+737.796+671.38+737.221+671.341C723.927+670.433+709.532+669.481+708.792+669.045C708.29+668.748+715.647+668.75+724.421+668.803C724.99+668.807+716.416+663.426+716.994+663.43C717.565+663.434+727.288+668.822+727.866+668.826C739.709+668.909+752.562+669.027+751.9+668.63C741.734+662.528+731.427+655.883+721.589+649.001C720.753+648.416+713.465+647.186+705.059+645.844C704.428+645.743+696.765+648.443+696.122+648.341C695.471+648.237+701.84+645.332+701.183+645.228C690.251+643.499+678.825+641.718+677.781+640.974C677.114+640.498+683.857+640.761+691.449+641.109C692.256+641.146+684.728+634.292+685.547+634.33C686.359+634.368+695.518+641.298+696.326+641.336C704.343+641.707+711.768+642.018+711.08+641.521C704.915+637.057+698.946+632.441+693.309+627.876C693.034+627.653+687.21+626.659+680.771+625.579C680.139+625.473+674.424+628.28+673.786+628.173C673.131+628.064+677.552+625.04+676.9+624.931C670.082+623.789+663.667+622.704+663.382+622.471C662.767+621.967+690.241+625.372+689.634+624.87C682.747+619.181+676.426+613.642+670.932+608.656C670.263+608.048+655.667+603.898+655.022+603.307C654.602+602.922+668.124+606.091+667.715+605.713C656.377+595.262+649.308+587.888+649.308+587.888C649.308+587.888+654.842+591.687+661.906+596.615C662.37+596.939+660.338+590.711+660.813+591.044C661.385+591.443+664.466+598.404+665.051+598.814C672.011+603.689+679.806+609.217+685.133+613.195C685.979+613.827+685.445+583.522+686.291+584.156C687.299+584.911+687.828+593.817+688.391+602.158C688.433+602.784+694.766+596.901+694.808+597.517C694.851+598.128+688.603+605.24+688.647+605.834C689.068+611.581+689.545+616.357+690.271+616.902C701.913+625.65+713.912+634.707+726.2+643.233C726.73+643.602+727.115+630.154+727.49+615.803C727.516+614.806+709.625+593.209+709.651+592.208C709.69+590.703+727.497+612.073+727.537+610.582C727.9+596.8+728.427+581.991+728.941+582.342C729.648+582.825+730.567+603.157+731.461+621.094C731.501+621.889+743.754+607.811+743.793+608.594C743.832+609.358+731.657+624.983+731.696+625.732C732.315+637.829+732.912+647.815+733.408+648.145C754.531+662.267+776.451+674.371+798.822+680.3L795.213+656.725L784.424+651.83L766.927+651.894L781.485+650.497L763.065+642.14L749.421+641.386L759.839+640.676L742.546+632.83L767.971+642.523L763.429+629.023L769.707+642.862L793.993+652.444L774.682+620.078L758.019+609.921L772.579+616.553L760.032+595.524L768.054+606.168L767.117+596.847L770.322+609.178L782.959+625.944L785.655+618.132L783.454+609.341L786.556+615.519L790.302+604.664L785.441+628.538L799.638+651.677L801.97+638.379L799.475+631.124L802.47+635.523L804.517+623.847L804.292+642.4L810.66+635.639L804.26+644.982L804.101+658.064L812.22+683.35L859.638+691.913C863.44+677.597+861.564+672.53+859.517+663.197C821.485+633.675+793.385+603.942+762.154+568.786C761.759+568.341+756.28+566.491+748.851+564.102C748.409+563.96+722.047+571.716+721.593+571.57C721.048+571.395+746.408+563.318+745.846+563.14C729.179+557.823+705.627+550.601+704.8+549.654C704.209+548.978+718.779+552.49+732.374+555.73C732.724+555.814+724.45+539.855+724.798+539.938C725.107+540.012+734.038+556.126+734.345+556.2C745.527+558.86+755.496+561.186+755.01+560.621C748.598+553.181+737.957+538.549+726.495+522.209C725.766+521.169+677.685+507.615+676.95+506.563C676.674+506.169+690.847+509.411+703.506+512.373C704.281+512.554+697.634+499.353+698.393+499.532C699.172+499.715+705.333+512.512+706.432+512.709C714.682+514.191+722.807+516.936+722.807+516.936L702.345+487.196L683.118+476.123C683.118+476.123+700.982+484.91+700.19+483.747C692.225+472.049+683.791+459.909+679.551+453.773C685.076+459.207+698.573+477.699+711.629+495.596C711.963+496.053+712.612+493.467+713.337+490.158C713.426+489.749+709.827+479.724+709.918+479.298C710.007+478.884+713.786+488.067+713.875+487.644C714.905+482.781+715.965+477.615+716.422+478.241C717.013+479.051+713.552+497.777+714.138+498.58C724.287+512.471+735.444+528.054+739.717+532.556C740.344+533.217+745.384+503.283+746.011+503.945C746.563+504.527+746.059+512.425+745.533+520.485C745.462+521.563+751.449+514.573+751.38+515.64C751.338+516.292+745.239+525.009+745.199+525.647C744.794+532.113+744.526+537.629+744.984+538.112C757.34+551.15+769.693+564.19+782.335+576.563C783.093+577.304+784.902+569.142+786.81+560.144C786.923+559.609+780.844+542.845+780.958+542.305C781.116+541.559+787.467+557.035+787.625+556.288C789.665+546.631+792.477+538.104+792.477+538.104C792.477+538.104+792.391+543.89+791.33+550.491C791.229+551.125+797.721+545.999+797.613+546.656C797.578+546.867+790.945+552.852+790.91+553.066C788.941+564.956+786.181+579.729+787.213+580.693C801.455+594.003+822.002+614.887+837.529+625.209L848.673+608.803L841.806+629.071L867.359+645.276L867.174+614.242L818.816+534.404L809.421+531.301L793.774+531.49L804.059+529.53L760.093+515.01L791.474+522.969L781.724+505.484L796.826+524.326L816.624+529.347L787.233+484.417L776.898+481.935L760.509+484.962L774.21+481.29L750.104+475.5L770.002+478.417L763.103+468.622L772.444+479.226L785.021+481.323L751.773+430.801L746.526+427.343L736.362+425.355L744.253+425.846L732.883+418.355L749.215+426.913L726.63+392.595L742.33+415.426L740.562+405.294L744.198+418.143L769.615+455.103L770.484+449.885L766.283+437.351L771.019+446.676L773.149+433.884L771.522+458.283L798.63+497.949L801.774+491.693L800.256+480.661L802.894+489.467L809.008+477.304L800.461+500.407L872.272+603.504L874.732+558.078L860.538+542.905L833.077+536.13L857.632+539.839L834.474+507.064L811.091+494.827L832.36+504.072L802.218+461.414L824.508+490.269L825.384+473.082L826.244+492.516L851.251+524.89L853.791+508.756L854.492+529.169L875.35+551.912L874.214+478.501L850.651+455.653L833.666+454.469L816.675+460.599L830.91+454.277L794.418+451.734L821.552+452.495L812.566+439.288L823.264+452.153L847.86+452.509L811.139+420.14L785.336+409.685L806.736+415.779L772.805+382.182L796.032+402.764L795.785+383.484L799.879+406.173L831.087+433.827L829.512+402.445L818.901+386.378L829.245+397.113L828.341+379.075L833.065+410.861L843.759+397.991L834.26+418.075L835.216+436.571L875.491+473.174L875.547+441.273L848.062+410.974L875.561+433.29L875.592+415.999L845.493+374.672L860.693+393.128L859.52+374.538L864.112+397.28L875.6+411.229L875.682+364.921L865.875+343.084L875.69+360.15L875.737+333.501L876.698+374.884L900.854+344.064L887.274+365.089L903.691+360.009L885.046+368.538L877.62+378.085L877.812+422.831L898.051+402.657L877.923+427.593L878.368+446.728L906.703+425.887L900.9+384.371L910.092+422.899L951.862+389.294L929.346+410.635L953.684+408.618L927.984+413.915L879.47+452.294L880.94+520.417L900.781+504.406L900.596+483.566L895.506+469.035L900.559+479.375L900.357+456.787L902.04+488.386L909.816+477.448L902.177+490.953L902.763+501.96L934.439+463.765L934.288+448.591L928.476+434.503L934.25+444.698L934.067+426.298L936.379+461.425L955.924+437.857L956.248+418.949L957.744+435.662L968.529+422.657L947.36+450.888L976.886+437.68L960.243+446.078L972.012+445.428L957.698+447.362L945.321+453.608L914.386+494.863L926.65+493.086L935.895+485.061L929.532+492.669L942.365+490.809L913.55+497.533L882.048+523.869L884.705+602.097L911.155+566.876L902.704+519.56L909.016+541.564L913.827+523.406L910.924+548.213L914.684+561.323L950.675+514.251L950.525+506.023L945.252+495.202L950.472+503.123L949.776+464.8L953.078+495.003L958.788+482.116L953.63+498.579L955.439+510.304L995.594+458.193L995.233+433.353L997.8+454.534L1027.18+417.204L1011.33+439.338L1022.24+432.307L1009.56+441.821L980.526+482.368L1003.86+472.522L1006.46+467.57L1006.53+458.907L1007.76+465.093L1011.5+457.955L1005.97+471.268L1030.93+461.1L1017.02+468.072L1026.11+468.47L1014.83+469.17L995.409+478.91L1022.66+476.97L1007.99+478.596L1015.4+481.204L1005.17+478.909L992.64+480.298L977.432+487.924L929.178+556.517L959.765+543.685L925.156+564.072L889.378+613.096L889.798+642.757L912.582+629.348L922.479+611.481L922.562+593.644L925.291+606.405L935.134+588.632L920.261+625.342C946.117+609.244+968.534+591.28+990.054+572.828C990.437+572.499+989.789+568.428+988.648+562.566C988.545+562.04+976.638+551.752+976.528+551.199C976.423+550.671+988.115+559.878+988.004+559.328C986.67+552.723+984.915+544.59+983.322+537.047C983.133+536.153+971.8+523.454+971.617+522.58C971.465+521.855+982.462+532.953+982.315+532.246C980.267+522.399+978.761+514.519+979.298+514.055C979.928+513.51+986.498+540.422+989.028+550.462C989.165+551.007+999.428+535.642+999.565+536.185C999.83+537.236+989.969+554.189+990.229+555.211C992.239+563.115+994.026+569.772+994.537+569.329C1004.46+560.7+1023.2+543.921+1040.63+528.51C1040.99+528.189+1042.28+520.294+1043.69+511.448C1043.77+510.936+1035.04+497.875+1035.13+497.358C1035.28+496.396+1044.24+507.974+1044.4+507.008C1046+496.938+1047.57+487.052+1047.98+486.695C1048.22+486.479+1047.61+493.209+1046.86+501.069C1046.83+501.39+1053.46+494.97+1053.43+495.294C1053.39+495.724+1046.69+502.897+1046.65+503.331C1045.66+513.708+1044.54+525.052+1044.86+524.774C1055.87+515.065+1066+506.241+1072.58+500.818C1061.64+512.383+1044.74+529.259+1027.35+546.148C1026.94+546.545+1042.64+542.382+1055.55+539.006C1056.13+538.854+1062.24+523.593+1062.81+523.444C1063.63+523.229+1057.21+538.031+1058+537.827C1065.19+535.959+1070.65+534.579+1070.41+534.815C1070.15+535.067+1066.61+536.824+1059.65+538.975C1056.38+539.982+1052.74+541.097+1049.05+542.226C1048.08+542.521+1062.17+546.876+1061.21+547.172C1060.64+547.346+1045.01+543.46+1044.45+543.633C1033.42+547.003+1023.23+550.14+1022.86+550.494C1005.46+567.314+988.033+583.694+976.018+594.367C975.069+595.21+992.139+593.471+1009.46+591.694C1010.01+591.637+1025.07+569.537+1025.62+569.481C1026.43+569.398+1012.73+591.358+1013.53+591.276C1029.92+589.597+1045.26+588.064+1044.35+588.857C1043.2+589.857+1016.69+593.602+995.011+596.82C994.194+596.941+1010.46+604.961+1009.66+605.081C1008.93+605.19+991.119+597.4+990.399+597.508C977.739+599.407+967.666+601.025+966.957+601.626C944.384+620.754+920.15+638.558+893.203+654.199C895.454+668.905+893.552+682.798+900.185+691.867L945.334+670.738L943.521+647.457L935.973+633.433L943.109+642.161L942.001+627.924L946.502+653.263L963.272+635.701L947.927+657.788L951.422+668.89C966.342+666.136+980.049+659.946+993.107+651.914C993.88+651.438+994.351+646.491+994.73+640.206C994.778+639.343+978.596+626.348+978.645+625.443C978.682+624.744+994.956+636.143+994.993+635.428C995.55+624.586+996.315+607.489+997.538+606.671C998.48+606.039+998.851+620.654+999.54+630.113C999.618+631.173+1013.39+613.864+1013.46+614.899C1013.53+615.817+999.911+635.083+999.981+635.958C1000.49+642.293+1001.03+647.241+1001.7+646.766C1013.16+638.627+1025.03+628.734+1036.95+618.889C1037.33+618.571+1037.85+613.757+1038.37+608.533C1038.45+607.781+1032.52+600.657+1032.6+599.902C1032.67+599.147+1038.75+604.76+1038.83+604.025C1039.31+599.341+1039.77+595.294+1040.12+595.004C1041.11+594.184+1041.48+615.149+1042.48+614.333C1048.32+609.54+1054.16+604.825+1059.96+600.399C1060.84+599.727+1068.74+577.645+1069.62+576.987C1070.21+576.544+1063.78+597.52+1064.37+597.085C1067.93+594.457+1086.15+576.252+1089.66+573.934C1088.28+577.182+1067.02+599.65+1059.11+607.11C1058.45+607.738+1078.26+602.026+1077.58+602.662C1076.66+603.521+1055.24+610.731+1054.3+611.597C1040.24+624.559+1024.61+637.941+1026.56+637.95C1037.58+637.454+1046.9+637.053+1054.7+636.737C1055.79+636.693+1071.28+624.69+1072.32+624.649C1073.41+624.606+1060.04+636.525+1061.07+636.485C1142.99+633.314+1022.46+641.405+1020.63+642.888C998.998+660.384+973.913+677.557+950.36+685.296C948.942+685.762+963.433+689.651+980.742+694.009C981.195+694.123+989.108+689.392+997.144+684.58C997.773+684.203+1001.88+667.474+1002.51+667.098C1003.65+666.414+999.608+683.497+1000.71+682.839C1006.99+679.09+1013.99+674.577+1014.36+674.671C1015.25+674.894+985.316+695.155+986.215+695.38C1008.95+701.047+1034.08+706.983+1034.08+706.983C1034.08+706.983+946.639+689.038+943.861+691.213C928.566+703.212+905.582+712.332+905.285+714.702C900.949+749.198+899.271+879.143+935.134+891.61C958.205+899.631+964.19+899.683+968.969+928.561C973.747+957.438+1026.41+987.088+1069.02+1007.16C1032.15+982.489+975.251+985.945+959.178+942.216C943.103+898.487+938.335+910.31+921.359+908.369C937.496+928.144+938.113+940.827+933.045+958.583C927.977+976.339+928.69+984.218+944.054+1005.89C959.419+1027.56+958.942+1062.99+963.956+1091.4C955.419+1062.26+953.231+1023.85+932.296+1005.05C911.36+986.249+913.373+974.478+919.553+956.925C925.733+939.372+914.041+928.789+898.573+913.074C895.721+928.954+881.881+948.772+898.214+966.342C914.545+983.912+914.064+988.452+895.838+1007.44C877.612+1026.43+890.695+1061.02+893.479+1088.85C889.267+1062.47+865.894+1031.71+882.731+1009.38C899.568+987.06+888.743+981.753+876.909+966.342C865.075+950.93+868.688+931.318+869.683+912.918C856.98+925.628+844.518+936.7+847.716+954.534C850.912+972.367+847.55+982.388+824.421+998.663C801.292+1014.94+797.493+1045.56+787.195+1069.19C792.761+1043.96+792.816+1012.89+814.311+995.534C835.806+978.177+839.819+965.264+831.927+947.689C824.035+930.112+837.566+921.81+845.789+910.037C827.399+899.963+810.114+904.135+791.978+942.996C773.844+981.857+719.783+974.136+686.338+991.147L686.341+991.152Z" opacity="1" fill="url(#LinearGradient_4)"/>
<path d="M672.537+994.484C715.305+978.182+763.705+967.728+767.541+939.904C771.378+912.079+799.099+900.338+818.455+887.598C846.692+869.012+851.669+748.718+843.08+717.716C842.532+715.737+833.211+711.786+820.16+706.999C817.473+706.014+751.704+729.713+748.746+728.666C747.467+728.214+782.443+716.516+790.455+713.062C791.22+712.733+773.274+707.234+774.05+706.903C775.239+706.394+795.153+711.053+796.331+710.553C804.588+707.049+811.971+703.959+810.49+704.048C800.838+704.63+774.569+693.111+745.88+676.546C745.324+676.225+736.978+675.607+727.197+674.932C726.515+674.885+720.409+678.412+719.716+678.364C719.147+678.325+723.992+674.712+723.417+674.673C710.122+673.765+695.727+672.813+694.988+672.377C694.485+672.081+701.843+672.082+710.617+672.136C711.185+672.139+702.611+666.758+703.19+666.762C703.76+666.766+713.483+672.154+714.061+672.158C725.904+672.241+738.757+672.36+738.096+671.963C727.93+665.86+717.622+659.215+707.784+652.333C706.949+651.748+699.66+650.518+691.255+649.176C690.623+649.075+682.96+651.775+682.318+651.673C681.667+651.57+688.036+648.664+687.379+648.56C676.447+646.831+665.02+645.051+663.977+644.306C663.31+643.83+670.052+644.094+677.645+644.442C678.451+644.478+670.924+637.624+671.742+637.662C672.555+637.7+681.714+644.63+682.522+644.668C690.538+645.039+697.964+645.351+697.275+644.853C691.11+640.389+685.142+635.773+679.504+631.208C679.229+630.986+673.405+629.991+666.966+628.911C666.335+628.806+660.62+631.612+659.981+631.505C659.326+631.396+663.748+628.373+663.095+628.263C656.277+627.121+649.862+626.036+649.577+625.803C648.962+625.299+676.437+628.704+675.83+628.203C668.943+622.513+662.622+616.974+657.128+611.988C656.458+611.38+641.862+607.23+641.218+606.64C640.797+606.254+654.319+609.423+653.91+609.045C642.572+598.594+635.504+591.22+635.504+591.22C635.504+591.22+641.038+595.019+648.101+599.948C648.565+600.271+646.533+594.044+647.009+594.376C647.58+594.776+650.662+601.737+651.247+602.146C658.206+607.021+666.001+612.549+671.328+616.527C672.174+617.159+671.641+586.854+672.487+587.488C673.495+588.243+674.024+597.149+674.586+605.49C674.628+606.117+680.961+600.233+681.004+600.849C681.046+601.46+674.799+608.572+674.842+609.166C675.263+614.913+675.741+619.689+676.466+620.234C688.108+628.982+700.108+638.039+712.395+646.566C712.926+646.934+713.31+633.486+713.685+619.135C713.711+618.138+695.82+596.542+695.847+595.54C695.886+594.035+713.693+615.405+713.732+613.914C714.095+600.133+714.622+585.323+715.137+585.675C715.843+586.157+716.762+606.49+717.657+624.427C717.696+625.221+729.949+611.143+729.989+611.926C730.027+612.69+717.853+628.316+717.891+629.064C718.511+641.161+719.108+651.147+719.603+651.477C740.727+665.599+762.646+677.703+785.018+683.633L781.409+660.057L770.619+655.162L753.123+655.226L767.681+653.829L749.26+645.472L735.616+644.719L746.035+644.008L728.741+636.162L754.166+645.855L749.625+632.355L755.902+646.194L780.189+655.776L760.878+623.411L744.215+613.253L758.774+619.885L746.227+598.856L754.25+609.5L753.312+600.18L756.518+612.51L769.154+629.276L771.85+621.464L769.65+612.673L772.752+618.851L776.498+607.996L771.636+631.87L785.833+655.009L788.165+641.711L785.67+634.456L788.666+638.855L790.713+627.179L790.487+645.732L796.856+638.972L790.456+648.315L790.297+661.397L798.415+686.682L845.833+695.245C849.635+680.929+847.76+675.862+845.713+666.53C807.681+637.007+779.58+607.275+748.35+572.118C747.954+571.673+742.475+569.823+735.047+567.434C734.605+567.292+708.243+575.048+707.788+574.902C707.244+574.728+732.603+566.651+732.042+566.472C715.374+561.155+691.823+553.934+690.995+552.986C690.405+552.311+704.974+555.822+718.57+559.062C718.92+559.146+710.646+543.188+710.994+543.271C711.302+543.344+720.233+559.458+720.54+559.532C731.722+562.193+741.692+564.518+741.206+563.954C734.793+556.513+724.153+541.881+712.691+525.542C711.961+524.501+663.881+510.948+663.145+509.895C662.87+509.501+677.043+512.744+689.702+515.705C690.476+515.886+683.829+502.685+684.588+502.864C685.367+503.047+691.529+515.844+692.627+516.042C700.878+517.523+709.003+520.268+709.003+520.268L688.543+490.524L669.314+479.452C669.314+479.452+687.179+488.24+686.387+487.076C678.422+475.379+669.987+463.239+665.748+457.103C671.273+462.536+684.77+481.028+697.826+498.925C698.159+499.382+698.809+496.797+699.533+493.487C699.622+493.078+696.023+483.053+696.115+482.627C696.203+482.213+699.982+491.396+700.072+490.973C701.102+486.11+702.161+480.944+702.619+481.571C703.21+482.38+699.749+501.107+700.335+501.909C710.483+515.8+721.641+531.383+725.914+535.885C726.541+536.547+731.581+506.613+732.208+507.274C732.76+507.856+732.256+515.755+731.729+523.814C731.659+524.893+737.645+517.902+737.576+518.969C737.534+519.621+731.436+528.339+731.396+528.976C730.991+535.442+730.722+540.958+731.18+541.441C743.536+554.48+755.89+567.519+768.531+579.892C769.289+580.634+771.098+572.471+773.006+563.474C773.12+562.938+767.041+546.174+767.155+545.635C767.312+544.888+773.663+560.365+773.821+559.618C775.862+549.961+778.674+541.433+778.674+541.433C778.674+541.433+778.588+547.219+777.527+553.82C777.425+554.454+783.917+549.328+783.809+549.985C783.775+550.196+777.142+556.182+777.106+556.395C775.137+568.286+772.378+583.058+773.41+584.022C787.652+597.332+808.199+618.216+823.726+628.538L834.869+612.133L828.003+632.4L853.555+648.605L853.371+617.572L805.013+537.733L795.617+534.63L779.97+534.819L790.256+532.859L746.29+518.34L777.671+526.298L767.92+508.813L783.023+527.655L802.821+532.677L773.43+487.747L763.094+485.264L746.706+488.291L760.407+484.619L736.301+478.83L756.198+481.746L749.299+471.952L758.641+482.555L771.217+484.652L737.969+434.13L732.722+430.673L722.558+428.684L730.449+429.175L719.08+421.684L735.411+430.242L712.826+395.924L728.527+418.755L726.758+408.624L730.395+421.472L755.812+458.432L756.681+453.214L752.48+440.681L757.215+450.005L759.345+437.213L757.718+461.612L784.826+501.278L787.971+495.022L786.452+483.99L789.09+492.796L795.204+480.634L786.658+503.736L858.468+606.833L860.928+561.408L846.735+546.234L819.274+539.459L843.829+543.169L820.67+510.393L797.287+498.157L818.556+507.402L788.415+464.744L810.704+493.599L811.581+476.411L812.44+495.845L837.448+528.22L839.988+512.085L840.688+532.499L861.546+555.242L860.411+481.83L836.847+458.982L819.862+457.798L802.871+463.928L817.106+457.606L780.613+455.063L807.747+455.824L798.762+442.618L809.46+455.482L834.056+455.839L797.335+423.469L771.531+413.014L792.931+419.108L759.001+385.511L782.228+406.093L781.981+386.814L786.075+409.502L817.283+437.156L815.708+405.774L805.096+389.708L815.441+400.443L814.536+382.404L819.261+414.19L829.955+401.32L820.456+421.405L821.411+439.9L861.687+476.503L861.743+444.603L834.258+414.303L861.757+436.619L861.788+419.329L831.689+378.001L846.889+396.457L845.715+377.867L850.308+400.609L861.796+414.558L861.878+368.25L852.07+346.413L861.886+363.479L861.933+336.83L862.894+378.213L887.05+347.394L873.469+368.418L889.886+363.338L871.241+371.867L863.815+381.414L864.008+426.161L884.247+405.986L864.119+430.922L864.564+450.057L892.898+429.216L887.095+387.7L896.288+426.228L938.057+392.623L915.541+413.964L939.88+411.948L914.18+417.245L865.666+455.623L867.135+523.746L886.977+507.735L886.791+486.896L881.702+472.365L886.754+482.704L886.553+460.117L888.236+491.716L896.012+480.777L888.373+494.283L888.959+505.29L920.635+467.094L920.484+451.92L914.672+437.833L920.446+448.028L920.263+429.627L922.575+464.755L942.12+441.186L942.444+422.278L943.94+438.991L954.725+425.986L933.556+454.217L963.081+441.009L946.438+449.407L958.208+448.757L943.894+450.691L931.517+456.937L900.581+498.192L912.846+496.415L922.09+488.39L915.727+495.998L928.561+494.139L899.746+500.862L868.244+527.198L870.9+605.426L897.351+570.205L888.899+522.889L895.212+544.893L900.023+526.736L897.119+551.542L900.88+564.652L936.87+517.58L936.721+509.352L931.448+498.531L936.668+506.452L935.971+468.129L939.274+498.332L944.983+485.445L939.826+501.908L941.635+513.633L981.79+461.522L981.428+436.682L983.996+457.863L1013.38+420.533L997.528+442.667L1008.44+435.637L995.751+445.15L966.722+485.697L990.056+475.851L992.653+470.899L992.727+462.237L993.952+468.422L997.695+461.284L992.166+474.598L1017.12+464.43L1003.22+471.401L1012.31+471.8L1001.03+472.5L981.605+482.239L1008.85+480.299L994.183+481.926L1001.6+484.533L991.365+482.238L978.836+483.628L963.627+491.253L915.374+559.846L945.961+547.015L911.352+567.401L875.573+616.425L875.994+646.086L898.778+632.678L908.675+614.81L908.758+596.973L911.487+609.734L921.331+591.962L906.457+628.671C932.313+612.574+954.73+594.609+976.25+576.157C976.633+575.829+975.985+571.757+974.843+565.896C974.741+565.369+962.834+555.082+962.724+554.528C962.619+554+974.311+563.208+974.2+562.657C972.866+556.052+971.111+547.919+969.518+540.376C969.329+539.482+957.996+526.783+957.814+525.91C957.661+525.185+968.658+536.282+968.511+535.576C966.463+525.728+964.957+517.848+965.494+517.385C966.124+516.84+972.694+543.751+975.224+553.791C975.361+554.336+985.623+538.971+985.76+539.514C986.026+540.565+976.165+557.518+976.424+558.541C978.435+566.444+980.222+573.102+980.732+572.658C990.654+564.029+1009.39+547.25+1026.82+531.839C1027.19+531.518+1028.48+523.623+1029.89+514.778C1029.97+514.265+1021.24+501.205+1021.32+500.687C1021.48+499.725+1030.44+511.303+1030.59+510.337C1032.19+500.267+1033.77+490.381+1034.17+490.025C1034.42+489.808+1033.81+496.538+1033.06+504.399C1033.03+504.719+1039.66+498.3+1039.63+498.623C1039.59+499.053+1032.89+506.226+1032.84+506.66C1031.85+517.037+1030.74+528.381+1031.05+528.104C1042.06+518.395+1052.2+509.57+1058.78+504.147C1047.84+515.712+1030.94+532.588+1013.55+549.477C1013.14+549.874+1028.83+545.711+1041.75+542.335C1042.33+542.183+1048.44+526.922+1049+526.774C1049.83+526.559+1043.41+541.361+1044.2+541.156C1051.38+539.288+1056.85+537.908+1056.6+538.144C1056.34+538.396+1052.81+540.154+1045.84+542.304C1042.58+543.312+1038.93+544.427+1035.24+545.555C1034.28+545.85+1048.37+550.206+1047.4+550.501C1046.83+550.675+1031.21+546.789+1030.64+546.962C1019.62+550.332+1009.42+553.47+1009.06+553.823C991.655+570.643+974.229+587.024+962.215+597.696C961.265+598.539+978.335+596.8+995.654+595.023C996.209+594.966+1011.26+572.867+1011.82+572.81C1012.62+572.727+998.928+594.688+999.73+594.605C1016.11+592.926+1031.46+591.394+1030.55+592.185C1029.39+593.187+1002.89+596.931+981.207+600.149C980.39+600.27+996.66+608.29+995.858+608.41C995.122+608.52+977.315+600.729+976.595+600.837C963.935+602.736+953.862+604.354+953.153+604.955C930.58+624.083+906.346+641.887+879.399+657.528C881.65+672.234+879.748+686.128+886.381+695.196L931.53+674.068L929.717+650.786L922.169+636.763L929.305+645.49L928.197+631.253L932.698+656.592L949.468+639.03L934.123+661.117L937.619+672.22C952.538+669.465+966.245+663.276+979.303+655.243C980.076+654.767+980.547+649.82+980.926+643.535C980.977+642.672+964.792+629.677+964.841+628.772C964.878+628.074+981.152+639.472+981.189+638.757C981.745+627.915+982.51+610.818+983.734+610C984.676+609.368+985.047+623.983+985.736+633.442C985.814+634.503+999.583+617.193+999.66+618.228C999.73+619.146+986.107+638.412+986.178+639.288C986.684+645.622+987.223+650.57+987.893+650.095C999.355+641.956+1011.22+632.063+1023.14+622.218C1023.53+621.9+1024.04+617.086+1024.57+611.862C1024.64+611.111+1018.72+603.986+1018.79+603.231C1018.87+602.476+1024.95+608.089+1025.02+607.354C1025.5+602.67+1025.96+598.623+1026.31+598.333C1027.31+597.513+1027.68+618.479+1028.67+617.662C1034.52+612.869+1040.36+608.154+1046.16+603.729C1047.04+603.056+1054.94+580.974+1055.82+580.316C1056.41+579.873+1049.98+600.85+1050.57+600.414C1054.13+597.786+1072.34+579.581+1075.85+577.264C1074.48+580.511+1053.21+602.979+1045.31+610.439C1044.64+611.067+1064.45+605.355+1063.77+605.992C1062.85+606.85+1041.43+614.06+1040.49+614.926C1026.44+627.889+1010.81+641.27+1012.75+641.279C1023.78+640.783+1033.09+640.383+1040.9+640.066C1041.99+640.022+1057.48+628.019+1058.51+627.978C1059.61+627.935+1046.24+639.854+1047.27+639.814C1129.19+636.643+1008.66+644.734+1006.83+646.217C985.194+663.713+960.109+680.887+936.556+688.625C935.138+689.091+949.629+692.98+966.938+697.338C967.392+697.453+975.304+692.721+983.34+687.909C983.97+687.533+988.08+670.803+988.707+670.427C989.849+669.744+985.804+686.826+986.906+686.168C993.19+682.419+1000.18+677.906+1000.56+678C1001.45+678.223+971.512+698.485+972.41+698.709C995.151+704.377+1020.28+710.312+1020.28+710.312C1020.28+710.312+932.835+692.367+930.057+694.542C914.762+706.541+891.778+715.661+891.481+718.032C887.145+752.528+885.466+882.473+921.33+894.939C944.401+902.96+950.386+903.012+955.165+931.89C959.943+960.767+1012.61+990.418+1055.22+1010.49C1018.34+985.818+961.447+989.274+945.374+945.545C929.299+901.816+924.531+913.639+907.555+911.698C923.692+931.473+924.309+944.157+919.241+961.913C914.173+979.668+914.886+987.547+930.25+1009.22C945.615+1030.89+945.138+1066.32+950.152+1094.73C941.615+1065.59+939.428+1027.18+918.492+1008.38C897.556+989.578+899.569+977.808+905.749+960.254C911.93+942.701+900.237+932.118+884.769+916.403C881.917+932.283+868.078+952.101+884.41+969.672C900.741+987.241+900.26+991.781+882.034+1010.77C863.808+1029.76+876.891+1064.35+879.674+1092.17C875.463+1065.8+852.09+1035.04+868.927+1012.71C885.764+990.389+874.939+985.083+863.105+969.671C851.271+954.259+854.884+934.648+855.879+916.247C843.176+928.957+830.714+940.029+833.911+957.863C837.108+975.697+833.746+985.717+810.617+1001.99C787.488+1018.27+783.689+1048.89+773.39+1072.51C778.957+1047.29+779.012+1016.22+800.507+998.863C822.003+981.507+826.015+968.593+818.123+951.018C810.231+933.442+823.762+925.139+831.985+913.367C813.595+903.292+796.31+907.464+778.174+946.325C760.04+985.186+705.979+977.466+672.534+994.476L672.537+994.484Z" opacity="0.33" fill="#000000"/>
</g>
</g>
</svg>
