<?xml version="1.0" encoding="UTF-8"?>
<!DOCTYPE svg PUBLIC "-//W3C//DTD SVG 1.1//EN"
  "http://www.w3.org/Graphics/SVG/1.1/DTD/svg11.dtd">
<!-- Created with Inkpad (http://www.taptrix.com/) --><svg xmlns:inkpad="http://taptrix.com/inkpad/svg_extensions" height="780pt" xmlns:xlink="http://www.w3.org/1999/xlink" xmlns="http://www.w3.org/2000/svg" width="972pt" version="1.1" viewBox="0,0,972,780">
<defs>
<linearGradient y1="422.46" id="LinearGradient" x1="28.926" y2="285.42" x2="-112.07" gradientUnits="userSpaceOnUse" gradientTransform="matrix(-0 -0.695082 -0.645927 0 751.403 553.736)">
<stop stop-color="#008400" offset="0"/>
<stop stop-color="#00a000" offset="1"/>
</linearGradient>
<linearGradient y1="422.46" id="LinearGradient_2" x1="28.926" y2="285.42" x2="-112.07" gradientUnits="userSpaceOnUse" gradientTransform="matrix(-0 -0.695082 -0.645927 0 980.111 325.664)">
<stop stop-color="#008400" offset="0"/>
<stop stop-color="#00a000" offset="1"/>
</linearGradient>
<linearGradient y1="456.75" id="LinearGradient_3" x1="-53.632" y2="216.93" x2="-135.5" gradientUnits="userSpaceOnUse" gradientTransform="matrix(-0 -0.695082 -0.645927 0 911.019 513.363)">
<stop stop-color="#006400" offset="0"/>
<stop stop-color="#00a000" offset="1"/>
</linearGradient>
<linearGradient y1="1272.6" id="LinearGradient_4" x1="462.51" y2="323.12" x2="428.25" gradientUnits="userSpaceOnUse" gradientTransform="matrix(0 0.645927 -0.645927 0 911.021 250.017)">
<stop stop-color="#000000" offset="0"/>
<stop stop-color="#986601" offset="0.5"/>
<stop stop-color="#000400" offset="1"/>
</linearGradient>
</defs>
<g id="layer1" inkpad:layerName="layer1">
<g opacity="1">
<g opacity="1">
<path d="M725.869+235.918C723.251+286.077+679.813+324.442+628.847+321.608C577.883+318.774+538.689+275.814+541.307+225.655C543.926+175.496+587.364+137.131+638.329+139.965C689.294+142.799+728.487+185.759+725.869+235.918Z" opacity="0.5" fill="#000000"/>
<path d="M716.839+235.416C714.221+285.575+670.783+323.94+619.817+321.105C568.853+318.271+529.659+275.312+532.277+225.153C534.895+174.994+578.333+136.629+629.299+139.463C680.264+142.297+719.457+185.256+716.839+235.416Z" opacity="1" fill="#015a01"/>
</g>
<g opacity="1">
<path d="M393.434+427.714C390.815+477.873+347.377+516.238+296.412+513.404C245.447+510.57+206.254+467.61+208.872+417.451C211.49+367.292+254.928+328.927+305.894+331.761C356.858+334.595+396.052+377.555+393.434+427.714Z" opacity="0.5" fill="#000400"/>
<path d="M402.967+419.331C400.349+469.49+356.911+507.855+305.945+505.021C254.981+502.186+215.787+459.227+218.405+409.068C221.023+358.909+264.461+320.544+315.427+323.378C366.392+326.212+405.585+369.172+402.967+419.331Z" opacity="1" fill="#006000"/>
</g>
<g opacity="1">
<path d="M266.958+456.409C264.34+506.568+303.533+549.528+354.498+552.362C405.463+555.196+448.901+516.832+451.52+466.673C454.138+416.514+414.945+373.554+363.98+370.72C313.015+367.885+269.576+406.25+266.958+456.409Z" opacity="0.5" fill="#000400"/>
<path d="M271.924+447.772C269.306+497.931+308.499+540.891+359.464+543.725C410.429+546.559+453.867+508.195+456.486+458.035C459.104+407.877+419.911+364.917+368.946+362.082C317.981+359.248+274.542+397.613+271.924+447.772Z" opacity="1" fill="#339900"/>
</g>
<g opacity="1">
<path d="M479.383+480.738C476.765+530.896+515.958+573.856+566.923+576.69C617.888+579.525+661.327+541.161+663.945+491.001C666.563+440.842+627.37+397.882+576.405+395.048C525.44+392.214+482.002+430.578+479.383+480.738Z" opacity="0.5" fill="#000000"/>
<path d="M466.044+475.539C463.426+525.698+502.618+568.658+553.584+571.492C604.549+574.326+647.987+535.962+650.605+485.803C653.224+435.644+614.031+392.684+563.065+389.85C512.101+387.015+468.662+425.38+466.044+475.539Z" opacity="1" fill="url(#LinearGradient)"/>
</g>
<g opacity="1">
<path d="M650.953+162.295C648.335+212.454+604.897+250.819+553.931+247.985C502.967+245.151+463.773+202.191+466.391+152.032C469.009+101.873+512.447+63.5081+563.413+66.3424C614.377+69.1764+653.571+112.136+650.953+162.295Z" opacity="0.5" fill="#000000"/>
<path d="M641.691+166.224C639.073+216.383+595.635+254.748+544.67+251.914C493.705+249.08+454.511+206.12+457.13+155.961C459.748+105.802+503.186+67.437+554.151+70.2711C605.116+73.1052+644.309+116.065+641.691+166.224Z" opacity="1" fill="#00ac00"/>
</g>
<g opacity="1">
<path d="M601.402+498.05C598.784+548.209+555.346+586.574+504.38+583.74C453.416+580.906+414.222+537.946+416.84+487.787C419.459+437.628+462.896+399.263+513.862+402.097C564.827+404.931+604.02+447.891+601.402+498.05Z" opacity="0.5" fill="#000000"/>
<path d="M597.299+488.909C594.68+539.067+551.242+577.432+500.277+574.598C449.312+571.764+410.119+528.805+412.737+478.645C415.355+428.487+458.793+390.122+509.759+392.956C560.723+395.79+599.917+438.749+597.299+488.909Z" opacity="1" fill="#006400"/>
</g>
<g opacity="1">
<path d="M741.406+326.836C738.788+376.995+695.35+415.36+644.384+412.525C593.419+409.691+554.226+366.732+556.844+316.573C559.462+266.414+602.9+228.049+653.866+230.883C704.831+233.717+744.024+276.676+741.406+326.836Z" opacity="0.5" fill="#000000"/>
<path d="M732.336+326.332C729.718+376.49+686.28+414.855+635.315+412.021C584.35+409.187+545.156+366.228+547.775+316.068C550.393+265.909+593.831+227.544+644.796+230.379C695.761+233.213+734.955+276.172+732.336+326.332Z" opacity="1" fill="#007c00"/>
</g>
<g opacity="1">
<path d="M552.781+144.154C550.163+194.312+506.725+232.678+455.76+229.843C404.795+227.009+365.601+184.05+368.22+133.89C370.838+83.7315+414.276+45.3664+465.241+48.2007C516.206+51.0348+555.399+93.9942+552.781+144.154Z" opacity="0.5" fill="#000000"/>
<path d="M539.043+147.846C536.425+198.005+492.987+236.37+442.022+233.536C391.057+230.702+351.863+187.743+354.481+137.583C357.1+87.4242+400.538+49.0591+451.503+51.8935C502.468+54.7275+541.661+97.687+539.043+147.846Z" opacity="1" fill="#009c00"/>
</g>
<g opacity="1">
<path d="M501.711+161.889C499.093+212.048+455.655+250.413+404.689+247.579C353.725+244.745+314.531+201.786+317.149+151.626C319.768+101.467+363.206+63.1024+414.171+65.9364C465.136+68.7706+504.329+111.73+501.711+161.889Z" opacity="0.5" fill="#000000"/>
<path d="M501.245+170.816C498.627+220.974+455.189+259.339+404.224+256.505C353.259+253.671+314.065+210.712+316.684+160.552C319.302+110.393+362.74+72.0285+413.705+74.8625C464.67+77.6967+503.863+120.656+501.245+170.816Z" opacity="1" fill="#008c00"/>
</g>
<g opacity="1">
<path d="M724.991+444.101C722.373+494.259+678.935+532.625+627.969+529.79C577.005+526.956+537.811+483.997+540.429+433.837C543.048+383.678+586.485+345.313+637.451+348.148C688.415+350.982+727.609+393.941+724.991+444.101Z" opacity="0.5" fill="#000000"/>
<path d="M716.193+439.155C713.574+489.314+670.137+527.679+619.171+524.844C568.206+522.01+529.013+479.051+531.631+428.891C534.249+378.733+577.687+340.368+628.653+343.202C679.617+346.036+718.811+388.995+716.193+439.155Z" opacity="1" fill="#008400"/>
</g>
<g opacity="1">
<path d="M725.27+367.712C722.652+417.871+679.214+456.236+628.248+453.402C577.284+450.568+538.09+407.608+540.708+357.449C543.327+307.29+586.764+268.925+637.73+271.759C688.695+274.593+727.888+317.553+725.27+367.712Z" opacity="0.5" fill="#000000"/>
<path d="M716.035+371.642C713.416+421.801+669.978+460.166+619.013+457.332C568.048+454.498+528.855+411.539+531.473+361.379C534.091+311.22+577.529+272.855+628.495+275.689C679.459+278.523+718.653+321.483+716.035+371.642Z" opacity="1" fill="#007800"/>
</g>
<g opacity="1">
<path d="M681.172+217.503C678.553+267.662+635.116+306.026+584.15+303.192C533.185+300.358+493.992+257.399+496.61+207.239C499.228+157.081+542.666+118.716+593.632+121.55C644.596+124.384+683.79+167.343+681.172+217.503Z" opacity="0.5" fill="#000400"/>
<path d="M671.936+221.433C669.318+271.592+625.88+309.957+574.915+307.123C523.95+304.289+484.756+261.329+487.375+211.17C489.993+161.011+533.431+122.646+584.396+125.48C635.361+128.314+674.555+171.274+671.936+221.433Z" opacity="1" fill="#339900"/>
</g>
<g opacity="1">
<path d="M429.994+166.003C427.375+216.162+466.568+259.122+517.534+261.956C568.498+264.79+611.937+226.425+614.555+176.266C617.173+126.107+577.981+83.1472+527.015+80.3131C476.05+77.479+432.612+115.843+429.994+166.003Z" opacity="0.5" fill="#000000"/>
<path d="M420.758+169.933C418.14+220.092+457.333+263.052+508.298+265.886C559.263+268.72+602.701+230.356+605.32+180.196C607.938+130.037+568.745+87.0775+517.78+84.2433C466.815+81.4093+423.376+119.774+420.758+169.933Z" opacity="1" fill="#00b000"/>
</g>
<g opacity="1">
<path d="M687.078+441.262C684.46+491.42+641.022+529.785+590.056+526.951C539.091+524.117+499.898+481.158+502.516+430.998C505.134+380.839+548.572+342.474+599.538+345.309C650.503+348.143+689.696+391.102+687.078+441.262Z" opacity="0.5" fill="#000000"/>
<path d="M673.738+436.063C671.12+486.222+627.682+524.587+576.717+521.753C525.752+518.918+486.558+475.959+489.177+425.8C491.795+375.641+535.233+337.276+586.198+340.11C637.163+342.944+676.357+385.904+673.738+436.063Z" opacity="1" fill="#006000"/>
</g>
<g opacity="1">
<path d="M671.472+357.957C668.854+408.116+625.416+446.481+574.451+443.647C523.486+440.813+484.292+397.854+486.91+347.694C489.529+297.535+532.967+259.17+583.932+262.004C634.897+264.839+674.09+307.798+671.472+357.957Z" opacity="0.5" fill="#000400"/>
<path d="M662.171+361.897C659.552+412.056+616.115+450.421+565.149+447.586C514.184+444.752+474.991+401.793+477.609+351.634C480.227+301.475+523.665+263.11+574.63+265.944C625.595+268.778+664.789+311.737+662.171+361.897Z" opacity="1" fill="#009400"/>
</g>
<g opacity="1">
<path d="M644.455+212.526C641.837+262.685+598.399+301.05+547.434+298.216C496.469+295.382+457.276+252.422+459.894+202.263C462.512+152.104+505.95+113.739+556.915+116.573C607.88+119.407+647.074+162.367+644.455+212.526Z" opacity="0.5" fill="#000000"/>
<path d="M639.424+221.16C636.806+271.319+593.368+309.684+542.403+306.849C491.438+304.015+452.244+261.056+454.863+210.896C457.481+160.738+500.919+122.373+551.884+125.207C602.849+128.041+642.042+171+639.424+221.16Z" opacity="1" fill="#008400"/>
</g>
<g opacity="1">
<path d="M665.237+282.732C662.619+332.891+619.181+371.256+568.215+368.422C517.251+365.588+478.057+322.628+480.675+272.469C483.294+222.31+526.732+183.945+577.697+186.779C628.662+189.613+667.855+232.573+665.237+282.732Z" opacity="0.5" fill="#000000"/>
<path d="M656.001+286.675C653.383+336.834+609.945+375.199+558.979+372.365C508.015+369.531+468.821+326.572+471.439+276.412C474.057+226.253+517.495+187.888+568.461+190.722C619.426+193.556+658.619+236.516+656.001+286.675Z" opacity="1" fill="#007800"/>
</g>
<g opacity="1">
<path d="M337.621+478.569C335.003+528.727+374.196+571.687+425.161+574.522C476.126+577.355+519.564+538.991+522.183+488.832C524.801+438.673+485.608+395.713+434.643+392.879C383.678+390.045+340.239+428.409+337.621+478.569Z" opacity="0.5" fill="#000000"/>
<path d="M346.857+474.625C344.239+524.784+383.432+567.744+434.397+570.578C485.362+573.412+528.8+535.048+531.419+484.889C534.037+434.73+494.844+391.77+443.879+388.936C392.914+386.102+349.475+424.466+346.857+474.625Z" opacity="1" fill="#008c00"/>
</g>
<g opacity="1">
<path d="M179.982+321.682C177.364+371.841+216.557+414.801+267.522+417.635C318.487+420.469+361.926+382.105+364.544+331.946C367.162+281.787+327.969+238.827+277.004+235.993C226.039+233.159+182.6+271.523+179.982+321.682Z" opacity="0.5" fill="#000400"/>
<path d="M189.218+317.739C186.6+367.898+225.793+410.858+276.758+413.692C327.723+416.526+371.162+378.162+373.78+328.003C376.398+277.844+337.205+234.884+286.24+232.05C235.275+229.216+191.837+267.58+189.218+317.739Z" opacity="1" fill="#007400"/>
</g>
<g opacity="1">
<path d="M251.647+175.35C249.029+225.509+288.222+268.469+339.188+271.303C390.152+274.137+433.591+235.773+436.209+185.614C438.827+135.455+399.634+92.4948+348.669+89.6605C297.704+86.8265+254.266+125.191+251.647+175.35Z" opacity="0.5" fill="#000000"/>
<path d="M258.201+180.178C255.583+230.337+294.776+273.297+345.741+276.131C396.706+278.965+440.144+240.601+442.763+190.441C445.381+140.282+406.188+97.3224+355.223+94.4882C304.258+91.654+260.819+130.018+258.201+180.178Z" opacity="1" fill="#007c00"/>
</g>
<g opacity="1">
<path d="M385.548+214.675C382.929+264.833+422.122+307.793+473.088+310.628C524.052+313.462+567.491+275.097+570.109+224.938C572.727+174.779+533.535+131.819+482.569+128.985C431.604+126.151+388.166+164.515+385.548+214.675Z" opacity="0.5" fill="#000000"/>
<path d="M380.516+223.308C377.898+273.467+417.091+316.427+468.056+319.261C519.021+322.095+562.46+283.731+565.078+233.571C567.696+183.413+528.503+140.453+477.538+137.618C426.573+134.784+383.135+173.149+380.516+223.308Z" opacity="1" fill="#006c00"/>
</g>
<g opacity="1">
<path d="M185.299+258.561C182.681+308.72+221.874+351.68+272.839+354.514C323.804+357.348+367.243+318.984+369.861+268.825C372.479+218.666+333.286+175.706+282.321+172.872C231.356+170.037+187.917+208.402+185.299+258.561Z" opacity="0.5" fill="#000000"/>
<path d="M194.833+250.178C192.214+300.337+231.407+343.297+282.373+346.131C333.337+348.965+376.776+310.601+379.394+260.441C382.012+210.283+342.82+167.322+291.854+164.488C240.889+161.654+197.451+200.019+194.833+250.178Z" opacity="1" fill="#008000"/>
</g>
<g opacity="1">
<path d="M233.956+234.597C231.338+284.756+270.53+327.716+321.496+330.55C372.461+333.384+415.899+295.02+418.517+244.86C421.136+194.701+381.943+151.741+330.977+148.907C280.013+146.073+236.574+184.437+233.956+234.597Z" opacity="0.5" fill="#000000"/>
<path d="M247.527+235.351C244.909+285.51+284.102+328.47+335.067+331.304C386.032+334.139+429.471+295.774+432.089+245.615C434.707+195.456+395.514+152.496+344.549+149.662C293.584+146.828+250.146+185.192+247.527+235.351Z" opacity="1" fill="url(#LinearGradient_2)"/>
</g>
<g opacity="1">
<path d="M426.155+398.485C423.537+448.644+380.099+487.009+329.134+484.175C278.169+481.341+238.975+438.382+241.594+388.222C244.212+338.063+287.65+299.698+338.615+302.533C389.58+305.367+428.774+348.326+426.155+398.485Z" opacity="0.5" fill="#000400"/>
<path d="M435.391+394.542C432.773+444.701+389.335+483.066+338.37+480.232C287.405+477.398+248.212+434.439+250.83+384.279C253.448+334.12+296.886+295.755+347.851+298.589C398.816+301.424+438.01+344.383+435.391+394.542Z" opacity="1" fill="#339900"/>
</g>
<g opacity="1">
<path d="M438.51+305.947C435.892+356.106+475.085+399.066+526.05+401.9C577.015+404.735+620.454+366.37+623.072+316.211C625.69+266.052+586.497+223.092+535.532+220.258C484.567+217.424+441.129+255.788+438.51+305.947Z" opacity="0.5" fill="#000000"/>
<path d="M433.544+314.585C430.926+364.743+470.119+407.704+521.084+410.538C572.049+413.372+615.488+375.007+618.106+324.848C620.724+274.689+581.531+231.729+530.566+228.895C479.601+226.061+436.163+264.425+433.544+314.585Z" opacity="1" fill="url(#LinearGradient_3)"/>
</g>
<g opacity="1">
<path d="M398.077+293.466C395.458+343.624+352.021+381.989+301.055+379.155C250.09+376.321+210.897+333.362+213.515+283.202C216.133+233.043+259.571+194.678+310.537+197.512C361.501+200.347+400.695+243.306+398.077+293.466Z" opacity="0.5" fill="#000000"/>
<path d="M406.849+298.41C404.231+348.569+360.793+386.934+309.827+384.1C258.863+381.265+219.669+338.306+222.287+288.147C224.906+237.988+268.343+199.623+319.309+202.457C370.274+205.291+409.467+248.251+406.849+298.41Z" opacity="1" fill="#339900"/>
</g>
<g opacity="1">
<path d="M257.828+297.631C255.21+347.79+294.402+390.75+345.368+393.584C396.333+396.418+439.771+358.054+442.39+307.895C445.008+257.736+405.815+214.776+354.849+211.942C303.885+209.107+260.446+247.472+257.828+297.631Z" opacity="0.5" fill="#000400"/>
<path d="M271.632+293.936C269.013+344.094+308.206+387.055+359.172+389.889C410.137+392.723+453.575+354.359+456.193+304.199C458.812+254.04+419.619+211.08+368.653+208.246C317.689+205.412+274.25+243.776+271.632+293.936Z" opacity="1" fill="#44aa00"/>
</g>
<g opacity="1">
<path d="M356.433+249.753C353.815+299.912+393.008+342.872+443.973+345.706C494.938+348.54+538.376+310.176+540.995+260.016C543.613+209.857+504.42+166.897+453.454+164.063C402.49+161.229+359.051+199.594+356.433+249.753Z" opacity="0.5" fill="#000000"/>
<path d="M355.969+258.641C353.351+308.799+392.544+351.759+443.509+354.594C494.474+357.428+537.912+319.063+540.531+268.904C543.149+218.745+503.956+175.785+452.991+172.951C402.026+170.117+358.587+208.481+355.969+258.641Z" opacity="1" fill="#009400"/>
</g>
<g opacity="1">
<path d="M453.272+416.395C450.653+466.554+489.846+509.514+540.812+512.348C591.776+515.182+635.215+476.818+637.833+426.659C640.451+376.5+601.259+333.54+550.293+330.706C499.328+327.872+455.89+366.236+453.272+416.395Z" opacity="0.5" fill="#000000"/>
<path d="M442.1+413.546C439.482+463.704+478.674+506.664+529.64+509.498C580.604+512.333+624.043+473.968+626.661+423.809C629.28+373.65+590.087+330.69+539.121+327.856C488.157+325.022+444.718+363.386+442.1+413.546Z" opacity="1" fill="#2ca02c"/>
</g>
<g opacity="1">
<path d="M411.449+351.659C408.831+401.818+448.024+444.778+498.989+447.612C549.954+450.446+593.393+412.082+596.011+361.923C598.629+311.764+559.436+268.804+508.471+265.97C457.506+263.136+414.067+301.5+411.449+351.659Z" opacity="0.5" fill="#000000"/>
<path d="M402.445+351.159C399.827+401.318+439.02+444.277+489.985+447.112C540.95+449.946+584.389+411.581+587.007+361.422C589.625+311.263+550.432+268.303+499.467+265.469C448.502+262.635+405.063+300.999+402.445+351.159Z" opacity="1" fill="#217821"/>
</g>
<g opacity="1">
<path d="M299.939+306.733C297.159+356.882+336.215+399.963+387.172+402.956C438.128+405.949+481.691+367.721+484.47+317.571C487.25+267.422+448.195+224.34+397.237+221.348C346.281+218.355+302.718+256.583+299.939+306.733Z" opacity="0.5" fill="#000000"/>
<path d="M299.475+315.62C296.695+365.77+335.751+408.851+386.708+411.843C437.664+414.836+481.227+376.609+484.007+326.459C486.786+276.309+447.731+233.228+396.774+230.235C345.817+227.242+302.254+265.47+299.475+315.62Z" opacity="1" fill="#217821"/>
</g>
<g opacity="1">
<path d="M285.325+414.866C282.707+465.025+321.9+507.985+372.865+510.819C423.83+513.654+467.268+475.289+469.887+425.13C472.505+374.971+433.312+332.011+382.347+329.177C331.382+326.343+287.943+364.707+285.325+414.866Z" opacity="0.5" fill="#000000"/>
<path d="M290.291+406.223C287.673+456.382+326.866+499.342+377.831+502.176C428.796+505.01+472.235+466.646+474.853+416.486C477.471+366.327+438.278+323.367+387.313+320.533C336.348+317.699+292.91+356.063+290.291+406.223Z" opacity="1" fill="#006400"/>
</g>
<g opacity="1">
<path d="M528.028+336.76C525.41+386.919+481.972+425.284+431.006+422.45C380.042+419.616+340.848+376.657+343.466+326.497C346.084+276.338+389.522+237.973+440.488+240.807C491.452+243.642+530.646+286.601+528.028+336.76Z" opacity="0.5" fill="#000000"/>
<path d="M532.994+328.123C530.376+378.282+486.938+416.647+435.972+413.813C385.007+410.979+345.814+368.019+348.432+317.86C351.05+267.701+394.488+229.336+445.454+232.17C496.418+235.004+535.612+277.964+532.994+328.123Z" opacity="1" fill="#00ac00"/>
</g>
<g opacity="1">
<path d="M390.782+452.025C388.164+502.184+427.356+545.144+478.322+547.978C529.287+550.812+572.725+512.447+575.343+462.288C577.962+412.129+538.769+369.169+487.803+366.335C436.839+363.501+393.4+401.865+390.782+452.025Z" opacity="0.5" fill="#000000"/>
<path d="M395.864+441.166C393.245+491.324+432.438+534.284+483.404+537.118C534.368+539.953+577.807+501.588+580.425+451.429C583.043+401.27+543.851+358.31+492.885+355.476C441.921+352.642+398.482+391.006+395.864+441.166Z" opacity="1" fill="#007800"/>
</g>
<g opacity="1">
<path d="M355.143+388.646C352.524+438.805+391.717+481.765+442.683+484.599C493.647+487.433+537.086+449.069+539.704+398.909C542.322+348.75+503.13+305.79+452.164+302.956C401.199+300.122+357.761+338.487+355.143+388.646Z" opacity="0.34496" fill="#000000"/>
<path d="M366.894+380.386C364.276+430.545+403.469+473.505+454.434+476.339C505.399+479.173+548.838+440.809+551.456+390.649C554.074+340.491+514.881+297.531+463.916+294.697C412.951+291.862+369.513+330.227+366.894+380.386Z" opacity="1" fill="#009800"/>
</g>
<path d="M253.532+888.796C303.144+868.611+359.389+855.548+363.512+821.484C367.636+787.419+399.778+772.898+422.165+757.202C454.823+734.303+459.125+587.097+448.734+549.215C448.071+546.798+437.165+542.016+421.905+536.233C418.763+535.042+342.452+564.407+338.993+563.144C337.498+562.598+378.092+548.089+387.381+543.818C388.267+543.41+367.296+536.784+368.196+536.374C369.575+535.745+392.828+541.333+394.193+540.715C403.768+536.381+412.329+532.559+410.604+532.677C399.37+533.443+368.63+519.497+335.007+499.391C334.356+499.002+324.626+498.292+313.225+497.521C312.431+497.467+305.363+501.817+304.555+501.763C303.891+501.719+309.489+497.27+308.82+497.225C293.323+496.19+276.545+495.106+275.677+494.576C275.088+494.217+283.658+494.177+293.879+494.193C294.541+494.194+284.487+487.659+285.161+487.661C285.825+487.662+297.218+494.2+297.891+494.202C311.686+494.236+326.659+494.309+325.883+493.827C313.966+486.418+301.878+478.346+290.333+469.981C289.353+469.27+280.848+467.806+271.041+466.211C270.304+466.092+261.412+469.438+260.662+469.317C259.902+469.194+267.285+465.604+266.518+465.48C253.764+463.426+240.432+461.312+239.207+460.407C238.425+459.828+246.282+460.112+255.129+460.495C256.07+460.536+247.216+452.192+248.17+452.234C249.117+452.276+259.871+460.704+260.813+460.745C270.155+461.154+278.808+461.494+278+460.888C270.763+455.462+263.754+449.847+257.13+444.294C256.808+444.023+250.012+442.84+242.498+441.555C241.761+441.429+235.14+444.895+234.394+444.768C233.63+444.637+238.743+440.913+237.982+440.783C230.026+439.425+222.54+438.132+222.205+437.849C221.483+437.237+253.527+441.248+252.813+440.638C244.721+433.715+237.289+426.973+230.829+420.905C230.041+420.165+212.989+415.169+212.23+414.45C211.735+413.981+227.525+417.782+227.044+417.322C213.708+404.599+205.383+395.617+205.383+395.617C205.383+395.617+211.876+400.234+220.165+406.224C220.709+406.617+218.265+399.009+218.823+399.414C219.494+399.899+223.169+408.398+223.856+408.897C232.023+414.821+241.171+421.541+247.425+426.378C248.418+427.146+247.42+390.072+248.413+390.843C249.597+391.761+250.324+402.654+251.083+412.856C251.14+413.623+258.443+406.388+258.5+407.142C258.557+407.89+251.369+416.626+251.427+417.352C251.988+424.381+252.604+430.222+253.456+430.885C267.125+441.522+281.214+452.536+295.632+462.899C296.255+463.347+296.535+446.891+296.794+429.331C296.812+428.11+275.704+401.788+275.722+400.563C275.749+398.721+296.756+424.767+296.783+422.943C297.035+406.079+297.464+387.958+298.068+388.384C298.897+388.97+300.221+413.842+301.485+435.783C301.541+436.755+315.638+419.461+315.694+420.419C315.748+421.353+301.762+440.539+301.816+441.455C302.688+456.252+303.508+468.466+304.089+468.868C328.868+486.027+354.55+500.713+380.682+507.842L376.185+479.018L363.557+473.09L343.178+473.266L360.118+471.475L338.558+461.353L322.656+460.508L334.783+459.581L314.542+450.079L344.277+461.795L338.819+445.304L346.303+462.199L374.711+473.787L351.815+434.297L332.281+421.963L349.322+429.995L334.446+404.337L343.922+417.315L342.714+405.916L346.602+420.985L361.529+441.427L364.572+431.853L361.899+421.111L365.589+428.651L369.817+415.349L364.452+444.587L381.276+472.817L383.826+456.533L380.83+447.671L384.374+453.037L386.613+438.739L386.581+461.44L393.915+453.133L386.577+464.6L386.554+480.607L396.325+511.497L451.662+521.707C455.913+504.17+453.665+497.982+451.165+486.575C406.499+450.669+373.399+414.449+336.585+371.611C336.119+371.069+329.714+368.837+321.032+365.956C320.516+365.784+289.906+375.421+289.375+375.246C288.738+375.035+318.176+365.011+317.52+364.795C298.04+358.383+270.518+349.681+269.543+348.526C268.846+347.703+285.86+351.917+301.736+355.805C302.145+355.905+292.309+336.427+292.715+336.527C293.075+336.615+303.678+356.28+304.037+356.368C317.095+359.561+328.736+362.35+328.163+361.662C320.601+352.596+308.025+334.752+294.471+314.826C293.609+313.558+237.437+297.245+236.568+295.961C236.242+295.481+252.791+299.368+267.572+302.921C268.477+303.138+260.57+287.024+261.457+287.239C262.366+287.458+269.702+303.08+270.984+303.316C280.612+305.082+290.11+308.395+290.11+308.395L265.907+272.123L243.374+258.684C243.374+258.684+264.291+269.335+263.354+267.916C253.932+253.649+243.956+238.843+238.942+231.36C245.445+237.976+261.395+260.525+276.825+282.348C277.22+282.906+277.944+279.739+278.746+275.685C278.845+275.184+274.529+262.94+274.63+262.417C274.728+261.91+279.244+273.125+279.343+272.607C280.481+266.651+281.652+260.325+282.192+261.089C282.891+262.076+279.092+285.007+279.785+285.985C291.778+302.924+304.968+321.927+310.001+327.411C310.739+328.216+316.237+291.565+316.976+292.37C317.626+293.079+317.138+302.746+316.625+312.609C316.556+313.929+323.442+305.343+323.375+306.649C323.334+307.447+316.339+318.147+316.3+318.927C315.909+326.84+315.665+333.591+316.204+334.179C330.758+350.062+345.31+365.946+360.188+381.013C361.08+381.916+363.085+371.919+365.196+360.9C365.321+360.244+358.032+339.768+358.158+339.107C358.333+338.193+365.923+357.093+366.097+356.178C368.354+344.351+371.524+333.902+371.524+333.902C371.524+333.902+371.495+340.981+370.341+349.063C370.231+349.84+377.729+343.532+377.611+344.337C377.573+344.595+369.922+351.955+369.884+352.216C367.738+366.776+364.708+384.865+365.921+386.039C382.675+402.243+406.868+427.679+425.082+440.22L437.857+420.086L430.112+444.922L460.076+464.604L459.475+426.637L402.156+329.227L391.174+325.484L372.951+325.803L384.907+323.347L333.516+305.829L370.167+315.39L358.592+294.052L376.417+317.021L399.54+323.053L364.747+268.247L352.678+265.268L333.627+269.064L349.54+264.493L321.39+257.546L344.602+261.003L336.445+249.057L347.458+261.978L362.132+264.474L322.778+202.847L316.623+198.647L304.759+196.271L313.957+196.827L300.621+187.726L319.749+198.105L293.017+156.244L311.588+184.089L309.402+171.703L313.798+187.403L343.862+232.48L344.809+226.091L339.76+210.78L345.392+222.162L347.714+206.499L346.122+236.361L378.19+284.739L381.775+277.067L379.869+263.578L383.051+274.337L390.021+259.422L380.354+287.735L465.279+413.469L467.579+357.878L450.858+339.393L418.788+331.258L447.435+335.659L420.053+295.689L392.666+280.849L417.554+292.041L381.916+240.019L408.237+275.197L409.044+254.163L410.286+277.936L439.817+317.405L442.575+297.65L443.645+322.622L468.223+350.331L465.987+260.519L438.257+232.697L418.458+231.344L398.744+238.939L415.246+231.125L372.709+228.219L404.324+228.997L393.693+212.89L406.314+228.569L434.967+228.867L391.794+189.47L361.608+176.823L386.61+184.159L346.671+143.244L373.981+168.295L373.453+144.709L378.505+172.445L415.198+206.103L412.974+167.717L400.414+148.12L412.597+161.196L411.318+139.131L417.217+177.994L429.513+162.188L418.698+186.814L420.041+209.438L467.408+253.994L467.077+214.964L434.686+178.048L466.994+205.197L466.814+184.042L431.242+133.647L449.176+156.142L447.578+133.405L453.211+161.203L466.765+178.205L466.284+121.547L454.59+94.8855L466.235+115.71L465.958+83.1051L467.592+133.732L495.345+95.8884L479.788+121.688L498.847+115.38L477.236+125.92L468.705+137.643L469.486+192.388L492.808+167.591L469.674+198.213L470.43+221.622L503.174+195.964L495.899+145.202L507.085+192.29L555.319+150.94L529.359+177.176L557.682+174.572L527.813+181.198L471.783+228.426L474.342+311.765L497.254+292.064L496.778+266.569L490.669+248.819L496.683+261.441L496.168+233.806L498.521+272.458L507.441+259.031L498.712+275.597L499.532+289.061L535.952+242.151L535.588+223.587L528.643+206.384L535.494+218.825L535.053+196.314L538.182+239.278L560.655+210.333L560.797+187.197L562.748+207.637L575.148+191.665L550.842+226.324L585.068+209.998L565.787+220.367L579.487+219.505L562.839+221.952L548.5+229.663L512.981+280.312L527.244+278.069L537.912+268.199L530.595+277.543L545.521+275.195L512.041+283.583L475.676+315.982L479.743+411.678L510.113+368.437L499.681+310.594L507.307+337.48L512.685+315.238L509.611+345.604L514.155+361.623L555.49+303.828L555.214+293.762L548.937+280.554L555.116+290.215L553.828+243.331L558.051+280.266L564.54+264.467L558.738+284.638L560.991+298.973L607.114+234.99L606.384+204.601L609.638+230.501L643.394+184.663L625.212+211.833L637.833+203.17L623.172+214.881L589.864+264.653L616.92+252.475L619.884+246.401L619.862+235.803L621.366+243.364L625.637+234.609L619.363+250.93L648.305+238.349L632.198+246.956L642.79+247.393L629.66+248.313L607.157+260.338L638.868+257.812L621.803+259.884L630.471+263.032L618.524+260.282L603.948+262.053L586.328+271.468L530.977+355.662L566.445+339.791L526.386+364.927L485.323+425.109L486.181+461.396L512.553+444.863L523.858+422.947L523.732+401.123L527.07+416.721L538.315+394.921L521.447+439.918C551.363+420.077+577.25+397.972+602.087+375.276C602.529+374.872+601.724+369.894+600.321+362.729C600.195+362.086+586.198+349.566+586.063+348.889C585.934+348.244+599.667+359.443+599.53+358.77C597.895+350.696+595.749+340.755+593.8+331.535C593.569+330.443+580.211+314.97+579.988+313.902C579.801+313.016+592.748+326.532+592.568+325.668C590.06+313.631+588.208+303.999+588.828+303.428C589.554+302.758+597.542+335.647+600.613+347.916C600.78+348.583+612.542+329.726+612.709+330.39C613.031+331.674+601.756+352.472+602.071+353.721C604.511+363.379+606.675+371.515+607.264+370.969C618.714+360.356+640.329+339.722+660.442+320.769C660.861+320.374+662.269+310.707+663.8+299.877C663.888+299.25+653.559+283.319+653.648+282.686C653.814+281.508+664.4+295.623+664.566+294.44C666.303+282.111+668.015+270.006+668.481+269.568C668.764+269.302+668.138+277.54+667.366+287.161C667.334+287.553+674.977+279.662+674.945+280.058C674.903+280.584+667.185+289.398+667.142+289.929C666.115+302.631+664.961+316.516+665.324+316.175C678.028+304.234+689.722+293.381+697.32+286.708C684.718+300.92+665.243+321.662+645.195+342.423C644.724+342.911+662.954+337.73+677.955+333.527C678.63+333.337+685.554+314.631+686.214+314.447C687.172+314.179+679.878+332.325+680.793+332.07C689.142+329.745+695.49+328.025+695.209+328.316C694.909+328.625+690.812+330.796+682.725+333.466C678.936+334.717+674.705+336.102+670.42+337.503C669.299+337.87+685.766+343.119+684.644+343.486C683.985+343.702+665.734+339.035+665.077+339.25C652.282+343.436+640.444+347.331+640.023+347.766C619.961+368.442+599.867+388.582+586.006+401.707C584.911+402.743+604.772+400.52+624.922+398.249C625.567+398.176+642.829+371.053+643.474+370.98C644.411+370.875+628.731+397.82+629.664+397.714C648.724+395.568+666.581+393.607+665.529+394.581C664.198+395.812+633.373+400.542+608.158+404.601C607.209+404.754+626.259+414.475+625.327+414.626C624.471+414.764+603.632+405.333+602.795+405.469C588.073+407.864+576.36+409.9+575.541+410.639C549.488+434.169+521.482+456.088+490.29+475.376C493.094+493.356+491.051+510.365+498.89+521.423L551.216+495.319L548.815+466.845L539.848+449.729L548.269+460.367L546.801+442.954L552.359+473.931L571.673+452.35L554.074+479.46L558.284+493.024C575.627+489.57+591.516+481.92+606.626+472.019C607.521+471.432+608.007+465.377+608.37+457.685C608.416+456.629+589.406+440.82+589.451+439.713C589.486+438.858+608.583+452.713+608.617+451.838C609.131+438.57+609.81+417.648+611.224+416.639C612.314+415.862+612.927+433.741+613.848+445.31C613.951+446.606+629.774+425.351+629.877+426.618C629.969+427.74+614.342+451.388+614.435+452.459C615.103+460.207+615.792+466.257+616.567+465.672C629.817+455.65+643.517+443.479+657.278+431.367C657.723+430.975+658.263+425.083+658.811+418.688C658.89+417.769+651.895+409.085+651.974+408.161C652.053+407.237+659.205+414.071+659.284+413.17C659.783+407.437+660.269+402.483+660.676+402.126C661.824+401.117+662.516+426.766+663.665+425.762C670.409+419.864+677.153+414.063+683.853+408.616C684.871+407.788+693.802+380.726+694.819+379.916C695.502+379.371+688.27+405.072+688.952+404.536C693.065+401.301+714.055+378.924+718.115+376.07C716.556+380.051+692.066+407.659+682.951+416.83C682.184+417.603+705.187+410.503+704.4+411.286C703.34+412.341+678.482+421.282+677.398+422.348C661.185+438.286+643.148+454.747+645.413+454.746C658.248+454.078+669.093+453.535+678.179+453.104C679.449+453.044+697.345+438.272+698.547+438.216C699.821+438.156+684.397+452.814+685.596+452.76C780.974+448.42+640.688+458.997+638.572+460.821C613.593+482.349+584.588+503.501+557.251+513.102C555.604+513.68+572.532+518.356+592.747+523.591C593.277+523.729+602.434+517.895+611.734+511.963C612.463+511.498+617.042+491.007+617.768+490.543C619.089+489.701+614.59+510.623+615.866+509.813C623.139+505.191+631.229+499.63+631.667+499.742C632.706+500.01+598.089+524.968+599.138+525.237C625.696+532.044+655.039+539.165+655.039+539.165C655.039+539.165+552.962+517.701+549.754+520.377C532.088+535.144+505.431+546.432+505.114+549.333C500.493+591.563+500.153+750.558+542.081+765.609C569.053+775.293+576.025+775.323+581.95+810.628C587.875+845.931+649.583+881.912+699.466+906.229C656.209+876.253+589.981+880.801+570.716+827.39C551.449+773.978+546.041+788.47+526.244+786.191C545.286+810.295+546.163+825.809+540.481+847.561C534.798+869.314+535.727+878.95+553.892+905.375C572.057+931.8+571.942+975.155+578.136+1009.88C567.83+974.287+564.805+927.3+540.186+904.416C515.567+881.532+517.764+867.12+524.745+845.609C531.725+824.099+517.974+811.216+499.762+792.075C496.638+811.521+480.765+835.846+500.006+857.251C519.247+878.655+518.744+884.212+497.75+907.545C476.757+930.878+492.426+973.129+496.014+1007.16C490.781+974.908+463.174+937.407+482.508+909.999C501.841+882.59+489.167+876.159+475.191+857.37C461.216+838.58+465.181+814.566+466.11+792.047C451.473+807.669+437.095+821.285+441.041+843.087C444.986+864.888+441.195+877.167+414.457+897.209C387.719+917.252+383.675+954.734+371.973+983.701C378.143+952.812+377.821+914.793+402.642+893.437C427.464+872.081+431.977+856.26+422.566+834.8C413.154+813.341+428.812+803.107+438.244+788.657C416.698+776.435+396.616+781.636+375.976+829.284C355.337+876.932+292.272+867.79+253.528+888.79L253.532+888.796Z" opacity="1" fill="url(#LinearGradient_4)"/>
<path d="M237.495+892.951C287.107+872.765+343.352+859.703+347.474+825.638C351.598+791.573+383.74+777.053+406.127+761.356C438.786+738.458+443.087+591.252+432.697+553.37C432.034+550.952+421.128+546.171+405.867+540.388C402.725+539.197+326.415+568.562+322.955+567.298C321.461+566.752+362.054+552.243+371.343+547.972C372.23+547.565+351.259+540.938+352.158+540.529C353.538+539.9+376.79+545.487+378.156+544.87C387.731+540.536+396.291+536.714+394.567+536.831C383.332+537.597+352.592+523.652+318.969+503.546C318.318+503.157+308.589+502.446+297.187+501.676C296.393+501.622+289.325+505.971+288.517+505.917C287.854+505.873+293.452+501.425+292.782+501.38C277.285+500.345+260.507+499.261+259.64+498.731C259.051+498.372+267.621+498.332+277.841+498.348C278.503+498.349+268.449+491.814+269.123+491.815C269.788+491.817+281.18+498.355+281.853+498.356C295.649+498.391+310.621+498.464+309.846+497.982C297.929+490.572+285.84+482.501+274.296+474.136C273.315+473.425+264.81+471.961+255.003+470.366C254.266+470.246+245.374+473.593+244.625+473.471C243.865+473.349+251.247+469.758+250.481+469.635C237.726+467.58+224.395+465.466+223.17+464.561C222.387+463.983+230.244+464.267+239.092+464.65C240.032+464.691+231.179+456.347+232.132+456.389C233.079+456.431+243.833+464.858+244.775+464.9C254.117+465.308+262.77+465.648+261.962+465.043C254.725+459.616+247.716+454.002+241.093+448.448C240.77+448.178+233.974+446.994+226.461+445.709C225.724+445.583+219.102+449.049+218.357+448.922C217.593+448.792+222.705+445.068+221.944+444.938C213.988+443.579+206.503+442.287+206.168+442.004C205.445+441.391+237.489+445.402+236.775+444.792C228.683+437.869+221.251+431.128+214.791+425.059C214.003+424.319+196.951+419.324+196.193+418.605C195.698+418.136+211.488+421.936+211.007+421.477C197.67+408.754+189.345+399.771+189.345+399.771C189.345+399.771+195.839+404.389+204.127+410.379C204.672+410.772+202.227+403.164+202.786+403.568C203.456+404.053+207.132+412.553+207.818+413.051C215.985+418.976+225.133+425.696+231.387+430.533C232.381+431.301+231.383+394.227+232.376+394.997C233.559+395.915+234.286+406.809+235.045+417.011C235.102+417.777+242.405+410.543+242.462+411.297C242.519+412.044+235.331+420.78+235.389+421.507C235.951+428.536+236.566+434.377+237.418+435.039C251.087+445.677+265.176+456.691+279.594+467.054C280.217+467.501+280.498+451.046+280.756+433.486C280.774+432.265+259.667+405.943+259.685+404.718C259.712+402.876+280.718+428.922+280.746+427.097C280.998+410.234+281.427+392.112+282.031+392.539C282.86+393.125+284.183+417.997+285.448+439.937C285.504+440.909+299.6+423.616+299.656+424.574C299.711+425.508+285.724+444.694+285.779+445.61C286.65+460.406+287.47+472.621+288.051+473.023C312.831+490.181+338.513+504.867+364.644+511.996L360.147+483.173L347.519+477.244L327.14+477.42L344.08+475.63L322.52+465.508L306.619+464.663L318.745+463.736L298.505+454.233L328.239+465.95L322.782+449.458L330.266+466.354L358.673+477.941L335.777+438.451L316.243+426.117L333.284+434.149L318.408+408.491L327.884+421.469L326.677+410.071L330.564+425.139L345.491+445.581L348.534+436.007L345.861+425.265L349.552+432.806L353.78+419.504L348.414+448.741L365.238+476.972L367.789+460.688L364.792+451.826L368.336+457.191L370.576+442.894L370.543+465.595L377.877+457.288L370.539+468.755L370.516+484.761L380.287+515.651L435.624+525.862C439.875+508.325+437.627+502.137+435.127+490.73C390.462+454.823+357.361+418.604+320.547+375.766C320.081+375.224+313.677+372.991+304.994+370.11C304.478+369.939+273.869+379.576+273.338+379.4C272.701+379.19+302.139+369.165+301.483+368.95C282.002+362.538+254.481+353.835+253.505+352.681C252.809+351.858+269.822+356.072+285.698+359.96C286.107+360.06+276.271+340.582+276.678+340.681C277.038+340.77+287.641+360.435+287.999+360.523C301.057+363.716+312.698+366.505+312.125+365.817C304.564+356.75+291.988+338.907+278.434+318.981C277.571+317.712+221.4+301.4+220.53+300.116C220.205+299.636+236.753+303.523+251.535+307.075C252.439+307.293+244.533+291.179+245.42+291.393C246.329+291.613+253.664+307.235+254.947+307.47C264.575+309.237+274.073+312.549+274.073+312.549L249.871+276.273L227.337+262.835C227.337+262.835+248.255+273.486+247.318+272.067C237.895+257.8+227.919+242.994+222.905+235.511C229.408+242.127+245.359+264.676+260.789+286.499C261.183+287.057+261.907+283.89+262.71+279.836C262.809+279.335+258.492+267.091+258.593+266.568C258.691+266.061+263.207+277.276+263.306+276.758C264.445+270.802+265.615+264.476+266.156+265.24C266.854+266.227+263.056+289.158+263.748+290.136C275.742+307.074+288.931+326.077+293.964+331.562C294.703+332.367+300.201+295.715+300.939+296.521C301.59+297.23+301.101+306.897+300.588+316.76C300.519+318.08+307.405+309.494+307.338+310.8C307.297+311.597+300.303+322.297+300.264+323.078C299.872+330.991+299.628+337.741+300.168+338.33C314.722+354.213+329.273+370.096+344.151+385.163C345.043+386.067+347.049+376.07+349.159+365.051C349.285+364.395+341.996+343.919+342.122+343.258C342.296+342.344+349.886+361.244+350.061+360.328C352.318+348.502+355.487+338.053+355.487+338.053C355.487+338.053+355.458+345.132+354.305+353.214C354.194+353.991+361.692+347.683+361.575+348.487C361.537+348.746+353.886+356.106+353.847+356.367C351.701+370.927+348.671+389.016+349.885+390.19C366.639+406.394+390.831+431.83+409.045+444.371L421.821+424.237L414.075+449.073L444.039+468.755L443.438+430.787L386.12+333.378L375.138+329.634L356.915+329.954L368.87+327.498L317.48+309.98L354.13+319.541L342.556+298.203L360.381+321.172L383.504+327.204L348.711+272.398L336.642+269.419L317.59+273.214L333.504+268.644L305.354+261.697L328.566+265.153L320.408+253.208L331.421+266.129L346.096+268.625L306.741+206.998L300.586+202.798L288.723+200.422L297.92+200.978L284.585+191.877L303.713+202.255L276.98+160.395L295.552+188.24L293.366+175.854L297.761+191.554L327.826+236.631L328.773+230.242L323.724+214.931L329.356+226.313L331.678+210.65L330.086+240.511L362.154+288.89L365.739+281.218L363.832+267.728L367.015+278.488L373.985+263.573L364.317+291.886L449.242+417.62L451.543+362.029L434.822+343.544L402.752+335.409L431.399+339.81L404.017+299.84L376.629+285L401.518+296.192L365.879+244.17L392.2+279.348L393.008+258.314L394.25+282.087L423.781+321.556L426.539+301.801L427.608+326.773L452.186+354.482L449.951+264.67L422.22+236.848L402.421+235.495L382.707+243.09L399.209+235.276L356.672+232.369L388.286+233.148L377.656+217.041L390.277+232.72L418.93+233.018L375.756+193.621L345.571+180.974L370.573+188.31L330.634+147.395L357.943+172.446L357.416+148.86L362.467+176.596L399.16+210.254L396.936+171.868L384.376+152.271L396.559+165.347L395.281+143.281L401.179+182.145L413.475+166.339L402.661+190.965L404.004+213.589L451.371+258.145L451.039+219.115L418.649+182.199L450.956+209.348L450.777+188.193L415.205+137.798L433.139+160.293L431.541+137.555L437.173+165.354L450.728+182.356L450.247+125.698L438.552+99.0363L450.197+119.861L449.92+87.256L451.555+137.882L479.307+100.039L463.751+125.839L482.809+119.531L461.199+130.071L452.667+141.793L453.448+196.539L476.771+171.742L453.637+202.364L454.392+225.773L487.137+200.115L479.861+149.353L491.047+196.441L539.282+155.09L513.321+181.327L541.645+178.723L511.776+185.348L455.745+232.577L458.305+315.916L481.216+296.215L480.741+270.719L474.632+252.969L480.645+265.592L480.13+237.957L482.483+276.608L491.404+263.182L482.675+279.748L483.494+293.212L519.915+246.302L519.55+227.737L512.605+210.535L519.457+222.976L519.015+200.464L522.145+243.429L544.617+214.484L544.76+191.348L546.71+211.788L559.11+195.816L534.804+230.475L569.031+214.149L549.749+224.518L563.45+223.656L546.802+226.103L532.463+233.814L496.943+284.463L511.207+282.22L521.875+272.35L514.558+281.693L529.483+279.346L496.004+287.734L459.638+320.133L463.705+415.829L494.076+372.588L483.644+314.745L491.27+341.63L496.648+319.389L493.574+349.755L498.117+365.774L539.453+307.979L539.176+297.913L532.9+284.704L539.079+294.366L537.791+247.482L542.013+284.417L548.503+268.618L542.7+288.788L544.953+303.123L591.077+239.141L590.347+208.752L593.601+234.652L627.357+188.814L609.174+215.984L621.796+207.321L607.135+219.032L573.827+268.804L600.883+256.626L603.846+250.552L603.824+239.954L605.328+247.515L609.6+238.76L603.326+255.08L632.268+242.5L616.161+251.107L626.752+251.544L613.623+252.464L591.119+264.489L622.831+261.962L605.766+264.035L614.434+267.183L602.487+264.433L587.911+266.203L570.291+275.618L514.94+359.813L550.408+343.941L510.349+369.078L469.285+429.259L470.144+465.547L496.515+449.014L507.821+427.098L507.695+405.274L511.032+420.872L522.277+399.072L505.41+444.069C535.326+424.228+561.213+402.123+586.049+379.427C586.492+379.022+585.686+374.045+584.283+366.879C584.158+366.236+570.161+353.716+570.026+353.04C569.897+352.395+583.63+363.594+583.493+362.921C581.857+354.847+579.712+344.906+577.763+335.686C577.532+334.594+564.174+319.121+563.95+318.053C563.764+317.167+576.711+330.683+576.531+329.819C574.023+317.782+572.171+308.15+572.79+307.579C573.517+306.909+581.504+339.798+584.576+352.067C584.743+352.734+596.505+333.877+596.671+334.541C596.993+335.825+585.718+356.623+586.034+357.872C588.474+367.53+590.638+375.666+591.227+375.12C602.676+364.507+624.291+343.872+644.405+324.92C644.824+324.525+646.232+314.858+647.763+304.028C647.852+303.401+637.522+287.47+637.611+286.836C637.777+285.659+648.363+299.774+648.529+298.591C650.266+286.262+651.978+274.157+652.444+273.719C652.727+273.453+652.102+281.691+651.328+291.312C651.297+291.704+658.94+283.812+658.908+284.208C658.866+284.734+651.148+293.549+651.105+294.08C650.078+306.782+648.924+320.667+649.286+320.326C661.991+308.385+673.685+297.532+681.282+290.859C668.681+305.071+649.206+325.813+629.158+346.574C628.687+347.062+646.917+341.881+661.918+337.678C662.593+337.488+669.517+318.782+670.177+318.597C671.134+318.33+663.841+336.476+664.756+336.221C673.105+333.895+679.453+332.176+679.172+332.466C678.872+332.776+674.775+334.946+666.688+337.617C662.899+338.868+658.668+340.252+654.383+341.654C653.262+342.02+669.729+347.27+668.607+347.637C667.948+347.852+649.697+343.186+649.04+343.401C636.245+347.587+624.407+351.482+623.986+351.916C603.924+372.593+583.83+392.733+569.969+405.858C568.874+406.894+588.735+404.671+608.885+402.4C609.53+402.327+626.792+375.204+627.437+375.131C628.374+375.025+612.694+401.971+613.627+401.865C632.687+399.719+650.544+397.758+649.491+398.732C648.161+399.963+617.336+404.693+592.121+408.752C591.172+408.905+610.222+418.626+609.29+418.777C608.434+418.915+587.595+409.484+586.758+409.62C572.036+412.015+560.323+414.05+559.504+414.79C533.451+438.32+505.445+460.239+474.253+479.527C477.057+497.507+475.014+514.516+482.853+525.574L535.178+499.469L532.778+470.995L523.811+453.88L532.232+464.518L530.763+447.105L536.322+478.082L555.636+456.501L538.037+483.61L542.247+497.174C559.59+493.72+575.479+486.071+590.588+476.17C591.483+475.583+591.97+469.527+592.333+461.836C592.382+460.78+573.369+444.971+573.414+443.864C573.449+443.009+592.546+456.864+592.58+455.989C593.094+442.72+593.772+421.799+595.187+420.79C596.277+420.013+596.89+437.892+597.811+449.46C597.914+450.757+613.737+429.502+613.84+430.768C613.932+431.89+598.305+455.539+598.398+456.61C599.066+464.357+599.755+470.408+600.53+469.823C613.78+459.801+627.48+447.629+641.241+435.518C641.686+435.126+642.226+429.234+642.774+422.839C642.853+421.92+635.858+413.236+635.937+412.312C636.016+411.387+643.168+418.222+643.247+417.321C643.746+411.588+644.232+406.634+644.639+406.277C645.787+405.268+646.479+430.917+647.628+429.913C654.372+424.015+661.117+418.214+667.816+412.767C668.834+411.939+677.765+384.877+678.782+384.067C679.464+383.522+672.233+409.223+672.915+408.687C677.028+405.452+698.018+383.075+702.078+380.22C700.519+384.202+676.028+411.81+666.914+420.981C666.147+421.754+689.15+414.654+688.363+415.437C687.303+416.492+662.445+425.433+661.361+426.499C645.148+442.437+627.111+458.897+629.376+458.897C642.211+458.228+653.056+457.686+662.141+457.255C663.412+457.195+681.308+442.423+682.51+442.367C683.784+442.307+668.36+456.965+669.559+456.91C764.937+452.571+624.651+463.147+622.535+464.972C597.556+486.5+568.551+507.652+541.214+517.253C539.567+517.831+556.495+522.507+576.71+527.742C577.24+527.879+586.397+522.046+595.697+516.113C596.426+515.649+601.005+495.157+601.731+494.694C603.052+493.851+598.553+514.774+599.829+513.964C607.102+509.342+615.192+503.78+615.629+503.893C616.668+504.161+582.052+529.119+583.101+529.388C609.658+536.195+639.002+543.316+639.002+543.316C639.002+543.316+536.925+521.852+533.717+524.528C516.051+539.294+489.394+550.583+489.077+553.484C484.456+595.714+484.116+754.709+526.043+769.76C553.016+779.443+559.988+779.474+565.913+814.778C571.838+850.082+633.546+886.063+683.429+910.38C640.172+880.404+573.944+884.952+554.678+831.54C535.412+778.129+530.004+792.621+510.207+790.342C529.249+814.446+530.126+829.96+524.444+851.713C518.761+873.465+519.689+883.101+537.855+909.526C556.02+935.951+555.905+979.305+562.099+1014.04C551.793+978.438+548.767+931.451+524.148+908.567C499.529+885.683+501.727+871.271+508.708+849.76C515.688+828.249+501.937+815.367+483.725+796.226C480.601+815.672+464.728+839.997+483.969+861.401C503.21+882.806+502.707+888.363+481.713+911.696C460.72+935.029+476.389+977.28+479.977+1011.31C474.744+979.059+447.137+941.557+466.47+914.15C485.804+886.741+473.13+880.31+459.154+861.52C445.179+842.731+449.144+818.716+450.073+796.198C435.436+811.82+421.058+825.436+425.004+847.238C428.949+869.039+425.157+881.318+398.42+901.36C371.682+921.403+367.638+958.885+355.936+987.852C362.106+956.963+361.784+918.944+386.605+897.588C411.426+876.233+415.94+860.411+406.528+838.951C397.117+817.492+412.775+807.258+422.206+792.808C400.661+780.586+380.579+785.787+359.939+833.435C339.3+881.083+276.235+871.94+237.491+892.941L237.495+892.951Z" opacity="0.33" fill="#000000"/>
</g>
</g>
</svg>
