<?xml version="1.0" encoding="UTF-8"?>
<!DOCTYPE svg PUBLIC "-//W3C//DTD SVG 1.1//EN"
  "http://www.w3.org/Graphics/SVG/1.1/DTD/svg11.dtd">
<!-- Created with Inkpad (http://www.taptrix.com/) --><svg xmlns:inkpad="http://taptrix.com/inkpad/svg_extensions" height="900pt" xmlns:xlink="http://www.w3.org/1999/xlink" xmlns="http://www.w3.org/2000/svg" width="1440pt" version="1.1" viewBox="0,0,1440,900">
<defs>
<linearGradient y1="422.46" id="LinearGradient" x1="28.926" y2="285.42" x2="-112.07" gradientUnits="userSpaceOnUse" gradientTransform="matrix(-0.695082 0 0 0.645927 553.736 220.597)">
<stop stop-color="#008400" offset="0"/>
<stop stop-color="#00a000" offset="1"/>
</linearGradient>
<linearGradient y1="422.46" id="LinearGradient_2" x1="28.926" y2="285.42" x2="-112.07" gradientUnits="userSpaceOnUse" gradientTransform="matrix(-0.695082 0 0 0.645927 325.664 -8.11093)">
<stop stop-color="#008400" offset="0"/>
<stop stop-color="#00a000" offset="1"/>
</linearGradient>
<linearGradient y1="456.75" id="LinearGradient_3" x1="-53.632" y2="216.93" x2="-135.5" gradientUnits="userSpaceOnUse" gradientTransform="matrix(-0.695082 0 0 0.645927 513.363 60.981)">
<stop stop-color="#006400" offset="0"/>
<stop stop-color="#00a000" offset="1"/>
</linearGradient>
<linearGradient y1="1272.6" id="LinearGradient_4" x1="462.51" y2="323.12" x2="428.25" gradientUnits="userSpaceOnUse" gradientTransform="matrix(0.645927 0 0 0.645927 250.017 60.9791)">
<stop stop-color="#000000" offset="0"/>
<stop stop-color="#986601" offset="0.5"/>
<stop stop-color="#000400" offset="1"/>
</linearGradient>
</defs>
<g id="layer1" inkpad:layerName="layer1">
<g opacity="1">
<g opacity="1">
<path d="M643.694+442.119C641.028+484.277+603.681+516.354+560.277+513.764C516.872+511.175+483.846+474.9+486.512+432.742C489.177+390.584+526.524+358.508+569.929+361.097C613.333+363.686+646.359+399.961+643.694+442.119Z" opacity="0.5" fill="#000000"/>
<path d="M636.003+441.66C633.338+483.818+595.991+515.895+552.586+513.305C509.182+510.716+476.155+474.441+478.821+432.283C481.486+390.126+518.834+358.049+562.238+360.638C605.643+363.228+638.669+399.502+636.003+441.66Z" opacity="1" fill="#015a01"/>
</g>
<g opacity="1">
<path d="M358.753+602.012C356.088+644.169+318.741+676.246+275.336+673.657C231.931+671.067+198.905+634.793+201.571+592.635C204.236+550.477+241.583+518.4+284.988+520.99C328.393+523.579+361.419+559.854+358.753+602.012Z" opacity="0.5" fill="#000400"/>
<path d="M366.95+595.003C364.284+637.16+326.937+669.237+283.532+666.648C240.128+664.059+207.102+627.784+209.767+585.626C212.432+543.468+249.78+511.391+293.184+513.981C336.589+516.57+369.615+552.845+366.95+595.003Z" opacity="1" fill="#006000"/>
</g>
<g opacity="1">
<path d="M250.731+625.622C248.065+667.78+281.091+704.055+324.496+706.645C367.9+709.234+405.248+677.158+407.913+635C410.578+592.842+377.553+556.567+334.148+553.977C290.744+551.388+253.396+583.465+250.731+625.622Z" opacity="0.5" fill="#000400"/>
<path d="M255.037+618.381C252.372+660.539+285.397+696.814+328.802+699.404C372.206+701.993+409.554+669.917+412.22+627.759C414.885+585.601+381.859+549.326+338.454+546.736C295.05+544.147+257.703+576.223+255.037+618.381Z" opacity="1" fill="#339900"/>
</g>
<g opacity="1">
<path d="M431.535+646.937C428.869+689.095+461.895+725.37+505.3+727.959C548.704+730.549+586.052+698.472+588.717+656.314C591.383+614.157+558.358+577.882+514.952+575.292C471.548+572.703+434.2+604.779+431.535+646.937Z" opacity="0.5" fill="#000000"/>
<path d="M420.213+642.513C417.547+684.67+450.573+720.946+493.978+723.535C537.382+726.124+574.73+694.048+577.395+651.89C580.061+609.732+547.035+573.457+503.63+570.868C460.226+568.278+422.878+600.355+420.213+642.513Z" opacity="1" fill="url(#LinearGradient)"/>
</g>
<g opacity="1">
<path d="M580.493+379.921C577.828+422.078+540.48+454.156+497.075+451.566C453.671+448.977+420.645+412.702+423.31+370.544C425.976+328.386+463.323+296.309+506.728+298.899C550.132+301.488+583.158+337.763+580.493+379.921Z" opacity="0.5" fill="#000000"/>
<path d="M572.567+383.186C569.901+425.344+532.554+457.421+489.149+454.831C445.745+452.242+412.719+415.967+415.384+373.809C418.05+331.652+455.397+299.575+498.802+302.164C542.206+304.754+575.232+341.028+572.567+383.186Z" opacity="1" fill="#00ac00"/>
</g>
<g opacity="1">
<path d="M535.361+661.987C532.696+704.144+495.349+736.221+451.944+733.632C408.539+731.042+375.513+694.768+378.179+652.61C380.844+610.452+418.191+578.375+461.596+580.965C505+583.554+538.026+619.829+535.361+661.987Z" opacity="0.5" fill="#000000"/>
<path d="M531.944+654.285C529.278+696.443+491.931+728.52+448.526+725.93C405.122+723.341+372.096+687.066+374.761+644.908C377.427+602.75+414.774+570.673+458.179+573.263C501.583+575.852+534.609+612.127+531.944+654.285Z" opacity="1" fill="#006400"/>
</g>
<g opacity="1">
<path d="M656.146+518.616C653.481+560.774+616.133+592.851+572.729+590.261C529.324+587.672+496.298+551.397+498.964+509.239C501.629+467.081+538.976+435.005+582.381+437.594C625.785+440.183+658.812+476.458+656.146+518.616Z" opacity="0.5" fill="#000000"/>
<path d="M648.422+518.155C645.756+560.313+608.409+592.39+565.005+589.8C521.6+587.211+488.574+550.936+491.239+508.778C493.905+466.621+531.252+434.544+574.657+437.133C618.061+439.723+651.088+475.997+648.422+518.155Z" opacity="1" fill="#007c00"/>
</g>
<g opacity="1">
<path d="M496.994+364.271C494.329+406.429+456.982+438.506+413.577+435.916C370.173+433.327+337.146+397.052+339.812+354.894C342.478+312.736+379.825+280.66+423.23+283.249C466.634+285.838+499.66+322.113+496.994+364.271Z" opacity="0.5" fill="#000000"/>
<path d="M485.256+367.32C482.59+409.477+445.243+441.554+401.838+438.965C358.434+436.375+325.408+400.101+328.073+357.943C330.739+315.785+368.086+283.708+411.491+286.298C454.895+288.887+487.921+325.162+485.256+367.32Z" opacity="1" fill="#009c00"/>
</g>
<g opacity="1">
<path d="M453.322+378.974C450.657+421.132+413.31+453.209+369.905+450.619C326.501+448.03+293.474+411.755+296.14+369.597C298.805+327.44+336.153+295.363+379.557+297.952C422.962+300.541+455.988+336.816+453.322+378.974Z" opacity="0.5" fill="#000000"/>
<path d="M452.848+386.477C450.182+428.634+412.835+460.711+369.431+458.122C326.026+455.532+293+419.257+295.665+377.099C298.331+334.942+335.678+302.865+379.083+305.454C422.487+308.044+455.513+344.318+452.848+386.477Z" opacity="1" fill="#008c00"/>
</g>
<g opacity="1">
<path d="M641.143+617.133C638.477+659.291+601.13+691.368+557.725+688.778C514.321+686.189+481.295+649.914+483.96+607.756C486.626+565.599+523.973+533.522+567.378+536.111C610.782+538.701+643.808+574.975+641.143+617.133Z" opacity="0.5" fill="#000000"/>
<path d="M633.688+612.94C631.023+655.097+593.676+687.174+550.271+684.585C506.866+681.995+473.84+645.721+476.506+603.562C479.171+561.405+516.518+529.328+559.924+531.917C603.328+534.507+636.354+570.781+633.688+612.94Z" opacity="1" fill="#008400"/>
</g>
<g opacity="1">
<path d="M642.042+552.915C639.377+595.073+602.03+627.15+558.625+624.56C515.22+621.971+482.194+585.696+484.86+543.538C487.525+501.38+524.872+469.303+568.277+471.893C611.681+474.482+644.708+510.757+642.042+552.915Z" opacity="0.5" fill="#000000"/>
<path d="M634.138+556.182C631.473+598.339+594.126+630.416+550.721+627.827C507.316+625.237+474.29+588.963+476.956+546.805C479.621+504.647+516.968+472.57+560.373+475.16C603.778+477.749+636.804+514.024+634.138+556.182Z" opacity="1" fill="#007800"/>
</g>
<g opacity="1">
<path d="M605.765+426.456C603.1+468.614+565.753+500.691+522.348+498.101C478.944+495.512+445.917+459.237+448.583+417.079C451.248+374.921+488.596+342.845+532.001+345.434C575.405+348.023+608.431+384.298+605.765+426.456Z" opacity="0.5" fill="#000400"/>
<path d="M597.861+429.723C595.196+471.88+557.849+503.957+514.444+501.368C471.039+498.778+438.013+462.504+440.679+420.346C443.344+378.188+480.692+346.111+524.096+348.701C567.501+351.29+600.527+387.565+597.861+429.723Z" opacity="1" fill="#339900"/>
</g>
<g opacity="1">
<path d="M392.174+382.141C389.508+424.299+422.534+460.574+465.939+463.163C509.343+465.753+546.691+433.677+549.356+391.518C552.021+349.361+518.996+313.086+475.591+310.496C432.187+307.907+394.839+339.983+392.174+382.141Z" opacity="0.5" fill="#000000"/>
<path d="M384.27+385.408C381.604+427.566+414.63+463.841+458.035+466.43C501.439+469.02+538.787+436.943+541.452+394.785C544.117+352.628+511.092+316.352+467.687+313.763C424.283+311.174+386.935+343.25+384.27+385.408Z" opacity="1" fill="#00b000"/>
</g>
<g opacity="1">
<path d="M608.86+614.593C606.195+656.75+568.848+688.827+525.443+686.238C482.039+683.648+449.012+647.373+451.678+605.215C454.343+563.058+491.69+530.981+535.095+533.57C578.5+536.16+611.526+572.435+608.86+614.593Z" opacity="0.5" fill="#000000"/>
<path d="M597.539+610.168C594.873+652.326+557.526+684.403+514.121+681.813C470.717+679.224+437.69+642.949+440.356+600.791C443.021+558.633+480.368+526.556+523.773+529.146C567.178+531.735+600.204+568.01+597.539+610.168Z" opacity="1" fill="#006000"/>
</g>
<g opacity="1">
<path d="M596.283+544.496C593.618+586.654+556.271+618.731+512.866+616.141C469.462+613.552+436.436+577.277+439.101+535.119C441.767+492.961+479.114+460.885+522.518+463.474C565.923+466.063+598.949+502.338+596.283+544.496Z" opacity="0.5" fill="#000400"/>
<path d="M588.324+547.77C585.658+589.928+548.311+622.005+504.906+619.415C461.502+616.826+428.475+580.551+431.141+538.393C433.806+496.236+471.154+464.159+514.558+466.748C557.963+469.337+590.989+505.612+588.324+547.77Z" opacity="1" fill="#009400"/>
</g>
<g opacity="1">
<path d="M574.521+422.123C571.856+464.281+534.508+496.358+491.104+493.768C447.699+491.179+414.673+454.904+417.339+412.746C420.004+370.589+457.351+338.512+500.756+341.101C544.16+343.691+577.187+379.965+574.521+422.123Z" opacity="0.5" fill="#000000"/>
<path d="M570.159+429.361C567.494+471.519+530.146+503.596+486.742+501.006C443.337+498.417+410.311+462.142+412.977+419.984C415.642+377.827+452.989+345.75+496.394+348.339C539.798+350.928+572.824+387.203+570.159+429.361Z" opacity="1" fill="#008400"/>
</g>
<g opacity="1">
<path d="M591.622+481.23C588.957+523.387+551.609+555.464+508.204+552.875C464.8+550.285+431.774+514.01+434.439+471.852C437.105+429.695+474.452+397.618+517.857+400.207C561.261+402.797+594.287+439.071+591.622+481.23Z" opacity="0.5" fill="#000000"/>
<path d="M583.717+484.507C581.052+526.665+543.705+558.742+500.3+556.152C456.895+553.563+423.869+517.288+426.535+475.13C429.2+432.972+466.547+400.895+509.952+403.485C553.357+406.074+586.383+442.349+583.717+484.507Z" opacity="1" fill="#007800"/>
</g>
<g opacity="1">
<path d="M310.753+644.538C308.088+686.696+341.113+722.971+384.518+725.561C427.922+728.15+465.27+696.074+467.935+653.915C470.601+611.758+437.575+575.483+394.171+572.893C350.766+570.304+313.419+602.38+310.753+644.538Z" opacity="0.5" fill="#000000"/>
<path d="M318.658+641.261C315.992+683.418+349.018+719.694+392.423+722.283C435.827+724.873+473.175+692.796+475.84+650.638C478.506+608.481+445.48+572.205+402.075+569.616C358.671+567.026+321.323+599.103+318.658+641.261Z" opacity="1" fill="#008c00"/>
</g>
<g opacity="1">
<path d="M177.782+512.006C175.117+554.163+208.142+590.438+251.547+593.028C294.951+595.617+332.299+563.541+334.965+521.383C337.63+479.225+304.604+442.95+261.2+440.361C217.795+437.771+180.448+469.848+177.782+512.006Z" opacity="0.5" fill="#000400"/>
<path d="M185.687+508.728C183.021+550.886+216.047+587.161+259.452+589.75C302.856+592.34+340.204+560.264+342.869+518.105C345.535+475.948+312.509+439.673+269.104+437.083C225.7+434.494+188.352+466.57+185.687+508.728Z" opacity="1" fill="#007400"/>
</g>
<g opacity="1">
<path d="M240.118+389.276C237.452+431.434+270.478+467.709+313.883+470.298C357.287+472.888+394.635+440.811+397.3+398.653C399.966+356.496+366.94+320.221+323.535+317.631C280.131+315.042+242.783+347.118+240.118+389.276Z" opacity="0.5" fill="#000000"/>
<path d="M245.66+393.361C242.995+435.519+276.021+471.794+319.426+474.383C362.83+476.973+400.177+444.896+402.843+402.738C405.508+360.581+372.483+324.306+329.078+321.716C285.674+319.127+248.326+351.203+245.66+393.361Z" opacity="1" fill="#007c00"/>
</g>
<g opacity="1">
<path d="M353.878+422.879C351.213+465.037+384.238+501.312+427.643+503.901C471.047+506.491+508.395+474.414+511.061+432.256C513.726+390.099+480.701+353.823+437.296+351.234C393.891+348.645+356.544+380.721+353.878+422.879Z" opacity="0.5" fill="#000000"/>
<path d="M349.516+430.117C346.851+472.274+379.876+508.55+423.281+511.139C466.685+513.728+504.033+481.652+506.699+439.494C509.364+397.336+476.339+361.061+432.934+358.472C389.529+355.882+352.182+387.959+349.516+430.117Z" opacity="1" fill="#006c00"/>
</g>
<g opacity="1">
<path d="M182.859+458.962C180.194+501.119+213.22+537.394+256.625+539.984C300.029+542.573+337.377+510.497+340.042+468.339C342.707+426.181+309.682+389.906+266.277+387.317C222.873+384.727+185.525+416.804+182.859+458.962Z" opacity="0.5" fill="#000000"/>
<path d="M191.056+451.953C188.39+494.11+221.416+530.385+264.821+532.975C308.225+535.564+345.573+503.488+348.239+461.33C350.904+419.172+317.878+382.897+274.473+380.308C231.069+377.718+193.721+409.795+191.056+451.953Z" opacity="1" fill="#008000"/>
</g>
<g opacity="1">
<path d="M224.529+439.012C221.864+481.17+254.889+517.445+298.294+520.035C341.698+522.624+379.046+490.548+381.712+448.39C384.377+406.232+351.351+369.957+307.947+367.367C264.542+364.778+227.195+396.854+224.529+439.012Z" opacity="0.5" fill="#000000"/>
<path d="M236.087+439.702C233.422+481.859+266.447+518.135+309.852+520.724C353.257+523.314+390.604+491.237+393.27+449.079C395.935+406.922+362.91+370.646+319.505+368.057C276.101+365.468+238.753+397.544+236.087+439.702Z" opacity="1" fill="url(#LinearGradient_2)"/>
</g>
<g opacity="1">
<path d="M386.89+577.572C384.224+619.73+346.877+651.807+303.472+649.217C260.068+646.628+227.042+610.353+229.707+568.195C232.373+526.038+269.72+493.961+313.125+496.55C356.529+499.14+389.555+535.414+386.89+577.572Z" opacity="0.5" fill="#000400"/>
<path d="M394.794+574.295C392.129+616.453+354.781+648.529+311.377+645.94C267.972+643.351+234.946+607.076+237.612+564.918C240.277+522.76+277.624+490.683+321.029+493.273C364.433+495.862+397.46+532.137+394.794+574.295Z" opacity="1" fill="#339900"/>
</g>
<g opacity="1">
<path d="M398.219+499.826C395.554+541.984+428.579+578.259+471.984+580.849C515.388+583.438+552.736+551.362+555.402+509.204C558.067+467.046+525.042+430.771+481.637+428.181C438.232+425.592+400.885+457.668+398.219+499.826Z" opacity="0.5" fill="#000000"/>
<path d="M393.913+507.067C391.247+549.225+424.273+585.5+467.678+588.09C511.082+590.679+548.43+558.603+551.095+516.445C553.761+474.287+520.735+438.012+477.33+435.423C433.926+432.833+396.578+464.909+393.913+507.067Z" opacity="1" fill="url(#LinearGradient_3)"/>
</g>
<g opacity="1">
<path d="M363.872+489.169C361.207+531.326+323.86+563.403+280.455+560.814C237.051+558.224+204.024+521.95+206.69+479.792C209.355+437.634+246.703+405.557+290.107+408.147C333.512+410.736+366.538+447.011+363.872+489.169Z" opacity="0.5" fill="#000000"/>
<path d="M371.305+493.361C368.639+535.519+331.292+567.596+287.887+565.006C244.483+562.417+211.457+526.142+214.122+483.984C216.788+441.827+254.135+409.75+297.54+412.339C340.944+414.928+373.97+451.203+371.305+493.361Z" opacity="1" fill="#339900"/>
</g>
<g opacity="1">
<path d="M244.325+492.102C241.66+534.26+274.685+570.535+318.09+573.124C361.495+575.714+398.843+543.637+401.508+501.479C404.173+459.321+371.148+423.046+327.743+420.457C284.339+417.867+246.991+449.944+244.325+492.102Z" opacity="0.5" fill="#000400"/>
<path d="M256.12+489.051C253.455+531.209+286.48+567.484+329.885+570.073C373.289+572.663+410.637+540.586+413.303+498.428C415.968+456.271+382.942+419.996+339.538+417.406C296.133+414.817+258.786+446.893+256.12+489.051Z" opacity="1" fill="#44aa00"/>
</g>
<g opacity="1">
<path d="M328.765+452.251C326.099+494.409+359.125+530.684+402.53+533.273C445.934+535.863+483.282+503.786+485.947+461.628C488.613+419.471+455.587+383.195+412.182+380.606C368.778+378.017+331.43+410.093+328.765+452.251Z" opacity="0.5" fill="#000000"/>
<path d="M328.293+459.721C325.627+501.878+358.653+538.154+402.058+540.743C445.462+543.333+482.81+511.256+485.475+469.098C488.14+426.941+455.115+390.665+411.71+388.076C368.306+385.486+330.958+417.563+328.293+459.721Z" opacity="1" fill="#009400"/>
</g>
<g opacity="1">
<path d="M409.841+592.739C407.176+634.896+440.201+671.172+483.606+673.761C527.011+676.351+564.358+644.274+567.024+602.116C569.689+559.959+536.664+523.683+493.259+521.094C449.854+518.505+412.507+550.581+409.841+592.739Z" opacity="0.5" fill="#000000"/>
<path d="M400.346+590.298C397.681+632.456+430.706+668.731+474.111+671.32C517.516+673.91+554.863+641.833+557.529+599.675C560.194+557.518+527.168+521.242+483.764+518.653C440.359+516.064+403.012+548.14+400.346+590.298Z" opacity="1" fill="#2ca02c"/>
</g>
<g opacity="1">
<path d="M374.764+538.146C372.098+580.304+405.124+616.579+448.529+619.168C491.933+621.758+529.28+589.682+531.946+547.524C534.612+505.366+501.586+469.091+458.181+466.501C414.777+463.912+377.429+495.988+374.764+538.146Z" opacity="0.5" fill="#000000"/>
<path d="M367.095+537.689C364.43+579.846+397.455+616.122+440.86+618.711C484.265+621.3+521.612+589.224+524.278+547.066C526.943+504.909+493.918+468.633+450.513+466.044C407.109+463.454+369.761+495.531+367.095+537.689Z" opacity="1" fill="#217821"/>
</g>
<g opacity="1">
<path d="M280.131+499.924C277.328+542.073+310.235+578.45+353.632+581.173C397.027+583.895+434.48+551.934+437.283+509.785C440.085+467.636+407.178+431.259+363.782+428.536C320.386+425.814+282.934+457.775+280.131+499.924Z" opacity="0.5" fill="#000000"/>
<path d="M279.658+507.394C276.856+549.543+309.763+585.919+353.16+588.642C396.555+591.365+434.008+559.404+436.811+517.254C439.613+475.106+406.706+438.729+363.309+436.006C319.914+433.283+282.461+465.245+279.658+507.394Z" opacity="1" fill="#217821"/>
</g>
<g opacity="1">
<path d="M266.741+590.772C264.076+632.93+297.101+669.205+340.506+671.794C383.911+674.384+421.258+642.308+423.924+600.149C426.589+557.992+393.564+521.717+350.159+519.127C306.755+516.538+269.407+548.614+266.741+590.772Z" opacity="0.5" fill="#000000"/>
<path d="M271.048+583.526C268.383+625.683+301.408+661.958+344.813+664.548C388.217+667.137+425.565+635.061+428.231+592.903C430.896+550.745+397.871+514.47+354.466+511.881C311.062+509.291+273.714+541.368+271.048+583.526Z" opacity="1" fill="#006400"/>
</g>
<g opacity="1">
<path d="M474.233+526.094C471.568+568.252+434.221+600.328+390.816+597.739C347.411+595.15+314.385+558.875+317.051+516.717C319.716+474.559+357.063+442.482+400.468+445.072C443.872+447.661+476.899+483.936+474.233+526.094Z" opacity="0.5" fill="#000000"/>
<path d="M478.54+518.853C475.874+561.01+438.527+593.087+395.122+590.498C351.718+587.908+318.692+551.634+321.357+509.476C324.023+467.318+361.37+435.241+404.775+437.831C448.179+440.42+481.205+476.695+478.54+518.853Z" opacity="1" fill="#00ac00"/>
</g>
<g opacity="1">
<path d="M356.283+622.439C353.617+664.596+386.643+700.872+430.048+703.461C473.452+706.05+510.8+673.974+513.465+631.816C516.131+589.659+483.105+553.383+439.7+550.794C396.296+548.204+358.948+580.281+356.283+622.439Z" opacity="0.5" fill="#000000"/>
<path d="M360.708+613.33C358.042+655.488+391.068+691.763+434.473+694.353C477.877+696.942+515.224+664.866+517.89+622.708C520.555+580.55+487.53+544.275+444.125+541.685C400.721+539.096+363.373+571.172+360.708+613.33Z" opacity="1" fill="#007800"/>
</g>
<g opacity="1">
<path d="M326.462+569.012C323.797+611.17+356.823+647.445+400.228+650.035C443.632+652.624+480.98+620.547+483.645+578.389C486.31+536.232+453.285+499.957+409.88+497.367C366.476+494.778+329.128+526.854+326.462+569.012Z" opacity="0.34496" fill="#000000"/>
<path d="M336.548+562.116C333.883+604.273+366.908+640.549+410.313+643.138C453.717+645.727+491.065+613.651+493.731+571.493C496.396+529.336+463.371+493.06+419.966+490.471C376.561+487.881+339.213+519.958+336.548+562.116Z" opacity="1" fill="#009800"/>
</g>
<path d="M235.546+989.072C277.996+972.304+326.038+961.551+329.846+932.93C333.655+904.308+361.17+892.231+380.383+879.127C408.41+860.009+413.351+736.271+404.825+704.382C404.28+702.346+395.029+698.282+382.075+693.358C379.408+692.345+314.127+716.722+311.189+715.646C309.921+715.181+344.637+703.148+352.59+699.595C353.349+699.256+335.536+693.6+336.306+693.259C337.487+692.736+357.253+697.528+358.422+697.014C366.619+693.409+373.947+690.231+372.476+690.323C362.896+690.921+336.823+679.073+308.345+662.033C307.794+661.703+299.509+661.067+289.8+660.373C289.124+660.324+283.063+663.952+282.375+663.904C281.81+663.864+286.619+660.147+286.049+660.106C272.852+659.173+258.564+658.194+257.83+657.745C257.331+657.44+264.634+657.441+273.343+657.497C273.908+657.5+265.397+651.965+265.971+651.969C266.537+651.973+276.189+657.516+276.762+657.52C288.518+657.605+301.275+657.727+300.619+657.319C290.528+651.041+280.297+644.207+270.532+637.127C269.702+636.525+262.468+635.26+254.125+633.88C253.498+633.776+245.892+636.553+245.254+636.448C244.608+636.342+250.93+633.354+250.277+633.247C239.427+631.468+228.085+629.636+227.049+628.87C226.387+628.381+233.079+628.652+240.616+629.01C241.416+629.048+233.944+621.997+234.757+622.037C235.563+622.075+244.654+629.204+245.457+629.243C253.414+629.624+260.784+629.945+260.101+629.433C253.981+624.841+248.057+620.093+242.461+615.397C242.188+615.169+236.407+614.146+230.016+613.035C229.389+612.926+223.717+615.813+223.083+615.703C222.433+615.591+226.821+612.481+226.174+612.368C219.406+611.194+213.039+610.077+212.756+609.837C212.145+609.32+239.416+612.822+238.814+612.306C231.978+606.453+225.704+600.756+220.251+595.628C219.586+595.002+205.098+590.733+204.458+590.126C204.041+589.729+217.463+592.989+217.057+592.6C205.803+581.85+198.787+574.265+198.787+574.265C198.787+574.265+204.28+578.173+211.291+583.242C211.752+583.575+209.735+577.169+210.207+577.511C210.774+577.922+213.833+585.082+214.413+585.504C221.321+590.518+229.058+596.204+234.346+600.296C235.186+600.946+234.656+569.774+235.496+570.426C236.496+571.203+237.022+580.364+237.58+588.943C237.622+589.588+243.907+583.536+243.95+584.17C243.992+584.798+237.791+592.113+237.834+592.724C238.252+598.636+238.725+603.549+239.446+604.11C251.002+613.108+262.912+622.424+275.108+631.195C275.635+631.574+276.017+617.74+276.389+602.979C276.415+601.953+258.657+579.739+258.683+578.709C258.721+577.16+276.396+599.142+276.436+597.608C276.796+583.432+277.319+568.199+277.83+568.561C278.531+569.057+279.443+589.971+280.331+608.422C280.37+609.239+292.533+594.758+292.572+595.564C292.61+596.349+280.526+612.422+280.564+613.192C281.179+625.635+281.772+635.907+282.263+636.247C303.23+650.773+324.987+663.223+347.193+669.323L343.611+645.073L332.901+640.038L315.534+640.103L329.984+638.666L311.7+630.069L298.158+629.295L308.499+628.564L291.333+620.494L316.57+630.464L312.062+616.578L318.293+630.812L342.4+640.669L323.232+607.377L306.693+596.929L321.144+603.75L308.69+582.119L316.653+593.068L315.722+583.481L318.904+596.165L331.447+613.41L334.123+605.374L331.939+596.332L335.018+602.687L338.736+591.521L333.911+616.079L348.003+639.88L350.317+626.201L347.841+618.739L350.814+623.263L352.846+611.253L352.622+630.337L358.943+623.383L352.591+632.994L352.433+646.45L360.491+672.459L407.558+681.268C411.332+666.542+409.47+661.33+407.438+651.73C369.688+621.363+341.796+590.779+310.796+554.616C310.404+554.159+304.966+552.256+297.592+549.798C297.154+549.652+270.987+557.63+270.536+557.48C269.995+557.3+295.167+548.992+294.61+548.808C278.065+543.339+254.689+535.911+253.867+534.936C253.281+534.242+267.742+537.853+281.237+541.187C281.585+541.272+273.372+524.857+273.717+524.943C274.024+525.018+282.888+541.594+283.193+541.669C294.293+544.407+304.188+546.798+303.705+546.218C297.341+538.565+286.779+523.513+275.402+506.706C274.678+505.636+226.953+491.694+226.223+490.612C225.95+490.207+240.018+493.542+252.583+496.588C253.352+496.775+246.754+483.196+247.508+483.38C248.281+483.568+254.397+496.731+255.487+496.934C263.677+498.458+271.741+501.282+271.741+501.282L251.431+470.691L232.346+459.301C232.346+459.301+250.078+468.34+249.292+467.143C241.386+455.111+233.014+442.623+228.806+436.311C234.29+441.9+247.687+460.921+260.646+479.331C260.977+479.801+261.622+477.141+262.341+473.737C262.429+473.316+258.857+463.005+258.948+462.566C259.036+462.14+262.787+471.587+262.876+471.152C263.898+466.149+264.95+460.836+265.404+461.48C265.99+462.313+262.555+481.575+263.137+482.4C273.21+496.689+284.285+512.718+288.526+517.349C289.148+518.029+294.151+487.239+294.773+487.919C295.321+488.518+294.821+496.642+294.298+504.932C294.228+506.042+300.171+498.851+300.102+499.949C300.06+500.619+294.007+509.586+293.968+510.242C293.565+516.893+293.299+522.568+293.753+523.064C306.018+536.476+318.28+549.888+330.828+562.615C331.58+563.378+333.375+554.982+335.269+545.727C335.382+545.176+329.348+527.933+329.461+527.378C329.618+526.61+335.922+542.529+336.079+541.761C338.104+531.827+340.895+523.056+340.895+523.056C340.895+523.056+340.81+529.007+339.757+535.797C339.656+536.45+346.1+531.177+345.992+531.853C345.958+532.07+339.374+538.227+339.339+538.446C337.385+550.677+334.646+565.873+335.67+566.864C349.806+580.555+370.201+602.037+385.613+612.654L396.674+595.779L389.859+616.627L415.222+633.296L415.039+601.374L367.039+519.25L357.713+516.058L342.182+516.253L352.391+514.237L308.751+499.301L339.899+507.487L330.221+489.502L345.212+508.884L364.863+514.049L335.69+467.832L325.431+465.279L309.163+468.393L322.764+464.615L298.836+458.66L318.586+461.661L311.738+451.585L321.011+462.492L333.494+464.65L300.492+412.681L295.284+409.125L285.195+407.079L293.028+407.584L281.743+399.879L297.953+408.682L275.536+373.381L291.119+396.866L289.364+386.445L292.974+399.661L318.203+437.679L319.065+432.312L314.895+419.419L319.595+429.01L321.71+415.852L320.095+440.95L347.002+481.752L350.123+475.317L348.616+463.968L351.234+473.027L357.303+460.516L348.82+484.28L420.098+590.328L422.54+543.602L408.451+527.994L381.194+521.025L405.567+524.841L382.58+491.127L359.371+478.54L380.482+488.05L350.564+444.171L372.688+473.852L373.558+456.172L374.411+476.163L399.234+509.464L401.755+492.868L402.45+513.866L423.154+537.26L422.026+461.746L398.637+438.244L381.778+437.027L364.913+443.332L379.043+436.829L342.821+434.213L369.754+434.996L360.835+421.412L371.454+434.644L395.868+435.011L359.419+401.715L333.806+390.961L355.048+397.229L321.369+362.67L344.423+383.841L344.178+364.01L348.242+387.348L379.218+415.794L377.656+383.513L367.123+366.987L377.391+378.03L376.492+359.474L381.182+392.171L391.797+378.932L382.368+399.591L383.317+418.617L423.294+456.267L423.349+423.453L396.068+392.287L423.363+415.242L423.394+397.456L393.518+354.945L408.605+373.93L407.441+354.808L411.999+378.2L423.402+392.549L423.483+344.915L413.749+322.453L423.491+340.008L423.538+312.596L424.492+355.164L448.469+323.462L434.989+345.088L451.284+339.863L432.778+348.636L425.407+358.456L425.598+404.484L445.686+383.731L425.708+409.381L426.149+429.064L454.274+407.627L448.514+364.922L457.638+404.553L499.098+369.986L476.749+391.938L500.907+389.864L475.398+395.312L427.243+434.79L428.702+504.862L448.397+488.393L448.212+466.957L443.16+452.01L448.175+462.646L447.976+439.412L449.646+471.915L457.364+460.664L449.782+474.556L450.364+485.878L481.805+446.589L481.655+430.98L475.886+416.49L481.617+426.977L481.436+408.05L483.73+444.182L503.131+419.939L503.452+400.49L504.938+417.682L515.642+404.304L494.63+433.343L523.937+419.757L507.417+428.396L519.099+427.727L504.892+429.717L492.606+436.141L461.9+478.577L474.074+476.749L483.25+468.495L476.934+476.32L489.673+474.408L461.071+481.323L429.802+508.414L432.439+588.88L458.693+552.651L450.305+503.981L456.57+526.615L461.346+507.938L458.464+533.454L462.196+546.939L497.92+498.52L497.772+490.056L492.538+478.926L497.719+487.074L497.028+447.653L500.306+478.721L505.973+465.465L500.854+482.399L502.649+494.46L542.507+440.857L542.148+415.306L544.697+437.093L573.858+398.695L558.129+421.463L568.959+414.231L556.365+424.016L527.55+465.725L550.711+455.596L553.289+450.503L553.362+441.592L554.578+447.955L558.294+440.612L552.806+454.307L577.578+443.848L563.778+451.019L572.8+451.429L561.604+452.149L542.324+462.167L569.368+460.172L554.808+461.845L562.167+464.527L552.011+462.166L539.575+463.596L524.479+471.439L476.583+541.996L506.943+528.797L472.59+549.767L437.078+600.194L437.495+630.704L460.11+616.912L469.934+598.533L470.016+580.186L472.724+593.312L482.495+575.031L467.732+612.791C493.397+596.233+515.647+577.754+537.008+558.774C537.388+558.436+536.745+554.248+535.612+548.219C535.51+547.677+523.692+537.095+523.582+536.526C523.478+535.983+535.083+545.454+534.973+544.887C533.649+538.093+531.907+529.727+530.326+521.968C530.138+521.049+518.889+507.986+518.708+507.088C518.557+506.342+529.472+517.757+529.326+517.031C527.294+506.901+525.798+498.796+526.332+498.319C526.957+497.758+533.478+525.44+535.99+535.767C536.126+536.328+546.312+520.523+546.448+521.082C546.711+522.163+536.923+539.602+537.181+540.653C539.177+548.783+540.95+555.631+541.457+555.174C551.305+546.299+569.903+529.039+587.207+513.187C587.567+512.857+588.851+504.736+590.249+495.637C590.329+495.11+581.665+481.676+581.747+481.143C581.898+480.154+590.797+492.063+590.949+491.069C592.536+480.711+594.099+470.542+594.5+470.176C594.743+469.953+594.139+476.876+593.398+484.961C593.367+485.291+599.948+478.688+599.918+479.02C599.877+479.462+593.224+486.841+593.183+487.288C592.198+497.962+591.094+509.63+591.406+509.345C602.335+499.358+612.394+490.281+618.926+484.702C608.065+496.599+591.29+513.958+574.027+531.33C573.621+531.738+589.2+527.456+602.02+523.984C602.597+523.827+608.659+508.129+609.223+507.977C610.041+507.755+603.669+522.981+604.451+522.771C611.585+520.849+617.009+519.43+616.767+519.673C616.509+519.932+612.999+521.74+606.084+523.952C602.845+524.988+599.228+526.135+595.564+527.296C594.606+527.599+608.593+532.08+607.634+532.383C607.069+532.562+591.557+528.565+590.996+528.743C580.057+532.21+569.935+535.437+569.573+535.8C552.299+553.102+535.002+569.951+523.076+580.929C522.134+581.796+539.077+580.008+556.268+578.18C556.818+578.121+571.763+555.389+572.313+555.331C573.112+555.246+559.518+577.835+560.313+577.75C576.574+576.023+591.807+574.446+590.902+575.261C589.757+576.291+563.449+580.142+541.928+583.453C541.117+583.577+557.266+591.827+556.471+591.95C555.74+592.063+538.065+584.049+537.35+584.16C524.784+586.114+514.786+587.778+514.082+588.396C491.676+608.072+467.622+626.385+440.875+642.474C443.109+657.601+441.221+671.892+447.805+681.22L492.619+659.487L490.82+635.539L483.327+621.114L490.411+630.092L489.311+615.447L493.779+641.511L510.424+623.446L495.193+646.166L498.663+657.586C513.471+654.753+527.077+648.386+540.038+640.124C540.805+639.634+541.273+634.545+541.649+628.08C541.697+627.193+525.635+613.825+525.683+612.895C525.72+612.176+541.873+623.902+541.91+623.166C542.463+612.013+543.222+594.427+544.436+593.585C545.371+592.936+545.739+607.969+546.424+617.699C546.5+618.79+560.168+600.984+560.245+602.049C560.313+602.993+546.792+622.811+546.862+623.711C547.364+630.228+547.899+635.317+548.564+634.828C559.942+626.456+571.721+616.28+583.553+606.154C583.936+605.826+584.446+600.875+584.969+595.501C585.043+594.728+579.159+587.4+579.234+586.622C579.309+585.846+585.345+591.62+585.419+590.864C585.894+586.046+586.351+581.883+586.702+581.584C587.688+580.741+588.056+602.307+589.044+601.467C594.842+596.536+600.639+591.687+606.395+587.135C607.27+586.443+615.115+563.728+615.988+563.051C616.575+562.596+610.19+584.173+610.775+583.725C614.308+581.022+632.389+562.295+635.873+559.912C634.51+563.253+613.401+586.364+605.555+594.037C604.895+594.683+624.558+588.808+623.881+589.462C622.968+590.346+601.709+597.761+600.776+598.653C586.822+611.986+571.309+625.751+573.24+625.76C584.182+625.25+593.429+624.838+601.174+624.512C602.257+624.467+617.635+612.121+618.66+612.079C619.746+612.034+606.476+624.294+607.498+624.253C688.81+620.992+569.177+629.314+567.357+630.839C545.886+648.836+520.986+666.501+497.608+674.461C496.2+674.941+510.584+678.941+527.765+683.424C528.215+683.541+536.069+678.674+544.046+673.725C544.67+673.337+548.749+656.129+549.372+655.742C550.505+655.039+546.491+672.611+547.585+671.934C553.822+668.078+560.764+663.436+561.136+663.532C562.019+663.761+532.305+684.603+533.197+684.834C555.768+690.664+580.711+696.769+580.711+696.769C580.711+696.769+493.914+678.311+491.157+680.547C475.976+692.89+453.162+702.272+452.867+704.71C448.563+740.193+446.897+873.858+482.495+886.681C505.394+894.931+511.335+894.986+516.079+924.69C520.822+954.393+573.094+984.892+615.391+1005.54C578.789+980.162+522.315+983.717+506.36+938.736C490.405+893.755+485.672+905.917+468.822+903.92C484.839+924.261+485.452+937.308+480.422+955.571C475.39+973.835+476.098+981.94+491.349+1004.23C506.599+1026.52+506.126+1062.97+511.103+1092.19C502.629+1062.22+500.458+1022.71+479.678+1003.37C458.897+984.029+460.895+971.922+467.029+953.866C473.164+935.811+461.558+924.924+446.205+908.759C443.374+925.094+429.637+945.48+445.848+963.553C462.058+981.626+461.581+986.295+443.49+1005.83C425.399+1025.36+438.385+1060.94+441.148+1089.56C436.968+1062.43+413.767+1030.79+430.48+1007.83C447.192+984.863+436.448+979.405+424.701+963.552C412.955+947.699+416.541+927.526+417.529+908.599C404.92+921.673+392.551+933.062+395.724+951.406C398.897+969.75+395.56+980.058+372.602+996.799C349.644+1013.54+345.874+1045.03+335.651+1069.34C341.176+1043.4+341.231+1011.43+362.567+993.58C383.903+975.727+387.886+962.444+380.052+944.365C372.219+926.286+385.65+917.746+393.812+905.636C375.558+895.273+358.401+899.565+340.4+939.538C322.4+979.512+268.739+971.57+235.542+989.068L235.546+989.072Z" opacity="1" fill="url(#LinearGradient_4)"/>
<path d="M221.843+992.5C264.294+975.732+312.336+964.979+316.144+936.357C319.953+907.736+347.468+895.659+366.681+882.554C394.708+863.436+399.649+739.698+391.123+707.809C390.578+705.774+381.327+701.71+368.373+696.786C365.706+695.772+300.424+720.15+297.487+719.073C296.219+718.608+330.935+706.575+338.888+703.023C339.647+702.684+321.834+697.028+322.604+696.687C323.785+696.164+343.551+700.956+344.72+700.442C352.917+696.837+360.244+693.659+358.774+693.75C349.194+694.349+323.12+682.5+294.643+665.461C294.091+665.131+285.807+664.495+276.098+663.8C275.421+663.752+269.361+667.38+268.673+667.331C268.108+667.291+272.917+663.574+272.346+663.534C259.15+662.601+244.862+661.621+244.128+661.172C243.629+660.868+250.932+660.869+259.641+660.924C260.206+660.928+251.695+655.393+252.269+655.397C252.835+655.401+262.486+660.944+263.06+660.948C274.815+661.033+287.573+661.155+286.917+660.746C276.826+654.469+266.595+647.634+256.83+640.555C256+639.953+248.766+638.688+240.423+637.307C239.796+637.204+232.19+639.981+231.552+639.876C230.905+639.77+237.227+636.781+236.575+636.674C225.724+634.895+214.383+633.064+213.346+632.298C212.685+631.809+219.377+632.08+226.913+632.437C227.714+632.475+220.242+625.425+221.055+625.464C221.861+625.503+230.952+632.632+231.754+632.67C239.711+633.052+247.082+633.373+246.399+632.86C240.279+628.269+234.355+623.521+228.759+618.825C228.486+618.596+222.705+617.574+216.314+616.463C215.687+616.354+210.015+619.241+209.381+619.131C208.731+619.018+213.119+615.908+212.472+615.796C205.704+614.622+199.337+613.505+199.054+613.265C198.443+612.747+225.714+616.249+225.112+615.734C218.276+609.881+212.001+604.183+206.549+599.055C205.884+598.43+191.396+594.161+190.756+593.553C190.339+593.157+203.761+596.416+203.355+596.028C192.101+585.278+185.085+577.693+185.085+577.693C185.085+577.693+190.578+581.601+197.589+586.67C198.049+587.003+196.032+580.597+196.505+580.939C197.072+581.35+200.13+588.51+200.711+588.932C207.619+593.946+215.356+599.632+220.643+603.724C221.483+604.374+220.954+573.202+221.794+573.854C222.794+574.63+223.319+583.791+223.877+592.371C223.919+593.016+230.205+586.963+230.248+587.598C230.29+588.226+224.089+595.541+224.132+596.152C224.549+602.064+225.023+606.977+225.744+607.537C237.299+616.535+249.21+625.852+261.406+634.623C261.933+635.001+262.315+621.168+262.687+606.407C262.713+605.381+244.954+583.166+244.98+582.136C245.019+580.588+262.694+602.57+262.733+601.036C263.094+586.86+263.617+571.627+264.128+571.988C264.829+572.484+265.741+593.399+266.629+611.85C266.668+612.667+278.83+598.186+278.869+598.992C278.908+599.777+266.824+615.85+266.862+616.62C267.476+629.063+268.069+639.335+268.561+639.675C289.528+654.201+311.285+666.651+333.491+672.75L329.909+648.5L319.199+643.465L301.832+643.531L316.282+642.094L297.998+633.497L284.455+632.722L294.797+631.992L277.631+623.921L302.868+633.892L298.36+620.005L304.591+634.24L328.698+644.096L309.53+610.805L292.99+600.356L307.442+607.178L294.988+585.547L302.95+596.496L302.02+586.909L305.202+599.592L317.745+616.838L320.421+608.802L318.237+599.76L321.316+606.115L325.034+594.949L320.208+619.506L334.301+643.308L336.615+629.629L334.138+622.166L337.112+626.691L339.144+614.681L338.92+633.765L345.241+626.811L338.889+636.421L338.73+649.878L346.789+675.887L393.856+684.695C397.629+669.969+395.768+664.758+393.736+655.158C355.986+624.79+328.093+594.207+297.094+558.044C296.702+557.586+291.263+555.683+283.89+553.226C283.451+553.08+257.285+561.058+256.834+560.907C256.293+560.728+281.465+552.42+280.908+552.236C264.363+546.766+240.986+539.339+240.165+538.364C239.579+537.669+254.04+541.281+267.535+544.614C267.882+544.7+259.67+528.285+260.015+528.37C260.321+528.446+269.186+545.021+269.491+545.097C280.59+547.834+290.486+550.226+290.004+549.646C283.638+541.992+273.077+526.941+261.7+510.134C260.975+509.064+213.251+495.122+212.521+494.039C212.248+493.634+226.316+496.97+238.881+500.016C239.65+500.202+233.052+486.624+233.806+486.807C234.579+486.995+240.694+500.159+241.785+500.362C249.974+501.886+258.039+504.709+258.039+504.709L237.73+474.114L218.645+462.725C218.645+462.725+236.377+471.764+235.591+470.567C227.685+458.535+219.312+446.048+215.104+439.736C220.589+445.325+233.986+464.346+246.945+482.755C247.276+483.226+247.921+480.566+248.639+477.162C248.728+476.741+245.156+466.43+245.246+465.991C245.334+465.565+249.085+475.011+249.174+474.576C250.196+469.574+251.249+464.26+251.702+464.904C252.289+465.737+248.854+485+249.435+485.825C259.509+500.114+270.584+516.143+274.825+520.774C275.447+521.454+280.45+490.663+281.072+491.343C281.62+491.942+281.12+500.067+280.597+508.357C280.527+509.466+286.469+502.276+286.401+503.373C286.359+504.044+280.306+513.011+280.266+513.667C279.864+520.318+279.598+525.992+280.052+526.489C292.317+539.9+304.579+553.313+317.126+566.04C317.879+566.803+319.674+558.407+321.568+549.152C321.681+548.601+315.647+531.357+315.76+530.802C315.917+530.034+322.221+545.954+322.377+545.185C324.403+535.252+327.194+526.48+327.194+526.48C327.194+526.48+327.108+532.432+326.056+539.222C325.954+539.874+332.399+534.601+332.291+535.277C332.257+535.495+325.673+541.651+325.638+541.87C323.683+554.102+320.945+569.297+321.969+570.289C336.105+583.979+356.5+605.461+371.912+616.079L382.973+599.204L376.158+620.052L401.521+636.72L401.337+604.799L353.338+522.675L344.012+519.483L328.481+519.677L338.69+517.661L295.05+502.726L326.198+510.912L316.52+492.927L331.511+512.308L351.162+517.473L321.988+471.257L311.73+468.704L295.462+471.817L309.062+468.04L285.135+462.085L304.885+465.085L298.037+455.01L307.309+465.917L319.793+468.074L286.791+416.106L281.583+412.549L271.494+410.504L279.327+411.009L268.041+403.303L284.251+412.106L261.834+376.806L277.418+400.291L275.663+389.869L279.273+403.086L304.501+441.103L305.364+435.736L301.194+422.844L305.894+432.435L308.009+419.277L306.393+444.375L333.301+485.176L336.422+478.741L334.914+467.393L337.533+476.451L343.602+463.941L335.119+487.704L406.397+593.752L408.839+547.027L394.751+531.419L367.493+524.449L391.866+528.266L368.879+494.552L345.67+481.965L366.781+491.475L336.863+447.596L358.987+477.276L359.857+459.597L360.71+479.588L385.532+512.889L388.054+496.292L388.749+517.29L409.453+540.684L408.325+465.171L384.936+441.669L368.077+440.451L351.211+446.756L365.341+440.254L329.119+437.638L356.052+438.421L347.133+424.836L357.752+438.069L382.166+438.436L345.717+405.14L320.104+394.385L341.346+400.654L307.667+366.095L330.721+387.266L330.476+367.435L334.54+390.773L365.516+419.218L363.954+386.938L353.421+370.412L363.689+381.454L362.79+362.899L367.48+395.595L378.095+382.357L368.666+403.016L369.615+422.041L409.592+459.691L409.647+426.878L382.366+395.711L409.661+418.666L409.692+400.881L379.816+358.37L394.903+377.354L393.739+358.232L398.297+381.625L409.7+395.973L409.781+348.34L400.047+325.878L409.789+343.432L409.836+316.02L410.79+358.588L434.767+326.886L421.287+348.512L437.582+343.287L419.075+352.06L411.704+361.881L411.896+407.908L431.984+387.156L412.006+412.806L412.447+432.488L440.572+411.051L434.812+368.346L443.936+407.978L485.396+373.411L463.047+395.363L487.205+393.288L461.696+398.737L413.541+438.214L415+508.287L434.695+491.818L434.51+470.382L429.458+455.435L434.473+466.071L434.274+442.836L435.944+475.34L443.662+464.088L436.08+477.98L436.662+489.302L468.103+450.013L467.954+434.405L462.184+419.914L467.915+430.401L467.734+411.474L470.028+447.607L489.429+423.364L489.75+403.915L491.236+421.106L501.94+407.729L480.928+436.768L510.235+423.182L493.715+431.82L505.397+431.151L491.189+433.141L478.904+439.565L448.198+482.002L460.372+480.174L469.548+471.919L463.232+479.745L475.971+477.832L447.369+484.748L416.1+511.838L418.737+592.305L444.991+556.076L436.603+507.405L442.868+530.039L447.644+511.362L444.761+536.879L448.494+550.364L484.218+501.944L484.07+493.481L478.836+482.351L484.017+490.498L483.326+451.078L486.604+482.146L492.271+468.89L487.152+485.824L488.947+497.884L528.805+444.282L528.446+418.731L530.995+440.518L560.156+402.119L544.427+424.887L555.258+417.655L542.663+427.441L513.848+469.149L537.01+459.021L539.587+453.927L539.661+445.017L540.877+451.379L544.592+444.037L539.104+457.732L563.876+447.273L550.076+454.443L559.098+454.854L547.902+455.574L528.622+465.592L555.666+463.596L541.107+465.27L548.466+467.951L538.309+465.591L525.873+467.02L510.777+474.864L462.881+545.421L493.242+532.222L458.889+553.191L423.376+603.619L423.793+634.129L446.408+620.337L456.232+601.958L456.314+583.61L459.022+596.737L468.794+578.455L454.03+616.216C479.695+599.657+501.945+581.179+523.306+562.199C523.687+561.86+523.043+557.673+521.91+551.643C521.808+551.102+509.99+540.52+509.88+539.951C509.776+539.407+521.381+548.878+521.271+548.312C519.947+541.518+518.205+533.152+516.624+525.393C516.436+524.474+505.187+511.411+505.006+510.512C504.855+509.767+515.771+521.182+515.625+520.455C513.592+510.325+512.097+502.22+512.63+501.743C513.255+501.183+519.776+528.865+522.287+539.192C522.424+539.753+532.61+523.948+532.746+524.507C533.009+525.588+523.222+543.026+523.479+544.078C525.475+552.207+527.248+559.055+527.755+558.599C537.603+549.723+556.201+532.463+573.505+516.612C573.865+516.282+575.149+508.161+576.547+499.062C576.628+498.535+567.964+485.1+568.045+484.568C568.197+483.579+577.095+495.488+577.248+494.494C578.834+484.136+580.398+473.967+580.798+473.6C581.042+473.377+580.438+480.3+579.696+488.386C579.665+488.715+586.247+482.112+586.216+482.445C586.175+482.887+579.523+490.266+579.481+490.712C578.496+501.386+577.392+513.055+577.704+512.769C588.633+502.783+598.693+493.706+605.224+488.127C594.363+500.023+577.588+517.382+560.325+534.755C559.92+535.163+575.498+530.881+588.318+527.408C588.895+527.252+594.957+511.554+595.521+511.401C596.339+511.18+589.967+526.406+590.749+526.195C597.883+524.274+603.308+522.854+603.065+523.097C602.808+523.357+599.297+525.164+592.383+527.376C589.143+528.413+585.526+529.56+581.862+530.72C580.904+531.024+594.891+535.504+593.932+535.808C593.368+535.987+577.856+531.99+577.295+532.167C566.355+535.634+556.234+538.861+555.871+539.225C538.597+556.526+521.3+573.376+509.375+584.353C508.432+585.221+525.376+583.432+542.566+581.604C543.117+581.546+558.061+558.814+558.611+558.755C559.41+558.67+545.816+581.259+546.612+581.174C562.872+579.448+578.105+577.871+577.2+578.686C576.055+579.715+549.748+583.567+528.226+586.877C527.416+587.002+543.565+595.252+542.769+595.374C542.039+595.487+524.363+587.474+523.648+587.585C511.082+589.538+501.084+591.202+500.38+591.821C477.975+611.497+453.92+629.81+427.173+645.899C429.407+661.025+427.519+675.317+434.103+684.645L478.917+662.911L477.118+638.964L469.626+624.539L476.709+633.516L475.609+618.871L480.077+644.936L496.722+626.871L481.491+649.59L484.961+661.011C499.769+658.177+513.375+651.811+526.336+643.548C527.104+643.059+527.571+637.97+527.947+631.505C527.997+630.617+511.933+617.25+511.982+616.319C512.019+615.601+528.172+627.326+528.208+626.591C528.761+615.438+529.52+597.852+530.734+597.01C531.67+596.36+532.038+611.394+532.722+621.123C532.799+622.214+546.466+604.409+546.543+605.474C546.612+606.418+533.09+626.235+533.16+627.136C533.663+633.652+534.197+638.742+534.862+638.253C546.24+629.881+558.02+619.704+569.851+609.578C570.234+609.25+570.745+604.299+571.267+598.925C571.342+598.153+565.457+590.824+565.532+590.047C565.608+589.271+571.643+595.045+571.718+594.288C572.193+589.47+572.65+585.308+573+585.009C573.987+584.166+574.354+605.731+575.342+604.892C581.14+599.961+586.938+595.111+592.693+590.559C593.568+589.867+601.413+567.153+602.286+566.476C602.873+566.021+596.488+587.598+597.074+587.15C600.606+584.447+618.687+565.72+622.171+563.337C620.808+566.677+599.7+589.788+591.854+597.461C591.193+598.107+610.857+592.232+610.179+592.887C609.266+593.77+588.007+601.186+587.074+602.077C573.12+615.411+557.608+629.176+559.538+629.184C570.481+628.674+579.727+628.262+587.473+627.937C588.556+627.891+603.933+615.545+604.958+615.503C606.044+615.458+592.774+627.718+593.796+627.677C675.109+624.416+555.475+632.739+553.656+634.264C532.184+652.261+507.285+669.926+483.906+677.886C482.499+678.365+496.883+682.365+514.063+686.849C514.513+686.966+522.367+682.099+530.344+677.149C530.968+676.762+535.048+659.553+535.671+659.167C536.804+658.464+532.789+676.035+533.883+675.359C540.12+671.503+547.063+666.86+547.435+666.957C548.318+667.186+518.603+688.028+519.495+688.258C542.067+694.088+567.01+700.194+567.01+700.194C567.01+700.194+480.212+681.735+477.455+683.972C462.274+696.314+439.46+705.696+439.165+708.134C434.861+743.617+433.195+877.282+468.793+890.105C491.693+898.356+497.634+898.41+502.377+928.114C507.12+957.818+559.392+988.317+601.688+1008.96C565.088+983.586+508.613+987.141+492.659+942.16C476.703+897.179+471.97+909.341+455.12+907.345C471.137+927.686+471.75+940.732+466.72+958.996C461.689+977.26+462.397+985.365+477.647+1007.65C492.898+1029.94+492.424+1066.39+497.401+1095.61C488.927+1065.64+486.757+1026.13+465.976+1006.79C445.195+987.454+447.193+975.347+453.327+957.29C459.462+939.235+447.856+928.349+432.503+912.184C429.672+928.519+415.935+948.904+432.146+966.977C448.357+985.05+447.879+989.72+429.788+1009.25C411.697+1028.78+424.683+1064.37+427.446+1092.99C423.266+1065.85+400.066+1034.21+416.778+1011.25C433.491+988.288+422.746+982.83+410.999+966.977C399.253+951.124+402.84+930.951+403.827+912.024C391.218+925.097+378.849+936.486+382.022+954.831C385.195+973.175+381.858+983.483+358.9+1000.22C335.943+1016.96+332.172+1048.46+321.95+1072.76C327.475+1046.82+327.53+1014.86+348.865+997.004C370.202+979.151+374.184+965.868+366.35+947.789C358.517+929.711+371.948+921.17+380.11+909.061C361.856+898.698+344.699+902.989+326.698+942.963C308.698+982.936+255.037+974.995+221.841+992.492L221.843+992.5Z" opacity="0.33" fill="#000000"/>
</g>
</g>
</svg>
