<?xml version="1.0" encoding="UTF-8"?>
<!DOCTYPE svg PUBLIC "-//W3C//DTD SVG 1.1//EN"
  "http://www.w3.org/Graphics/SVG/1.1/DTD/svg11.dtd">
<!-- Created with Inkpad (http://www.taptrix.com/) --><svg xmlns:inkpad="http://taptrix.com/inkpad/svg_extensions" height="780pt" xmlns:xlink="http://www.w3.org/1999/xlink" xmlns="http://www.w3.org/2000/svg" width="972pt" version="1.1" viewBox="0,0,972,780">
<defs>
<linearGradient y1="422.46" id="LinearGradient" x1="28.926" y2="285.42" x2="-112.07" gradientUnits="userSpaceOnUse" gradientTransform="matrix(-0 -0.695082 -0.645927 0 751.403 553.736)">
<stop stop-color="#008400" offset="0"/>
<stop stop-color="#00a000" offset="1"/>
</linearGradient>
<linearGradient y1="422.46" id="LinearGradient_2" x1="28.926" y2="285.42" x2="-112.07" gradientUnits="userSpaceOnUse" gradientTransform="matrix(-0 -0.695082 -0.645927 0 980.111 325.664)">
<stop stop-color="#008400" offset="0"/>
<stop stop-color="#00a000" offset="1"/>
</linearGradient>
<linearGradient y1="456.75" id="LinearGradient_3" x1="-53.632" y2="216.93" x2="-135.5" gradientUnits="userSpaceOnUse" gradientTransform="matrix(-0 -0.695082 -0.645927 0 911.019 513.363)">
<stop stop-color="#006400" offset="0"/>
<stop stop-color="#00a000" offset="1"/>
</linearGradient>
<linearGradient y1="1272.6" id="LinearGradient_4" x1="462.51" y2="323.12" x2="428.25" gradientUnits="userSpaceOnUse" gradientTransform="matrix(0 0.645927 -0.645927 0 911.021 250.017)">
<stop stop-color="#000000" offset="0"/>
<stop stop-color="#986601" offset="0.5"/>
<stop stop-color="#000400" offset="1"/>
</linearGradient>
</defs>
<g id="layer1" inkpad:layerName="layer1">
<g opacity="1">
<g opacity="1">
<path d="M691.208+384.689C689.145+424.999+654.92+455.831+614.763+453.554C574.608+451.276+543.727+416.751+545.79+376.44C547.853+336.13+582.078+305.298+622.234+307.575C662.389+309.853+693.271+344.378+691.208+384.689Z" opacity="0.5" fill="#000000"/>
<path d="M684.093+384.285C682.03+424.596+647.805+455.428+607.648+453.15C567.493+450.872+536.612+416.348+538.675+376.037C540.738+335.726+574.963+304.894+615.119+307.172C655.275+309.449+686.155+343.974+684.093+384.285Z" opacity="1" fill="#015a01"/>
</g>
<g opacity="1">
<path d="M429.279+538.827C427.216+579.138+392.991+609.97+352.835+607.692C312.68+605.414+281.799+570.89+283.862+530.579C285.925+490.268+320.15+459.436+360.306+461.714C400.461+463.991+431.342+498.516+429.279+538.827Z" opacity="0.5" fill="#000400"/>
<path d="M436.791+532.09C434.728+572.4+400.503+603.233+360.347+600.955C320.191+598.677+289.31+564.153+291.373+523.841C293.436+483.531+327.661+452.699+367.817+454.976C407.973+457.254+438.854+491.779+436.791+532.09Z" opacity="1" fill="#006000"/>
</g>
<g opacity="1">
<path d="M329.628+561.888C327.565+602.199+358.446+636.724+398.602+639.001C438.757+641.279+472.983+610.447+475.046+570.136C477.109+529.826+446.228+495.301+406.072+493.023C365.917+490.745+331.691+521.577+329.628+561.888Z" opacity="0.5" fill="#000400"/>
<path d="M333.541+554.947C331.478+595.257+362.358+629.782+402.514+632.06C442.67+634.338+476.895+603.506+478.958+563.195C481.021+522.884+450.141+488.359+409.985+486.082C369.829+483.804+335.604+514.636+333.541+554.947Z" opacity="1" fill="#339900"/>
</g>
<g opacity="1">
<path d="M497+581.44C494.937+621.75+525.817+656.275+565.973+658.553C606.128+660.831+640.354+629.999+642.417+589.688C644.48+549.378+613.6+514.852+573.444+512.575C533.288+510.297+499.063+541.129+497+581.44Z" opacity="0.5" fill="#000000"/>
<path d="M486.489+577.262C484.426+617.573+515.307+652.097+555.463+654.375C595.618+656.653+629.844+625.821+631.907+585.51C633.97+545.2+603.089+510.674+562.933+508.397C522.778+506.119+488.552+536.951+486.489+577.262Z" opacity="1" fill="url(#LinearGradient)"/>
</g>
<g opacity="1">
<path d="M632.18+325.521C630.118+365.832+595.893+396.664+555.737+394.386C515.581+392.109+484.7+357.584+486.763+317.273C488.826+276.962+523.051+246.13+563.207+248.408C603.363+250.685+634.243+285.21+632.18+325.521Z" opacity="0.5" fill="#000000"/>
<path d="M624.883+328.678C622.82+368.989+588.595+399.821+548.439+397.544C508.284+395.266+477.403+360.741+479.466+320.43C481.529+280.12+515.754+249.288+555.91+251.565C596.065+253.843+626.946+288.367+624.883+328.678Z" opacity="1" fill="#00ac00"/>
</g>
<g opacity="1">
<path d="M593.139+595.353C591.076+635.664+556.851+666.496+516.695+664.218C476.54+661.94+445.659+627.416+447.722+587.105C449.784+546.794+484.01+515.962+524.166+518.24C564.321+520.517+595.202+555.042+593.139+595.353Z" opacity="0.5" fill="#000000"/>
<path d="M589.906+588.006C587.843+628.317+553.618+659.149+513.462+656.871C473.306+654.594+442.426+620.069+444.488+579.758C446.551+539.448+480.776+508.615+520.932+510.893C561.088+513.171+591.969+547.695+589.906+588.006Z" opacity="1" fill="#006400"/>
</g>
<g opacity="1">
<path d="M703.449+457.755C701.386+498.066+667.161+528.898+627.005+526.62C586.849+524.343+555.969+489.818+558.032+449.507C560.094+409.197+594.319+378.364+634.476+380.642C674.631+382.92+705.512+417.444+703.449+457.755Z" opacity="0.5" fill="#000000"/>
<path d="M696.303+457.35C694.24+497.661+660.015+528.493+619.859+526.215C579.704+523.938+548.823+489.413+550.886+449.102C552.948+408.791+587.174+377.959+627.33+380.237C667.485+382.514+698.366+417.039+696.303+457.35Z" opacity="1" fill="#007c00"/>
</g>
<g opacity="1">
<path d="M554.83+310.941C552.767+351.252+518.542+382.084+478.386+379.807C438.231+377.529+407.35+343.004+409.413+302.693C411.476+262.383+445.701+231.55+485.857+233.828C526.012+236.106+556.893+270.63+554.83+310.941Z" opacity="0.5" fill="#000000"/>
<path d="M544.006+313.909C541.943+354.22+507.718+385.052+467.562+382.774C427.407+380.497+396.526+345.972+398.589+305.661C400.651+265.35+434.876+234.518+475.033+236.796C515.188+239.073+546.069+273.598+544.006+313.909Z" opacity="1" fill="#009c00"/>
</g>
<g opacity="1">
<path d="M514.592+325.195C512.529+365.506+478.304+396.338+438.148+394.06C397.992+391.782+367.111+357.258+369.174+316.947C371.237+276.636+405.462+245.804+445.618+248.082C485.774+250.359+516.655+284.884+514.592+325.195Z" opacity="0.5" fill="#000000"/>
<path d="M514.225+332.368C512.162+372.679+477.937+403.511+437.781+401.234C397.625+398.956+366.744+364.431+368.807+324.12C370.87+283.81+405.095+252.977+445.251+255.255C485.407+257.533+516.288+292.057+514.225+332.368Z" opacity="1" fill="#008c00"/>
</g>
<g opacity="1">
<path d="M690.516+551.996C688.453+592.307+654.228+623.139+614.072+620.861C573.916+618.583+543.035+584.059+545.098+543.748C547.161+503.437+581.386+472.605+621.542+474.883C661.698+477.16+692.579+511.685+690.516+551.996Z" opacity="0.5" fill="#000000"/>
<path d="M683.583+548.021C681.52+588.332+647.295+619.164+607.139+616.886C566.984+614.609+536.103+580.084+538.166+539.773C540.229+499.463+574.454+468.63+614.61+470.908C654.765+473.186+685.646+507.71+683.583+548.021Z" opacity="1" fill="#008400"/>
</g>
<g opacity="1">
<path d="M690.736+490.606C688.673+530.916+654.448+561.749+614.292+559.471C574.136+557.193+543.255+522.669+545.318+482.358C547.381+442.047+581.606+411.215+621.762+413.492C661.917+415.77+692.798+450.295+690.736+490.606Z" opacity="0.5" fill="#000000"/>
<path d="M683.459+493.764C681.396+534.075+647.171+564.907+607.015+562.629C566.859+560.352+535.978+525.827+538.041+485.516C540.104+445.206+574.329+414.373+614.485+416.651C654.641+418.929+685.522+453.453+683.459+493.764Z" opacity="1" fill="#007800"/>
</g>
<g opacity="1">
<path d="M655.99+369.889C653.927+410.2+619.702+441.032+579.546+438.754C539.391+436.476+508.51+401.952+510.573+361.641C512.636+321.33+546.861+290.498+587.017+292.776C627.172+295.053+658.053+329.578+655.99+369.889Z" opacity="0.5" fill="#000400"/>
<path d="M648.713+373.048C646.651+413.358+612.425+444.19+572.269+441.913C532.114+439.635+501.233+405.11+503.296+364.799C505.359+324.489+539.584+293.657+579.74+295.934C619.895+298.212+650.776+332.737+648.713+373.048Z" opacity="1" fill="#339900"/>
</g>
<g opacity="1">
<path d="M458.085+328.501C456.022+368.811+486.902+403.336+527.059+405.614C567.214+407.892+601.44+377.06+603.502+336.749C605.565+296.438+574.685+261.913+534.529+259.635C494.374+257.358+460.148+288.19+458.085+328.501Z" opacity="0.5" fill="#000000"/>
<path d="M450.808+331.659C448.745+371.97+479.626+406.495+519.782+408.773C559.937+411.05+594.163+380.218+596.226+339.907C598.289+299.597+567.408+265.072+527.252+262.794C487.097+260.516+452.871+291.348+450.808+331.659Z" opacity="1" fill="#00b000"/>
</g>
<g opacity="1">
<path d="M660.644+549.714C658.581+590.025+624.356+620.857+584.2+618.58C544.044+616.302+513.163+581.777+515.226+541.466C517.289+501.156+551.514+470.323+591.67+472.601C631.826+474.879+662.707+509.403+660.644+549.714Z" opacity="0.5" fill="#000000"/>
<path d="M650.133+545.537C648.07+585.847+613.845+616.68+573.689+614.402C533.534+612.124+502.653+577.599+504.716+537.288C506.779+496.978+541.004+466.146+581.16+468.423C621.315+470.701+652.196+505.226+650.133+545.537Z" opacity="1" fill="#006000"/>
</g>
<g opacity="1">
<path d="M648.348+482.766C646.285+523.077+612.06+553.909+571.904+551.632C531.748+549.354+500.867+514.829+502.93+474.518C504.993+434.208+539.218+403.375+579.374+405.653C619.53+407.931+650.411+442.456+648.348+482.766Z" opacity="0.5" fill="#000400"/>
<path d="M641.019+485.933C638.956+526.243+604.731+557.075+564.575+554.797C524.42+552.52+493.539+517.995+495.602+477.684C497.665+437.374+531.89+406.541+572.046+408.819C612.201+411.097+643.082+445.621+641.019+485.933Z" opacity="1" fill="#009400"/>
</g>
<g opacity="1">
<path d="M627.061+365.89C624.998+406.2+590.773+437.032+550.617+434.755C510.462+432.477+479.581+397.952+481.644+357.641C483.707+317.331+517.932+286.498+558.088+288.776C598.243+291.054+629.124+325.578+627.061+365.89Z" opacity="0.5" fill="#000000"/>
<path d="M623.097+372.828C621.034+413.138+586.809+443.971+546.653+441.693C506.497+439.415+475.617+404.891+477.68+364.58C479.742+324.269+513.968+293.437+554.124+295.715C594.279+297.992+625.16+332.517+623.097+372.828Z" opacity="1" fill="#008400"/>
</g>
<g opacity="1">
<path d="M643.435+422.311C641.372+462.622+607.147+493.454+566.991+491.176C526.836+488.899+495.955+454.374+498.018+414.063C500.081+373.753+534.306+342.92+574.462+345.198C614.617+347.475+645.498+382+643.435+422.311Z" opacity="0.5" fill="#000000"/>
<path d="M636.158+425.48C634.095+465.791+599.87+496.623+559.714+494.345C519.558+492.068+488.677+457.543+490.74+417.232C492.803+376.921+527.028+346.089+567.184+348.367C607.34+350.644+638.221+385.169+636.158+425.48Z" opacity="1" fill="#007800"/>
</g>
<g opacity="1">
<path d="M385.304+579.696C383.241+620.007+414.122+654.532+454.278+656.81C494.433+659.087+528.659+628.255+530.722+587.945C532.784+547.634+501.904+513.109+461.748+510.831C421.593+508.554+387.367+539.385+385.304+579.696Z" opacity="0.5" fill="#000000"/>
<path d="M392.581+576.528C390.518+616.838+421.399+651.363+461.555+653.641C501.71+655.918+535.936+625.087+537.999+584.776C540.062+544.465+509.181+509.94+469.025+507.662C428.87+505.385+394.644+536.216+392.581+576.528Z" opacity="1" fill="#008c00"/>
</g>
<g opacity="1">
<path d="M261.099+453.614C259.036+493.924+289.917+528.449+330.073+530.727C370.228+533.005+404.454+502.173+406.517+461.862C408.58+421.551+377.699+387.026+337.543+384.749C297.388+382.471+263.162+413.303+261.099+453.614Z" opacity="0.5" fill="#000400"/>
<path d="M268.377+450.445C266.314+490.755+297.194+525.281+337.35+527.558C377.506+529.836+411.731+499.004+413.794+458.693C415.857+418.383+384.977+383.857+344.821+381.58C304.665+379.302+270.44+410.134+268.377+450.445Z" opacity="1" fill="#007400"/>
</g>
<g opacity="1">
<path d="M317.565+336.013C315.502+376.323+346.382+410.849+386.538+413.126C426.694+415.404+460.919+384.572+462.982+344.261C465.045+303.951+434.165+269.425+394.009+267.148C353.853+264.87+319.628+295.702+317.565+336.013Z" opacity="0.5" fill="#000000"/>
<path d="M322.728+339.893C320.665+380.203+351.546+414.728+391.702+417.006C431.857+419.284+466.083+388.452+468.146+348.141C470.209+307.83+439.328+273.305+399.172+271.027C359.017+268.75+324.791+299.582+322.728+339.893Z" opacity="1" fill="#007c00"/>
</g>
<g opacity="1">
<path d="M423.066+367.616C421.003+407.927+451.883+442.452+492.039+444.729C532.195+447.007+566.42+416.175+568.483+375.864C570.546+335.554+539.666+301.029+499.51+298.751C459.354+296.473+425.129+327.305+423.066+367.616Z" opacity="0.5" fill="#000000"/>
<path d="M419.102+374.555C417.039+414.865+447.919+449.39+488.075+451.668C528.231+453.946+562.456+423.114+564.519+382.803C566.582+342.492+535.702+307.967+495.546+305.689C455.39+303.412+421.164+334.243+419.102+374.555Z" opacity="1" fill="#006c00"/>
</g>
<g opacity="1">
<path d="M265.289+402.886C263.226+443.196+294.106+477.722+334.262+479.999C374.418+482.277+408.643+451.445+410.706+411.134C412.769+370.824+381.889+336.298+341.733+334.021C301.577+331.743+267.352+362.575+265.289+402.886Z" opacity="0.5" fill="#000000"/>
<path d="M272.8+396.149C270.737+436.459+301.617+470.984+341.774+473.262C381.929+475.54+416.155+444.708+418.217+404.397C420.28+364.086+389.4+329.561+349.244+327.284C309.089+325.006+274.863+355.838+272.8+396.149Z" opacity="1" fill="#008000"/>
</g>
<g opacity="1">
<path d="M303.626+383.627C301.563+423.937+332.443+458.462+372.599+460.74C412.755+463.018+446.98+432.186+449.043+391.875C451.106+351.564+420.226+317.039+380.07+314.762C339.914+312.484+305.689+343.316+303.626+383.627Z" opacity="0.5" fill="#000000"/>
<path d="M314.319+384.233C312.256+424.544+343.136+459.069+383.292+461.347C423.448+463.624+457.673+432.792+459.736+392.481C461.799+352.171+430.919+317.646+390.763+315.368C350.607+313.09+316.382+343.922+314.319+384.233Z" opacity="1" fill="url(#LinearGradient_2)"/>
</g>
<g opacity="1">
<path d="M455.061+515.337C452.998+555.648+418.773+586.48+378.617+584.202C338.461+581.925+307.581+547.4+309.643+507.089C311.706+466.778+345.931+435.946+386.087+438.224C426.243+440.501+457.124+475.026+455.061+515.337Z" opacity="0.5" fill="#000400"/>
<path d="M462.338+512.168C460.275+552.479+426.05+583.311+385.894+581.033C345.739+578.756+314.858+544.231+316.921+503.92C318.984+463.609+353.209+432.777+393.365+435.055C433.52+437.333+464.401+471.857+462.338+512.168Z" opacity="1" fill="#339900"/>
</g>
<g opacity="1">
<path d="M464.796+440.968C462.733+481.279+493.613+515.804+533.769+518.082C573.924+520.359+608.15+489.527+610.213+449.216C612.276+408.906+581.396+374.381+541.24+372.103C501.084+369.826+466.858+400.657+464.796+440.968Z" opacity="0.5" fill="#000000"/>
<path d="M460.883+447.91C458.82+488.22+489.7+522.745+529.856+525.023C570.012+527.301+604.237+496.469+606.3+456.158C608.363+415.847+577.483+381.322+537.327+379.044C497.171+376.767+462.946+407.599+460.883+447.91Z" opacity="1" fill="url(#LinearGradient_3)"/>
</g>
<g opacity="1">
<path d="M432.938+430.937C430.875+471.248+396.65+502.08+356.494+499.802C316.338+497.524+285.457+463+287.52+422.689C289.583+382.378+323.808+351.546+363.964+353.824C404.12+356.101+435+390.626+432.938+430.937Z" opacity="0.5" fill="#000000"/>
<path d="M439.849+434.911C437.786+475.221+403.561+506.054+363.405+503.776C323.25+501.498+292.369+466.974+294.432+426.662C296.495+386.352+330.72+355.52+370.876+357.797C411.031+360.075+441.912+394.6+439.849+434.911Z" opacity="1" fill="#339900"/>
</g>
<g opacity="1">
<path d="M322.435+434.285C320.372+474.595+351.252+509.121+391.408+511.398C431.563+513.676+465.789+482.844+467.852+442.533C469.915+402.222+439.034+367.697+398.878+365.42C358.723+363.142+324.497+393.974+322.435+434.285Z" opacity="0.5" fill="#000400"/>
<path d="M333.311+431.315C331.248+471.625+362.128+506.151+402.284+508.428C442.44+510.706+476.665+479.874+478.728+439.563C480.791+399.253+449.911+364.728+409.755+362.45C369.599+360.172+335.374+391.004+333.311+431.315Z" opacity="1" fill="#44aa00"/>
</g>
<g opacity="1">
<path d="M400.126+395.807C398.063+436.118+428.944+470.643+469.1+472.921C509.255+475.198+543.481+444.366+545.544+404.055C547.607+363.745+516.726+329.22+476.57+326.942C436.415+324.664+402.189+355.496+400.126+395.807Z" opacity="0.5" fill="#000000"/>
<path d="M399.761+402.95C397.698+443.26+428.578+477.785+468.734+480.063C508.889+482.341+543.115+451.509+545.178+411.198C547.241+370.887+516.361+336.362+476.205+334.085C436.049+331.807+401.824+362.639+399.761+402.95Z" opacity="1" fill="#009400"/>
</g>
<g opacity="1">
<path d="M476.426+529.73C474.363+570.041+505.243+604.566+545.4+606.844C585.555+609.121+619.78+578.29+621.843+537.979C623.906+497.668+593.026+463.143+552.87+460.865C512.715+458.588+478.489+489.419+476.426+529.73Z" opacity="0.5" fill="#000000"/>
<path d="M467.624+527.44C465.561+567.751+496.441+602.276+536.597+604.554C576.753+606.831+610.978+576+613.041+535.688C615.104+495.378+584.224+460.853+544.068+458.575C503.912+456.298+469.687+487.129+467.624+527.44Z" opacity="1" fill="#2ca02c"/>
</g>
<g opacity="1">
<path d="M443.474+477.705C441.411+518.016+472.291+552.541+512.447+554.818C552.603+557.096+586.828+526.264+588.891+485.953C590.954+445.643+560.074+411.118+519.918+408.84C479.762+406.562+445.537+437.394+443.474+477.705Z" opacity="0.5" fill="#000000"/>
<path d="M436.379+477.303C434.317+517.613+465.197+552.138+505.353+554.416C545.508+556.694+579.734+525.862+581.797+485.551C583.86+445.24+552.979+410.715+512.823+408.438C472.668+406.16+438.442+436.992+436.379+477.303Z" opacity="1" fill="#217821"/>
</g>
<g opacity="1">
<path d="M355.614+441.599C353.424+481.902+384.196+516.525+424.346+518.93C464.494+521.335+498.818+490.613+501.008+450.31C503.198+410.007+472.426+375.384+432.276+372.979C392.127+370.574+357.804+401.296+355.614+441.599Z" opacity="0.5" fill="#000000"/>
<path d="M355.249+448.742C353.059+489.045+383.831+523.667+423.98+526.072C464.129+528.478+498.452+497.756+500.642+457.452C502.832+417.149+472.06+382.527+431.911+380.122C391.762+377.716+357.439+408.438+355.249+448.742Z" opacity="1" fill="#217821"/>
</g>
<g opacity="1">
<path d="M344.1+528.502C342.037+568.812+372.917+603.337+413.073+605.615C453.229+607.893+487.454+577.061+489.517+536.75C491.58+496.44+460.7+461.914+420.544+459.637C380.388+457.359+346.163+488.191+344.1+528.502Z" opacity="0.5" fill="#000000"/>
<path d="M348.013+521.555C345.95+561.866+376.83+596.391+416.986+598.669C457.142+600.946+491.367+570.114+493.43+529.803C495.493+489.493+464.613+454.968+424.457+452.69C384.301+450.413+350.076+481.244+348.013+521.555Z" opacity="1" fill="#006400"/>
</g>
<g opacity="1">
<path d="M535.327+465.731C533.264+506.042+499.039+536.874+458.883+534.596C418.728+532.319+387.847+497.794+389.909+457.483C391.972+417.173+426.198+386.34+466.354+388.618C506.509+390.896+537.39+425.42+535.327+465.731Z" opacity="0.5" fill="#000000"/>
<path d="M539.24+458.79C537.177+499.1+502.952+529.933+462.796+527.655C422.64+525.377+391.759+490.853+393.822+450.542C395.885+410.231+430.11+379.399+470.266+381.677C510.422+383.954+541.303+418.479+539.24+458.79Z" opacity="1" fill="#00ac00"/>
</g>
<g opacity="1">
<path d="M427.19+558.364C425.127+598.675+456.007+633.2+496.163+635.478C536.319+637.755+570.544+606.924+572.607+566.612C574.67+526.302+543.79+491.777+503.634+489.499C463.478+487.221+429.253+518.053+427.19+558.364Z" opacity="0.5" fill="#000000"/>
<path d="M431.194+549.637C429.131+589.948+460.011+624.473+500.167+626.751C540.323+629.028+574.548+598.197+576.611+557.885C578.674+517.575+547.794+483.05+507.638+480.772C467.482+478.494+433.257+509.326+431.194+549.637Z" opacity="1" fill="#007800"/>
</g>
<g opacity="1">
<path d="M399.109+507.429C397.047+547.74+427.927+582.265+468.083+584.543C508.238+586.82+542.464+555.989+544.527+515.678C546.59+475.367+515.709+440.842+475.553+438.564C435.398+436.287+401.172+467.118+399.109+507.429Z" opacity="0.34496" fill="#000000"/>
<path d="M408.369+500.791C406.306+541.102+437.186+575.627+477.342+577.905C517.498+580.182+551.723+549.351+553.786+509.04C555.849+468.729+524.969+434.204+484.813+431.926C444.657+429.649+410.432+460.48+408.369+500.791Z" opacity="1" fill="#009800"/>
</g>
<path d="M319.05+909.379C358.14+893.157+402.455+882.659+405.704+855.283C408.953+827.906+434.278+816.237+451.917+803.622C477.649+785.22+481.038+666.916+472.851+636.472C472.328+634.53+463.736+630.687+451.712+626.039C449.236+625.082+389.111+648.681+386.385+647.666C385.207+647.227+417.191+635.567+424.51+632.135C425.209+631.807+408.686+626.482+409.394+626.152C410.481+625.647+428.802+630.138+429.878+629.641C437.422+626.158+444.167+623.086+442.808+623.181C433.956+623.796+409.737+612.589+383.244+596.431C382.731+596.118+375.065+595.547+366.082+594.928C365.456+594.885+359.888+598.38+359.251+598.337C358.728+598.301+363.139+594.726+362.611+594.69C350.401+593.858+337.182+592.987+336.498+592.561C336.034+592.272+342.786+592.24+350.839+592.254C351.361+592.254+343.44+587.002+343.97+587.004C344.494+587.005+353.47+592.259+354+592.26C364.87+592.288+376.667+592.347+376.056+591.959C366.666+586.005+357.142+579.518+348.046+572.795C347.273+572.224+340.572+571.047+332.845+569.766C332.264+569.669+325.258+572.359+324.668+572.261C324.069+572.163+329.886+569.277+329.282+569.178C319.233+567.527+308.729+565.828+307.763+565.1C307.147+564.636+313.337+564.864+320.308+565.172C321.049+565.205+314.074+558.499+314.825+558.533C315.571+558.566+324.044+565.339+324.786+565.372C332.147+565.701+338.965+565.974+338.328+565.487C332.626+561.126+327.104+556.615+321.885+552.151C321.631+551.934+316.276+550.983+310.356+549.95C309.775+549.849+304.558+552.634+303.971+552.532C303.369+552.427+307.397+549.435+306.797+549.33C300.529+548.238+294.631+547.2+294.367+546.972C293.798+546.48+319.045+549.703+318.483+549.213C312.107+543.649+306.252+538.232+301.162+533.354C300.541+532.76+287.105+528.745+286.508+528.167C286.118+527.79+298.559+530.845+298.18+530.475C287.672+520.251+281.113+513.032+281.113+513.032C281.113+513.032+286.229+516.742+292.76+521.556C293.188+521.872+291.263+515.758+291.703+516.083C292.231+516.473+295.127+523.304+295.668+523.704C302.103+528.466+309.31+533.866+314.238+537.753C315.021+538.371+314.234+508.576+315.017+509.195C315.949+509.933+316.522+518.687+317.12+526.886C317.165+527.502+322.919+521.688+322.964+522.294C323.009+522.895+317.345+529.916+317.391+530.5C317.833+536.148+318.318+540.843+318.99+541.375C329.76+549.924+340.86+558.775+352.221+567.104C352.711+567.463+352.932+554.239+353.136+540.126C353.15+539.145+336.519+517.991+336.534+517.007C336.555+515.527+353.106+536.459+353.128+534.992C353.326+521.44+353.664+506.876+354.14+507.219C354.793+507.69+355.836+527.678+356.832+545.311C356.877+546.092+367.984+532.195+368.028+532.964C368.07+533.715+357.051+549.134+357.093+549.87C357.78+561.762+358.426+571.578+358.884+571.901C378.408+585.69+398.643+597.493+419.232+603.222L415.689+580.058L405.739+575.293L389.682+575.435L403.029+573.996L386.042+565.861L373.513+565.182L383.068+564.437L367.12+556.8L390.548+566.216L386.248+552.963L392.145+566.541L414.527+575.853L396.488+544.117L381.096+534.205L394.523+540.66L382.802+520.039L390.269+530.469L389.317+521.309L392.38+533.419L404.141+549.847L406.539+542.153L404.433+533.52L407.34+539.58L410.672+528.89L406.444+552.387L419.7+575.074L421.71+561.988L419.349+554.866L422.141+559.178L423.905+547.688L423.88+565.931L429.658+559.255L423.877+568.471L423.859+581.334L431.557+606.16L475.158+614.365C478.507+600.272+476.736+595.299+474.766+586.131C439.574+557.274+413.493+528.167+384.488+493.74C384.121+493.304+379.074+491.51+372.233+489.194C371.827+489.057+347.709+496.802+347.291+496.66C346.789+496.491+369.983+488.435+369.467+488.261C354.118+483.109+332.433+476.115+331.665+475.187C331.116+474.525+344.521+477.912+357.03+481.037C357.352+481.117+349.602+465.464+349.923+465.544C350.206+465.614+358.561+481.418+358.843+481.489C369.131+484.056+378.303+486.297+377.852+485.744C371.894+478.457+361.986+464.118+351.306+448.104C350.626+447.084+306.369+433.974+305.683+432.943C305.427+432.557+318.466+435.681+330.112+438.536C330.825+438.71+324.595+425.76+325.294+425.933C326.01+426.109+331.79+438.664+332.801+438.853C340.387+440.273+347.87+442.935+347.87+442.935L328.8+413.785L311.046+402.985C311.046+402.985+327.527+411.544+326.789+410.404C319.365+398.938+311.505+387.039+307.554+381.025C312.678+386.343+325.245+404.464+337.403+422.003C337.713+422.451+338.284+419.905+338.916+416.648C338.994+416.245+335.593+406.405+335.673+405.985C335.75+405.577+339.308+414.59+339.386+414.174C340.283+409.388+341.206+404.303+341.631+404.917C342.182+405.711+339.189+424.139+339.734+424.925C349.184+438.538+359.576+453.81+363.542+458.218C364.124+458.865+368.456+429.409+369.038+430.057C369.55+430.627+369.165+438.395+368.761+446.322C368.707+447.383+374.132+440.482+374.079+441.532C374.047+442.173+368.536+450.772+368.505+451.399C368.197+457.759+368.005+463.184+368.43+463.657C379.897+476.421+391.362+489.186+403.084+501.295C403.787+502.021+405.367+493.987+407.03+485.131C407.129+484.604+401.386+468.148+401.486+467.617C401.623+466.883+407.603+482.072+407.741+481.336C409.519+471.832+412.016+463.434+412.016+463.434C412.016+463.434+411.993+469.123+411.085+475.619C410.997+476.243+416.905+471.173+416.813+471.82C416.783+472.028+410.754+477.943+410.724+478.153C409.033+489.853+406.646+504.391+407.602+505.334C420.803+518.357+439.864+538.798+454.215+548.878L464.281+532.696L458.178+552.656L481.787+568.474L481.314+537.961L436.152+459.677L427.499+456.669L413.141+456.925L422.561+454.952L382.07+440.873L410.947+448.557L401.827+431.409L415.872+449.867L434.091+454.715L406.677+410.67L397.168+408.276L382.157+411.326L394.695+407.653L372.516+402.07L390.805+404.848L384.377+395.248L393.054+405.632L404.617+407.637L373.609+358.111L368.76+354.735L359.412+352.826L366.659+353.272L356.151+345.958L371.223+354.3L350.16+320.658L364.793+343.036L363.071+333.082L366.534+345.699L390.222+381.925L390.968+376.791L386.99+364.486L391.427+373.633L393.257+361.046L392.002+385.044L417.269+423.924L420.094+417.758L418.591+406.917L421.099+415.564L426.591+403.578L418.974+426.332L485.886+527.379L487.699+482.703L474.525+467.847L449.257+461.309L471.828+464.846L450.253+432.724L428.674+420.798L448.284+429.792L420.204+387.984L440.943+416.255L441.579+399.351L442.558+418.457L465.825+450.176L467.998+434.3L468.841+454.369L488.206+476.637L486.445+404.459L464.596+382.1L448.996+381.013L433.463+387.117L446.466+380.836L412.951+378.501L437.86+379.127L429.484+366.182L439.428+378.782L462.004+379.022L427.987+347.36L404.204+337.197L423.903+343.092L392.435+310.21L413.952+330.343L413.537+311.388L417.517+333.678L446.427+360.728L444.675+329.878L434.779+314.129L444.378+324.637L443.371+306.905L448.018+338.138L457.706+325.435L449.185+345.226L450.244+363.408L487.564+399.216L487.303+367.849L461.782+338.181L487.238+360L487.096+342.998L459.069+302.498L473.199+320.576L471.94+302.303L476.378+324.643L487.058+338.307L486.679+292.774L477.465+271.347L486.64+288.083L486.422+261.879L487.709+302.566L509.576+272.153L497.319+292.887L512.335+287.817L495.308+296.288L488.586+305.709L489.201+349.705L507.577+329.777L489.35+354.387L489.945+373.199L515.745+352.579L510.012+311.784L518.826+349.626L556.83+316.395L536.376+337.48L558.692+335.388L535.158+340.712L491.011+378.667L493.028+445.643L511.08+429.811L510.705+409.321L505.892+395.056L510.63+405.2L510.224+382.991L512.078+414.054L519.107+403.263L512.229+416.577L512.875+427.397L541.571+389.698L541.284+374.778L535.811+360.953L541.21+370.951L540.862+352.86L543.328+387.389L561.034+364.127L561.146+345.534L562.683+361.96L572.453+349.124L553.302+376.978L580.27+363.858L565.078+372.191L575.872+371.498L562.755+373.465L551.457+379.662L523.471+420.366L534.709+418.564L543.115+410.631L537.35+418.14L549.11+416.254L522.731+422.995L494.078+449.033L497.283+525.939L521.212+491.188L512.992+444.702L519.001+466.309L523.238+448.434L520.817+472.839L524.396+485.712L556.965+439.265L556.747+431.176L551.802+420.56L556.67+428.325L555.655+390.646L558.982+420.329L564.096+407.632L559.524+423.842L561.299+435.363L597.64+383.943L597.065+359.52L599.628+380.335L626.225+343.497L611.899+365.332L621.844+358.37L610.292+367.782L584.048+407.782L605.366+397.995L607.701+393.114L607.684+384.596L608.868+390.672L612.234+383.637L607.291+396.753L630.094+386.642L617.404+393.559L625.749+393.911L615.404+394.65L597.673+404.314L622.659+402.283L609.213+403.949L616.043+406.479L606.63+404.269L595.145+405.692L581.263+413.258L537.651+480.922L565.596+468.167L534.033+488.368L501.679+536.733L502.356+565.896L523.134+552.609L532.042+534.996L531.943+517.457L534.572+529.992L543.432+512.472L530.142+548.635C553.713+532.69+574.109+514.925+593.678+496.685C594.027+496.36+593.392+492.359+592.287+486.601C592.188+486.084+581.16+476.022+581.053+475.479C580.952+474.96+591.772+483.96+591.664+483.419C590.376+476.931+588.685+468.942+587.15+461.532C586.968+460.655+576.443+448.219+576.266+447.361C576.12+446.649+586.321+457.511+586.179+456.817C584.203+447.143+582.743+439.402+583.232+438.944C583.804+438.405+590.097+464.837+592.518+474.697C592.649+475.233+601.916+460.078+602.048+460.612C602.301+461.644+593.418+478.358+593.666+479.362C595.589+487.124+597.294+493.662+597.758+493.223C606.779+484.694+623.81+468.111+639.657+452.88C639.987+452.562+641.097+444.794+642.303+436.09C642.372+435.586+634.234+422.783+634.304+422.274C634.435+421.328+642.775+432.671+642.907+431.72C644.275+421.812+645.624+412.084+645.991+411.732C646.214+411.518+645.721+418.138+645.112+425.87C645.087+426.185+651.109+419.843+651.084+420.162C651.051+420.584+644.97+427.668+644.936+428.095C644.127+438.303+643.217+449.461+643.503+449.187C653.513+439.591+662.727+430.869+668.713+425.507C658.784+436.928+643.44+453.597+627.644+470.282C627.273+470.674+641.636+466.51+653.456+463.132C653.988+462.98+659.443+447.947+659.963+447.799C660.717+447.583+654.971+462.167+655.692+461.962C662.27+460.093+667.272+458.711+667.05+458.945C666.814+459.193+663.585+460.938+657.214+463.083C654.229+464.089+650.895+465.202+647.519+466.328C646.635+466.623+659.61+470.841+658.726+471.136C658.207+471.31+643.826+467.56+643.309+467.732C633.228+471.096+623.9+474.227+623.569+474.576C607.762+491.193+591.93+507.378+581.008+517.926C580.146+518.759+595.794+516.972+611.67+515.147C612.179+515.088+625.78+493.291+626.288+493.232C627.026+493.147+614.672+514.802+615.407+514.717C630.424+512.993+644.494+511.416+643.665+512.199C642.616+513.189+618.329+516.99+598.462+520.252C597.714+520.375+612.724+528.187+611.989+528.309C611.315+528.42+594.896+520.84+594.237+520.949C582.637+522.874+573.409+524.51+572.763+525.105C552.235+544.015+530.169+561.63+505.593+577.131C507.802+591.58+506.193+605.25+512.369+614.137L553.597+593.158L551.705+570.275L544.64+556.52L551.275+565.069L550.118+551.075L554.497+575.97L569.716+558.626L555.849+580.413L559.166+591.313C572.831+588.538+585.35+582.39+597.255+574.433C597.96+573.961+598.343+569.095+598.629+562.913C598.665+562.064+583.687+549.36+583.723+548.47C583.751+547.783+598.797+558.918+598.824+558.214C599.229+547.551+599.763+530.737+600.878+529.927C601.736+529.302+602.22+543.67+602.945+552.968C603.027+554.01+615.493+536.928+615.575+537.946C615.647+538.847+603.334+557.853+603.408+558.713C603.934+564.94+604.477+569.802+605.087+569.332C615.527+561.278+626.321+551.496+637.164+541.763C637.515+541.448+637.94+536.713+638.372+531.573C638.434+530.834+632.923+523.856+632.985+523.113C633.047+522.37+638.682+527.862+638.744+527.139C639.138+522.531+639.52+518.55+639.841+518.263C640.746+517.452+641.291+538.065+642.196+537.258C647.51+532.518+652.824+527.856+658.102+523.479C658.905+522.813+665.942+501.065+666.743+500.414C667.281+499.976+661.583+520.63+662.12+520.2C665.361+517.6+681.899+499.617+685.098+497.322C683.87+500.522+664.573+522.71+657.392+530.08C656.787+530.701+674.912+524.995+674.292+525.624C673.456+526.473+653.871+533.658+653.017+534.514C640.243+547.323+626.031+560.552+627.816+560.551C637.928+560.014+646.474+559.578+653.632+559.232C654.633+559.183+668.733+547.312+669.68+547.267C670.684+547.219+658.531+558.998+659.476+558.955C734.625+555.467+624.093+563.967+622.425+565.433C602.744+582.734+579.891+599.734+558.352+607.449C557.055+607.914+570.392+611.672+586.32+615.879C586.737+615.99+593.952+611.301+601.28+606.534C601.854+606.161+605.462+589.692+606.034+589.32C607.075+588.643+603.53+605.458+604.535+604.806C610.266+601.092+616.64+596.622+616.985+596.713C617.803+596.928+590.528+616.986+591.355+617.202C612.28+622.672+635.4+628.395+635.4+628.395C635.4+628.395+554.973+611.146+552.445+613.296C538.526+625.163+517.523+634.235+517.273+636.567C513.632+670.505+513.364+798.283+546.399+810.378C567.651+818.161+573.144+818.186+577.813+846.558C582.481+874.93+631.101+903.847+670.404+923.389C636.322+899.299+584.141+902.954+568.961+860.029C553.781+817.104+549.52+828.751+533.922+826.92C548.925+846.291+549.616+858.759+545.139+876.24C540.661+893.722+541.393+901.466+555.705+922.703C570.018+943.94+569.927+978.782+574.807+1006.69C566.688+978.085+564.304+940.323+544.906+921.932C525.509+903.541+527.24+891.959+532.74+874.671C538.24+857.384+527.406+847.031+513.056+831.649C510.595+847.276+498.088+866.825+513.249+884.027C528.409+901.229+528.012+905.695+511.471+924.447C494.93+943.198+507.276+977.154+510.103+1004.5C505.98+978.584+484.228+948.445+499.461+926.419C514.695+904.392+504.708+899.223+493.697+884.123C482.685+869.023+485.809+849.723+486.542+831.626C475.009+844.18+463.68+855.123+466.789+872.645C469.898+890.165+466.91+900.033+445.844+916.14C424.777+932.247+421.591+962.37+412.37+985.65C417.232+960.826+416.978+930.272+436.535+913.109C456.092+895.946+459.648+883.231+452.233+865.985C444.817+848.739+457.154+840.514+464.585+828.902C447.61+819.079+431.787+823.259+415.525+861.552C399.263+899.844+349.574+892.497+319.047+909.374L319.05+909.379Z" opacity="1" fill="url(#LinearGradient_4)"/>
<path d="M306.414+912.718C345.503+896.495+389.819+885.998+393.068+858.622C396.317+831.245+421.642+819.576+439.28+806.961C465.012+788.559+468.402+670.255+460.215+639.811C459.692+637.868+451.1+634.025+439.076+629.378C436.6+628.421+376.474+652.02+373.749+651.005C372.571+650.566+404.555+638.906+411.874+635.474C412.573+635.146+396.049+629.821+396.758+629.491C397.845+628.986+416.166+633.476+417.242+632.98C424.786+629.497+431.531+626.425+430.172+626.52C421.32+627.135+397.1+615.928+370.608+599.77C370.095+599.457+362.429+598.886+353.446+598.267C352.82+598.224+347.251+601.719+346.615+601.676C346.092+601.64+350.503+598.065+349.975+598.029C337.765+597.197+324.545+596.326+323.862+595.9C323.398+595.611+330.15+595.579+338.203+595.592C338.725+595.593+330.803+590.341+331.334+590.342C331.858+590.344+340.834+595.598+341.364+595.599C352.234+595.627+364.031+595.686+363.42+595.298C354.03+589.343+344.506+582.857+335.41+576.134C334.637+575.563+327.936+574.386+320.209+573.104C319.628+573.008+312.622+575.698+312.032+575.6C311.433+575.501+317.25+572.616+316.646+572.517C306.596+570.866+296.092+569.167+295.127+568.439C294.511+567.974+300.701+568.203+307.672+568.511C308.413+568.543+301.437+561.838+302.189+561.872C302.935+561.905+311.408+568.678+312.15+568.711C319.511+569.04+326.329+569.313+325.692+568.826C319.99+564.465+314.468+559.953+309.249+555.49C308.995+555.273+303.64+554.321+297.72+553.289C297.139+553.188+291.922+555.973+291.335+555.871C290.733+555.766+294.761+552.773+294.161+552.669C287.893+551.577+281.995+550.539+281.731+550.311C281.162+549.819+306.409+553.042+305.847+552.552C299.471+546.988+293.616+541.571+288.525+536.693C287.905+536.099+274.469+532.084+273.872+531.506C273.482+531.129+285.923+534.184+285.544+533.814C275.036+523.59+268.477+516.37+268.477+516.37C268.477+516.37+273.593+520.081+280.124+524.895C280.552+525.211+278.626+519.097+279.066+519.422C279.595+519.812+282.491+526.643+283.032+527.043C289.466+531.805+296.674+537.205+301.602+541.092C302.384+541.71+301.598+511.914+302.381+512.534C303.313+513.272+303.886+522.026+304.484+530.225C304.529+530.841+310.283+525.027+310.328+525.633C310.373+526.234+304.709+533.254+304.755+533.838C305.197+539.487+305.682+544.181+306.354+544.714C317.124+553.263+328.224+562.114+339.585+570.443C340.075+570.802+340.296+557.577+340.5+543.465C340.514+542.484+323.883+521.33+323.898+520.346C323.919+518.866+340.47+539.798+340.492+538.331C340.69+524.779+341.028+510.215+341.504+510.558C342.157+511.029+343.2+531.017+344.196+548.65C344.24+549.431+355.347+535.534+355.391+536.303C355.434+537.054+344.414+552.473+344.457+553.209C345.144+565.1+345.79+574.916+346.248+575.239C365.772+589.029+386.007+600.832+406.596+606.561L403.053+583.397L393.103+578.632L377.046+578.774L390.393+577.335L373.406+569.2L360.877+568.521L370.432+567.776L354.484+560.139L377.912+569.555L373.612+556.302L379.509+569.88L401.891+579.192L383.852+547.456L368.46+537.544L381.887+543.999L370.166+523.378L377.633+533.808L376.681+524.648L379.744+536.758L391.505+553.186L393.902+545.492L391.797+536.859L394.704+542.919L398.036+532.229L393.808+555.726L407.064+578.413L409.073+565.327L406.713+558.205L409.505+562.517L411.269+551.026L411.244+569.27L417.022+562.594L411.24+571.809L411.222+584.673L418.921+609.498L462.522+617.704C465.871+603.61+464.1+598.637+462.13+589.47C426.938+560.613+400.857+531.505+371.852+497.078C371.485+496.643+366.438+494.849+359.597+492.533C359.191+492.395+335.073+500.14+334.655+499.999C334.153+499.83+357.347+491.774+356.83+491.6C341.482+486.447+319.797+479.454+319.028+478.526C318.48+477.864+331.885+481.251+344.394+484.376C344.716+484.456+336.966+468.802+337.286+468.882C337.57+468.953+345.924+484.757+346.207+484.828C356.495+487.394+365.667+489.636+365.216+489.083C359.258+481.796+349.349+467.456+338.67+451.443C337.99+450.423+293.733+437.313+293.047+436.282C292.791+435.896+305.83+439.02+317.476+441.875C318.189+442.049+311.959+429.099+312.658+429.272C313.374+429.448+319.154+442.003+320.164+442.192C327.75+443.612+335.234+446.274+335.234+446.274L316.166+417.12L298.411+406.321C298.411+406.321+314.892+414.88+314.153+413.74C306.729+402.274+298.869+390.375+294.919+384.361C300.043+389.679+312.61+407.8+324.767+425.338C325.078+425.787+325.649+423.241+326.281+419.984C326.359+419.581+322.958+409.741+323.037+409.321C323.115+408.913+326.673+417.926+326.751+417.51C327.648+412.724+328.57+407.639+328.996+408.253C329.546+409.047+326.553+427.475+327.099+428.261C336.549+441.874+346.941+457.146+350.906+461.554C351.488+462.201+355.82+432.745+356.402+433.393C356.915+433.963+356.53+441.731+356.126+449.658C356.071+450.719+361.497+443.818+361.444+444.868C361.412+445.509+355.901+454.108+355.87+454.735C355.562+461.095+355.369+466.52+355.794+466.992C367.262+479.757+378.727+492.522+390.449+504.631C391.152+505.357+392.732+497.323+394.395+488.467C394.494+487.94+388.751+471.484+388.85+470.953C388.988+470.219+394.968+485.407+395.105+484.672C396.884+475.167+399.381+466.77+399.381+466.77C399.381+466.77+399.358+472.459+398.449+478.955C398.362+479.579+404.27+474.509+404.177+475.156C404.147+475.364+398.119+481.279+398.089+481.488C396.398+493.189+394.011+507.727+394.967+508.67C408.168+521.693+427.229+542.134+441.58+552.214L451.646+536.032L445.543+555.992L469.152+571.81L468.678+541.297L423.516+463.013L414.864+460.004L400.506+460.261L409.926+458.288L369.435+444.209L398.312+451.893L389.192+434.745L403.237+453.203L421.455+458.051L394.042+414.006L384.532+411.612L369.522+414.662L382.06+410.989L359.88+405.406L378.17+408.184L371.742+398.584L380.419+408.968L391.981+410.973L360.974+361.447L356.124+358.071L346.777+356.162L354.024+356.608L343.516+349.294L358.588+357.635L337.525+323.994L352.157+346.372L350.435+336.418L353.898+349.035L377.586+385.261L378.333+380.127L374.354+367.822L378.792+376.969L380.621+364.381L379.367+388.38L404.633+427.26L407.458+421.094L405.956+410.253L408.464+418.9L413.955+406.914L406.338+429.668L473.251+530.714L475.064+486.038L461.889+471.183L436.621+464.645L459.192+468.182L437.618+436.06L416.039+424.134L435.649+433.128L407.569+391.32L428.307+419.591L428.944+402.687L429.922+421.793L453.19+453.512L455.363+437.636L456.206+457.705L475.571+479.973L473.809+407.795L451.96+385.436L436.361+384.349L420.827+390.453L433.829+384.172L400.315+381.837L425.224+382.463L416.848+369.518L426.792+382.118L449.368+382.358L415.351+350.696L391.568+340.532L411.267+346.428L379.799+313.546L401.316+333.679L400.901+314.724L404.881+337.014L433.791+364.064L432.039+333.214L422.143+317.465L431.742+327.973L430.735+310.24L435.382+341.473L445.07+328.771L436.549+348.562L437.608+366.744L474.928+402.551L474.667+371.185L449.146+341.517L474.602+363.335L474.46+346.334L446.433+305.834L460.563+323.912L459.304+305.639L463.742+327.979L474.422+341.643L474.043+296.11L464.829+274.683L474.004+291.419L473.786+265.215L475.073+305.902L496.94+275.489L484.682+296.222L499.699+291.153L482.672+299.624L475.95+309.045L476.565+353.041L494.941+333.113L476.714+357.723L477.309+376.535L503.109+355.915L497.376+315.12L506.19+352.962L544.194+319.731L523.74+340.816L546.056+338.723L522.522+344.048L478.375+382.003L480.392+448.979L498.444+433.147L498.069+412.657L493.256+398.392L497.994+408.536L497.588+386.327L499.442+417.39L506.471+406.599L499.593+419.913L500.239+430.733L528.935+393.034L528.648+378.114L523.175+364.289L528.574+374.287L528.226+356.196L530.692+390.725L548.398+367.463L548.51+348.87L550.047+365.296L559.817+352.46L540.666+380.314L567.633+367.194L552.442+375.526L563.236+374.834L550.119+376.801L538.821+382.998L510.835+423.702L522.073+421.899L530.479+413.967L524.714+421.476L536.474+419.59L510.095+426.331L481.442+452.369L484.647+529.275L508.576+494.524L500.356+448.038L506.365+469.645L510.602+451.77L508.181+476.175L511.76+489.048L544.329+442.601L544.111+434.512L539.166+423.896L544.034+431.661L543.019+393.982L546.346+423.665L551.459+410.968L546.888+427.178L548.663+438.699L585.004+387.279L584.429+362.856L586.992+383.671L613.589+346.833L599.263+368.668L609.208+361.706L597.656+371.118L571.412+411.117L592.73+401.331L595.065+396.449L595.048+387.932L596.233+394.008L599.598+386.973L594.655+400.089L617.459+389.978L604.768+396.895L613.113+397.246L602.768+397.986L585.037+407.65L610.023+405.619L596.577+407.285L603.407+409.815L593.994+407.605L582.509+409.028L568.627+416.594L525.015+484.257L552.96+471.502L521.398+491.704L489.043+540.069L489.72+569.231L510.498+555.945L519.406+538.332L519.307+520.793L521.936+533.328L530.796+515.808L517.506+551.971C541.077+536.025+561.473+518.26+581.042+500.02C581.391+499.695+580.756+495.695+579.651+489.937C579.552+489.42+568.524+479.358+568.417+478.815C568.316+478.296+579.136+487.296+579.028+486.755C577.74+480.267+576.049+472.278+574.514+464.868C574.332+463.99+563.807+451.555+563.63+450.697C563.484+449.985+573.685+460.847+573.543+460.153C571.567+450.479+570.107+442.738+570.596+442.28C571.168+441.741+577.462+468.173+579.882+478.033C580.013+478.569+589.281+463.414+589.412+463.948C589.665+464.98+580.782+481.694+581.03+482.698C582.953+490.46+584.658+496.998+585.122+496.559C594.143+488.03+611.173+471.447+627.021+456.215C627.352+455.898+628.461+448.129+629.667+439.426C629.737+438.922+621.598+426.119+621.668+425.609C621.799+424.663+630.14+436.007+630.271+435.056C631.639+425.148+632.988+415.42+633.355+415.068C633.578+414.854+633.085+421.474+632.476+429.206C632.452+429.521+638.474+423.179+638.449+423.497C638.415+423.92+632.334+431.004+632.301+431.431C631.491+441.639+630.582+452.797+630.868+452.523C640.877+442.927+650.091+434.205+656.077+428.843C646.148+440.264+630.804+456.933+615.008+473.618C614.637+474.01+629+469.846+640.82+466.468C641.352+466.316+646.807+451.283+647.327+451.134C648.082+450.919+642.335+465.503+643.056+465.298C649.634+463.429+654.636+462.047+654.414+462.28C654.178+462.529+650.95+464.273+644.578+466.419C641.593+467.425+638.259+468.538+634.883+469.664C634+469.959+646.974+474.177+646.091+474.472C645.571+474.646+631.191+470.895+630.674+471.068C620.592+474.432+611.265+477.563+610.933+477.912C595.126+494.529+579.294+510.714+568.373+521.262C567.51+522.095+583.158+520.308+599.035+518.483C599.543+518.424+613.144+496.627+613.652+496.568C614.39+496.483+602.036+518.138+602.771+518.053C617.789+516.329+631.858+514.752+631.029+515.535C629.981+516.525+605.693+520.326+585.827+523.588C585.078+523.711+600.088+531.523+599.354+531.644C598.68+531.756+582.26+524.176+581.601+524.285C570.001+526.21+560.773+527.846+560.127+528.441C539.6+547.351+517.533+564.966+492.957+580.467C495.167+594.916+493.557+608.586+499.733+617.473L540.961+596.494L539.069+573.61L532.004+559.856L538.639+568.405L537.482+554.411L541.862+579.306L557.08+561.962L543.214+583.748L546.53+594.649C560.195+591.873+572.714+585.726+584.619+577.769C585.324+577.297+585.708+572.43+585.994+566.249C586.032+565.4+571.052+552.696+571.087+551.806C571.115+551.119+586.161+562.253+586.188+561.55C586.593+550.887+587.128+534.073+588.242+533.262C589.101+532.638+589.584+547.006+590.31+556.304C590.391+557.346+602.858+540.264+602.939+541.281C603.012+542.183+590.699+561.189+590.772+562.049C591.299+568.276+591.841+573.138+592.452+572.668C602.892+564.614+613.686+554.832+624.529+545.099C624.879+544.784+625.304+540.049+625.736+534.909C625.798+534.17+620.287+527.192+620.349+526.448C620.411+525.706+626.047+531.198+626.109+530.475C626.502+525.867+626.885+521.886+627.206+521.599C628.11+520.788+628.656+541.401+629.561+540.594C634.875+535.854+640.189+531.192+645.467+526.814C646.269+526.149+653.306+504.401+654.107+503.75C654.645+503.312+648.947+523.966+649.484+523.536C652.725+520.935+669.264+502.952+672.462+500.658C671.234+503.858+651.938+526.046+644.756+533.416C644.152+534.037+662.277+528.331+661.656+528.96C660.821+529.808+641.236+536.994+640.381+537.85C627.607+550.659+613.395+563.888+615.18+563.887C625.293+563.35+633.838+562.914+640.996+562.568C641.997+562.519+656.097+550.648+657.044+550.602C658.048+550.555+645.896+562.334+646.84+562.291C721.989+558.803+611.457+567.303+609.79+568.769C590.109+586.07+567.255+603.07+545.716+610.785C544.419+611.25+557.757+615.008+573.684+619.215C574.101+619.325+581.316+614.637+588.644+609.87C589.218+609.496+592.826+593.028+593.398+592.656C594.439+591.979+590.895+608.794+591.9+608.142C597.63+604.427+604.004+599.958+604.349+600.049C605.167+600.264+577.893+620.322+578.72+620.538C599.644+626.008+622.764+631.731+622.764+631.731C622.764+631.731+542.337+614.482+539.809+616.632C525.89+628.499+504.887+637.571+504.637+639.903C500.996+673.841+500.729+801.619+533.763+813.714C555.015+821.497+560.508+821.522+565.177+849.894C569.845+878.266+618.465+907.183+657.769+926.725C623.686+902.635+571.505+906.29+556.325+863.365C541.145+820.44+536.884+832.087+521.286+830.256C536.289+849.627+536.98+862.095+532.503+879.577C528.025+897.058+528.757+904.802+543.07+926.039C557.382+947.275+557.292+982.117+562.172+1010.03C554.052+981.42+551.668+943.658+532.27+925.268C512.873+906.877+514.605+895.295+520.105+878.007C525.605+860.72+514.77+850.367+500.421+834.985C497.959+850.612+485.452+870.161+500.613+887.363C515.773+904.565+515.376+909.031+498.835+927.783C482.295+946.535+494.64+980.49+497.467+1007.84C493.344+981.919+471.592+951.781+486.826+929.755C502.059+907.728+492.073+902.559+481.061+887.458C470.049+872.358+473.174+853.059+473.906+834.962C462.373+847.516+451.045+858.459+454.154+875.98C457.262+893.501+454.275+903.37+433.208+919.476C412.141+935.583+408.955+965.706+399.735+988.986C404.596+964.162+404.342+933.608+423.899+916.445C443.456+899.282+447.012+886.567+439.597+869.321C432.182+852.075+444.519+843.85+451.95+832.237C434.974+822.415+419.151+826.595+402.889+864.888C386.627+903.18+336.938+895.833+306.411+912.71L306.414+912.718Z" opacity="0.33" fill="#000000"/>
</g>
</g>
</svg>
