<?xml version="1.0" encoding="UTF-8"?>
<!DOCTYPE svg PUBLIC "-//W3C//DTD SVG 1.1//EN"
  "http://www.w3.org/Graphics/SVG/1.1/DTD/svg11.dtd">
<!-- Created with Inkpad (http://www.taptrix.com/) --><svg xmlns:inkpad="http://taptrix.com/inkpad/svg_extensions" height="868pt" xmlns:xlink="http://www.w3.org/1999/xlink" xmlns="http://www.w3.org/2000/svg" width="771pt" version="1.1" viewBox="0,0,771,868">
<defs>
<linearGradient y1="422.46" id="LinearGradient" x1="28.926" y2="285.42" x2="-112.07" gradientUnits="userSpaceOnUse" gradientTransform="matrix(-0.695082 0 0 0.645927 209.736 188.597)">
<stop stop-color="#008400" offset="0"/>
<stop stop-color="#00a000" offset="1"/>
</linearGradient>
<linearGradient y1="422.46" id="LinearGradient_2" x1="28.926" y2="285.42" x2="-112.07" gradientUnits="userSpaceOnUse" gradientTransform="matrix(-0.695082 0 0 0.645927 -18.3364 -40.1109)">
<stop stop-color="#008400" offset="0"/>
<stop stop-color="#00a000" offset="1"/>
</linearGradient>
<linearGradient y1="456.75" id="LinearGradient_3" x1="-53.632" y2="216.93" x2="-135.5" gradientUnits="userSpaceOnUse" gradientTransform="matrix(-0.695082 0 0 0.645927 169.363 28.981)">
<stop stop-color="#006400" offset="0"/>
<stop stop-color="#00a000" offset="1"/>
</linearGradient>
<linearGradient y1="1272.6" id="LinearGradient_4" x1="462.51" y2="323.12" x2="428.25" gradientUnits="userSpaceOnUse" gradientTransform="matrix(0.645927 0 0 0.645927 -93.9828 28.9791)">
<stop stop-color="#000000" offset="0"/>
<stop stop-color="#986601" offset="0.5"/>
<stop stop-color="#000400" offset="1"/>
</linearGradient>
</defs>
<g id="layer1" inkpad:layerName="layer1">
<g opacity="1">
<g opacity="1">
<path d="M717.155+238.098C713.253+296.154+658.584+340.327+595.048+336.761C531.512+333.195+483.167+283.241+487.069+225.184C490.971+167.129+545.64+122.956+609.177+126.522C672.712+130.087+721.057+180.041+717.155+238.098Z" opacity="0.5" fill="#000000"/>
<path d="M705.898+237.466C701.996+295.522+647.326+339.695+583.79+336.129C520.254+332.563+471.91+282.609+475.812+224.552C479.713+166.497+534.383+122.324+597.919+125.89C661.455+129.455+709.799+179.41+705.898+237.466Z" opacity="1" fill="#015a01"/>
</g>
<g opacity="1">
<path d="M300.055+458.288C296.153+516.343+241.484+560.517+177.947+556.951C114.411+553.385+66.067+503.431+69.969+445.374C73.8706+387.319+128.54+343.145+192.077+346.711C255.612+350.277+303.957+400.232+300.055+458.288Z" opacity="0.5" fill="#000400"/>
<path d="M312.053+448.636C308.151+506.691+253.482+550.865+189.945+547.298C126.409+543.733+78.0649+493.778+81.9667+435.722C85.8684+377.666+140.538+333.493+204.074+337.059C267.61+340.625+315.954+390.579+312.053+448.636Z" opacity="1" fill="#006000"/>
</g>
<g opacity="1">
<path d="M141.93+490.802C138.028+548.858+186.371+598.812+249.908+602.378C313.444+605.944+368.114+561.772+372.016+503.716C375.917+445.66+327.574+395.705+264.037+392.139C200.502+388.573+145.831+432.746+141.93+490.802Z" opacity="0.5" fill="#000400"/>
<path d="M148.233+480.83C144.332+538.886+192.675+588.841+256.212+592.407C319.747+595.973+374.418+551.8+378.32+493.744C382.221+435.688+333.878+385.733+270.341+382.167C206.805+378.601+152.136+422.774+148.233+480.83Z" opacity="1" fill="#339900"/>
</g>
<g opacity="1">
<path d="M406.593+520.154C402.692+578.21+451.035+628.165+514.572+631.731C578.107+635.297+632.778+591.124+636.68+533.068C640.581+475.012+592.238+425.058+528.701+421.492C465.165+417.926+410.495+462.098+406.593+520.154Z" opacity="0.5" fill="#000000"/>
<path d="M390.02+514.062C386.118+572.117+434.462+622.072+497.999+625.638C561.534+629.204+616.204+585.031+620.106+526.975C624.008+468.92+575.665+418.965+512.128+415.399C448.592+411.833+393.922+456.005+390.02+514.062Z" opacity="1" fill="url(#LinearGradient)"/>
</g>
<g opacity="1">
<path d="M624.64+152.444C620.739+210.5+566.07+254.673+502.533+251.107C438.997+247.541+390.652+197.587+394.554+139.531C398.456+81.4753+453.125+37.3018+516.662+40.8677C580.198+44.4336+628.542+94.388+624.64+152.444Z" opacity="0.5" fill="#000000"/>
<path d="M613.038+156.941C609.136+214.997+554.466+259.17+490.93+255.604C427.394+252.038+379.05+202.084+382.952+144.027C386.854+85.9719+441.523+41.7985+505.06+45.3645C568.596+48.9303+616.94+98.8846+613.038+156.941Z" opacity="1" fill="#00ac00"/>
</g>
<g opacity="1">
<path d="M558.576+540.88C554.674+598.935+500.005+643.109+436.468+639.543C372.932+635.977+324.588+586.023+328.49+527.966C332.392+469.911+387.061+425.737+450.598+429.303C514.134+432.869+562.477+482.823+558.576+540.88Z" opacity="0.5" fill="#000000"/>
<path d="M553.573+530.273C549.672+588.329+495.003+632.503+431.466+628.937C367.93+625.371+319.586+575.416+323.488+517.36C327.389+459.304+382.059+415.131+445.595+418.697C509.131+422.263+557.475+472.217+553.573+530.273Z" opacity="1" fill="#006400"/>
</g>
<g opacity="1">
<path d="M735.383+343.442C731.481+401.498+676.811+445.671+613.275+442.106C549.739+438.54+501.395+388.586+505.297+330.529C509.198+272.474+563.868+228.3+627.405+231.866C690.94+235.432+739.285+285.386+735.383+343.442Z" opacity="0.5" fill="#000000"/>
<path d="M724.076+342.808C720.174+400.864+665.505+445.037+601.969+441.471C538.433+437.905+490.088+387.951+493.99+329.895C497.892+271.839+552.561+227.666+616.098+231.232C679.634+234.797+727.978+284.752+724.076+342.808Z" opacity="1" fill="#007c00"/>
</g>
<g opacity="1">
<path d="M502.414+130.893C498.513+188.948+443.844+233.122+380.307+229.556C316.771+225.99+268.427+176.036+272.329+117.979C276.23+59.9236+330.899+15.7502+394.436+19.316C457.972+22.882+506.316+72.8363+502.414+130.893Z" opacity="0.5" fill="#000000"/>
<path d="M485.231+135.091C481.329+193.146+426.66+237.32+363.123+233.754C299.587+230.188+251.243+180.234+255.145+122.178C259.047+64.1219+313.716+19.9486+377.253+23.5145C440.789+27.0804+489.133+77.0346+485.231+135.091Z" opacity="1" fill="#009c00"/>
</g>
<g opacity="1">
<path d="M438.486+151.14C434.585+209.196+379.915+253.369+316.378+249.804C252.843+246.237+204.498+196.283+208.4+138.227C212.302+80.1714+266.972+35.998+330.508+39.5639C394.044+43.1298+442.388+93.0841+438.486+151.14Z" opacity="0.5" fill="#000000"/>
<path d="M437.792+161.472C433.89+219.528+379.221+263.701+315.684+260.135C252.148+256.569+203.804+206.614+207.706+148.558C211.608+90.5027+266.277+46.3293+329.813+49.8954C393.35+53.4612+441.694+103.415+437.792+161.472Z" opacity="1" fill="#008c00"/>
</g>
<g opacity="1">
<path d="M713.421+479.111C709.519+537.167+654.85+581.34+591.313+577.774C527.777+574.209+479.433+524.254+483.335+466.198C487.236+408.143+541.906+363.969+605.442+367.535C668.978+371.101+717.323+421.055+713.421+479.111Z" opacity="0.5" fill="#000000"/>
<path d="M702.509+473.336C698.607+531.392+643.938+575.565+580.401+571.999C516.865+568.433+468.521+518.479+472.423+460.423C476.325+402.367+530.994+358.194+594.531+361.76C658.066+365.325+706.41+415.28+702.509+473.336Z" opacity="1" fill="#008400"/>
</g>
<g opacity="1">
<path d="M714.737+390.676C710.835+448.732+656.167+492.905+592.629+489.339C529.093+485.773+480.749+435.819+484.651+377.763C488.553+319.707+543.222+275.533+606.759+279.099C670.294+282.665+718.639+332.62+714.737+390.676Z" opacity="0.5" fill="#000000"/>
<path d="M703.167+395.174C699.266+453.23+644.596+497.404+581.06+493.838C517.524+490.272+469.18+440.317+473.081+382.261C476.983+324.206+531.652+280.032+595.189+283.598C658.725+287.164+707.069+337.118+703.167+395.174Z" opacity="1" fill="#007800"/>
</g>
<g opacity="1">
<path d="M661.635+216.528C657.733+274.584+603.063+318.757+539.527+315.191C475.991+311.625+427.647+261.671+431.548+203.615C435.45+145.559+490.12+101.386+553.657+104.952C617.192+108.518+665.537+158.472+661.635+216.528Z" opacity="0.5" fill="#000400"/>
<path d="M650.064+221.027C646.163+279.082+591.494+323.256+527.957+319.69C464.421+316.124+416.076+266.17+419.979+208.113C423.88+150.058+478.55+105.884+542.086+109.45C605.622+113.016+653.967+162.97+650.064+221.027Z" opacity="1" fill="#339900"/>
</g>
<g opacity="1">
<path d="M348.976+155.502C345.074+213.557+393.418+263.512+456.954+267.078C520.49+270.644+575.16+226.472+579.062+168.415C582.964+110.36+534.621+60.4046+471.084+56.8388C407.548+53.2728+352.878+97.4454+348.976+155.502Z" opacity="0.5" fill="#000000"/>
<path d="M337.406+160C333.505+218.056+381.848+268.011+445.384+271.577C508.92+275.143+563.59+230.97+567.492+172.914C571.394+114.858+523.05+64.9031+459.514+61.3373C395.978+57.7712+341.308+101.944+337.406+160Z" opacity="1" fill="#00b000"/>
</g>
<g opacity="1">
<path d="M666.165+475.613C662.264+533.668+607.594+577.842+544.057+574.276C480.522+570.71+432.177+520.755+436.08+462.699C439.981+404.644+494.65+360.47+558.187+364.036C621.723+367.602+670.067+417.556+666.165+475.613Z" opacity="0.5" fill="#000000"/>
<path d="M649.592+469.52C645.69+527.575+591.021+571.749+527.484+568.183C463.949+564.617+415.604+514.663+419.506+456.606C423.408+398.551+478.077+354.377+541.614+357.943C605.149+361.509+653.494+411.463+649.592+469.52Z" opacity="1" fill="#006000"/>
</g>
<g opacity="1">
<path d="M647.755+379.082C643.853+437.138+589.184+481.311+525.647+477.745C462.111+474.179+413.768+424.225+417.669+366.169C421.571+308.113+476.24+263.94+539.776+267.506C603.313+271.072+651.657+321.026+647.755+379.082Z" opacity="0.5" fill="#000400"/>
<path d="M636.103+383.591C632.201+441.646+577.532+485.82+513.995+482.254C450.46+478.688+402.115+428.734+406.017+370.677C409.919+312.622+464.588+268.449+528.125+272.015C591.66+275.58+640.005+325.535+636.103+383.591Z" opacity="1" fill="#009400"/>
</g>
<g opacity="1">
<path d="M615.899+210.561C611.997+268.617+557.328+312.79+493.791+309.225C430.255+305.659+381.911+255.705+385.813+197.648C389.714+139.592+444.384+95.4192+507.921+98.9849C571.456+102.551+619.801+152.505+615.899+210.561Z" opacity="0.5" fill="#000000"/>
<path d="M609.513+220.529C605.612+278.584+550.943+322.758+487.406+319.192C423.87+315.626+375.526+265.671+379.428+207.615C383.329+149.56+437.999+105.386+501.536+108.952C565.071+112.518+613.415+162.473+609.513+220.529Z" opacity="1" fill="#008400"/>
</g>
<g opacity="1">
<path d="M640.931+291.957C637.03+350.013+582.36+394.186+518.824+390.62C455.288+387.054+406.944+337.1+410.845+279.044C414.747+220.988+469.416+176.815+532.953+180.381C596.489+183.947+644.833+233.901+640.931+291.957Z" opacity="0.5" fill="#000000"/>
<path d="M629.36+296.47C625.459+354.526+570.789+398.699+507.253+395.134C443.717+391.567+395.373+341.613+399.274+283.557C403.176+225.502+457.845+181.328+521.382+184.894C584.919+188.46+633.262+238.414+629.36+296.47Z" opacity="1" fill="#007800"/>
</g>
<g opacity="1">
<path d="M229.791+516.851C225.89+574.907+274.233+624.862+337.77+628.428C401.306+631.994+455.976+587.821+459.877+529.764C463.779+471.709+415.436+421.754+351.899+418.188C288.363+414.622+233.693+458.795+229.791+516.851Z" opacity="0.5" fill="#000000"/>
<path d="M241.362+512.337C237.461+570.393+285.804+620.348+349.341+623.914C412.876+627.48+467.546+583.307+471.448+525.251C475.35+467.196+427.007+417.241+363.47+413.675C299.934+410.109+245.264+454.281+241.362+512.337Z" opacity="1" fill="#008c00"/>
</g>
<g opacity="1">
<path d="M35.1471+334.339C31.2451+392.395+79.5882+442.35+143.125+445.916C206.661+449.481+261.331+405.309+265.233+347.253C269.134+289.197+220.791+239.242+157.254+235.676C93.7186+232.11+39.0483+276.283+35.1471+334.339Z" opacity="0.5" fill="#000400"/>
<path d="M46.7175+329.826C42.8157+387.882+91.1591+437.836+154.696+441.402C218.231+444.968+272.902+400.796+276.804+342.739C280.705+284.684+232.362+234.729+168.825+231.163C105.289+227.597+50.6191+271.77+46.7175+329.826Z" opacity="1" fill="#007400"/>
</g>
<g opacity="1">
<path d="M126.394+165.327C122.493+223.383+170.836+273.338+234.373+276.904C297.909+280.469+352.579+236.297+356.48+178.241C360.382+120.185+312.039+70.23+248.502+66.6641C184.966+63.0981+130.297+107.271+126.394+165.327Z" opacity="0.5" fill="#000000"/>
<path d="M134.508+170.953C130.606+229.008+178.949+278.963+242.486+282.529C306.022+286.095+360.692+241.922+364.594+183.866C368.496+125.81+320.152+75.8557+256.616+72.2897C193.08+68.7238+138.41+112.896+134.508+170.953Z" opacity="1" fill="#007c00"/>
</g>
<g opacity="1">
<path d="M292.918+211.602C289.017+269.658+337.36+319.612+400.897+323.178C464.432+326.745+519.103+282.572+523.004+224.516C526.907+166.46+478.563+116.505+415.026+112.939C351.491+109.373+296.82+153.546+292.918+211.602Z" opacity="0.5" fill="#000000"/>
<path d="M286.533+221.569C282.631+279.625+330.975+329.58+394.512+333.146C458.047+336.711+512.717+292.539+516.619+234.483C520.521+176.427+472.178+126.472+408.641+122.906C345.105+119.34+290.435+163.513+286.533+221.569Z" opacity="1" fill="#006c00"/>
</g>
<g opacity="1">
<path d="M42.5789+261.292C38.6773+319.347+87.0207+369.302+150.557+372.868C214.093+376.434+268.763+332.262+272.665+274.205C276.567+216.15+228.223+166.195+164.687+162.629C101.151+159.063+46.4807+203.235+42.5789+261.292Z" opacity="0.5" fill="#000000"/>
<path d="M54.5772+251.64C50.6752+309.695+99.0184+359.65+162.555+363.216C226.091+366.782+280.761+322.609+284.663+264.553C288.565+206.498+240.221+156.543+176.685+152.977C113.149+149.411+58.4789+193.583+54.5772+251.64Z" opacity="1" fill="#008000"/>
</g>
<g opacity="1">
<path d="M103.576+233.82C99.6738+291.875+148.017+341.83+211.554+345.396C275.09+348.962+329.76+304.789+333.661+246.733C337.563+188.677+289.22+138.722+225.683+135.156C162.148+131.59+107.477+175.763+103.576+233.82Z" opacity="0.5" fill="#000000"/>
<path d="M120.495+234.769C116.593+292.824+164.936+342.78+228.473+346.346C292.009+349.911+346.679+305.739+350.581+247.682C354.483+189.627+306.139+139.672+242.602+136.106C179.067+132.54+124.397+176.713+120.495+234.769Z" opacity="1" fill="url(#LinearGradient_2)"/>
</g>
<g opacity="1">
<path d="M341.241+424.632C337.339+482.687+282.67+526.861+219.134+523.295C155.598+519.729+107.254+469.775+111.156+411.718C115.057+353.663+169.726+309.489+233.263+313.055C296.799+316.621+345.143+366.575+341.241+424.632Z" opacity="0.5" fill="#000400"/>
<path d="M352.812+420.118C348.91+478.174+294.241+522.347+230.704+518.781C167.168+515.216+118.824+465.261+122.726+407.205C126.628+349.149+181.297+304.976+244.834+308.542C308.37+312.108+356.714+362.062+352.812+420.118Z" opacity="1" fill="#339900"/>
</g>
<g opacity="1">
<path d="M357.825+317.567C353.924+375.623+402.267+425.577+465.804+429.143C529.34+432.71+584.01+388.537+587.912+330.48C591.813+272.425+543.47+222.47+479.934+218.904C416.397+215.338+361.727+259.511+357.825+317.567Z" opacity="0.5" fill="#000000"/>
<path d="M351.522+327.538C347.62+385.594+395.963+435.549+459.5+439.115C523.036+442.681+577.706+398.509+581.608+340.452C585.509+282.397+537.166+232.442+473.629+228.876C410.094+225.31+355.423+269.483+351.522+327.538Z" opacity="1" fill="url(#LinearGradient_3)"/>
</g>
<g opacity="1">
<path d="M307.548+302.89C303.646+360.946+248.977+405.12+185.44+401.553C121.905+397.988+73.5605+348.033+77.4623+289.977C81.364+231.921+136.033+187.748+199.57+191.314C263.106+194.88+311.45+244.834+307.548+302.89Z" opacity="0.5" fill="#000000"/>
<path d="M318.428+308.664C314.526+366.719+259.857+410.893+196.32+407.327C132.784+403.761+84.4399+353.807+88.3418+295.75C92.2435+237.695+146.913+193.521+210.45+197.087C273.985+200.653+322.329+250.607+318.428+308.664Z" opacity="1" fill="#339900"/>
</g>
<g opacity="1">
<path d="M132.554+306.93C128.652+364.985+176.995+414.94+240.532+418.506C304.068+422.072+358.738+377.899+362.64+319.843C366.541+261.787+318.198+211.832+254.662+208.266C191.126+204.701+136.455+248.873+132.554+306.93Z" opacity="0.5" fill="#000400"/>
<path d="M149.819+302.728C145.917+360.784+194.26+410.739+257.797+414.305C321.333+417.871+376.003+373.698+379.905+315.642C383.807+257.586+335.463+207.631+271.927+204.065C208.391+200.499+153.721+244.672+149.819+302.728Z" opacity="1" fill="#44aa00"/>
</g>
<g opacity="1">
<path d="M256.157+252.05C252.256+310.106+300.599+360.061+364.135+363.627C427.671+367.193+482.342+323.02+486.243+264.964C490.145+206.908+441.801+156.953+378.265+153.387C314.729+149.822+260.059+193.994+256.157+252.05Z" opacity="0.5" fill="#000000"/>
<path d="M255.466+262.337C251.564+320.393+299.908+370.348+363.444+373.914C426.98+377.48+481.65+333.307+485.552+275.251C489.453+217.195+441.111+167.24+377.574+163.674C314.038+160.108+259.368+204.281+255.466+262.337Z" opacity="1" fill="#009400"/>
</g>
<g opacity="1">
<path d="M374.838+445.518C370.937+503.573+419.28+553.528+482.816+557.094C546.352+560.66+601.022+516.487+604.924+458.431C608.826+400.375+560.483+350.421+496.946+346.855C433.41+343.289+378.74+387.462+374.838+445.518Z" opacity="0.5" fill="#000000"/>
<path d="M360.939+442.156C357.037+500.212+405.38+550.167+468.917+553.733C532.454+557.299+587.123+513.126+591.025+455.07C594.927+397.014+546.583+347.059+483.047+343.493C419.511+339.927+364.841+384.1+360.939+442.156Z" opacity="1" fill="#2ca02c"/>
</g>
<g opacity="1">
<path d="M323.491+370.338C319.589+428.393+367.933+478.348+431.469+481.914C495.005+485.48+549.675+441.308+553.577+383.251C557.479+325.196+509.135+275.241+445.599+271.675C382.063+268.109+327.393+312.281+323.491+370.338Z" opacity="0.5" fill="#000000"/>
<path d="M312.266+369.708C308.364+427.763+356.707+477.718+420.244+481.284C483.78+484.85+538.45+440.678+542.352+382.621C546.254+324.566+497.911+274.611+434.374+271.045C370.838+267.479+316.168+311.651+312.266+369.708Z" opacity="1" fill="#217821"/>
</g>
<g opacity="1">
<path d="M184.966+317.702C180.863+375.745+229.034+425.84+292.558+429.59C356.081+433.339+410.905+389.325+415.008+331.281C419.11+273.237+370.94+223.143+307.416+219.393C243.892+215.643+189.069+259.657+184.966+317.702Z" opacity="0.5" fill="#000000"/>
<path d="M184.275+327.988C180.172+386.032+228.342+436.126+291.867+439.876C355.39+443.626+410.213+399.612+414.316+341.567C418.418+283.524+370.249+233.429+306.724+229.679C243.201+225.93+188.377+269.944+184.275+327.988Z" opacity="1" fill="#217821"/>
</g>
<g opacity="1">
<path d="M165.366+442.809C161.465+500.865+209.808+550.82+273.345+554.386C336.88+557.952+391.551+513.779+395.453+455.723C399.354+397.667+351.011+347.713+287.474+344.146C223.938+340.581+169.268+384.753+165.366+442.809Z" opacity="0.5" fill="#000000"/>
<path d="M171.671+432.83C167.769+490.886+216.113+540.841+279.649+544.407C343.185+547.973+397.856+503.8+401.757+445.744C405.658+387.688+357.316+337.733+293.779+334.167C230.243+330.601+175.573+374.774+171.671+432.83Z" opacity="1" fill="#006400"/>
</g>
<g opacity="1">
<path d="M469.096+353.74C465.194+411.796+410.525+455.969+346.989+452.403C283.453+448.837+235.108+398.883+239.01+340.827C242.912+282.771+297.581+238.598+361.118+242.164C424.653+245.73+472.998+295.684+469.096+353.74Z" opacity="0.5" fill="#000000"/>
<path d="M475.4+343.768C471.498+401.824+416.829+445.997+353.292+442.431C289.757+438.866+241.412+388.911+245.314+330.855C249.216+272.799+303.885+228.626+367.422+232.192C430.958+235.758+479.301+285.712+475.4+343.768Z" opacity="1" fill="#00ac00"/>
</g>
<g opacity="1">
<path d="M296.439+486.418C292.537+544.473+340.88+594.428+404.417+597.995C467.953+601.56+522.623+557.387+526.525+499.331C530.427+441.276+482.083+391.321+418.546+387.755C355.011+384.189+300.341+428.362+296.439+486.418Z" opacity="0.5" fill="#000000"/>
<path d="M302.916+473.874C299.014+531.93+347.357+581.885+410.894+585.451C474.43+589.017+529.099+544.844+533.001+486.788C536.903+428.732+488.56+378.777+425.023+375.211C361.488+371.645+306.817+415.818+302.916+473.874Z" opacity="1" fill="#007800"/>
</g>
<g opacity="1">
<path d="M252.787+412.844C248.885+470.899+297.229+520.854+360.766+524.42C424.301+527.986+478.972+483.813+482.873+425.757C486.775+367.701+438.431+317.746+374.895+314.18C311.359+310.615+256.689+354.787+252.787+412.844Z" opacity="0.34496" fill="#000000"/>
<path d="M267.551+403.346C263.649+461.402+311.992+511.357+375.528+514.923C439.065+518.489+493.734+474.316+497.637+416.26C501.538+358.204+453.195+308.249+389.658+304.683C326.122+301.118+271.452+345.29+267.551+403.346Z" opacity="1" fill="#009800"/>
</g>
<path d="M119.702+991.312C181.842+968.22+252.166+953.412+257.74+913.998C263.315+874.583+303.592+857.952+331.716+839.905C372.744+813.577+379.975+643.177+367.495+599.262C366.698+596.459+353.156+590.862+334.193+584.082C330.29+582.686+234.73+616.256+230.43+614.774C228.573+614.133+279.392+597.563+291.033+592.67C292.144+592.203+266.069+584.414+267.196+583.945C268.925+583.224+297.859+589.824+299.57+589.116C311.568+584.152+322.295+579.775+320.142+579.901C306.119+580.725+267.953+564.409+226.267+540.944C225.46+540.489+213.332+539.613+199.121+538.657C198.13+538.59+189.259+543.586+188.251+543.519C187.424+543.464+194.464+538.346+193.629+538.29C174.312+537.005+153.397+535.656+152.322+535.038C151.592+534.618+162.282+534.62+175.031+534.696C175.857+534.701+163.399+527.079+164.239+527.084C165.068+527.09+179.196+534.723+180.035+534.728C197.243+534.846+215.918+535.014+214.957+534.451C200.186+525.806+185.209+516.394+170.915+506.645C169.701+505.816+159.111+504.074+146.898+502.173C145.98+502.03+134.846+505.855+133.913+505.71C132.967+505.564+142.221+501.449+141.266+501.301C125.383+498.851+108.781+496.33+107.264+495.275C106.295+494.601+116.092+494.974+127.123+495.467C128.295+495.519+117.358+485.81+118.547+485.864C119.728+485.917+133.035+495.734+134.21+495.787C145.857+496.313+156.646+496.755+155.646+496.049C146.688+489.726+138.016+483.187+129.825+476.721C129.426+476.406+120.963+474.997+111.608+473.468C110.69+473.318+102.386+477.294+101.458+477.142C100.507+476.987+106.931+472.705+105.983+472.549C96.0767+470.932+86.7559+469.395+86.3418+469.064C85.4482+468.351+125.368+473.174+124.486+472.464C114.479+464.404+105.295+456.558+97.313+449.496C96.3397+448.634+75.1328+442.756+74.1957+441.919C73.5846+441.373+93.2322+445.862+92.6379+445.327C76.164+430.523+65.8935+420.077+65.8935+420.077C65.8935+420.077+73.9348+425.459+84.1977+432.44C84.8716+432.898+81.9191+424.077+82.6103+424.548C83.4404+425.113+87.9178+434.974+88.7681+435.554C98.8797+442.459+110.205+450.29+117.945+455.925C119.175+456.82+118.4+413.892+119.629+414.79C121.093+415.86+121.862+428.476+122.679+440.291C122.741+441.178+131.942+432.844+132.004+433.717C132.065+434.583+122.988+444.656+123.052+445.498C123.663+453.639+124.356+460.404+125.411+461.176C142.327+473.568+159.761+486.398+177.614+498.476C178.386+498.997+178.944+479.948+179.489+459.62C179.527+458.207+153.532+427.615+153.57+426.197C153.627+424.064+179.499+454.336+179.557+452.224C180.085+432.702+180.85+411.724+181.598+412.221C182.625+412.905+183.96+441.706+185.259+467.115C185.317+468.241+203.12+448.299+203.177+449.408C203.233+450.49+185.544+472.624+185.6+473.684C186.5+490.819+187.368+504.965+188.087+505.433C218.779+525.437+250.627+542.583+283.133+550.982L277.889+517.587L262.212+510.653L236.79+510.743L257.943+508.765L231.178+496.926L211.354+495.859L226.492+494.853L201.365+483.739L238.306+497.469L231.708+478.346L240.829+497.949L276.116+511.522L248.058+465.676L223.848+451.287L245.002+460.681L226.771+430.893L238.427+445.971L237.066+432.768L241.723+450.235L260.084+473.985L264.001+462.918L260.803+450.466L265.311+459.217L270.753+443.841L263.69+477.659L284.318+510.436L287.706+491.599L284.081+481.322L288.433+487.553L291.407+471.014L291.079+497.294L300.333+487.718L291.034+500.953L290.803+519.484L302.599+555.301L371.496+567.431C377.02+547.152+374.295+539.975+371.32+526.755C316.062+484.936+275.232+442.819+229.855+393.018C229.281+392.388+221.32+389.768+210.526+386.384C209.885+386.182+171.581+397.169+170.921+396.962C170.129+396.715+206.976+385.274+206.161+385.021C181.943+377.488+147.723+367.259+146.521+365.917C145.663+364.961+166.832+369.934+186.586+374.524C187.094+374.643+175.072+352.037+175.578+352.155C176.026+352.259+189.003+375.085+189.449+375.189C205.696+378.959+220.182+382.253+219.475+381.453C210.158+370.914+194.698+350.186+178.044+327.041C176.984+325.568+107.124+306.368+106.056+304.877C105.656+304.32+126.249+308.912+144.641+313.108C145.767+313.364+136.109+294.665+137.212+294.918C138.344+295.177+147.296+313.304+148.893+313.584C160.88+315.683+172.685+319.571+172.685+319.571L142.954+277.444L115.018+261.759C115.018+261.759+140.974+274.206+139.824+272.558C128.251+255.988+115.995+238.792+109.835+230.1C117.864+237.796+137.474+263.991+156.444+289.342C156.929+289.99+157.872+286.327+158.925+281.639C159.055+281.06+153.825+266.86+153.958+266.255C154.087+265.669+159.577+278.678+159.708+278.079C161.204+271.19+162.744+263.872+163.408+264.759C164.267+265.906+159.238+292.433+160.09+293.569C174.835+313.246+191.047+335.32+197.255+341.698C198.166+342.634+205.489+300.232+206.4+301.169C207.202+301.994+206.47+313.182+205.705+324.599C205.603+326.126+214.301+316.224+214.201+317.736C214.139+318.659+205.279+331.008+205.221+331.911C204.632+341.07+204.242+348.884+204.907+349.568C222.86+368.037+240.809+386.507+259.177+404.034C260.278+405.085+262.906+393.523+265.679+380.777C265.844+380.019+257.011+356.273+257.177+355.508C257.406+354.451+266.634+376.373+266.863+375.315C269.828+361.636+273.914+349.556+273.914+349.556C273.914+349.556+273.789+357.752+272.247+367.102C272.099+368.001+281.532+360.74+281.375+361.671C281.325+361.97+271.688+370.448+271.636+370.75C268.775+387.594+264.766+408.52+266.265+409.885C286.958+428.739+316.812+458.322+339.373+472.943L355.564+449.705L345.587+478.415L382.714+501.369L382.446+457.409L312.183+344.316L298.532+339.92L275.797+340.188L290.742+337.411L226.861+316.844L272.456+328.117L258.289+303.349L280.233+330.04L308.998+337.153L266.294+273.508L251.277+269.992L227.465+274.279L247.373+269.077L212.347+260.877L241.258+265.008L231.233+251.134L244.806+266.154L263.08+269.125L214.771+197.558L207.147+192.661L192.379+189.844L203.845+190.539L187.326+179.928L211.054+192.051L178.24+143.438L201.052+175.779L198.482+161.428L203.766+179.628L240.696+231.983L241.958+224.592L235.854+206.838L242.735+220.046L245.83+201.925L243.466+236.488L282.853+292.676L287.422+283.814L285.215+268.186L289.048+280.661L297.932+263.432L285.514+296.157L389.852+442.197L393.427+377.851L372.804+356.357L332.904+346.76L368.582+352.015L334.933+305.587L300.959+288.254L331.862+301.35L288.067+240.923L320.453+281.797L321.727+257.45L322.975+284.98L359.31+330.839L363.001+307.984L364.019+336.901L394.325+369.117L392.675+265.127L358.438+232.762L333.759+231.085L309.072+239.768L329.755+230.813L276.733+227.211L316.158+228.289L303.102+209.581L318.646+227.804L354.383+228.309L301.029+182.457L263.537+167.647L294.631+176.279L245.331+128.688L279.078+157.843L278.72+130.533L284.669+162.672L330.012+201.845L327.724+157.391L312.306+134.633L327.336+149.839L326.022+124.287L332.887+169.313L348.425+151.083L334.622+179.532L336.011+205.732L394.53+257.581L394.612+212.393L354.677+169.473L394.632+201.085L394.677+176.592L350.944+118.05L373.028+144.193L371.324+117.86L377.997+150.075L394.689+169.834L394.808+104.237L380.558+73.3048L394.819+97.4794L394.888+59.73L396.284+118.351L431.382+74.6937L411.65+104.475L435.503+97.2794L408.413+109.361L397.623+122.885L397.903+186.27L427.308+157.691L398.064+193.014L398.71+220.119L439.879+190.598L431.448+131.789L444.804+186.366L505.494+138.763L472.779+168.993L508.142+166.136L470.801+173.64L400.311+228.004L402.447+324.502L431.276+301.823L431.006+272.303L423.611+251.719L430.952+266.365L430.66+234.369L433.105+279.13L444.402+263.636L433.304+282.767L434.156+298.358L480.18+244.253L479.96+222.758L471.516+202.803L479.905+217.245L479.639+191.18L482.998+240.939L511.397+207.554L511.867+180.77L514.041+204.445L529.711+186.023L498.954+226.012L541.853+207.303L517.672+219.199L534.772+218.278L513.974+221.018L495.99+229.865L451.042+288.305L468.863+285.787L482.294+274.42L473.049+285.196L491.696+282.562L449.829+292.086L404.057+329.392L407.917+440.204L446.349+390.312L434.069+323.288L443.241+354.457L450.231+328.737L446.012+363.876L451.476+382.447L503.769+315.768L503.552+304.112L495.891+288.785L503.475+300.005L502.463+245.719L507.262+288.503L515.557+270.248L508.064+293.568L510.692+310.176L569.036+236.36L568.511+201.173L572.242+231.177L614.929+178.298L591.904+209.652L607.758+199.693L589.321+213.168L547.142+270.605L581.046+256.658L584.819+249.643L584.927+237.372L586.706+246.134L592.146+236.023L584.112+254.882L620.374+240.479L600.173+250.354L613.379+250.918L596.99+251.91L568.768+265.706L608.356+262.958L587.043+265.262L597.815+268.956L582.948+265.705L564.744+267.673L542.646+278.475L472.536+375.639L516.978+357.463L466.691+386.34L414.707+455.785L415.318+497.8L448.423+478.807L462.802+453.497L462.922+428.231L466.887+446.307L481.19+421.132L459.58+473.132C497.148+450.329+529.718+424.882+560.986+398.745C561.543+398.279+560.602+392.512+558.943+384.208C558.794+383.463+541.494+368.89+541.334+368.106C541.181+367.358+558.169+380.401+558.008+379.621C556.069+370.264+553.519+358.744+551.205+348.059C550.931+346.793+534.464+328.804+534.199+327.567C533.977+326.54+549.956+342.26+549.742+341.259C546.766+327.309+544.578+316.148+545.358+315.491C546.273+314.719+555.82+352.84+559.496+367.061C559.695+367.834+574.606+346.069+574.805+346.838C575.191+348.327+560.863+372.342+561.241+373.79C564.162+384.985+566.757+394.416+567.5+393.787C581.915+381.565+609.139+357.796+634.468+335.966C634.996+335.512+636.875+324.328+638.922+311.798C639.039+311.073+626.356+292.572+626.476+291.838C626.698+290.476+639.724+306.876+639.947+305.507C642.269+291.244+644.558+277.239+645.144+276.734C645.501+276.428+644.616+285.962+643.531+297.096C643.485+297.55+653.12+288.456+653.075+288.915C653.015+289.524+643.277+299.685+643.217+300.3C641.774+314.999+640.158+331.068+640.616+330.675C656.614+316.922+671.338+304.422+680.9+296.739C665+313.122+640.445+337.027+615.175+360.951C614.582+361.513+637.386+355.616+656.152+350.834C656.996+350.619+665.87+329.001+666.696+328.791C667.893+328.486+658.566+349.454+659.71+349.164C670.154+346.518+678.094+344.563+677.739+344.898C677.362+345.254+672.223+347.744+662.102+350.79C657.36+352.217+652.065+353.797+646.702+355.395C645.299+355.813+665.773+361.983+664.37+362.401C663.544+362.647+640.837+357.143+640.015+357.388C624.002+362.162+609.186+366.607+608.655+367.107C583.369+390.933+558.05+414.137+540.593+429.254C539.214+430.449+564.016+427.985+589.179+425.468C589.985+425.387+611.861+394.083+612.667+394.002C613.837+393.885+593.937+424.993+595.102+424.876C618.903+422.498+641.202+420.327+639.877+421.449C638.202+422.867+599.692+428.171+568.188+432.729C567.002+432.901+590.641+444.262+589.477+444.431C588.408+444.587+562.534+433.551+561.487+433.704C543.093+436.394+528.458+438.686+527.427+439.537C494.63+466.633+459.418+491.853+420.266+514.008C423.536+534.84+420.772+554.521+430.409+567.366L496.01+537.437L493.376+504.458L482.408+484.594L492.777+496.956L491.167+476.789L497.707+512.682L522.073+487.805L499.777+519.092L504.856+534.819C526.533+530.917+546.45+522.15+565.422+510.772C566.545+510.098+567.229+503.09+567.78+494.187C567.85+492.964+544.338+474.556+544.409+473.275C544.464+472.285+568.108+488.432+568.163+487.419C568.971+472.061+570.083+447.843+571.86+446.683C573.229+445.789+573.768+466.491+574.77+479.89C574.882+481.392+594.888+456.872+595.001+458.339C595.101+459.639+575.309+486.93+575.411+488.17C576.146+497.144+576.929+504.153+577.902+503.479C594.558+491.95+611.8+477.936+629.12+463.991C629.68+463.54+630.427+456.722+631.192+449.321C631.302+448.257+622.687+438.165+622.797+437.095C622.907+436.025+631.742+443.977+631.852+442.935C632.547+436.301+633.216+430.568+633.729+430.157C635.173+428.996+635.712+458.694+637.157+457.537C645.645+450.747+654.131+444.069+662.556+437.8C663.837+436.847+675.321+405.567+676.599+404.635C677.457+404.008+668.112+433.722+668.969+433.105C674.14+429.382+700.606+403.594+705.706+400.312C703.711+404.912+672.813+436.738+661.327+447.305C660.36+448.195+689.144+440.104+688.152+441.006C686.816+442.222+655.697+452.434+654.332+453.661C633.905+472.023+611.198+490.979+614.024+490.991C630.041+490.289+643.576+489.721+654.914+489.273C656.5+489.211+679.01+472.209+680.51+472.151C682.1+472.089+662.675+488.972+664.171+488.916C783.197+484.425+608.076+495.886+605.412+497.986C573.982+522.77+537.534+547.096+503.312+558.059C501.252+558.719+522.307+564.227+547.456+570.401C548.115+570.563+559.612+563.86+571.288+557.044C572.203+556.511+578.174+532.812+579.086+532.28C580.744+531.312+574.867+555.51+576.469+554.578C585.6+549.268+595.761+542.875+596.305+543.008C597.599+543.323+554.102+572.025+555.408+572.342C588.448+580.371+624.96+588.779+624.96+588.779C624.96+588.779+497.905+563.36+493.869+566.439C471.647+583.436+438.252+596.356+437.82+599.714C431.52+648.578+429.081+832.649+481.189+850.308C514.71+861.67+523.406+861.744+530.35+902.65C537.293+943.555+613.809+985.556+675.724+1013.99C622.147+979.041+539.478+983.937+516.124+921.993C492.768+860.049+485.84+876.798+461.174+874.048C484.621+902.06+485.518+920.026+478.155+945.178C470.79+970.329+471.826+981.49+494.15+1012.19C516.474+1042.88+515.781+1093.07+523.067+1133.31C510.663+1092.04+507.484+1037.63+477.065+1011C446.646+984.367+449.571+967.694+458.551+942.829C467.531+917.965+450.541+902.974+428.067+880.712C423.924+903.207+403.815+931.281+427.546+956.169C451.274+981.057+450.576+987.488+424.093+1014.38C397.612+1041.28+416.62+1090.28+420.665+1129.7C414.546+1092.33+380.585+1048.76+405.049+1017.14C429.513+985.516+413.785+977.999+396.59+956.168C379.396+934.337+384.646+906.557+386.091+880.492C367.634+898.496+349.528+914.179+354.173+939.442C358.817+964.703+353.933+978.899+320.327+1001.95C286.721+1025.01+281.202+1068.38+266.238+1101.85C274.326+1066.12+274.406+1022.1+305.638+997.519C336.87+972.934+342.7+954.642+331.233+929.745C319.766+904.848+339.427+893.087+351.374+876.411C324.654+862.141+299.539+868.05+273.189+923.098C246.84+978.146+168.291+967.209+119.697+991.306L119.702+991.312Z" opacity="1" fill="url(#LinearGradient_4)"/>
<path d="M99.644+996.032C161.784+972.941+232.108+958.132+237.682+918.718C243.258+879.303+283.535+862.672+311.659+844.625C352.686+818.297+359.918+647.897+347.437+603.982C346.641+601.179+333.098+595.582+314.136+588.802C310.232+587.406+214.672+620.976+210.373+619.494C208.516+618.854+259.334+602.283+270.976+597.39C272.086+596.923+246.012+589.135+247.139+588.665C248.868+587.945+277.801+594.544+279.513+593.836C291.511+588.872+302.238+584.495+300.085+584.622C286.062+585.446+247.894+569.129+206.209+545.664C205.402+545.209+193.275+544.333+179.063+543.377C178.073+543.311+169.201+548.307+168.194+548.24C167.367+548.184+174.406+543.066+173.571+543.01C154.254+541.725+133.339+540.376+132.264+539.758C131.535+539.339+142.224+539.341+154.973+539.416C155.799+539.421+143.341+531.799+144.182+531.805C145.01+531.81+159.138+539.443+159.977+539.449C177.185+539.566+195.86+539.734+194.899+539.171C180.128+530.527+165.152+521.115+150.858+511.365C149.643+510.537+139.053+508.795+126.841+506.893C125.923+506.751+114.789+510.575+113.855+510.431C112.909+510.284+122.163+506.169+121.209+506.021C105.325+503.572+88.723+501.05+87.2063+499.995C86.2374+499.321+96.0341+499.694+107.065+500.187C108.238+500.239+97.3005+490.53+98.4895+490.584C99.6702+490.638+112.978+500.454+114.152+500.507C125.799+501.033+136.589+501.475+135.588+500.769C126.63+494.447+117.959+487.908+109.767+481.441C109.368+481.126+100.906+479.718+91.5503+478.188C90.6324+478.038+82.3289+482.014+81.4009+481.863C80.4495+481.707+86.8735+477.425+85.9259+477.27C76.0191+475.652+66.6986+474.114+66.2843+473.785C65.3906+473.072+105.31+477.894+104.428+477.184C94.4219+469.124+85.2374+461.278+77.2556+454.216C76.2824+453.355+55.075+447.476+54.1383+446.639C53.5272+446.093+73.1747+450.582+72.5806+450.047C56.1063+435.243+45.836+424.797+45.836+424.797C45.836+424.797+53.8771+430.179+64.14+437.16C64.814+437.618+61.8616+428.797+62.5528+429.268C63.383+429.834+67.8605+439.694+68.7105+440.275C78.8223+447.18+90.1479+455.011+97.8876+460.645C99.1171+461.54+98.3425+418.613+99.5713+419.511C101.036+420.58+101.805+433.196+102.622+445.011C102.683+445.899+111.884+437.564+111.946+438.437C112.008+439.303+102.931+449.377+102.994+450.218C103.605+458.359+104.299+465.124+105.353+465.896C122.269+478.288+139.703+491.118+157.557+503.196C158.328+503.718+158.886+484.668+159.432+464.34C159.469+462.926+133.474+432.335+133.513+430.917C133.569+428.785+159.442+459.056+159.5+456.944C160.027+437.422+160.792+416.444+161.54+416.942C162.567+417.625+163.902+446.427+165.202+471.835C165.259+472.961+183.063+453.019+183.12+454.128C183.176+455.21+165.487+477.344+165.543+478.404C166.442+495.54+167.31+509.685+168.03+510.153C198.721+530.157+230.57+547.303+263.075+555.702L257.832+522.307L242.155+515.373L216.733+515.463L237.885+513.485L211.121+501.646L191.297+500.579L206.434+499.573L181.307+488.459L218.249+502.189L211.65+483.066L220.771+502.669L256.059+516.243L228+470.396L203.79+456.008L224.945+465.402L206.714+435.614L218.37+450.692L217.008+437.489L221.666+454.955L240.026+478.705L243.944+467.638L240.746+455.186L245.253+463.938L250.696+448.561L243.632+482.38L264.26+515.157L267.648+496.319L264.023+486.043L268.376+492.274L271.35+475.734L271.022+502.015L280.275+492.439L270.977+505.673L270.745+524.204L282.542+560.021L351.438+572.151C356.962+551.872+354.237+544.695+351.264+531.475C296.004+489.656+255.174+447.539+209.797+397.739C209.223+397.108+201.262+394.488+190.469+391.104C189.827+390.903+151.524+401.889+150.863+401.682C150.072+401.435+186.918+389.994+186.103+389.741C161.885+382.209+127.666+371.98+126.463+370.637C125.606+369.681+146.774+374.655+166.528+379.245C167.037+379.363+155.015+356.758+155.521+356.875C155.969+356.979+168.945+379.805+169.391+379.91C185.639+383.679+200.124+386.973+199.418+386.174C190.101+375.634+174.64+354.906+157.986+331.762C156.926+330.288+87.0668+311.089+85.9981+309.597C85.5983+309.04+106.191+313.633+124.584+317.828C125.709+318.084+116.052+299.385+117.155+299.638C118.286+299.897+127.239+318.025+128.835+318.304C140.823+320.403+152.628+324.291+152.628+324.291L122.9+282.157L94.9617+266.474C94.9617+266.474+120.919+278.922+119.767+277.274C108.195+260.704+95.9393+243.508+89.7796+234.816C97.8076+242.512+117.418+268.707+136.388+294.058C136.873+294.706+137.817+291.043+138.868+286.355C138.999+285.776+133.769+271.576+133.902+270.971C134.031+270.385+139.522+283.394+139.652+282.795C141.148+275.906+142.688+268.588+143.352+269.475C144.211+270.622+139.182+297.149+140.034+298.285C154.779+317.962+170.991+340.036+177.199+346.414C178.11+347.35+185.433+304.949+186.344+305.885C187.146+306.71+186.414+317.898+185.649+329.315C185.547+330.842+194.245+320.94+194.145+322.451C194.083+323.375+185.223+335.724+185.165+336.627C184.576+345.786+184.186+353.6+184.851+354.284C202.804+372.753+220.754+391.224+239.121+408.75C240.222+409.801+242.851+398.239+245.623+385.493C245.788+384.735+236.955+360.988+237.121+360.224C237.35+359.167+246.578+381.09+246.807+380.031C249.772+366.352+253.858+354.272+253.858+354.272C253.858+354.272+253.732+362.468+252.191+371.818C252.043+372.717+261.477+365.456+261.319+366.387C261.269+366.686+251.631+375.165+251.58+375.466C248.719+392.31+244.71+413.236+246.209+414.601C266.902+433.455+296.756+463.038+319.317+477.659L335.508+454.42L325.531+483.13L362.658+506.085L362.39+462.125L292.127+349.032L278.476+344.636L255.742+344.904L270.686+342.128L206.805+321.56L252.4+332.833L238.233+308.065L260.177+334.756L288.943+341.869L246.238+278.224L231.221+274.708L207.409+278.995L227.317+273.793L192.291+265.593L221.202+269.724L211.177+255.85L224.75+270.87L243.024+273.841L194.716+202.274L187.092+197.377L172.323+194.56L183.789+195.255L167.269+184.644L190.998+196.767L158.183+148.154L180.996+180.495L178.426+166.144L183.71+184.344L220.64+236.699L221.903+229.308L215.798+211.554L222.679+224.762L225.774+206.641L223.41+241.204L262.797+297.392L267.366+288.53L265.159+272.902L268.992+285.377L277.876+268.148L265.458+300.873L369.796+446.913L373.371+382.567L352.748+361.073L312.848+351.475L348.526+356.731L314.877+310.303L280.903+292.97L311.806+306.066L268.011+245.639L300.397+286.513L301.67+262.166L302.919+289.696L339.255+335.555L342.945+312.7L343.963+341.616L374.269+373.833L372.619+269.843L338.382+237.478L313.702+235.801L289.015+244.484L309.698+235.529L256.676+231.927L296.101+233.005L283.045+214.297L298.589+232.52L334.326+233.025L280.972+187.173L243.48+172.363L274.573+180.996L225.274+133.404L259.021+162.559L258.663+135.249L264.612+167.388L309.955+206.561L307.667+162.107L292.249+139.349L307.279+154.555L305.964+129.003L312.83+174.029L328.368+155.799L314.565+184.248L315.954+210.448L374.473+262.297L374.554+217.109L334.62+174.189L374.575+205.801L374.619+181.308L330.887+122.766L352.971+148.909L351.267+122.576L357.94+154.791L374.632+174.55L374.75+108.953L360.501+78.0207L374.762+102.195L374.831+64.4458L376.227+123.066L411.325+79.4095L391.593+109.191L415.446+101.995L388.355+114.077L377.566+127.601L377.845+190.985L407.252+162.407L378.007+197.73L378.653+224.835L419.822+195.313L411.39+136.504L424.747+191.082L485.437+143.479L452.722+173.709L488.085+170.852L450.744+178.356L380.254+232.72L382.39+329.218L411.219+306.538L410.949+277.018L403.554+256.435L410.895+271.081L410.603+239.085L413.048+283.846L424.346+268.352L413.247+287.482L414.099+303.074L460.123+248.969L459.904+227.474L451.459+207.519L459.848+221.961L459.582+195.896L462.941+245.655L491.339+212.27L491.81+185.486L493.985+209.16L509.654+190.738L478.896+230.728L521.796+212.019L497.614+223.915L514.714+222.994L493.917+225.734L475.933+234.581L430.985+293.02L448.805+290.503L462.237+279.136L452.992+289.912L471.639+287.278L429.772+296.802L384+334.108L387.86+444.92L426.291+395.029L414.012+328.004L423.183+359.173L430.174+333.453L425.955+368.592L431.419+387.163L483.712+320.483L483.495+308.828L475.833+293.501L483.418+304.721L482.406+250.435L487.205+293.219L495.5+274.964L488.006+298.284L490.635+314.892L548.979+241.076L548.454+205.889L552.185+235.893L594.871+183.014L571.846+214.368L587.701+204.409L569.264+217.885L527.085+275.321L560.989+261.374L564.763+254.359L564.869+242.088L566.65+250.85L572.089+240.739L564.056+259.598L600.317+245.195L580.117+255.07L593.322+255.634L576.933+256.626L548.711+270.422L588.299+267.674L566.986+269.978L577.759+273.672L562.891+270.421L544.687+272.389L522.589+283.191L452.479+380.355L496.921+362.179L446.634+391.056L394.65+460.501L395.261+502.516L428.365+483.523L442.745+458.213L442.865+432.947L446.831+451.023L461.133+425.847L439.523+477.848C477.091+455.045+509.661+429.598+540.929+403.461C541.487+402.995+540.545+397.228+538.886+388.924C538.737+388.179+521.436+373.606+521.276+372.822C521.124+372.074+538.112+385.117+537.95+384.337C536.012+374.98+533.462+363.46+531.148+352.775C530.874+351.509+514.407+333.52+514.142+332.283C513.921+331.256+529.899+346.976+529.686+345.975C526.709+332.025+524.521+320.864+525.301+320.207C526.216+319.435+535.763+357.556+539.439+371.777C539.638+372.55+554.549+350.785+554.748+351.554C555.133+353.043+540.806+377.058+541.183+378.506C544.105+389.701+546.701+399.132+547.442+398.503C561.858+386.28+589.082+362.512+614.411+340.682C614.939+340.228+616.818+329.044+618.865+316.514C618.983+315.788+606.3+297.287+606.419+296.554C606.641+295.192+619.667+311.592+619.89+310.223C622.212+295.959+624.501+281.955+625.088+281.451C625.444+281.144+624.56+290.677+623.473+301.812C623.429+302.265+633.063+293.173+633.018+293.631C632.959+294.239+623.22+304.401+623.159+305.016C621.718+319.715+620.102+335.784+620.559+335.391C636.557+321.638+651.281+309.138+660.843+301.456C644.944+317.838+620.388+341.743+595.119+365.667C594.525+366.229+617.33+360.332+636.095+355.55C636.939+355.335+645.813+333.717+646.638+333.507C647.836+333.202+638.509+354.17+639.653+353.879C650.097+351.234+658.037+349.279+657.682+349.614C657.305+349.971+652.166+352.46+642.045+355.506C637.303+356.933+632.008+358.513+626.645+360.111C625.242+360.53+645.717+366.699+644.312+367.117C643.487+367.363+620.78+361.859+619.959+362.104C603.945+366.878+589.13+371.323+588.599+371.823C563.313+395.649+537.993+418.853+520.536+433.97C519.157+435.165+543.959+432.702+569.122+430.184C569.929+430.104+591.804+398.799+592.61+398.718C593.779+398.601+573.88+429.709+575.045+429.592C598.846+427.214+621.145+425.043+619.82+426.165C618.145+427.583+579.635+432.887+548.132+437.445C546.945+437.617+570.585+448.978+569.42+449.147C568.351+449.302+542.477+438.267+541.431+438.42C523.036+441.11+508.4+443.401+507.37+444.253C474.573+471.349+439.361+496.569+400.209+518.724C403.479+539.556+400.715+559.237+410.353+572.082L475.953+542.153L473.319+509.174L462.351+489.309L472.721+501.672L471.11+481.505L477.65+517.399L502.016+492.521L479.72+523.808L484.799+539.535C506.476+535.633+526.393+526.866+545.366+515.488C546.488+514.814+547.173+507.805+547.723+498.903C547.797+497.68+524.281+479.272+524.353+477.991C524.407+477.001+548.052+493.148+548.105+492.135C548.914+476.777+550.026+452.558+551.803+451.399C553.172+450.505+553.711+471.207+554.713+484.606C554.825+486.108+574.831+461.589+574.944+463.055C575.045+464.355+555.252+491.646+555.354+492.886C556.09+501.86+556.872+508.868+557.846+508.195C574.501+496.667+591.744+482.652+609.063+468.707C609.623+468.256+610.371+461.437+611.135+454.037C611.245+452.973+602.63+442.881+602.74+441.811C602.851+440.741+611.686+448.693+611.795+447.651C612.491+441.017+613.159+435.284+613.672+434.873C615.117+433.711+615.655+463.41+617.1+462.253C625.588+455.463+634.075+448.785+642.5+442.516C643.78+441.563+655.263+410.283+656.541+409.351C657.4+408.724+648.055+438.438+648.912+437.821C654.083+434.098+680.55+408.31+685.649+405.028C683.654+409.628+652.756+441.454+641.27+452.021C640.304+452.911+669.088+444.82+668.096+445.722C666.759+446.938+635.64+457.15+634.274+458.378C613.849+476.739+591.141+495.695+593.967+495.707C609.984+495.005+623.52+494.438+634.857+493.989C636.443+493.927+658.953+476.925+660.453+476.866C662.043+476.805+642.618+493.688+644.114+493.632C763.141+489.141+588.019+500.602+585.356+502.702C553.925+527.486+517.477+551.812+483.256+562.775C481.195+563.435+502.25+568.943+527.399+575.117C528.059+575.279+539.555+568.576+551.231+561.76C552.146+561.227+558.118+537.529+559.029+536.996C560.688+536.028+554.811+560.226+556.413+559.294C565.543+553.984+575.705+547.591+576.249+547.724C577.542+548.039+534.046+576.741+535.351+577.058C568.391+585.087+604.903+593.495+604.903+593.495C604.903+593.495+477.848+568.075+473.813+571.155C451.589+588.152+418.195+601.072+417.763+604.43C411.463+653.294+409.024+837.365+461.132+855.024C494.654+866.386+503.35+866.46+510.294+907.366C517.236+948.271+593.752+990.272+655.667+1018.7C602.09+983.757+519.422+988.652+496.067+926.709C472.712+864.765+465.783+881.513+441.118+878.764C464.564+906.776+465.461+924.742+458.098+949.894C450.733+975.045+451.77+986.206+474.094+1016.9C496.417+1047.6+495.724+1097.79+503.01+1138.03C490.606+1096.76+487.428+1042.35+457.009+1015.71C426.59+989.083+429.514+972.41+438.494+947.545C447.474+922.681+430.484+907.69+408.01+885.428C403.867+907.923+383.759+935.996+407.489+960.885C431.218+985.773+430.519+992.204+404.036+1019.1C377.555+1046+396.564+1095+400.608+1134.41C394.489+1097.05+360.529+1053.48+384.992+1021.86C409.456+990.232+393.728+982.715+376.533+960.884C359.339+939.053+364.589+911.273+366.034+885.208C347.578+903.211+329.471+918.895+334.116+944.158C338.761+969.419+333.876+983.614+300.27+1006.67C266.664+1029.72+261.145+1073.09+246.181+1106.56C254.269+1070.84+254.349+1026.82+285.581+1002.24C316.813+977.65+322.643+959.357+311.176+934.461C299.709+909.564+319.37+897.803+331.317+881.127C304.597+866.857+279.482+872.766+253.132+927.814C226.784+982.862+148.234+971.926+99.64+996.021L99.644+996.032Z" opacity="0.33" fill="#000000"/>
</g>
</g>
</svg>
