<?xml version="1.0" encoding="UTF-8"?>
<!DOCTYPE svg PUBLIC "-//W3C//DTD SVG 1.1//EN"
  "http://www.w3.org/Graphics/SVG/1.1/DTD/svg11.dtd">
<!-- Created with Inkpad (http://www.taptrix.com/) --><svg xmlns:inkpad="http://taptrix.com/inkpad/svg_extensions" height="900pt" xmlns:xlink="http://www.w3.org/1999/xlink" xmlns="http://www.w3.org/2000/svg" width="1440pt" version="1.1" viewBox="0,0,1440,900">
<defs>
<linearGradient y1="422.46" id="LinearGradient" x1="28.926" y2="285.42" x2="-112.07" gradientUnits="userSpaceOnUse" gradientTransform="matrix(-0.695082 0 0 0.645927 553.736 220.597)">
<stop stop-color="#008400" offset="0"/>
<stop stop-color="#00a000" offset="1"/>
</linearGradient>
<linearGradient y1="422.46" id="LinearGradient_2" x1="28.926" y2="285.42" x2="-112.07" gradientUnits="userSpaceOnUse" gradientTransform="matrix(-0.695082 0 0 0.645927 325.664 -8.11093)">
<stop stop-color="#008400" offset="0"/>
<stop stop-color="#00a000" offset="1"/>
</linearGradient>
<linearGradient y1="456.75" id="LinearGradient_3" x1="-53.632" y2="216.93" x2="-135.5" gradientUnits="userSpaceOnUse" gradientTransform="matrix(-0.695082 0 0 0.645927 513.363 60.981)">
<stop stop-color="#006400" offset="0"/>
<stop stop-color="#00a000" offset="1"/>
</linearGradient>
<linearGradient y1="1272.6" id="LinearGradient_4" x1="462.51" y2="323.12" x2="428.25" gradientUnits="userSpaceOnUse" gradientTransform="matrix(0.645927 0 0 0.645927 250.017 60.9791)">
<stop stop-color="#000000" offset="0"/>
<stop stop-color="#986601" offset="0.5"/>
<stop stop-color="#000400" offset="1"/>
</linearGradient>
</defs>
<g id="layer1" inkpad:layerName="layer1">
<g opacity="1">
<g opacity="1">
<path d="M1220.81+480.99C1218.39+519.932+1184.42+549.562+1144.95+547.171C1105.48+544.779+1075.45+511.271+1077.87+472.328C1080.3+433.386+1114.26+403.755+1153.73+406.147C1193.2+408.539+1223.23+442.047+1220.81+480.99Z" opacity="0.5" fill="#000000"/>
<path d="M1213.82+480.566C1211.39+519.508+1177.43+549.139+1137.96+546.747C1098.49+544.355+1068.46+510.847+1070.88+471.904C1073.3+432.962+1107.27+403.331+1146.74+405.723C1186.21+408.115+1216.24+441.623+1213.82+480.566Z" opacity="1" fill="#015a01"/>
</g>
<g opacity="1">
<path d="M961.696+628.688C959.272+667.63+925.31+697.26+885.839+694.869C846.369+692.476+816.336+658.969+818.76+620.026C821.184+581.084+855.146+551.453+894.617+553.845C934.087+556.237+964.12+589.745+961.696+628.688Z" opacity="0.5" fill="#000400"/>
<path d="M969.149+622.213C966.725+661.156+932.763+690.786+893.293+688.394C853.822+686.002+823.79+652.494+826.214+613.551C828.637+574.609+862.599+544.979+902.07+547.37C941.54+549.762+971.573+583.271+969.149+622.213Z" opacity="1" fill="#006000"/>
</g>
<g opacity="1">
<path d="M863.464+650.498C861.04+689.44+891.073+722.948+930.543+725.34C970.013+727.732+1003.98+698.102+1006.4+659.16C1008.82+620.217+978.791+586.709+939.321+584.317C899.851+581.925+865.888+611.555+863.464+650.498Z" opacity="0.5" fill="#000400"/>
<path d="M867.38+643.809C864.956+682.751+894.989+716.26+934.459+718.652C973.929+721.043+1007.89+691.414+1010.32+652.471C1012.74+613.529+982.707+580.02+943.237+577.628C903.767+575.236+869.804+604.866+867.38+643.809Z" opacity="1" fill="#339900"/>
</g>
<g opacity="1">
<path d="M1027.88+670.187C1025.46+709.129+1055.49+742.637+1094.96+745.029C1134.43+747.421+1168.39+717.791+1170.82+678.849C1173.24+639.906+1143.21+606.398+1103.74+604.006C1064.27+601.614+1030.3+631.244+1027.88+670.187Z" opacity="0.5" fill="#000000"/>
<path d="M1017.58+666.1C1015.16+705.042+1045.19+738.55+1084.66+740.943C1124.13+743.334+1158.1+713.704+1160.52+674.762C1162.94+635.819+1132.91+602.311+1093.44+599.919C1053.97+597.527+1020.01+627.157+1017.58+666.1Z" opacity="1" fill="url(#LinearGradient)"/>
</g>
<g opacity="1">
<path d="M1163.34+423.535C1160.91+462.478+1126.95+492.108+1087.48+489.716C1048.01+487.324+1017.98+453.816+1020.4+414.873C1022.83+375.931+1056.79+346.301+1096.26+348.693C1135.73+351.085+1165.76+384.593+1163.34+423.535Z" opacity="0.5" fill="#000000"/>
<path d="M1156.13+426.552C1153.71+465.494+1119.74+495.124+1080.27+492.733C1040.8+490.341+1010.77+456.832+1013.19+417.89C1015.62+378.947+1049.58+349.317+1089.05+351.709C1128.52+354.101+1158.55+387.609+1156.13+426.552Z" opacity="1" fill="#00ac00"/>
</g>
<g opacity="1">
<path d="M1122.3+684.089C1119.87+723.031+1085.91+752.661+1046.44+750.269C1006.97+747.877+976.936+714.369+979.36+675.426C981.784+636.484+1015.75+606.854+1055.22+609.246C1094.69+611.638+1124.72+645.146+1122.3+684.089Z" opacity="0.5" fill="#000000"/>
<path d="M1119.19+676.974C1116.76+715.916+1082.8+745.547+1043.33+743.155C1003.86+740.763+973.829+707.255+976.253+668.312C978.677+629.37+1012.64+599.739+1052.11+602.131C1091.58+604.523+1121.61+638.031+1119.19+676.974Z" opacity="1" fill="#006400"/>
</g>
<g opacity="1">
<path d="M1232.13+551.652C1229.71+590.595+1195.75+620.225+1156.28+617.833C1116.81+615.441+1086.77+581.933+1089.2+542.99C1091.62+504.048+1125.58+474.418+1165.05+476.81C1204.52+479.202+1234.56+512.71+1232.13+551.652Z" opacity="0.5" fill="#000000"/>
<path d="M1225.11+551.227C1222.68+590.169+1188.72+619.799+1149.25+617.408C1109.78+615.016+1079.75+581.508+1082.17+542.565C1084.6+503.623+1118.56+473.992+1158.03+476.384C1197.5+478.776+1227.53+512.284+1225.11+551.227Z" opacity="1" fill="#007c00"/>
</g>
<g opacity="1">
<path d="M1087.41+409.079C1084.98+448.021+1051.02+477.652+1011.55+475.26C972.08+472.868+942.047+439.36+944.471+400.417C946.895+361.475+980.857+331.844+1020.33+334.236C1059.8+336.628+1089.83+370.136+1087.41+409.079Z" opacity="0.5" fill="#000000"/>
<path d="M1076.73+411.895C1074.31+450.838+1040.35+480.468+1000.88+478.076C961.405+475.684+931.373+442.176+933.797+403.233C936.22+364.291+970.182+334.661+1009.65+337.053C1049.12+339.445+1079.16+372.953+1076.73+411.895Z" opacity="1" fill="#009c00"/>
</g>
<g opacity="1">
<path d="M1047.69+422.661C1045.27+461.603+1011.31+491.234+971.836+488.842C932.366+486.45+902.334+452.942+904.757+413.999C907.181+375.057+941.143+345.426+980.614+347.818C1020.08+350.21+1050.12+383.718+1047.69+422.661Z" opacity="0.5" fill="#000000"/>
<path d="M1047.26+429.591C1044.84+468.533+1010.88+498.164+971.405+495.772C931.935+493.38+901.902+459.872+904.326+420.929C906.75+381.987+940.712+352.356+980.183+354.748C1019.65+357.14+1049.69+390.648+1047.26+429.591Z" opacity="1" fill="#008c00"/>
</g>
<g opacity="1">
<path d="M1218.49+642.656C1216.07+681.598+1182.1+711.229+1142.63+708.836C1103.16+706.445+1073.13+672.937+1075.55+633.994C1077.98+595.052+1111.94+565.421+1151.41+567.813C1190.88+570.205+1220.91+603.713+1218.49+642.656Z" opacity="0.5" fill="#000000"/>
<path d="M1211.71+638.782C1209.29+677.724+1175.32+707.355+1135.85+704.963C1096.38+702.571+1066.35+669.063+1068.78+630.12C1071.2+591.178+1105.16+561.547+1144.63+563.939C1184.1+566.331+1214.13+599.839+1211.71+638.782Z" opacity="1" fill="#008400"/>
</g>
<g opacity="1">
<path d="M1219.31+583.335C1216.88+622.278+1182.92+651.908+1143.45+649.516C1103.98+647.124+1073.95+613.616+1076.37+574.674C1078.8+535.731+1112.76+506.101+1152.23+508.493C1191.7+510.885+1221.73+544.393+1219.31+583.335Z" opacity="0.5" fill="#000000"/>
<path d="M1212.12+586.353C1209.7+625.295+1175.73+654.926+1136.26+652.534C1096.79+650.142+1066.76+616.634+1069.18+577.691C1071.61+538.749+1105.57+509.118+1145.04+511.51C1184.51+513.902+1214.54+547.41+1212.12+586.353Z" opacity="1" fill="#007800"/>
</g>
<g opacity="1">
<path d="M1186.32+466.521C1183.89+505.464+1149.93+535.094+1110.46+532.702C1070.99+530.31+1040.96+496.802+1043.38+457.859C1045.81+418.917+1079.77+389.287+1119.24+391.679C1158.71+394.071+1188.74+427.579+1186.32+466.521Z" opacity="0.5" fill="#000400"/>
<path d="M1179.13+469.539C1176.71+508.481+1142.75+538.112+1103.27+535.72C1063.8+533.328+1033.77+499.82+1036.2+460.877C1038.62+421.935+1072.58+392.304+1112.05+394.696C1151.52+397.088+1181.55+430.596+1179.13+469.539Z" opacity="1" fill="#339900"/>
</g>
<g opacity="1">
<path d="M992.087+425.586C989.663+464.529+1019.7+498.037+1059.17+500.429C1098.64+502.821+1132.6+473.191+1135.02+434.248C1137.45+395.306+1107.41+361.798+1067.94+359.406C1028.47+357.014+994.511+386.644+992.087+425.586Z" opacity="0.5" fill="#000000"/>
<path d="M984.899+428.604C982.476+467.546+1012.51+501.055+1051.98+503.447C1091.45+505.839+1125.41+476.209+1127.83+437.266C1130.26+398.324+1100.23+364.815+1060.76+362.423C1021.29+360.031+987.323+389.661+984.899+428.604Z" opacity="1" fill="#00b000"/>
</g>
<g opacity="1">
<path d="M1189.13+640.309C1186.71+679.251+1152.75+708.882+1113.28+706.49C1073.81+704.098+1043.77+670.59+1046.2+631.647C1048.62+592.705+1082.58+563.074+1122.05+565.466C1161.52+567.858+1191.56+601.366+1189.13+640.309Z" opacity="0.5" fill="#000000"/>
<path d="M1178.84+636.222C1176.41+675.164+1142.45+704.795+1102.98+702.403C1063.51+700.011+1033.48+666.503+1035.9+627.56C1038.33+588.618+1072.29+558.987+1111.76+561.379C1151.23+563.771+1181.26+597.279+1178.84+636.222Z" opacity="1" fill="#006000"/>
</g>
<g opacity="1">
<path d="M1177.7+575.559C1175.27+614.501+1141.31+644.131+1101.84+641.739C1062.37+639.347+1032.34+605.839+1034.76+566.897C1037.18+527.954+1071.15+498.324+1110.62+500.716C1150.09+503.108+1180.12+536.616+1177.7+575.559Z" opacity="0.5" fill="#000400"/>
<path d="M1170.46+578.583C1168.03+617.525+1134.07+647.156+1094.6+644.764C1055.13+642.372+1025.1+608.864+1027.52+569.921C1029.95+530.979+1063.91+501.348+1103.38+503.74C1142.85+506.132+1172.88+539.64+1170.46+578.583Z" opacity="1" fill="#009400"/>
</g>
<g opacity="1">
<path d="M1157.91+462.519C1155.48+501.461+1121.52+531.092+1082.05+528.7C1042.58+526.308+1012.55+492.8+1014.97+453.857C1017.39+414.915+1051.36+385.284+1090.83+387.676C1130.3+390.068+1160.33+423.576+1157.91+462.519Z" opacity="0.5" fill="#000000"/>
<path d="M1153.94+469.205C1151.52+508.147+1117.55+537.778+1078.08+535.386C1038.61+532.994+1008.58+499.486+1011+460.543C1013.43+421.601+1047.39+391.97+1086.86+394.362C1126.33+396.754+1156.36+430.262+1153.94+469.205Z" opacity="1" fill="#008400"/>
</g>
<g opacity="1">
<path d="M1173.46+517.117C1171.03+556.06+1137.07+585.69+1097.6+583.298C1058.13+580.906+1028.1+547.398+1030.52+508.455C1032.95+469.513+1066.91+439.883+1106.38+442.274C1145.85+444.666+1175.88+478.174+1173.46+517.117Z" opacity="0.5" fill="#000000"/>
<path d="M1166.27+520.145C1163.85+559.087+1129.88+588.718+1090.41+586.326C1050.94+583.934+1020.91+550.425+1023.33+511.483C1025.76+472.541+1059.72+442.91+1099.19+445.302C1138.66+447.694+1168.69+481.202+1166.27+520.145Z" opacity="1" fill="#007800"/>
</g>
<g opacity="1">
<path d="M918.046+667.971C915.622+706.913+945.654+740.422+985.125+742.814C1024.6+745.205+1058.56+715.575+1060.98+676.633C1063.41+637.691+1033.37+604.182+993.903+601.79C954.433+599.398+920.47+629.028+918.046+667.971Z" opacity="0.5" fill="#000000"/>
<path d="M925.234+664.943C922.811+703.885+952.843+737.394+992.313+739.786C1031.78+742.178+1065.75+712.548+1068.17+673.605C1070.59+634.663+1040.56+601.154+1001.09+598.762C961.621+596.371+927.658+626+925.234+664.943Z" opacity="1" fill="#008c00"/>
</g>
<g opacity="1">
<path d="M797.128+545.546C794.704+584.488+824.736+617.997+864.207+620.389C903.677+622.781+937.639+593.151+940.063+554.208C942.487+515.266+912.455+481.757+872.984+479.365C833.514+476.974+799.552+506.603+797.128+545.546Z" opacity="0.5" fill="#000400"/>
<path d="M804.316+542.519C801.892+581.461+831.924+614.97+871.395+617.361C910.865+619.753+944.827+590.124+947.251+551.181C949.675+512.239+919.643+478.73+880.172+476.338C840.702+473.946+806.74+503.576+804.316+542.519Z" opacity="1" fill="#007400"/>
</g>
<g opacity="1">
<path d="M853.813+432.177C851.389+471.119+881.422+504.628+920.892+507.02C960.362+509.412+994.325+479.782+996.749+440.839C999.173+401.897+969.141+368.388+929.67+365.996C890.2+363.604+856.237+393.234+853.813+432.177Z" opacity="0.5" fill="#000000"/>
<path d="M858.854+435.95C856.43+474.893+886.462+508.401+925.933+510.793C965.403+513.185+999.365+483.555+1001.79+444.612C1004.21+405.67+974.181+372.162+934.71+369.77C895.24+367.378+861.277+397.008+858.854+435.95Z" opacity="1" fill="#007c00"/>
</g>
<g opacity="1">
<path d="M957.262+463.217C954.839+502.159+984.871+535.668+1024.34+538.06C1063.81+540.452+1097.77+510.822+1100.2+471.879C1102.62+432.937+1072.59+399.428+1033.12+397.036C993.649+394.644+959.686+424.274+957.262+463.217Z" opacity="0.5" fill="#000000"/>
<path d="M953.296+469.903C950.872+508.845+980.904+542.354+1020.37+544.746C1059.84+547.138+1093.81+517.508+1096.23+478.565C1098.66+439.623+1068.62+406.114+1029.15+403.722C989.682+401.33+955.72+430.96+953.296+469.903Z" opacity="1" fill="#006c00"/>
</g>
<g opacity="1">
<path d="M801.745+496.548C799.321+535.49+829.353+568.999+868.824+571.391C908.294+573.782+942.257+544.153+944.68+505.21C947.104+466.268+917.072+432.759+877.601+430.367C838.131+427.975+804.169+457.605+801.745+496.548Z" opacity="0.5" fill="#000000"/>
<path d="M809.198+490.073C806.775+529.016+836.807+562.524+876.277+564.916C915.747+567.308+949.71+537.678+952.134+498.735C954.558+459.793+924.526+426.285+885.055+423.893C845.585+421.501+811.622+451.131+809.198+490.073Z" opacity="1" fill="#008000"/>
</g>
<g opacity="1">
<path d="M839.638+478.12C837.214+517.062+867.246+550.571+906.716+552.963C946.187+555.355+980.149+525.725+982.573+486.782C984.997+447.84+954.965+414.331+915.494+411.939C876.024+409.547+842.061+439.177+839.638+478.12Z" opacity="0.5" fill="#000000"/>
<path d="M850.148+478.757C847.724+517.699+877.756+551.208+917.227+553.6C956.697+555.992+990.66+526.362+993.084+487.419C995.508+448.477+965.475+414.968+926.005+412.576C886.535+410.184+852.572+439.814+850.148+478.757Z" opacity="1" fill="url(#LinearGradient_2)"/>
</g>
<g opacity="1">
<path d="M987.282+606.112C984.858+645.054+950.896+674.685+911.425+672.293C871.955+669.901+841.922+636.393+844.346+597.45C846.77+558.508+880.732+528.878+920.203+531.269C959.673+533.661+989.706+567.169+987.282+606.112Z" opacity="0.5" fill="#000400"/>
<path d="M994.47+603.085C992.046+642.027+958.084+671.657+918.613+669.266C879.143+666.874+849.111+633.365+851.534+594.423C853.958+555.48+887.92+525.85+927.391+528.242C966.861+530.634+996.894+564.142+994.47+603.085Z" opacity="1" fill="#339900"/>
</g>
<g opacity="1">
<path d="M997.584+534.296C995.161+573.238+1025.19+606.747+1064.66+609.139C1104.13+611.531+1138.1+581.901+1140.52+542.958C1142.94+504.016+1112.91+470.507+1073.44+468.115C1033.97+465.723+1000.01+495.353+997.584+534.296Z" opacity="0.5" fill="#000000"/>
<path d="M993.668+540.984C991.245+579.927+1021.28+613.435+1060.75+615.827C1100.22+618.219+1134.18+588.589+1136.6+549.647C1139.03+510.704+1109+477.196+1069.52+474.804C1030.05+472.412+996.092+502.042+993.668+540.984Z" opacity="1" fill="url(#LinearGradient_3)"/>
</g>
<g opacity="1">
<path d="M966.351+524.451C963.927+563.393+929.965+593.024+890.494+590.632C851.024+588.24+820.992+554.732+823.415+515.789C825.839+476.847+859.801+447.216+899.272+449.608C938.742+452+968.775+485.508+966.351+524.451Z" opacity="0.5" fill="#000000"/>
<path d="M973.109+528.324C970.686+567.266+936.724+596.896+897.253+594.504C857.783+592.113+827.75+558.604+830.174+519.662C832.598+480.719+866.56+451.089+906.031+453.481C945.501+455.873+975.533+489.381+973.109+528.324Z" opacity="1" fill="#339900"/>
</g>
<g opacity="1">
<path d="M857.64+527.16C855.216+566.103+885.248+599.611+924.718+602.003C964.189+604.395+998.151+574.765+1000.58+535.822C1003+496.88+972.967+463.372+933.496+460.98C894.026+458.588+860.063+488.218+857.64+527.16Z" opacity="0.5" fill="#000400"/>
<path d="M868.365+524.342C865.941+563.285+895.973+596.793+935.444+599.185C974.914+601.577+1008.88+571.947+1011.3+533.004C1013.72+494.062+983.692+460.554+944.222+458.162C904.752+455.77+870.789+485.4+868.365+524.342Z" opacity="1" fill="#44aa00"/>
</g>
<g opacity="1">
<path d="M934.425+490.349C932.002+529.291+962.034+562.8+1001.5+565.192C1040.97+567.584+1074.94+537.954+1077.36+499.011C1079.78+460.069+1049.75+426.56+1010.28+424.168C970.812+421.776+936.849+451.406+934.425+490.349Z" opacity="0.5" fill="#000000"/>
<path d="M933.996+497.249C931.572+536.191+961.604+569.7+1001.07+572.092C1040.54+574.484+1074.51+544.854+1076.93+505.911C1079.36+466.969+1049.32+433.46+1009.85+431.068C970.382+428.676+936.42+458.306+933.996+497.249Z" opacity="1" fill="#009400"/>
</g>
<g opacity="1">
<path d="M1008.15+620.122C1005.73+659.064+1035.76+692.573+1075.23+694.965C1114.7+697.357+1148.66+667.727+1151.09+628.784C1153.51+589.842+1123.48+556.333+1084.01+553.941C1044.54+551.549+1010.58+581.179+1008.15+620.122Z" opacity="0.5" fill="#000000"/>
<path d="M999.519+617.867C997.095+656.81+1027.13+690.318+1066.6+692.71C1106.07+695.102+1140.03+665.472+1142.45+626.529C1144.88+587.587+1114.85+554.078+1075.38+551.687C1035.9+549.295+1001.94+578.924+999.519+617.867Z" opacity="1" fill="#2ca02c"/>
</g>
<g opacity="1">
<path d="M976.255+569.693C973.831+608.635+1003.86+642.144+1043.33+644.536C1082.8+646.928+1116.77+617.298+1119.19+578.355C1121.61+539.413+1091.58+505.904+1052.11+503.512C1012.64+501.12+978.679+530.75+976.255+569.693Z" opacity="0.5" fill="#000000"/>
<path d="M969.282+569.27C966.858+608.213+996.89+641.721+1036.36+644.113C1075.83+646.505+1109.79+616.875+1112.22+577.933C1114.64+538.99+1084.61+505.482+1045.14+503.09C1005.67+500.698+971.706+530.328+969.282+569.27Z" opacity="1" fill="#217821"/>
</g>
<g opacity="1">
<path d="M890.2+534.386C887.651+573.32+917.575+606.922+957.038+609.438C996.501+611.953+1030.56+582.429+1033.11+543.495C1035.66+504.56+1005.73+470.958+966.268+468.443C926.806+465.928+892.748+495.451+890.2+534.386Z" opacity="0.5" fill="#000000"/>
<path d="M889.77+541.286C887.221+580.221+917.146+613.823+956.609+616.338C996.072+618.853+1030.13+589.329+1032.68+550.395C1035.23+511.46+1005.3+477.858+965.839+475.343C926.376+472.828+892.319+502.351+889.77+541.286Z" opacity="1" fill="#217821"/>
</g>
<g opacity="1">
<path d="M878.024+618.305C875.6+657.248+905.632+690.756+945.103+693.148C984.573+695.54+1018.54+665.91+1020.96+626.967C1023.38+588.025+993.351+554.517+953.88+552.125C914.41+549.733+880.448+579.363+878.024+618.305Z" opacity="0.5" fill="#000000"/>
<path d="M881.94+611.612C879.516+650.554+909.549+684.062+949.019+686.454C988.489+688.846+1022.45+659.216+1024.88+620.274C1027.3+581.331+997.268+547.823+957.797+545.431C918.327+543.039+884.364+572.669+881.94+611.612Z" opacity="1" fill="#006400"/>
</g>
<g opacity="1">
<path d="M1066.71+558.56C1064.28+597.502+1030.32+627.133+990.852+624.741C951.382+622.349+921.349+588.841+923.773+549.898C926.197+510.956+960.159+481.325+999.63+483.717C1039.1+486.109+1069.13+519.617+1066.71+558.56Z" opacity="0.5" fill="#000000"/>
<path d="M1070.62+551.871C1068.2+590.813+1034.24+620.444+994.768+618.052C955.298+615.66+925.265+582.152+927.689+543.209C930.113+504.267+964.075+474.636+1003.55+477.028C1043.02+479.42+1073.05+512.928+1070.62+551.871Z" opacity="1" fill="#00ac00"/>
</g>
<g opacity="1">
<path d="M959.449+647.557C957.025+686.499+987.058+720.008+1026.53+722.4C1066+724.791+1099.96+695.161+1102.38+656.219C1104.81+617.277+1074.78+583.768+1035.31+581.376C995.836+578.984+961.873+608.614+959.449+647.557Z" opacity="0.5" fill="#000000"/>
<path d="M963.473+639.143C961.049+678.085+991.081+711.594+1030.55+713.986C1070.02+716.378+1103.98+686.748+1106.41+647.805C1108.83+608.863+1078.8+575.354+1039.33+572.962C999.859+570.57+965.897+600.2+963.473+639.143Z" opacity="1" fill="#007800"/>
</g>
<g opacity="1">
<path d="M932.332+598.205C929.908+637.147+959.94+670.656+999.411+673.048C1038.88+675.44+1072.84+645.81+1075.27+606.867C1077.69+567.925+1047.66+534.416+1008.19+532.024C968.718+529.632+934.756+559.262+932.332+598.205Z" opacity="0.34496" fill="#000000"/>
<path d="M941.503+591.835C939.079+630.777+969.111+664.285+1008.58+666.677C1048.05+669.069+1082.01+639.439+1084.44+600.497C1086.86+561.554+1056.83+528.046+1017.36+525.654C977.89+523.262+943.927+552.892+941.503+591.835Z" opacity="1" fill="#009800"/>
</g>
<path d="M849.656+986.228C888.259+970.738+931.946+960.805+935.409+934.367C938.872+907.929+963.893+896.773+981.365+884.667C1006.85+867.008+1011.34+752.707+1003.59+723.25C1003.1+721.37+994.683+717.616+982.904+713.067C980.478+712.131+921.114+734.649+918.443+733.655C917.289+733.225+948.859+722.11+956.091+718.828C956.781+718.515+940.583+713.29+941.283+712.976C942.357+712.492+960.332+716.919+961.394+716.444C968.848+713.114+975.512+710.178+974.175+710.263C965.463+710.816+941.753+699.871+915.857+684.131C915.355+683.827+907.821+683.239+898.993+682.598C898.377+682.553+892.866+685.904+892.24+685.859C891.727+685.822+896.1+682.389+895.581+682.351C883.581+681.489+870.588+680.585+869.92+680.17C869.467+679.889+876.108+679.89+884.027+679.941C884.54+679.944+876.801+674.831+877.323+674.835C877.838+674.839+886.615+679.958+887.136+679.962C897.826+680.041+909.428+680.154+908.831+679.776C899.654+673.978+890.35+667.664+881.471+661.125C880.716+660.569+874.137+659.4+866.551+658.125C865.981+658.029+859.064+660.595+858.484+660.498C857.896+660.399+863.645+657.639+863.052+657.54C853.185+655.897+842.871+654.205+841.929+653.498C841.327+653.046+847.413+653.296+854.266+653.626C854.994+653.661+848.2+647.149+848.938+647.185C849.672+647.221+857.938+653.806+858.668+653.842C865.904+654.194+872.607+654.49+871.985+654.017C866.42+649.776+861.033+645.39+855.944+641.052C855.696+640.841+850.439+639.896+844.627+638.87C844.057+638.77+838.899+641.437+838.322+641.335C837.731+641.231+841.722+638.358+841.133+638.254C834.979+637.169+829.189+636.138+828.932+635.916C828.376+635.438+853.175+638.673+852.628+638.197C846.411+632.79+840.706+627.527+835.747+622.79C835.143+622.213+821.968+618.269+821.386+617.708C821.006+617.342+833.212+620.353+832.843+619.994C822.609+610.064+816.228+603.057+816.228+603.057C816.228+603.057+821.224+606.667+827.6+611.35C828.018+611.657+826.184+605.74+826.613+606.056C827.129+606.435+829.911+613.049+830.439+613.439C836.72+618.071+843.756+623.323+848.564+627.103C849.328+627.703+848.847+598.908+849.61+599.511C850.52+600.228+850.998+608.691+851.505+616.616C851.543+617.211+857.259+611.621+857.298+612.206C857.336+612.787+851.697+619.544+851.737+620.109C852.116+625.569+852.547+630.108+853.202+630.625C863.711+638.937+874.541+647.543+885.632+655.645C886.112+655.995+886.458+643.217+886.797+629.581C886.821+628.633+870.672+608.113+870.696+607.162C870.731+605.732+886.803+626.037+886.839+624.62C887.167+611.525+887.643+597.454+888.107+597.788C888.745+598.246+889.574+617.565+890.382+634.609C890.417+635.364+901.477+621.987+901.513+622.732C901.547+623.457+890.559+638.304+890.594+639.015C891.153+650.509+891.692+659.998+892.138+660.312C911.205+673.73+930.99+685.231+951.183+690.865L947.926+668.465L938.187+663.813L922.394+663.874L935.534+662.547L918.908+654.605L906.592+653.89L915.996+653.215L900.387+645.76L923.336+654.97L919.237+642.143L924.903+655.292L946.824+664.396L929.394+633.644L914.354+623.992L927.495+630.293L916.17+610.312L923.411+620.426L922.565+611.57L925.459+623.286L936.865+639.217L939.298+631.794L937.312+623.441L940.112+629.311L943.493+618.997L939.105+641.682L951.92+663.668L954.024+651.032L951.772+644.139L954.476+648.318L956.324+637.224L956.12+654.853L961.868+648.429L956.092+657.307L955.948+669.737L963.276+693.762L1006.08+701.899C1009.51+688.296+1007.82+683.482+1005.97+674.614C971.64+646.562+946.275+618.312+918.086+584.907C917.729+584.484+912.784+582.726+906.078+580.456C905.679+580.321+881.885+587.691+881.474+587.552C880.982+587.386+903.873+579.712+903.366+579.542C888.321+574.49+867.063+567.628+866.316+566.728C865.783+566.086+878.934+569.422+891.206+572.501C891.522+572.581+884.053+557.418+884.367+557.497C884.646+557.566+892.707+572.878+892.984+572.948C903.078+575.476+912.076+577.685+911.637+577.149C905.85+570.08+896.245+556.176+885.899+540.651C885.241+539.663+841.842+526.784+841.178+525.784C840.93+525.41+853.723+528.491+865.149+531.305C865.848+531.477+859.848+518.934+860.534+519.104C861.236+519.277+866.798+531.437+867.79+531.624C875.237+533.032+882.57+535.64+882.57+535.64L864.101+507.382L846.746+496.861C846.746+496.861+862.871+505.211+862.156+504.105C854.967+492.99+847.353+481.455+843.526+475.625C848.514+480.787+860.696+498.358+872.481+515.363C872.782+515.798+873.368+513.341+874.022+510.196C874.103+509.808+870.854+500.283+870.936+499.877C871.016+499.484+874.427+508.21+874.508+507.808C875.438+503.187+876.394+498.279+876.807+498.874C877.341+499.643+874.217+517.436+874.746+518.199C883.906+531.398+893.977+546.204+897.834+550.482C898.4+551.11+902.949+522.668+903.515+523.296C904.013+523.85+903.558+531.355+903.083+539.012C903.019+540.037+908.423+533.395+908.361+534.409C908.323+535.028+902.818+543.311+902.782+543.917C902.416+550.061+902.174+555.302+902.587+555.761C913.74+568.15+924.891+580.539+936.301+592.296C936.985+593.001+938.618+585.245+940.34+576.696C940.443+576.187+934.956+560.258+935.059+559.746C935.201+559.036+940.934+573.742+941.076+573.032C942.918+563.856+945.456+555.753+945.456+555.753C945.456+555.753+945.378+561.251+944.421+567.523C944.329+568.126+950.189+563.255+950.091+563.88C950.06+564.08+944.073+569.767+944.041+569.97C942.264+581.268+939.773+595.305+940.705+596.221C953.56+608.867+972.106+628.711+986.121+638.518L996.18+622.93L989.982+642.188L1013.05+657.586L1012.88+628.098L969.23+552.238L960.75+549.29L946.626+549.469L955.91+547.607L916.226+533.811L944.551+541.372L935.75+524.759L949.382+542.662L967.252+547.433L940.723+504.742L931.394+502.383L916.601+505.259L928.968+501.77L907.209+496.269L925.169+499.041L918.942+489.734L927.374+499.809L938.726+501.802L908.715+453.797L903.979+450.512L894.805+448.622L901.927+449.089L891.665+441.971L906.406+450.103L886.021+417.494L900.192+439.188L898.596+429.561L901.879+441.77L924.82+476.888L925.605+471.93L921.813+460.021L926.087+468.881L928.01+456.726L926.541+479.91L951.009+517.599L953.848+511.655L952.477+501.172L954.858+509.54L960.377+497.984L952.663+519.935L1017.48+617.895L1019.7+574.733L1006.89+560.315L982.103+553.878L1004.27+557.403L983.363+526.26L962.257+514.633L981.455+523.418L954.249+482.885L974.368+510.302L975.159+493.971L975.934+512.437L998.507+543.198L1000.8+527.868L1001.43+547.264L1020.26+568.874L1019.23+499.12L997.965+477.41L982.633+476.286L967.297+482.11L980.146+476.103L947.208+473.687L971.699+474.41L963.589+461.862L973.245+474.085L995.446+474.424L962.301+443.667L939.01+433.733L958.326+439.524L927.7+407.6L948.665+427.157L948.442+408.838L952.138+430.396L980.306+456.672L978.885+426.854L969.306+411.588L978.644+421.788L977.827+404.648L982.092+434.851L991.744+422.622L983.17+441.706L984.033+459.28L1020.39+494.058L1020.44+463.748L995.628+434.958L1020.45+456.162L1020.48+439.733L993.309+400.465L1007.03+418.001L1005.97+400.337L1010.12+421.946L1020.48+435.2L1020.56+391.2L1011.71+370.451L1020.57+386.666L1020.61+361.345L1021.48+400.666L1043.28+371.382L1031.02+391.359L1045.84+386.532L1029.01+394.636L1022.31+403.708L1022.48+446.225L1040.75+427.055L1022.58+450.749L1022.98+468.93L1048.56+449.128L1043.32+409.68L1051.62+446.289L1089.32+414.358L1069+434.636L1090.96+432.72L1067.77+437.753L1023.98+474.219L1025.3+538.948L1043.21+523.735L1043.05+503.934L1038.45+490.126L1043.01+499.951L1042.83+478.489L1044.35+508.513L1051.37+498.12L1044.47+510.952L1045+521.411L1073.59+485.118L1073.46+470.7L1068.21+457.315L1073.42+467.002L1073.26+449.519L1075.35+482.896L1092.99+460.502L1093.28+442.536L1094.63+458.416L1104.36+446.059L1085.26+472.883L1111.91+460.333L1096.88+468.313L1107.51+467.695L1094.59+469.533L1083.42+475.467L1055.49+514.667L1066.56+512.979L1074.91+505.354L1069.16+512.582L1080.75+510.816L1054.74+517.204L1026.3+542.228L1028.7+616.558L1052.58+583.092L1044.95+538.133L1050.65+559.041L1054.99+541.788L1052.37+565.359L1055.76+577.815L1088.25+533.089L1088.11+525.271L1083.35+514.989L1088.07+522.516L1087.44+486.102L1090.42+514.8L1095.57+502.555L1090.92+518.198L1092.55+529.338L1128.79+479.824L1128.47+456.222L1130.79+476.347L1157.3+440.877L1143+461.909L1152.85+455.228L1141.4+464.268L1115.19+502.795L1136.25+493.439L1138.6+488.734L1138.67+480.503L1139.77+486.38L1143.15+479.598L1138.16+492.248L1160.69+482.587L1148.14+489.211L1156.34+489.59L1146.16+490.255L1128.63+499.509L1153.22+497.666L1139.98+499.211L1146.67+501.688L1137.44+499.508L1126.13+500.828L1112.4+508.074L1068.85+573.249L1096.45+561.057L1065.21+580.427L1032.92+627.009L1033.3+655.192L1053.87+642.452L1062.8+625.475L1062.87+608.526L1065.34+620.652L1074.22+603.764L1060.8+638.645C1084.14+623.349+1104.37+606.28+1123.79+588.748C1124.14+588.435+1123.55+584.567+1122.52+578.997C1122.43+578.497+1111.68+568.722+1111.58+568.196C1111.49+567.695+1122.04+576.443+1121.94+575.92C1120.74+569.644+1119.15+561.916+1117.72+554.749C1117.55+553.9+1107.32+541.833+1107.15+541.003C1107.01+540.315+1116.94+550.859+1116.81+550.188C1114.96+540.831+1113.6+533.344+1114.08+532.903C1114.65+532.385+1120.58+557.956+1122.87+567.495C1122.99+568.014+1132.25+553.414+1132.38+553.93C1132.62+554.929+1123.72+571.037+1123.95+572.009C1125.77+579.518+1127.38+585.844+1127.84+585.422C1136.8+577.224+1153.71+561.281+1169.44+546.638C1169.77+546.333+1170.94+538.831+1172.21+530.426C1172.28+529.94+1164.4+517.529+1164.48+517.037C1164.61+516.124+1172.71+527.125+1172.85+526.207C1174.29+516.639+1175.71+507.245+1176.07+506.906C1176.3+506.701+1175.75+513.096+1175.07+520.564C1175.04+520.869+1181.03+514.769+1181+515.077C1180.96+515.485+1174.91+522.301+1174.88+522.714C1173.98+532.573+1172.98+543.352+1173.26+543.088C1183.2+533.863+1192.35+525.479+1198.29+520.325C1188.41+531.314+1173.16+547.349+1157.46+563.397C1157.09+563.774+1171.25+559.818+1182.91+556.611C1183.44+556.466+1188.95+541.965+1189.46+541.824C1190.21+541.62+1184.41+555.685+1185.12+555.49C1191.61+553.715+1196.54+552.404+1196.32+552.629C1196.09+552.868+1192.9+554.538+1186.61+556.581C1183.66+557.538+1180.37+558.598+1177.04+559.67C1176.17+559.951+1188.89+564.089+1188.02+564.37C1187.5+564.535+1173.4+560.843+1172.89+561.007C1162.94+564.209+1153.74+567.19+1153.41+567.526C1137.7+583.508+1121.97+599.072+1111.12+609.213C1110.27+610.014+1125.68+608.362+1141.31+606.673C1141.81+606.619+1155.4+585.621+1155.9+585.567C1156.63+585.488+1144.26+606.355+1144.99+606.276C1159.77+604.681+1173.63+603.225+1172.8+603.977C1171.76+604.928+1147.84+608.486+1128.27+611.544C1127.53+611.659+1142.22+619.279+1141.49+619.393C1140.83+619.497+1124.75+612.095+1124.1+612.198C1112.68+614.002+1103.59+615.539+1102.95+616.111C1082.57+634.286+1060.7+651.202+1036.37+666.064C1038.41+680.037+1036.69+693.239+1042.68+701.855L1083.43+681.779L1081.79+659.658L1074.98+646.333L1081.42+654.626L1080.42+641.098L1084.48+665.175L1099.62+648.487L1085.77+669.474L1088.92+680.023C1102.39+677.406+1114.76+671.525+1126.55+663.893C1127.25+663.441+1127.67+658.74+1128.01+652.768C1128.06+651.948+1113.45+639.6+1113.49+638.741C1113.53+638.077+1128.22+648.908+1128.25+648.228C1128.75+637.926+1129.44+621.681+1130.55+620.904C1131.4+620.304+1131.73+634.191+1132.36+643.178C1132.43+644.186+1144.85+627.739+1144.92+628.722C1144.99+629.594+1132.69+647.9+1132.75+648.732C1133.21+654.751+1133.7+659.453+1134.3+659.001C1144.65+651.268+1155.36+641.867+1166.12+632.513C1166.47+632.211+1166.93+627.637+1167.41+622.673C1167.47+621.959+1162.12+615.19+1162.19+614.472C1162.26+613.755+1167.75+619.089+1167.82+618.39C1168.25+613.939+1168.66+610.094+1168.98+609.818C1169.88+609.039+1170.21+628.96+1171.11+628.184C1176.39+623.63+1181.66+619.15+1186.89+614.945C1187.69+614.306+1194.82+593.324+1195.61+592.699C1196.15+592.278+1190.34+612.21+1190.87+611.796C1194.09+609.299+1210.53+592+1213.7+589.799C1212.46+592.885+1193.26+614.233+1186.13+621.321C1185.53+621.918+1203.41+616.491+1202.79+617.095C1201.96+617.911+1182.63+624.761+1181.78+625.585C1169.09+637.901+1154.99+650.616+1156.74+650.624C1166.69+650.153+1175.1+649.773+1182.14+649.472C1183.13+649.43+1197.11+638.026+1198.04+637.987C1199.03+637.945+1186.96+649.27+1187.89+649.232C1261.84+646.22+1153.05+653.908+1151.39+655.316C1131.87+671.941+1109.22+688.258+1087.96+695.612C1086.68+696.055+1099.76+699.749+1115.39+703.891C1115.8+703.999+1122.94+699.503+1130.19+694.931C1130.76+694.573+1134.47+678.677+1135.04+678.32C1136.07+677.671+1132.42+693.902+1133.41+693.277C1139.08+689.715+1145.4+685.427+1145.73+685.516C1146.54+685.728+1119.52+704.98+1120.33+705.193C1140.85+710.578+1163.54+716.218+1163.54+716.218C1163.54+716.218+1084.61+699.167+1082.1+701.233C1068.29+712.635+1047.55+721.301+1047.28+723.553C1043.37+756.33+1041.85+879.8+1074.22+891.645C1095.05+899.267+1100.45+899.317+1104.76+926.755C1109.07+954.193+1156.61+982.366+1195.07+1001.44C1161.79+977.997+1110.43+981.28+1095.92+939.73C1081.41+898.18+1077.11+909.414+1061.79+907.57C1076.35+926.359+1076.91+938.411+1072.34+955.282C1067.76+972.153+1068.4+979.639+1082.27+1000.23C1096.14+1020.82+1095.71+1054.49+1100.24+1081.48C1092.53+1053.8+1090.56+1017.3+1071.66+999.432C1052.76+981.569+1054.58+970.385+1060.16+953.706C1065.74+937.028+1055.18+926.972+1041.22+912.04C1038.65+927.129+1026.15+945.96+1040.9+962.654C1055.64+979.349+1055.2+983.662+1038.75+1001.7C1022.3+1019.74+1034.11+1052.61+1036.62+1079.05C1032.82+1053.99+1011.72+1024.76+1026.92+1003.55C1042.12+982.339+1032.35+977.298+1021.67+962.654C1010.98+948.01+1014.25+929.376+1015.14+911.892C1003.68+923.968+992.43+934.489+995.315+951.434C998.201+968.379+995.166+977.901+974.289+993.365C953.412+1008.83+949.984+1037.92+940.688+1060.37C945.712+1036.41+945.762+1006.88+965.164+990.391C984.566+973.9+988.188+961.63+981.064+944.93C973.94+928.23+986.154+920.341+993.576+909.155C976.977+899.583+961.375+903.546+945.006+940.471C928.638+977.396+879.84+970.06+849.653+986.223L849.656+986.228Z" opacity="1" fill="url(#LinearGradient_4)"/>
<path d="M837.195+989.394C875.798+973.904+919.485+963.971+922.948+937.533C926.412+911.095+951.433+899.939+968.904+887.833C994.392+870.174+998.884+755.873+991.131+726.416C990.636+724.536+982.223+720.782+970.443+716.234C968.018+715.297+908.654+737.815+905.983+736.821C904.829+736.392+936.399+725.276+943.631+721.995C944.321+721.681+928.123+716.457+928.823+716.142C929.897+715.659+947.871+720.085+948.934+719.61C956.388+716.281+963.052+713.345+961.714+713.43C953.003+713.982+929.292+703.038+903.396+687.298C902.895+686.993+895.361+686.405+886.532+685.764C885.917+685.719+880.406+689.07+879.78+689.025C879.266+688.988+883.639+685.555+883.121+685.518C871.121+684.656+858.128+683.751+857.46+683.336C857.007+683.055+863.647+683.056+871.567+683.107C872.08+683.11+864.341+677.998+864.863+678.001C865.378+678.005+874.154+683.125+874.676+683.128C885.366+683.207+896.967+683.32+896.37+682.943C887.194+677.144+877.89+670.831+869.011+664.291C868.256+663.735+861.677+662.567+854.091+661.291C853.52+661.195+846.604+663.761+846.024+663.664C845.436+663.566+851.185+660.805+850.592+660.706C840.725+659.063+830.411+657.372+829.469+656.664C828.867+656.212+834.953+656.462+841.806+656.793C842.534+656.828+835.739+650.315+836.478+650.351C837.211+650.387+845.478+656.972+846.208+657.008C853.444+657.36+860.146+657.657+859.525+657.183C853.96+652.942+848.573+648.556+843.484+644.219C843.236+644.007+837.979+643.062+832.167+642.036C831.597+641.936+826.439+644.603+825.862+644.501C825.271+644.397+829.262+641.524+828.673+641.421C822.519+640.336+816.729+639.304+816.471+639.083C815.916+638.604+840.715+641.839+840.167+641.363C833.951+635.957+828.245+630.694+823.287+625.956C822.682+625.379+809.508+621.436+808.926+620.874C808.546+620.508+820.752+623.519+820.383+623.16C810.148+613.23+803.768+606.223+803.768+606.223C803.768+606.223+808.764+609.833+815.139+614.516C815.558+614.823+813.724+608.906+814.153+609.222C814.669+609.602+817.45+616.216+817.979+616.605C824.26+621.237+831.296+626.49+836.104+630.269C836.868+630.87+836.387+602.075+837.15+602.677C838.06+603.394+838.537+611.857+839.045+619.782C839.083+620.378+844.799+614.787+844.838+615.373C844.876+615.953+839.237+622.711+839.276+623.275C839.656+628.736+840.087+633.274+840.742+633.792C851.25+642.104+862.081+650.71+873.172+658.811C873.651+659.161+873.998+646.383+874.337+632.747C874.36+631.799+858.211+611.279+858.235+610.328C858.271+608.898+874.343+629.203+874.379+627.786C874.707+614.692+875.182+600.62+875.647+600.954C876.285+601.412+877.114+620.732+877.921+637.775C877.957+638.53+889.017+625.154+889.053+625.898C889.087+626.623+878.098+641.47+878.133+642.182C878.692+653.675+879.231+663.164+879.678+663.478C898.745+676.896+918.53+688.397+938.723+694.031L935.466+671.631L925.727+666.979L909.934+667.04L923.074+665.713L906.447+657.772L894.132+657.056L903.536+656.381L887.926+648.926L910.876+658.136L906.776+645.309L912.443+658.458L934.364+667.562L916.934+636.81L901.894+627.158L915.035+633.46L903.71+613.479L910.951+623.592L910.105+614.736L912.998+626.453L924.404+642.383L926.838+634.96L924.851+626.608L927.652+632.478L931.032+622.163L926.645+644.848L939.459+666.834L941.564+654.198L939.312+647.305L942.016+651.485L943.864+640.39L943.66+658.019L949.408+651.595L943.632+660.473L943.488+672.903L950.816+696.928L993.616+705.065C997.048+691.462+995.355+686.648+993.508+677.78C959.179+649.729+933.815+621.478+905.625+588.073C905.269+587.65+900.323+585.893+893.618+583.622C893.219+583.487+869.424+590.857+869.014+590.718C868.522+590.552+891.412+582.878+890.906+582.708C875.861+577.656+854.603+570.794+853.856+569.894C853.323+569.253+866.474+572.589+878.746+575.668C879.061+575.747+871.593+560.584+871.907+560.663C872.186+560.733+880.247+576.044+880.524+576.114C890.617+578.642+899.616+580.852+899.177+580.315C893.389+573.246+883.785+559.342+873.439+543.817C872.78+542.829+829.382+529.95+828.718+528.95C828.47+528.576+841.263+531.657+852.689+534.471C853.388+534.643+847.388+522.1+848.073+522.27C848.776+522.443+854.338+534.603+855.329+534.79C862.776+536.198+870.11+538.806+870.11+538.806L851.642+510.544L834.286+500.024C834.286+500.024+850.411+508.374+849.696+507.268C842.507+496.154+834.894+484.619+831.067+478.788C836.054+483.951+848.237+501.521+860.022+518.527C860.323+518.961+860.909+516.504+861.563+513.36C861.643+512.971+858.395+503.446+858.477+503.041C858.557+502.647+861.968+511.373+862.049+510.971C862.978+506.35+863.935+501.442+864.348+502.037C864.881+502.807+861.757+520.6+862.286+521.362C871.447+534.561+881.518+549.368+885.374+553.646C885.94+554.274+890.49+525.832+891.055+526.46C891.554+527.013+891.099+534.518+890.624+542.176C890.56+543.2+895.964+536.558+895.901+537.572C895.863+538.192+890.359+546.475+890.323+547.08C889.957+553.225+889.715+558.466+890.128+558.925C901.281+571.313+912.432+583.703+923.842+595.459C924.526+596.164+926.159+588.408+927.881+579.859C927.984+579.35+922.496+563.422+922.599+562.909C922.742+562.2+928.474+576.905+928.617+576.195C930.459+567.02+932.997+558.917+932.997+558.917C932.997+558.917+932.919+564.414+931.962+570.686C931.87+571.289+937.73+566.419+937.632+567.043C937.601+567.244+931.614+572.931+931.582+573.133C929.805+584.432+927.314+598.468+928.245+599.384C941.101+612.03+959.647+631.874+973.662+641.682L983.72+626.094L977.522+645.352L1000.59+660.749L1000.42+631.262L956.771+555.401L948.29+552.453L934.167+552.633L943.451+550.77L903.767+536.974L932.091+544.536L923.291+527.922L936.922+545.826L954.793+550.597L928.263+507.905L918.934+505.547L904.142+508.423L916.509+504.934L894.75+499.433L912.71+502.204L906.483+492.897L914.915+502.973L926.266+504.965L896.256+456.96L891.52+453.675L882.346+451.786L889.468+452.252L879.206+445.134L893.947+453.266L873.561+420.658L887.733+442.352L886.137+432.725L889.419+444.933L912.361+480.051L913.145+475.094L909.353+463.185L913.628+472.044L915.551+459.89L914.082+483.073L938.55+520.763L941.389+514.819L940.018+504.336L942.399+512.703L947.917+501.147L940.203+523.098L1005.02+621.058L1007.24+577.896L994.43+563.479L969.643+557.041L991.807+560.566L970.904+529.423L949.798+517.797L968.996+526.581L941.789+486.049L961.908+513.466L962.7+497.134L963.475+515.601L986.048+546.362L988.34+531.031L988.972+550.428L1007.8+572.037L1006.77+502.283L985.505+480.574L970.174+479.449L954.837+485.273L967.686+479.267L934.748+476.85L959.239+477.573L951.129+465.025L960.785+477.248L982.986+477.587L949.841+446.831L926.55+436.896L945.866+442.687L915.24+410.763L936.205+430.32L935.982+412.001L939.677+433.56L967.846+459.835L966.425+430.017L956.846+414.751L966.184+424.951L965.367+407.811L969.632+438.014L979.284+425.785L970.71+444.869L971.573+462.443L1007.93+497.222L1007.98+466.911L983.168+438.122L1007.99+459.326L1008.02+442.896L980.849+403.628L994.569+421.164L993.51+403.501L997.656+425.109L1008.02+438.363L1008.1+394.363L999.246+373.614L1008.11+389.83L1008.15+364.508L1009.02+403.83L1030.82+374.546L1018.56+394.522L1033.38+389.695L1016.55+397.8L1009.85+406.871L1010.02+449.388L1028.29+430.218L1010.12+453.912L1010.52+472.094L1036.1+452.291L1030.86+412.843L1039.16+449.452L1076.86+417.522L1056.54+437.799L1078.5+435.883L1055.31+440.916L1011.52+477.383L1012.84+542.111L1030.75+526.898L1030.59+507.097L1025.99+493.29L1030.55+503.114L1030.37+481.652L1031.89+511.677L1038.91+501.283L1032.01+514.116L1032.54+524.574L1061.13+488.282L1061+473.864L1055.75+460.478L1060.96+470.165L1060.8+452.682L1062.89+486.059L1080.53+463.665L1080.82+445.699L1082.17+461.579L1091.9+449.222L1072.8+476.047L1099.45+463.497L1084.42+471.476L1095.05+470.858L1082.13+472.696L1070.96+478.631L1043.03+517.83L1054.1+516.142L1062.45+508.517L1056.7+515.746L1068.29+513.979L1042.28+520.367L1013.84+545.391L1016.24+619.721L1040.12+586.255L1032.49+541.297L1038.19+562.204L1042.53+544.952L1039.91+568.522L1043.3+580.979L1075.79+536.252L1075.65+528.434L1070.89+518.153L1075.61+525.679L1074.98+489.265L1077.96+517.964L1083.11+505.719L1078.46+521.361L1080.09+532.502L1116.33+482.988L1116.01+459.385L1118.33+479.511L1144.84+444.041L1130.54+465.072L1140.39+458.392L1128.94+467.431L1102.73+505.958L1123.79+496.603L1126.14+491.897L1126.21+483.666L1127.31+489.544L1130.69+482.761L1125.7+495.412L1148.23+485.75L1135.68+492.374L1143.88+492.753L1133.7+493.418L1116.17+502.672L1140.76+500.829L1127.52+502.375L1134.21+504.852L1124.98+502.671L1113.67+503.992L1099.94+511.237L1056.39+576.413L1083.99+564.22L1052.75+583.591L1020.46+630.172L1020.84+658.355L1041.41+645.615L1050.34+628.638L1050.41+611.69L1052.88+623.815L1061.76+606.928L1048.34+641.808C1071.68+626.513+1091.91+609.443+1111.33+591.911C1111.68+591.599+1111.09+587.73+1110.06+582.16C1109.97+581.661+1099.22+571.885+1099.12+571.36C1099.03+570.858+1109.58+579.607+1109.48+579.083C1108.28+572.807+1106.69+565.08+1105.26+557.912C1105.09+557.063+1094.86+544.997+1094.69+544.167C1094.55+543.478+1104.48+554.023+1104.35+553.351C1102.5+543.994+1101.14+536.507+1101.62+536.066C1102.19+535.549+1108.12+561.119+1110.41+570.659C1110.53+571.177+1119.79+556.577+1119.92+557.094C1120.16+558.092+1111.26+574.201+1111.49+575.172C1113.31+582.682+1114.92+589.008+1115.38+588.586C1124.33+580.387+1141.25+564.444+1156.98+549.801C1157.31+549.496+1158.48+541.994+1159.75+533.589C1159.82+533.103+1151.94+520.693+1152.02+520.201C1152.16+519.287+1160.25+530.288+1160.39+529.37C1161.83+519.802+1163.25+510.408+1163.61+510.07C1163.84+509.864+1163.29+516.259+1162.61+523.728C1162.58+524.032+1168.57+517.933+1168.54+518.24C1168.5+518.648+1162.45+525.464+1162.42+525.877C1161.52+535.737+1160.52+546.515+1160.8+546.251C1170.74+537.026+1179.89+528.642+1185.83+523.489C1175.95+534.478+1160.7+550.513+1145+566.56C1144.63+566.937+1158.8+562.982+1170.45+559.774C1170.98+559.629+1176.49+545.129+1177+544.988C1177.75+544.783+1171.95+558.848+1172.66+558.653C1179.15+556.879+1184.08+555.568+1183.86+555.792C1183.63+556.031+1180.44+557.701+1174.15+559.744C1171.2+560.702+1167.91+561.761+1164.58+562.833C1163.71+563.114+1176.43+567.252+1175.56+567.533C1175.04+567.698+1160.94+564.006+1160.43+564.17C1150.48+567.373+1141.28+570.354+1140.95+570.689C1125.24+586.671+1109.51+602.236+1098.66+612.376C1097.81+613.177+1113.22+611.525+1128.85+609.837C1129.35+609.783+1142.94+588.784+1143.44+588.73C1144.17+588.652+1131.8+609.518+1132.53+609.439C1147.31+607.844+1161.17+606.388+1160.34+607.14C1159.3+608.092+1135.38+611.649+1115.81+614.707C1115.07+614.822+1129.76+622.443+1129.03+622.556C1128.37+622.661+1112.29+615.258+1111.64+615.361C1100.22+617.165+1091.13+618.702+1090.49+619.274C1070.11+637.449+1048.24+654.366+1023.91+669.227C1025.95+683.2+1024.23+696.402+1030.22+705.018L1070.97+684.943L1069.33+662.821L1062.52+649.496L1068.96+657.789L1067.96+644.261L1072.02+668.338L1087.16+651.651L1073.31+672.637L1076.46+683.187C1089.93+680.569+1102.3+674.688+1114.09+667.056C1114.79+666.604+1115.21+661.903+1115.55+655.931C1115.6+655.111+1100.99+642.764+1101.04+641.904C1101.07+641.24+1115.76+652.071+1115.79+651.392C1116.29+641.09+1116.98+624.845+1118.09+624.067C1118.94+623.467+1119.27+637.354+1119.9+646.342C1119.97+647.349+1132.39+630.902+1132.46+631.886C1132.53+632.758+1120.23+651.064+1120.29+651.896C1120.75+657.915+1121.24+662.616+1121.84+662.164C1132.19+654.431+1142.9+645.031+1153.66+635.677C1154.01+635.374+1154.47+630.801+1154.95+625.836C1155.02+625.123+1149.66+618.353+1149.73+617.635C1149.8+616.918+1155.29+622.252+1155.36+621.553C1155.79+617.103+1156.2+613.257+1156.52+612.982C1157.42+612.203+1157.75+632.124+1158.65+631.348C1163.93+626.793+1169.2+622.313+1174.43+618.108C1175.23+617.469+1182.36+596.487+1183.15+595.862C1183.69+595.442+1177.88+615.373+1178.41+614.959C1181.63+612.462+1198.07+595.164+1201.24+592.962C1200+596.048+1180.8+617.396+1173.67+624.484C1173.07+625.081+1190.95+619.654+1190.33+620.259C1189.5+621.075+1170.17+627.925+1169.32+628.748C1156.63+641.065+1142.53+653.78+1144.28+653.788C1154.23+653.317+1162.64+652.936+1169.68+652.635C1170.67+652.593+1184.65+641.189+1185.58+641.15C1186.57+641.109+1174.51+652.433+1175.43+652.396C1249.38+649.383+1140.59+657.071+1138.93+658.48C1119.41+675.104+1096.76+691.422+1075.5+698.775C1074.22+699.218+1087.31+702.912+1102.93+707.054C1103.34+707.163+1110.48+702.666+1117.73+698.095C1118.3+697.737+1122.01+681.841+1122.58+681.483C1123.61+680.834+1119.96+697.065+1120.95+696.44C1126.62+692.878+1132.94+688.59+1133.27+688.679C1134.08+688.891+1107.06+708.143+1107.87+708.356C1128.39+713.742+1151.08+719.381+1151.08+719.381C1151.08+719.381+1072.15+702.331+1069.64+704.397C1055.83+715.798+1035.09+724.464+1034.82+726.716C1030.91+759.493+1029.39+882.964+1061.76+894.809C1082.59+902.43+1087.99+902.48+1092.3+929.919C1096.61+957.357+1144.15+985.53+1182.61+1004.6C1149.33+981.16+1097.97+984.444+1083.46+942.893C1068.95+901.343+1064.65+912.577+1049.33+910.733C1063.89+929.523+1064.45+941.574+1059.88+958.445C1055.3+975.316+1055.94+982.803+1069.81+1003.39C1083.68+1023.98+1083.25+1057.65+1087.78+1084.64C1080.07+1056.96+1078.1+1020.46+1059.2+1002.6C1040.3+984.732+1042.12+973.549+1047.7+956.87C1053.28+940.192+1042.72+930.136+1028.76+915.203C1026.19+930.292+1013.69+949.123+1028.44+965.818C1043.18+982.512+1042.74+986.826+1026.29+1004.87C1009.84+1022.91+1021.65+1055.78+1024.16+1082.22C1020.36+1057.15+999.264+1027.93+1014.46+1006.72C1029.66+985.503+1019.89+980.461+1009.21+965.817C998.525+951.173+1001.79+932.539+1002.68+915.055C991.218+927.132+979.97+937.652+982.855+954.598C985.741+971.542+982.706+981.064+961.83+996.528C940.953+1011.99+937.524+1041.08+928.228+1063.54C933.252+1039.57+933.302+1010.05+952.704+993.555C972.106+977.063+975.728+964.793+968.604+948.093C961.481+931.393+973.695+923.504+981.117+912.318C964.518+902.746+948.915+906.71+932.546+943.635C916.178+980.56+867.381+973.223+837.193+989.387L837.195+989.394Z" opacity="0.33" fill="#000000"/>
</g>
</g>
</svg>
