<?xml version="1.0" encoding="UTF-8"?>
<!DOCTYPE svg PUBLIC "-//W3C//DTD SVG 1.1//EN"
  "http://www.w3.org/Graphics/SVG/1.1/DTD/svg11.dtd">
<!-- Created with Inkpad (http://www.taptrix.com/) --><svg xmlns:inkpad="http://taptrix.com/inkpad/svg_extensions" height="780pt" xmlns:xlink="http://www.w3.org/1999/xlink" xmlns="http://www.w3.org/2000/svg" width="972pt" version="1.1" viewBox="0,0,972,780">
<defs>
<linearGradient y1="422.46" id="LinearGradient" x1="28.926" y2="285.42" x2="-112.07" gradientUnits="userSpaceOnUse" gradientTransform="matrix(-0 -0.695082 -0.645927 0 751.403 553.736)">
<stop stop-color="#008400" offset="0"/>
<stop stop-color="#00a000" offset="1"/>
</linearGradient>
<linearGradient y1="422.46" id="LinearGradient_2" x1="28.926" y2="285.42" x2="-112.07" gradientUnits="userSpaceOnUse" gradientTransform="matrix(-0 -0.695082 -0.645927 0 980.111 325.664)">
<stop stop-color="#008400" offset="0"/>
<stop stop-color="#00a000" offset="1"/>
</linearGradient>
<linearGradient y1="456.75" id="LinearGradient_3" x1="-53.632" y2="216.93" x2="-135.5" gradientUnits="userSpaceOnUse" gradientTransform="matrix(-0 -0.695082 -0.645927 0 911.019 513.363)">
<stop stop-color="#006400" offset="0"/>
<stop stop-color="#00a000" offset="1"/>
</linearGradient>
<linearGradient y1="1272.6" id="LinearGradient_4" x1="462.51" y2="323.12" x2="428.25" gradientUnits="userSpaceOnUse" gradientTransform="matrix(0 0.645927 -0.645927 0 911.021 250.017)">
<stop stop-color="#000000" offset="0"/>
<stop stop-color="#986601" offset="0.5"/>
<stop stop-color="#000400" offset="1"/>
</linearGradient>
</defs>
<g id="layer1" inkpad:layerName="layer1">
<g opacity="1">
<g opacity="1">
<path d="M718.309+303.438C715.94+349.244+676.637+384.28+630.522+381.691C584.408+379.103+548.945+339.872+551.314+294.065C553.683+248.259+592.987+213.223+639.101+215.811C685.215+218.399+720.678+257.631+718.309+303.438Z" opacity="0.5" fill="#000000"/>
<path d="M710.139+302.979C707.769+348.785+668.466+383.821+622.351+381.233C576.237+378.645+540.774+339.413+543.143+293.606C545.512+247.8+584.816+212.764+630.93+215.353C677.044+217.941+712.508+257.172+710.139+302.979Z" opacity="1" fill="#015a01"/>
</g>
<g opacity="1">
<path d="M417.514+478.59C415.145+524.396+375.842+559.432+329.727+556.844C283.613+554.256+248.15+515.024+250.519+469.218C252.888+423.411+292.192+388.375+338.306+390.964C384.42+393.552+419.883+432.783+417.514+478.59Z" opacity="0.5" fill="#000400"/>
<path d="M426.14+470.934C423.771+516.741+384.468+551.777+338.353+549.188C292.239+546.6+256.776+507.369+259.145+461.562C261.514+415.756+300.818+380.72+346.932+383.308C393.046+385.896+428.509+425.128+426.14+470.934Z" opacity="1" fill="#006000"/>
</g>
<g opacity="1">
<path d="M303.077+504.795C300.708+550.602+336.17+589.834+382.285+592.422C428.399+595.01+467.703+559.975+470.072+514.168C472.441+468.362+436.978+429.13+390.864+426.542C344.75+423.953+305.446+458.989+303.077+504.795Z" opacity="0.5" fill="#000400"/>
<path d="M307.57+496.908C305.201+542.714+340.663+581.946+386.778+584.534C432.892+587.122+472.196+552.087+474.565+506.28C476.934+460.474+441.472+421.242+395.357+418.654C349.243+416.066+309.939+451.101+307.57+496.908Z" opacity="1" fill="#339900"/>
</g>
<g opacity="1">
<path d="M495.284+527.013C492.915+572.819+528.377+612.051+574.492+614.639C620.606+617.227+659.91+582.192+662.279+536.385C664.648+490.579+629.185+451.347+583.071+448.759C536.957+446.171+497.653+481.206+495.284+527.013Z" opacity="0.5" fill="#000000"/>
<path d="M483.214+522.265C480.845+568.071+516.307+607.303+562.422+609.892C608.536+612.48+647.84+577.445+650.209+531.638C652.578+485.832+617.115+446.6+571.001+444.011C524.887+441.423+485.583+476.458+483.214+522.265Z" opacity="1" fill="url(#LinearGradient)"/>
</g>
<g opacity="1">
<path d="M650.523+236.204C648.154+282.01+608.851+317.046+562.736+314.457C516.622+311.869+481.159+272.638+483.528+226.831C485.897+181.025+525.201+145.989+571.315+148.577C617.429+151.165+652.893+190.397+650.523+236.204Z" opacity="0.5" fill="#000000"/>
<path d="M642.143+239.791C639.774+285.598+600.471+320.633+554.356+318.045C508.242+315.457+472.779+276.226+475.148+230.419C477.517+184.613+516.82+149.577+562.935+152.165C609.049+154.753+644.512+193.985+642.143+239.791Z" opacity="1" fill="#00ac00"/>
</g>
<g opacity="1">
<path d="M605.689+542.823C603.32+588.629+564.016+623.665+517.901+621.076C471.787+618.488+436.324+579.257+438.693+533.45C441.062+487.644+480.366+452.608+526.481+455.196C572.595+457.784+608.058+497.016+605.689+542.823Z" opacity="0.5" fill="#000000"/>
<path d="M601.976+534.474C599.607+580.281+560.303+615.316+514.189+612.728C468.075+610.14+432.611+570.909+434.98+525.102C437.35+479.296+476.653+444.26+522.768+446.848C568.882+449.436+604.345+488.668+601.976+534.474Z" opacity="1" fill="#006400"/>
</g>
<g opacity="1">
<path d="M732.367+386.466C729.998+432.272+690.695+467.308+644.58+464.72C598.466+462.131+563.003+422.9+565.372+377.093C567.741+331.287+607.044+296.251+653.159+298.839C699.273+301.428+734.736+340.659+732.367+386.466Z" opacity="0.5" fill="#000000"/>
<path d="M724.161+386.005C721.792+431.811+682.488+466.847+636.374+464.259C590.26+461.671+554.796+422.439+557.166+376.633C559.534+330.826+598.838+295.791+644.953+298.379C691.067+300.967+726.53+340.198+724.161+386.005Z" opacity="1" fill="#007c00"/>
</g>
<g opacity="1">
<path d="M561.696+219.636C559.327+265.442+520.023+300.478+473.908+297.89C427.794+295.302+392.331+256.07+394.7+210.264C397.069+164.457+436.373+129.422+482.487+132.01C528.601+134.598+564.065+173.83+561.696+219.636Z" opacity="0.5" fill="#000000"/>
<path d="M549.265+223.009C546.896+268.815+507.592+303.851+461.478+301.262C415.364+298.674+379.901+259.443+382.27+213.636C384.639+167.83+423.942+132.794+470.057+135.382C516.171+137.97+551.634+177.202+549.265+223.009Z" opacity="1" fill="#009c00"/>
</g>
<g opacity="1">
<path d="M515.486+235.833C513.117+281.639+473.814+316.675+427.699+314.087C381.585+311.499+346.122+272.267+348.491+226.46C350.86+180.654+390.163+145.618+436.278+148.206C482.392+150.795+517.855+190.026+515.486+235.833Z" opacity="0.5" fill="#000000"/>
<path d="M515.065+243.985C512.696+289.791+473.392+324.827+427.277+322.238C381.163+319.65+345.7+280.419+348.069+234.612C350.438+188.806+389.742+153.77+435.856+156.358C481.97+158.946+517.434+198.178+515.065+243.985Z" opacity="1" fill="#008c00"/>
</g>
<g opacity="1">
<path d="M717.515+493.555C715.146+539.361+675.842+574.397+629.727+571.809C583.614+569.22+548.15+529.989+550.519+484.182C552.888+438.376+592.192+403.34+638.306+405.928C684.42+408.517+719.884+447.748+717.515+493.555Z" opacity="0.5" fill="#000000"/>
<path d="M709.554+489.038C707.185+534.844+667.881+569.88+621.766+567.292C575.653+564.703+540.189+525.472+542.558+479.665C544.927+433.859+584.231+398.823+630.346+401.412C676.46+404+711.923+443.231+709.554+489.038Z" opacity="1" fill="#008400"/>
</g>
<g opacity="1">
<path d="M717.767+423.795C715.398+469.601+676.095+504.637+629.98+502.049C583.866+499.461+548.403+460.229+550.772+414.422C553.141+368.616+592.444+333.58+638.559+336.168C684.673+338.757+720.136+377.988+717.767+423.795Z" opacity="0.5" fill="#000000"/>
<path d="M709.411+427.384C707.042+473.19+667.738+508.226+621.624+505.638C575.51+503.05+540.046+463.818+542.415+418.011C544.784+372.205+584.088+337.169+630.203+339.758C676.317+342.346+711.78+381.577+709.411+427.384Z" opacity="1" fill="#007800"/>
</g>
<g opacity="1">
<path d="M677.866+286.62C675.497+332.427+636.194+367.462+590.079+364.874C543.965+362.286+508.502+323.054+510.871+277.248C513.24+231.441+552.543+196.406+598.658+198.994C644.772+201.582+680.235+240.814+677.866+286.62Z" opacity="0.5" fill="#000400"/>
<path d="M669.51+290.21C667.141+336.016+627.837+371.051+581.722+368.463C535.608+365.875+500.145+326.644+502.514+280.837C504.883+235.031+544.187+199.995+590.302+202.583C636.415+205.171+671.879+244.403+669.51+290.21Z" opacity="1" fill="#339900"/>
</g>
<g opacity="1">
<path d="M450.595+239.589C448.226+285.396+483.688+324.628+529.803+327.216C575.917+329.804+615.221+294.769+617.59+248.962C619.959+203.156+584.496+163.924+538.382+161.336C492.268+158.747+452.964+193.783+450.595+239.589Z" opacity="0.5" fill="#000000"/>
<path d="M442.238+243.178C439.869+288.985+475.332+328.217+521.446+330.805C567.56+333.393+606.864+298.358+609.234+252.551C611.603+206.745+576.14+167.513+530.025+164.925C483.911+162.337+444.607+197.372+442.238+243.178Z" opacity="1" fill="#00b000"/>
</g>
<g opacity="1">
<path d="M683.21+490.962C680.841+536.768+641.537+571.804+595.423+569.216C549.309+566.628+513.846+527.396+516.215+481.589C518.584+435.783+557.887+400.747+604.002+403.336C650.116+405.924+685.579+445.155+683.21+490.962Z" opacity="0.5" fill="#000000"/>
<path d="M671.14+486.215C668.771+532.021+629.468+567.057+583.353+564.468C537.239+561.88+501.776+522.649+504.145+476.842C506.514+431.036+545.817+396+591.932+398.588C638.046+401.176+673.509+440.408+671.14+486.215Z" opacity="1" fill="#006000"/>
</g>
<g opacity="1">
<path d="M669.09+414.887C666.721+460.693+627.417+495.729+581.302+493.141C535.188+490.552+499.725+451.321+502.094+405.514C504.463+359.708+543.767+324.672+589.881+327.26C635.996+329.849+671.459+369.08+669.09+414.887Z" opacity="0.5" fill="#000400"/>
<path d="M660.674+418.485C658.304+464.291+619.001+499.326+572.886+496.738C526.772+494.15+491.309+454.919+493.678+409.112C496.047+363.306+535.351+328.27+581.465+330.858C627.579+333.446+663.043+372.678+660.674+418.485Z" opacity="1" fill="#009400"/>
</g>
<g opacity="1">
<path d="M644.644+282.076C642.275+327.882+602.972+362.918+556.857+360.329C510.743+357.741+475.28+318.51+477.649+272.703C480.018+226.897+519.322+191.861+565.436+194.449C611.55+197.037+647.013+236.269+644.644+282.076Z" opacity="0.5" fill="#000000"/>
<path d="M640.092+289.96C637.723+335.766+598.419+370.802+552.305+368.214C506.191+365.626+470.728+326.394+473.097+280.587C475.466+234.781+514.769+199.745+560.884+202.334C606.998+204.922+642.461+244.153+640.092+289.96Z" opacity="1" fill="#008400"/>
</g>
<g opacity="1">
<path d="M663.448+346.19C661.079+391.996+621.775+427.031+575.661+424.443C529.547+421.855+494.084+382.624+496.453+336.817C498.822+291.011+538.125+255.975+584.24+258.563C630.354+261.151+665.817+300.383+663.448+346.19Z" opacity="0.5" fill="#000000"/>
<path d="M655.091+349.79C652.722+395.597+613.418+430.632+567.304+428.044C521.19+425.456+485.727+386.225+488.096+340.418C490.465+294.612+529.768+259.576+575.883+262.164C621.997+264.752+657.46+303.984+655.091+349.79Z" opacity="1" fill="#007800"/>
</g>
<g opacity="1">
<path d="M367.014+525.032C364.645+570.838+400.108+610.07+446.222+612.658C492.336+615.246+531.64+580.211+534.009+534.404C536.378+488.598+500.916+449.366+454.801+446.778C408.687+444.19+369.383+479.225+367.014+525.032Z" opacity="0.5" fill="#000000"/>
<path d="M375.371+521.431C373.002+567.237+408.465+606.469+454.579+609.057C500.693+611.645+539.997+576.61+542.366+530.803C544.735+484.997+509.273+445.765+463.158+443.177C417.044+440.589+377.74+475.624+375.371+521.431Z" opacity="1" fill="#008c00"/>
</g>
<g opacity="1">
<path d="M224.379+381.76C222.01+427.566+257.472+466.798+303.587+469.386C349.701+471.974+389.005+436.939+391.374+391.132C393.743+345.326+358.281+306.094+312.166+303.506C266.052+300.918+226.748+335.953+224.379+381.76Z" opacity="0.5" fill="#000400"/>
<path d="M232.736+378.159C230.367+423.965+265.829+463.197+311.944+465.785C358.058+468.373+397.362+433.338+399.731+387.531C402.1+341.725+366.638+302.493+320.523+299.905C274.409+297.317+235.105+332.352+232.736+378.159Z" opacity="1" fill="#007400"/>
</g>
<g opacity="1">
<path d="M289.223+248.126C286.854+293.932+322.317+333.164+368.431+335.752C414.545+338.34+453.849+303.305+456.219+257.498C458.588+211.692+423.125+172.46+377.01+169.872C330.896+167.284+291.592+202.319+289.223+248.126Z" opacity="0.5" fill="#000000"/>
<path d="M295.153+252.534C292.784+298.341+328.246+337.573+374.361+340.161C420.475+342.749+459.779+307.714+462.148+261.907C464.517+216.101+429.055+176.869+382.94+174.281C336.826+171.692+297.522+206.728+295.153+252.534Z" opacity="1" fill="#007c00"/>
</g>
<g opacity="1">
<path d="M410.379+284.038C408.01+329.844+443.472+369.076+489.587+371.664C535.701+374.252+575.005+339.217+577.374+293.41C579.743+247.604+544.281+208.372+498.166+205.784C452.052+203.196+412.748+238.231+410.379+284.038Z" opacity="0.5" fill="#000000"/>
<path d="M405.827+291.922C403.457+337.728+438.92+376.96+485.035+379.548C531.149+382.137+570.453+347.101+572.822+301.295C575.191+255.488+539.728+216.256+493.614+213.668C447.5+211.08+408.196+246.115+405.827+291.922Z" opacity="1" fill="#006c00"/>
</g>
<g opacity="1">
<path d="M229.19+324.116C226.821+369.922+262.283+409.154+308.398+411.742C354.512+414.331+393.816+379.295+396.185+333.489C398.554+287.682+363.092+248.45+316.977+245.862C270.863+243.274+231.559+278.309+229.19+324.116Z" opacity="0.5" fill="#000000"/>
<path d="M237.816+316.46C235.447+362.266+270.909+401.498+317.024+404.087C363.138+406.675+402.442+371.64+404.811+325.833C407.18+280.027+371.718+240.795+325.603+238.206C279.489+235.618+240.185+270.653+237.816+316.46Z" opacity="1" fill="#008000"/>
</g>
<g opacity="1">
<path d="M273.215+302.231C270.846+348.037+306.309+387.269+352.424+389.857C398.538+392.446+437.842+357.41+440.211+311.604C442.58+265.798+407.117+226.565+361.003+223.977C314.889+221.389+275.585+256.424+273.215+302.231Z" opacity="0.5" fill="#000000"/>
<path d="M285.495+302.92C283.126+348.726+318.589+387.958+364.703+390.547C410.817+393.135+450.122+358.1+452.491+312.293C454.86+266.487+419.397+227.255+373.282+224.666C327.169+222.078+287.864+257.113+285.495+302.92Z" opacity="1" fill="url(#LinearGradient_2)"/>
</g>
<g opacity="1">
<path d="M447.122+451.898C444.753+497.704+405.449+532.74+359.334+530.152C313.22+527.564+277.757+488.332+280.126+442.525C282.495+396.719+321.799+361.683+367.913+364.272C414.027+366.86+449.491+406.091+447.122+451.898Z" opacity="0.5" fill="#000400"/>
<path d="M455.479+448.297C453.11+494.103+413.806+529.139+367.691+526.551C321.578+523.963+286.114+484.731+288.483+438.924C290.852+393.118+330.156+358.082+376.271+360.671C422.385+363.259+457.848+402.49+455.479+448.297Z" opacity="1" fill="#339900"/>
</g>
<g opacity="1">
<path d="M458.301+367.39C455.932+413.196+491.394+452.428+537.509+455.017C583.623+457.605+622.927+422.57+625.296+376.763C627.665+330.957+592.203+291.725+546.088+289.136C499.974+286.548+460.67+321.583+458.301+367.39Z" opacity="0.5" fill="#000000"/>
<path d="M453.808+375.278C451.439+421.084+486.901+460.316+533.016+462.904C579.13+465.492+618.434+430.457+620.803+384.65C623.172+338.844+587.709+299.612+541.595+297.024C495.481+294.436+456.177+329.471+453.808+375.278Z" opacity="1" fill="url(#LinearGradient_3)"/>
</g>
<g opacity="1">
<path d="M421.716+355.991C419.346+401.797+380.043+436.833+333.928+434.245C287.814+431.657+252.351+392.425+254.72+346.619C257.089+300.812+296.393+265.777+342.507+268.365C388.621+270.953+424.085+310.184+421.716+355.991Z" opacity="0.5" fill="#000000"/>
<path d="M429.653+360.507C427.284+406.313+387.98+441.349+341.866+438.76C295.752+436.172+260.288+396.941+262.657+351.134C265.027+305.328+304.33+270.292+350.445+272.88C396.559+275.468+432.022+314.7+429.653+360.507Z" opacity="1" fill="#339900"/>
</g>
<g opacity="1">
<path d="M294.815+359.796C292.446+405.602+327.909+444.834+374.023+447.422C420.138+450.01+459.442+414.975+461.811+369.168C464.18+323.362+428.717+284.13+382.603+281.542C336.489+278.954+297.184+313.989+294.815+359.796Z" opacity="0.5" fill="#000400"/>
<path d="M307.305+356.421C304.936+402.227+340.399+441.459+386.513+444.047C432.628+446.635+471.932+411.6+474.301+365.793C476.67+319.987+441.207+280.755+395.093+278.167C348.979+275.579+309.674+310.614+307.305+356.421Z" opacity="1" fill="#44aa00"/>
</g>
<g opacity="1">
<path d="M384.035+316.072C381.666+361.878+417.129+401.11+463.243+403.699C509.358+406.287+548.662+371.251+551.031+325.445C553.4+279.639+517.937+240.406+471.823+237.818C425.709+235.23+386.404+270.265+384.035+316.072Z" opacity="0.5" fill="#000000"/>
<path d="M383.616+324.188C381.247+369.995+416.709+409.227+462.824+411.815C508.938+414.403+548.242+379.368+550.611+333.561C552.98+287.755+517.517+248.523+471.403+245.935C425.289+243.346+385.985+278.382+383.616+324.188Z" opacity="1" fill="#009400"/>
</g>
<g opacity="1">
<path d="M471.657+468.254C469.288+514.06+504.751+553.292+550.865+555.88C596.979+558.468+636.283+523.433+638.652+477.626C641.022+431.82+605.559+392.588+559.444+390C513.33+387.412+474.026+422.447+471.657+468.254Z" opacity="0.5" fill="#000000"/>
<path d="M461.549+465.651C459.18+511.457+494.642+550.69+540.757+553.278C586.871+555.866+626.175+520.831+628.544+475.024C630.913+429.218+595.45+389.986+549.336+387.397C503.222+384.809+463.918+419.844+461.549+465.651Z" opacity="1" fill="#2ca02c"/>
</g>
<g opacity="1">
<path d="M433.815+409.135C431.446+454.941+466.909+494.174+513.023+496.762C559.137+499.35+598.442+464.315+600.811+418.508C603.18+372.702+567.717+333.47+521.603+330.882C475.489+328.293+436.184+363.329+433.815+409.135Z" opacity="0.5" fill="#000000"/>
<path d="M425.668+408.678C423.299+454.484+458.762+493.716+504.876+496.304C550.99+498.893+590.295+463.858+592.664+418.051C595.033+372.245+559.57+333.013+513.455+330.424C467.341+327.836+428.037+362.871+425.668+408.678Z" opacity="1" fill="#217821"/>
</g>
<g opacity="1">
<path d="M332.918+368.107C330.403+413.905+365.741+453.247+411.849+455.98C457.955+458.714+497.371+423.803+499.886+378.005C502.401+332.207+467.063+292.865+420.956+290.132C374.85+287.398+335.433+322.309+332.918+368.107Z" opacity="0.5" fill="#000000"/>
<path d="M332.499+376.223C329.984+422.021+365.322+461.364+411.429+464.097C457.535+466.83+496.952+431.92+499.467+386.121C501.982+340.324+466.644+300.981+420.536+298.248C374.43+295.515+335.013+330.425+332.499+376.223Z" opacity="1" fill="#217821"/>
</g>
<g opacity="1">
<path d="M319.695+466.857C317.326+512.664+352.789+551.896+398.904+554.484C445.017+557.072+484.322+522.037+486.691+476.23C489.06+430.424+453.597+391.192+407.483+388.604C361.369+386.015+322.064+421.051+319.695+466.857Z" opacity="0.5" fill="#000000"/>
<path d="M324.189+458.964C321.82+504.77+357.283+544.002+403.397+546.59C449.511+549.179+488.815+514.143+491.184+468.337C493.553+422.53+458.091+383.298+411.976+380.71C365.862+378.122+326.558+413.157+324.189+458.964Z" opacity="1" fill="#006400"/>
</g>
<g opacity="1">
<path d="M539.298+395.529C536.929+441.335+497.626+476.371+451.511+473.783C405.397+471.195+369.934+431.963+372.303+386.157C374.672+340.35+413.975+305.315+460.09+307.903C506.204+310.491+541.667+349.723+539.298+395.529Z" opacity="0.5" fill="#000000"/>
<path d="M543.791+387.642C541.422+433.448+502.119+468.483+456.004+465.895C409.89+463.307+374.427+424.076+376.796+378.269C379.165+332.463+418.469+297.427+464.583+300.015C510.697+302.603+546.16+341.835+543.791+387.642Z" opacity="1" fill="#00ac00"/>
</g>
<g opacity="1">
<path d="M415.115+500.791C412.746+546.597+448.208+585.829+494.323+588.418C540.437+591.006+579.741+555.971+582.11+510.164C584.479+464.358+549.017+425.126+502.902+422.537C456.788+419.949+417.484+454.984+415.115+500.791Z" opacity="0.5" fill="#000000"/>
<path d="M419.713+490.874C417.344+536.681+452.807+575.913+498.921+578.501C545.035+581.089+584.339+546.054+586.709+500.247C589.078+454.441+553.615+415.209+507.5+412.621C461.386+410.032+422.082+445.068+419.713+490.874Z" opacity="1" fill="#007800"/>
</g>
<g opacity="1">
<path d="M382.868+442.912C380.499+488.718+415.961+527.951+462.076+530.539C508.19+533.127+547.494+498.092+549.863+452.285C552.232+406.479+516.77+367.247+470.655+364.659C424.541+362.07+385.237+397.105+382.868+442.912Z" opacity="0.34496" fill="#000000"/>
<path d="M393.501+435.369C391.132+481.175+426.595+520.407+472.709+522.996C518.823+525.584+558.127+490.549+560.496+444.742C562.865+398.936+527.403+359.704+481.288+357.116C435.174+354.527+395.87+389.562+393.501+435.369Z" opacity="1" fill="#009800"/>
</g>
<path d="M290.929+899.661C335.819+881.227+386.71+869.298+390.441+838.19C394.172+807.081+423.255+793.82+443.511+779.486C473.061+758.575+476.953+624.143+467.552+589.548C466.952+587.34+457.084+582.974+443.276+577.692C440.433+576.605+371.385+603.422+368.255+602.268C366.903+601.769+403.633+588.519+412.038+584.619C412.84+584.247+393.865+578.195+394.678+577.821C395.927+577.247+416.966+582.349+418.202+581.785C426.865+577.827+434.611+574.337+433.051+574.444C422.885+575.144+395.072+562.409+364.648+544.047C364.06+543.692+355.256+543.044+344.94+542.34C344.221+542.291+337.826+546.263+337.095+546.213C336.494+546.173+341.56+542.11+340.954+542.07C326.932+541.124+311.751+540.134+310.966+539.651C310.433+539.322+318.187+539.286+327.435+539.301C328.034+539.302+318.937+533.334+319.547+533.335C320.148+533.336+330.456+539.307+331.065+539.308C343.548+539.34+357.095+539.407+356.393+538.966C345.611+532.2+334.673+524.829+324.227+517.189C323.34+516.54+315.644+515.203+306.771+513.747C306.104+513.638+298.058+516.693+297.38+516.583C296.692+516.471+303.372+513.192+302.679+513.079C291.138+511.203+279.076+509.273+277.967+508.446C277.259+507.917+284.368+508.177+292.374+508.527C293.224+508.564+285.214+500.944+286.077+500.983C286.934+501.021+296.664+508.717+297.516+508.755C305.969+509.128+313.798+509.438+313.067+508.886C306.519+503.93+300.178+498.803+294.184+493.731C293.892+493.484+287.743+492.403+280.945+491.23C280.278+491.115+274.287+494.28+273.612+494.164C272.921+494.045+277.547+490.644+276.858+490.525C269.659+489.285+262.886+488.104+262.583+487.846C261.929+487.286+290.923+490.949+290.278+490.392C282.956+484.07+276.231+477.914+270.386+472.372C269.673+471.696+254.244+467.134+253.558+466.477C253.11+466.049+267.397+469.52+266.962+469.1C254.895+457.481+247.362+449.278+247.362+449.278C247.362+449.278+253.237+453.495+260.737+458.965C261.23+459.324+259.018+452.376+259.523+452.746C260.13+453.189+263.456+460.951+264.077+461.406C271.466+466.816+279.744+472.953+285.402+477.37C286.301+478.072+285.398+444.215+286.297+444.918C287.368+445.757+288.026+455.705+288.712+465.021C288.764+465.722+295.371+459.115+295.424+459.804C295.475+460.486+288.971+468.464+289.024+469.127C289.531+475.546+290.088+480.881+290.859+481.486C303.228+491.2+315.975+501.258+329.021+510.722C329.585+511.131+329.839+496.103+330.073+480.067C330.089+478.952+310.99+454.914+311.007+453.795C311.031+452.113+330.038+475.899+330.063+474.233C330.291+458.833+330.679+442.284+331.226+442.673C331.976+443.208+333.173+465.922+334.318+485.958C334.368+486.846+347.123+471.054+347.174+471.928C347.223+472.781+334.568+490.303+334.617+491.139C335.406+504.652+336.148+515.806+336.673+516.173C359.094+531.843+382.332+545.254+405.976+551.765L401.907+525.442L390.481+520.028L372.042+520.189L387.369+518.554L367.862+509.31L353.474+508.539L364.446+507.692L346.132+499.014L373.036+509.714L368.098+494.653L374.87+510.083L400.573+520.665L379.857+484.602L362.182+473.338L377.601+480.673L364.141+457.241L372.715+469.093L371.622+458.684L375.14+472.445L388.646+491.113L391.4+482.37L388.981+472.56L392.32+479.446L396.146+467.298L391.291+493.999L406.514+519.779L408.821+504.909L406.11+496.816L409.317+501.715L411.343+488.659L411.314+509.389L417.95+501.803L411.31+512.275L411.289+526.893L420.13+555.103L470.201+564.427C474.047+548.412+472.013+542.761+469.751+532.343C429.337+499.553+399.386+466.477+366.076+427.356C365.655+426.861+359.86+424.822+352.004+422.191C351.537+422.034+323.841+430.835+323.36+430.675C322.784+430.483+349.42+421.328+348.826+421.131C331.2+415.276+306.298+407.328+305.415+406.274C304.785+405.522+320.179+409.37+334.544+412.921C334.914+413.013+326.014+395.225+326.382+395.316C326.708+395.396+336.302+413.355+336.626+413.436C348.441+416.352+358.974+418.898+358.456+418.27C351.614+409.99+340.235+393.695+327.971+375.498C327.191+374.34+276.366+359.443+275.579+358.27C275.284+357.832+290.258+361.382+303.632+364.626C304.451+364.824+297.297+350.109+298.099+350.305C298.922+350.505+305.559+364.772+306.72+364.987C315.431+366.6+324.025+369.625+324.025+369.625L302.125+336.501L281.737+324.228C281.737+324.228+300.663+333.955+299.816+332.659C291.29+319.63+282.264+306.109+277.727+299.275C283.611+305.317+298.043+325.909+312.004+345.839C312.361+346.348+313.017+343.456+313.743+339.754C313.832+339.297+309.926+328.115+310.018+327.638C310.107+327.174+314.193+337.416+314.282+336.943C315.313+331.504+316.372+325.727+316.861+326.424C317.493+327.326+314.056+348.267+314.682+349.16C325.534+364.629+337.469+381.983+342.022+386.991C342.691+387.727+347.666+354.255+348.334+354.991C348.922+355.639+348.48+364.466+348.016+373.474C347.954+374.679+354.184+366.838+354.124+368.03C354.087+368.759+347.758+378.531+347.723+379.243C347.368+386.47+347.147+392.635+347.635+393.172C360.804+407.676+373.971+422.182+387.433+435.941C388.24+436.766+390.054+427.637+391.964+417.574C392.078+416.975+385.482+398.276+385.597+397.672C385.754+396.838+392.622+414.097+392.78+413.261C394.822+402.461+397.69+392.919+397.69+392.919C397.69+392.919+397.664+399.384+396.62+406.765C396.52+407.474+403.305+401.713+403.198+402.448C403.164+402.684+396.241+409.406+396.206+409.644C394.264+422.94+391.523+439.46+392.621+440.531C407.78+455.329+429.67+478.558+446.15+490.011L457.71+471.624L450.701+494.305L477.814+512.279L477.27+477.606L425.407+388.65L415.47+385.231L398.981+385.523L409.799+383.28L363.3+367.282L396.462+376.013L385.989+356.527L402.118+377.503L423.04+383.011L391.559+332.961L380.638+330.241L363.4+333.707L377.799+329.533L352.328+323.189L373.331+326.345L365.949+315.437L375.914+327.236L389.192+329.515L353.583+273.237L348.014+269.401L337.28+267.231L345.602+267.738L333.535+259.427L350.843+268.906L326.655+230.677L343.459+256.106L341.481+244.795L345.458+259.133L372.661+300.298L373.518+294.464L368.95+280.481L374.045+290.875L376.146+276.571L374.706+303.842L403.722+348.022L406.966+341.016L405.241+328.697L408.12+338.523L414.427+324.902L405.679+350.758L482.521+465.581L484.603+414.814L469.474+397.934L440.456+390.504L466.376+394.523L441.6+358.022L416.82+344.47L439.339+354.69L407.093+307.182L430.908+339.308L431.639+320.099L432.763+341.81L459.483+377.853L461.979+359.813L462.947+382.618L485.185+407.922L483.162+325.904L458.071+300.496L440.157+299.261L422.319+306.197L437.251+299.06L398.763+296.406L427.368+297.118L417.749+282.408L429.169+296.726L455.095+296.999L416.031+261.02L388.718+249.471L411.34+256.17L375.203+218.805L399.913+241.683L399.436+220.143L404.006+245.473L437.207+276.21L435.195+241.155L423.83+223.258L434.853+235.199L433.697+215.049L439.034+250.54L450.16+236.106L440.374+258.595L441.59+279.256L484.448+319.945L484.148+284.302L454.84+250.59L484.073+275.383L483.911+256.063L451.725+210.041L467.951+230.585L466.506+209.82L471.602+235.206L483.866+250.733L483.431+198.992L472.85+174.643L483.386+193.661L483.136+163.885L484.615+210.119L509.726+175.559L495.65+199.12L512.895+193.36L493.341+202.985L485.621+213.69L486.328+263.685L507.43+241.04L486.499+269.005L487.182+290.382L516.81+266.951L510.227+220.594L520.349+263.595L563.992+225.833L540.502+249.793L566.13+247.415L539.104+253.466L488.406+296.596L490.722+372.703L511.453+354.712L511.023+331.428L505.495+315.219L510.936+326.746L510.47+301.509L512.6+336.806L520.671+324.545L512.773+339.674L513.514+351.969L546.468+309.13L546.139+292.176L539.855+276.466L546.054+287.828L545.654+267.27L548.486+306.506L568.82+280.073L568.949+258.945L570.714+277.611L581.933+263.025L559.941+294.676L590.91+279.767L573.463+289.236L585.86+288.449L570.796+290.684L557.822+297.725L525.683+343.979L538.589+341.931L548.242+332.917L541.621+341.45L555.126+339.306L524.833+346.966L491.929+376.554L495.609+463.946L523.089+424.457L513.649+371.633L520.549+396.186L525.416+375.874L522.635+403.606L526.745+418.234L564.147+365.455L563.896+356.262L558.218+344.2L563.808+353.023L562.643+310.207L566.464+343.937L572.336+329.509L567.085+347.929L569.124+361.02L610.857+302.59L610.197+274.838L613.141+298.49L643.684+256.63L627.232+281.443L638.653+273.531L625.387+284.226L595.249+329.679L619.73+318.558L622.411+313.011L622.391+303.332L623.752+310.237L627.617+302.243L621.94+317.147L648.128+305.658L633.554+313.518L643.137+313.917L631.257+314.757L610.896+325.738L639.589+323.431L624.148+325.324L631.991+328.199L621.181+325.688L607.993+327.304L592.05+335.902L541.967+412.79L574.059+398.296L537.813+421.252L500.657+476.211L501.434+509.349L525.296+494.251L535.525+474.237L535.412+454.307L538.431+468.551L548.606+448.642L533.344+489.735C560.413+471.616+583.835+451.429+606.308+430.703C606.709+430.333+605.98+425.787+604.71+419.244C604.596+418.657+591.932+407.223+591.81+406.605C591.693+406.016+604.119+416.243+603.995+415.629C602.515+408.255+600.574+399.177+598.811+390.758C598.602+389.76+586.515+375.629+586.312+374.654C586.144+373.845+597.859+386.188+597.696+385.399C595.426+374.407+593.75+365.611+594.311+365.09C594.969+364.478+602.196+394.513+604.975+405.717C605.126+406.326+615.769+389.105+615.919+389.712C616.211+390.885+606.009+409.877+606.294+411.018C608.502+419.838+610.46+427.268+610.993+426.769C621.353+417.077+640.911+398.234+659.11+380.925C659.489+380.565+660.763+371.737+662.148+361.846C662.228+361.274+652.881+346.726+652.962+346.147C653.112+345.072+662.691+357.961+662.841+356.881C664.413+345.622+665.962+334.568+666.383+334.168C666.639+333.925+666.073+341.447+665.374+350.234C665.345+350.592+672.261+343.385+672.232+343.747C672.194+344.227+665.211+352.277+665.172+352.762C664.242+364.361+663.198+377.041+663.526+376.73C675.022+365.826+685.603+355.914+692.477+349.82C681.075+362.799+663.454+381.741+645.314+400.701C644.888+401.146+661.382+396.414+674.956+392.576C675.567+392.403+681.831+375.32+682.429+375.152C683.295+374.907+676.696+391.479+677.524+391.246C685.078+389.122+690.822+387.552+690.567+387.817C690.296+388.1+686.588+390.082+679.271+392.52C675.843+393.663+672.015+394.927+668.138+396.207C667.123+396.542+682.023+401.336+681.008+401.671C680.411+401.868+663.897+397.607+663.303+397.803C651.726+401.625+641.015+405.183+640.634+405.579C622.482+424.462+604.3+442.854+591.758+454.84C590.767+455.786+608.738+453.756+626.97+451.682C627.554+451.615+643.173+426.846+643.757+426.779C644.604+426.683+630.417+451.29+631.261+451.194C648.507+449.234+664.664+447.443+663.712+448.332C662.508+449.457+634.617+453.776+611.802+457.483C610.943+457.623+628.18+466.5+627.336+466.638C626.562+466.764+607.707+458.151+606.949+458.275C593.628+460.463+583.031+462.322+582.289+462.997C558.716+484.485+533.375+504.502+505.152+522.116C507.689+538.536+505.841+554.069+512.934+564.167L560.279+540.328L558.107+514.325L549.993+498.695L557.612+508.41L556.284+492.508L561.313+520.797L578.79+501.088L562.866+525.845L566.675+538.232C582.367+535.078+596.744+528.092+610.415+519.05C611.225+518.515+611.665+512.984+611.994+505.96C612.035+504.996+594.834+490.559+594.875+489.548C594.907+488.767+612.186+501.42+612.217+500.621C612.682+488.504+613.296+469.397+614.576+468.476C615.562+467.766+616.117+484.094+616.95+494.659C617.044+495.843+631.36+476.432+631.454+477.589C631.537+478.613+617.397+500.21+617.481+501.188C618.086+508.263+618.709+513.789+619.41+513.254C631.399+504.102+643.795+492.987+656.247+481.926C656.65+481.568+657.138+476.188+657.634+470.347C657.705+469.508+651.376+461.578+651.447+460.734C651.518+459.89+657.99+466.131+658.061+465.308C658.513+460.073+658.953+455.549+659.321+455.223C660.36+454.301+660.986+477.725+662.026+476.807C668.128+471.422+674.23+466.123+680.292+461.149C681.214+460.393+689.295+435.68+690.214+434.94C690.832+434.443+684.289+457.913+684.906+457.423C688.627+454.469+707.62+434.034+711.293+431.427C709.883+435.063+687.723+460.276+679.476+468.651C678.782+469.356+699.596+462.873+698.884+463.588C697.924+464.552+675.433+472.717+674.452+473.689C659.782+488.245+643.461+503.277+645.511+503.276C657.124+502.666+666.937+502.171+675.158+501.777C676.307+501.722+692.5+488.232+693.587+488.18C694.74+488.126+680.785+501.512+681.869+501.462C768.169+497.499+641.236+507.158+639.321+508.824C616.719+528.484+590.475+547.801+565.74+556.568C564.25+557.096+579.567+561.366+597.857+566.148C598.337+566.273+606.622+560.945+615.038+555.528C615.697+555.104+619.84+536.39+620.497+535.967C621.693+535.198+617.622+554.305+618.776+553.565C625.357+549.344+632.677+544.265+633.073+544.368C634.013+544.612+602.691+567.405+603.641+567.651C627.67+573.867+654.221+580.37+654.221+580.37C654.221+580.37+561.86+560.768+558.956+563.212C542.972+576.697+518.852+587.006+518.565+589.656C514.384+628.221+514.077+773.419+552.013+787.163C576.418+796.007+582.727+796.035+588.088+828.276C593.449+860.516+649.284+893.374+694.419+915.581C655.28+888.206+595.355+892.36+577.923+843.583C560.49+794.806+555.597+808.041+537.684+805.96C554.914+827.972+555.708+842.14+550.566+862.004C545.424+881.869+546.264+890.669+562.701+914.801C579.137+938.933+579.033+978.526+584.637+1010.24C575.312+977.733+572.575+934.823+550.299+913.925C528.023+893.027+530.012+879.866+536.328+860.221C542.644+840.578+530.201+828.813+513.723+811.333C510.896+829.091+496.534+851.305+513.944+870.853C531.353+890.4+530.898+895.475+511.902+916.783C492.907+938.091+507.085+976.676+510.331+1007.75C505.596+978.301+480.617+944.053+498.11+919.024C515.604+893.994+504.136+888.12+491.491+870.961C478.845+853.803+482.433+831.872+483.274+811.308C470.029+825.573+457.02+838.008+460.59+857.918C464.16+877.828+460.729+889.041+436.537+907.344C412.344+925.647+408.685+959.877+398.097+986.331C403.679+958.122+403.388+923.402+425.847+903.899C448.305+884.397+452.389+869.948+443.874+850.351C435.358+830.754+449.526+821.407+458.059+808.212C438.565+797.05+420.394+801.8+401.719+845.313C383.044+888.826+325.981+880.477+290.925+899.656L290.929+899.661Z" opacity="1" fill="url(#LinearGradient_4)"/>
<path d="M276.417+903.455C321.307+885.021+372.199+873.092+375.929+841.984C379.66+810.875+408.743+797.614+429+783.28C458.55+762.369+462.442+627.937+453.04+593.342C452.44+591.134+442.573+586.768+428.765+581.486C425.922+580.399+356.874+607.216+353.744+606.062C352.392+605.563+389.121+592.313+397.527+588.413C398.329+588.041+379.354+581.989+380.167+581.615C381.416+581.041+402.455+586.144+403.691+585.579C412.354+581.621+420.1+578.131+418.54+578.239C408.374+578.938+380.56+566.203+350.137+547.841C349.548+547.486+340.745+546.838+330.429+546.134C329.71+546.085+323.315+550.057+322.583+550.007C321.983+549.967+327.048+545.905+326.443+545.864C312.421+544.918+297.239+543.928+296.455+543.445C295.922+543.116+303.676+543.08+312.924+543.095C313.523+543.096+304.426+537.128+305.036+537.129C305.637+537.13+315.945+543.101+316.554+543.102C329.036+543.134+342.584+543.201+341.882+542.76C331.099+535.994+320.161+528.623+309.716+520.983C308.828+520.334+301.133+518.997+292.26+517.541C291.593+517.432+283.547+520.487+282.869+520.377C282.181+520.265+288.861+516.986+288.167+516.873C276.627+514.997+264.564+513.067+263.456+512.24C262.748+511.711+269.857+511.971+277.862+512.321C278.713+512.358+270.703+504.738+271.565+504.777C272.422+504.815+282.153+512.511+283.005+512.549C291.458+512.922+299.287+513.233+298.556+512.68C292.008+507.724+285.666+502.597+279.673+497.525C279.381+497.278+273.232+496.197+266.434+495.024C265.767+494.909+259.775+498.074+259.101+497.958C258.41+497.839+263.035+494.438+262.347+494.32C255.148+493.079+248.375+491.899+248.072+491.64C247.418+491.081+276.412+494.743+275.767+494.186C268.445+487.864+261.72+481.708+255.875+476.166C255.162+475.49+239.733+470.928+239.046+470.271C238.599+469.843+252.886+473.314+252.451+472.894C240.383+461.275+232.851+453.072+232.851+453.072C232.851+453.072+238.726+457.289+246.226+462.759C246.718+463.118+244.507+456.17+245.012+456.54C245.618+456.983+248.944+464.745+249.566+465.2C256.955+470.61+265.232+476.747+270.891+481.164C271.79+481.866+270.887+448.009+271.786+448.713C272.856+449.551+273.514+459.499+274.201+468.815C274.252+469.516+280.86+462.909+280.912+463.598C280.964+464.28+274.46+472.258+274.512+472.921C275.02+479.34+275.577+484.675+276.348+485.28C288.716+494.994+301.464+505.052+314.51+514.516C315.074+514.925+315.327+499.897+315.562+483.861C315.578+482.746+296.479+458.708+296.496+457.589C296.52+455.907+315.527+479.693+315.552+478.027C315.78+462.627+316.168+446.078+316.715+446.467C317.465+447.002+318.662+469.716+319.806+489.753C319.857+490.64+332.612+474.848+332.663+475.723C332.712+476.575+320.057+494.097+320.106+494.933C320.895+508.446+321.637+519.6+322.162+519.967C344.583+535.637+367.821+549.048+391.465+555.559L387.396+529.236L375.97+523.822L357.531+523.983L372.858+522.348L353.35+513.104L338.962+512.333L349.935+511.486L331.62+502.808L358.525+513.508L353.587+498.448L360.359+513.877L386.062+524.459L365.346+488.396L347.671+477.132L363.09+484.467L349.629+461.035L358.204+472.887L357.111+462.478L360.629+476.239L374.135+494.907L376.888+486.164L374.47+476.354L377.809+483.24L381.635+471.092L376.78+497.793L392.003+523.573L394.31+508.703L391.599+500.61L394.806+505.509L396.832+492.453L396.803+513.184L403.439+505.597L396.799+516.069L396.778+530.687L405.619+558.897L455.689+568.221C459.535+552.206+457.502+546.555+455.24+536.138C414.825+503.347+384.875+470.271+351.565+431.15C351.144+430.655+345.349+428.616+337.492+425.985C337.026+425.829+309.329+434.629+308.849+434.469C308.273+434.277+334.909+425.122+334.315+424.925C316.689+419.07+291.787+411.122+290.904+410.068C290.274+409.316+305.668+413.165+320.033+416.715C320.403+416.807+311.503+399.019+311.871+399.11C312.197+399.191+321.791+417.149+322.115+417.23C333.93+420.146+344.463+422.692+343.945+422.065C337.103+413.784+325.724+397.49+313.46+379.292C312.679+378.134+261.854+363.237+261.067+362.065C260.773+361.626+275.747+365.176+289.121+368.42C289.939+368.619+282.786+353.903+283.588+354.099C284.411+354.299+291.048+368.566+292.208+368.781C300.92+370.394+309.514+373.419+309.514+373.419L287.616+340.29L267.227+328.019C267.227+328.019+286.153+337.746+285.305+336.449C276.78+323.421+267.753+309.9+263.217+303.066C269.101+309.108+283.533+329.7+297.494+349.629C297.851+350.139+298.507+347.246+299.232+343.545C299.322+343.087+295.416+331.905+295.508+331.428C295.596+330.965+299.683+341.207+299.772+340.734C300.803+335.295+301.862+329.517+302.35+330.215C302.982+331.116+299.546+352.057+300.172+352.951C311.024+368.419+322.959+385.773+327.512+390.782C328.181+391.517+333.155+358.046+333.824+358.782C334.412+359.429+333.97+368.257+333.506+377.265C333.444+378.47+339.674+370.629+339.613+371.821C339.576+372.55+333.247+382.321+333.212+383.034C332.858+390.261+332.637+396.425+333.125+396.962C346.294+411.467+359.461+425.972+372.923+439.732C373.73+440.557+375.544+431.428+377.454+421.365C377.568+420.766+370.972+402.067+371.086+401.463C371.244+400.628+378.112+417.888+378.27+417.052C380.312+406.252+383.18+396.709+383.18+396.709C383.18+396.709+383.153+403.174+382.11+410.555C382.01+411.265+388.794+405.504+388.688+406.239C388.653+406.475+381.73+413.196+381.696+413.435C379.754+426.731+377.012+443.25+378.11+444.322C393.27+459.12+415.16+482.349+431.64+493.802L443.2+475.415L436.191+498.095L463.303+516.07L462.76+481.397L410.897+392.44L400.96+389.022L384.471+389.313L395.289+387.071L348.79+371.073L381.952+379.804L371.479+360.318L387.608+381.293L408.53+386.802L377.048+336.752L366.128+334.031L348.889+337.497L363.288+333.324L337.818+326.979L358.821+330.136L351.439+319.228L361.404+331.027L374.682+333.306L339.073+277.027L333.504+273.191L322.77+271.022L331.092+271.529L319.025+263.218L336.333+272.696L312.145+234.468L328.949+259.897L326.971+248.586L330.948+262.923L358.151+304.089L359.008+298.254L354.439+284.272L359.535+294.666L361.636+280.362L360.196+307.632L389.211+351.813L392.456+344.806L390.73+332.488L393.61+342.313L399.917+328.693L391.169+354.549L468.011+469.372L470.093+418.605L454.963+401.724L425.946+394.295L451.866+398.314L427.09+361.812L402.31+348.26L424.829+358.481L392.583+310.973L416.398+343.099L417.129+323.89L418.253+345.6L444.973+381.644L447.469+363.604L448.436+386.408L470.675+411.713L468.652+329.694L443.561+304.287L425.647+303.051L407.808+309.987L422.74+302.851L384.252+300.197L412.857+300.908L403.238+286.198L414.658+300.517L440.584+300.789L401.52+264.811L374.207+253.262L396.829+259.961L360.691+222.596L385.402+245.473L384.925+223.934L389.495+249.263L422.696+280.001L420.684+244.945L409.319+227.049L420.342+238.99L419.186+218.84L424.523+254.331L435.649+239.896L425.863+262.385L427.079+283.046L469.937+323.736L469.637+288.093L440.329+254.38L469.562+279.173L469.4+259.854L437.214+213.832L453.44+234.375L451.995+213.611L457.091+238.997L469.355+254.523L468.92+202.782L458.339+178.434L468.875+197.452L468.625+167.676L470.104+213.909L495.215+179.35L481.139+202.911L498.384+197.15L478.83+206.776L471.11+217.481L471.817+267.476L492.919+244.83L471.987+272.795L472.671+294.173L502.299+270.741L495.716+224.384L505.837+267.386L549.481+229.624L525.991+253.584L551.619+251.206L524.593+257.256L473.895+300.386L476.211+376.493L496.942+358.502L496.512+335.219L490.984+319.009L496.425+330.536L495.959+305.299L498.089+340.597L506.16+328.335L498.262+343.464L499.003+355.76L531.957+312.92L531.628+295.967L525.343+280.257L531.543+291.618L531.143+271.061L533.975+310.297L554.309+283.863L554.438+262.736L556.203+281.401L567.422+266.815L545.43+298.467L576.398+283.558L558.952+293.026L571.349+292.239L556.285+294.474L543.311+301.516L511.172+347.77L524.078+345.722L533.731+336.708L527.11+345.241L540.615+343.097L510.322+350.757L477.418+380.345L481.098+467.736L508.578+428.247L499.138+375.424L506.038+399.977L510.905+379.665L508.124+407.396L512.234+422.025L549.636+369.246L549.385+360.053L543.707+347.991L549.297+356.814L548.132+313.998L551.953+347.728L557.824+333.3L552.574+351.72L554.613+364.811L596.346+306.381L595.686+278.629L598.63+302.281L629.173+260.421L612.721+285.233L624.142+277.322L610.876+288.016L580.738+333.47L605.219+322.348L607.9+316.802L607.88+307.123L609.241+314.028L613.106+306.033L607.429+320.937L633.617+309.448L619.043+317.309L628.626+317.707L616.746+318.548L596.385+329.529L625.078+327.222L609.637+329.115L617.48+331.99L606.67+329.478L593.482+331.095L577.539+339.693L527.456+416.581L559.548+402.087L523.302+425.042L486.147+480.001L486.923+513.14L510.785+498.042L521.014+478.027L520.901+458.097L523.92+472.342L534.095+452.433L518.833+493.526C545.902+475.407+569.324+455.22+591.797+434.493C592.198+434.124+591.469+429.578+590.199+423.035C590.086+422.447+577.421+411.014+577.299+410.396C577.182+409.807+589.608+420.034+589.484+419.419C588.004+412.046+586.063+402.968+584.3+394.548C584.091+393.551+572.004+379.42+571.802+378.445C571.633+377.636+583.348+389.979+583.185+389.19C580.915+378.198+579.24+369.401+579.8+368.88C580.458+368.269+587.685+398.303+590.464+409.508C590.615+410.117+601.258+392.896+601.408+393.502C601.7+394.675+591.498+413.668+591.783+414.809C593.991+423.629+595.949+431.058+596.482+430.56C606.842+420.868+626.399+402.024+644.599+384.716C644.978+384.356+646.252+375.528+647.637+365.637C647.717+365.065+638.37+350.516+638.451+349.937C638.602+348.862+648.18+361.752+648.331+360.672C649.902+349.413+651.451+338.358+651.872+337.958C652.128+337.715+651.563+345.238+650.863+354.024C650.835+354.382+657.75+347.176+657.722+347.538C657.683+348.018+650.7+356.068+650.661+356.553C649.732+368.152+648.687+380.832+649.016+380.521C660.511+369.616+671.092+359.705+677.966+353.611C666.564+366.59+648.943+385.532+630.803+404.491C630.377+404.937+646.871+400.205+660.445+396.367C661.056+396.194+667.321+379.111+667.918+378.942C668.784+378.698+662.185+395.269+663.013+395.037C670.567+392.913+676.311+391.343+676.057+391.608C675.786+391.891+672.078+393.873+664.761+396.311C661.332+397.453+657.504+398.718+653.627+399.998C652.612+400.333+667.513+405.127+666.497+405.462C665.901+405.659+649.387+401.397+648.793+401.593C637.216+405.416+626.504+408.973+626.123+409.37C607.971+428.253+589.789+446.645+577.247+458.63C576.257+459.577+594.227+457.547+612.459+455.472C613.043+455.406+628.662+430.637+629.246+430.57C630.094+430.474+615.906+455.081+616.75+454.984C633.996+453.025+650.153+451.233+649.201+452.123C647.997+453.247+620.106+457.567+597.291+461.274C596.432+461.413+613.669+470.291+612.826+470.429C612.052+470.555+593.196+461.942+592.438+462.066C579.118+464.253+568.52+466.112+567.779+466.788C544.205+488.276+518.864+508.293+490.641+525.907C493.179+542.326+491.33+557.86+498.423+567.958L545.768+544.119L543.596+518.116L535.482+502.486L543.102+512.201L541.773+496.299L546.803+524.587L564.279+504.879L548.355+529.636L552.164+542.023C567.856+538.869+582.233+531.883+595.904+522.841C596.714+522.305+597.155+516.775+597.483+509.751C597.527+508.787+580.324+494.35+580.365+493.339C580.397+492.558+597.676+505.21+597.707+504.411C598.171+492.294+598.785+473.188+600.065+472.267C601.051+471.557+601.606+487.885+602.44+498.449C602.533+499.634+616.849+480.223+616.943+481.379C617.026+482.404+602.886+504.001+602.97+504.978C603.575+512.054+604.199+517.579+604.899+517.045C616.888+507.892+629.284+496.777+641.736+485.717C642.139+485.359+642.627+479.978+643.123+474.138C643.194+473.299+636.865+465.369+636.936+464.524C637.008+463.68+643.48+469.921+643.551+469.099C644.002+463.863+644.442+459.339+644.81+459.013C645.849+458.092+646.476+481.515+647.515+480.598C653.617+475.212+659.72+469.914+665.781+464.94C666.703+464.184+674.784+439.471+675.703+438.731C676.321+438.233+669.778+461.704+670.395+461.214C674.117+458.26+693.109+437.825+696.782+435.218C695.372+438.854+673.212+464.066+664.966+472.442C664.271+473.147+685.085+466.664+684.373+467.378C683.413+468.342+660.922+476.507+659.941+477.48C645.271+492.035+628.951+507.067+631+507.067C642.613+506.457+652.427+505.961+660.647+505.568C661.797+505.513+677.989+492.022+679.077+491.971C680.23+491.917+666.274+505.303+667.359+505.253C753.659+501.29+626.725+510.949+624.81+512.615C602.209+532.275+575.964+551.591+551.229+560.359C549.739+560.887+565.056+565.157+583.347+569.938C583.826+570.063+592.112+564.736+600.527+559.319C601.186+558.894+605.329+540.181+605.986+539.758C607.182+538.988+603.111+558.096+604.265+557.355C610.846+553.134+618.166+548.056+618.562+548.159C619.502+548.403+588.18+571.195+589.13+571.441C613.159+577.657+639.71+584.16+639.71+584.16C639.71+584.16+547.349+564.559+544.446+567.003C528.461+580.488+504.341+590.797+504.054+593.446C499.873+632.011+499.566+777.209+537.503+790.954C561.908+799.797+568.216+799.826+573.578+832.066C578.938+864.306+634.773+897.165+679.909+919.372C640.769+891.997+580.844+896.151+563.412+847.374C545.979+798.597+541.086+811.832+523.174+809.75C540.403+831.762+541.197+845.931+536.055+865.795C530.913+885.66+531.753+894.46+548.19+918.592C564.626+942.724+564.522+982.316+570.126+1014.03C560.801+981.524+558.064+938.614+535.788+917.716C513.512+896.818+515.501+883.656+521.817+864.012C528.133+844.368+515.691+832.603+499.212+815.124C496.386+832.882+482.023+855.096+499.433+874.643C516.842+894.191+516.387+899.266+497.391+920.574C478.397+941.882+492.574+980.467+495.821+1011.54C491.086+982.091+466.106+947.844+483.6+922.815C501.093+897.784+489.625+891.911+476.98+874.752C464.334+857.593+467.922+835.662+468.763+815.098C455.519+829.364+442.51+841.799+446.08+861.709C449.649+881.618+446.219+892.832+422.026+911.135C397.833+929.438+394.174+963.668+383.586+990.121C389.168+961.912+388.877+927.193+411.336+907.69C433.795+888.188+437.878+873.739+429.363+854.142C420.847+834.544+435.015+825.198+443.549+812.002C424.054+800.841+405.884+805.591+387.208+849.104C368.533+892.617+311.471+884.268+276.414+903.446L276.417+903.455Z" opacity="0.33" fill="#000000"/>
</g>
</g>
</svg>
