<?xml version="1.0" encoding="UTF-8"?>
<!DOCTYPE svg PUBLIC "-//W3C//DTD SVG 1.1//EN"
  "http://www.w3.org/Graphics/SVG/1.1/DTD/svg11.dtd">
<!-- Created with Inkpad (http://www.taptrix.com/) --><svg xmlns:inkpad="http://taptrix.com/inkpad/svg_extensions" height="900pt" xmlns:xlink="http://www.w3.org/1999/xlink" xmlns="http://www.w3.org/2000/svg" width="1440pt" version="1.1" viewBox="0,0,1440,900">
<defs>
<linearGradient y1="422.46" id="LinearGradient" x1="28.926" y2="285.42" x2="-112.07" gradientUnits="userSpaceOnUse" gradientTransform="matrix(-0.695082 0 0 0.645927 553.736 220.597)">
<stop stop-color="#008400" offset="0"/>
<stop stop-color="#00a000" offset="1"/>
</linearGradient>
<linearGradient y1="422.46" id="LinearGradient_2" x1="28.926" y2="285.42" x2="-112.07" gradientUnits="userSpaceOnUse" gradientTransform="matrix(-0.695082 0 0 0.645927 325.664 -8.11093)">
<stop stop-color="#008400" offset="0"/>
<stop stop-color="#00a000" offset="1"/>
</linearGradient>
<linearGradient y1="456.75" id="LinearGradient_3" x1="-53.632" y2="216.93" x2="-135.5" gradientUnits="userSpaceOnUse" gradientTransform="matrix(-0.695082 0 0 0.645927 513.363 60.981)">
<stop stop-color="#006400" offset="0"/>
<stop stop-color="#00a000" offset="1"/>
</linearGradient>
<linearGradient y1="1272.6" id="LinearGradient_4" x1="462.51" y2="323.12" x2="428.25" gradientUnits="userSpaceOnUse" gradientTransform="matrix(0.645927 0 0 0.645927 250.017 60.9791)">
<stop stop-color="#000000" offset="0"/>
<stop stop-color="#986601" offset="0.5"/>
<stop stop-color="#000400" offset="1"/>
</linearGradient>
</defs>
<g id="layer1" inkpad:layerName="layer1">
<g opacity="1">
<g opacity="1">
<path d="M756.381+542.999C753.987+580.135+720.443+608.392+681.459+606.111C642.474+603.83+612.811+571.875+615.205+534.738C617.599+497.602+651.143+469.346+690.128+471.627C729.112+473.908+758.775+505.862+756.381+542.999Z" opacity="0.5" fill="#000000"/>
<path d="M749.474+542.595C747.08+579.731+713.536+607.988+674.551+605.706C635.566+603.426+605.903+571.471+608.297+534.334C610.692+497.198+644.236+468.941+683.221+471.222C722.205+473.503+751.868+505.458+749.474+542.595Z" opacity="1" fill="#015a01"/>
</g>
<g opacity="1">
<path d="M500.457+683.848C498.062+720.984+464.518+749.241+425.534+746.96C386.549+744.678+356.886+712.724+359.28+675.587C361.674+638.451+395.218+610.195+434.203+612.476C473.187+614.757+502.851+646.711+500.457+683.848Z" opacity="0.5" fill="#000400"/>
<path d="M507.818+677.674C505.424+714.81+471.88+743.066+432.895+740.785C393.911+738.504+364.248+706.55+366.642+669.413C369.036+632.277+402.58+604.02+441.565+606.301C480.549+608.582+510.212+640.537+507.818+677.674Z" opacity="1" fill="#006000"/>
</g>
<g opacity="1">
<path d="M403.434+704.646C401.04+741.783+430.703+773.737+469.687+776.018C508.672+778.299+542.216+750.044+544.61+712.907C547.004+675.77+517.342+643.815+478.357+641.534C439.372+639.253+405.828+667.509+403.434+704.646Z" opacity="0.5" fill="#000400"/>
<path d="M407.302+698.268C404.908+735.404+434.57+767.359+473.555+769.64C512.54+771.921+546.084+743.665+548.478+706.528C550.872+669.392+521.21+637.437+482.225+635.156C443.24+632.875+409.696+661.131+407.302+698.268Z" opacity="1" fill="#339900"/>
</g>
<g opacity="1">
<path d="M565.827+723.422C563.433+760.559+593.095+792.513+632.08+794.794C671.064+797.075+704.609+768.819+707.003+731.683C709.397+694.546+679.735+662.591+640.75+660.31C601.765+658.029+568.221+686.285+565.827+723.422Z" opacity="0.5" fill="#000000"/>
<path d="M555.658+719.525C553.263+756.661+582.926+788.616+621.911+790.897C660.895+793.178+694.44+764.922+696.834+727.785C699.228+690.649+669.566+658.694+630.581+656.413C591.596+654.132+558.052+682.388+555.658+719.525Z" opacity="1" fill="url(#LinearGradient)"/>
</g>
<g opacity="1">
<path d="M699.616+488.209C697.222+525.345+663.678+553.602+624.693+551.32C585.709+549.039+556.045+517.085+558.44+479.948C560.834+442.812+594.378+414.555+633.363+416.836C672.347+419.117+702.01+451.072+699.616+488.209Z" opacity="0.5" fill="#000000"/>
<path d="M692.497+491.085C690.103+528.222+656.559+556.478+617.574+554.197C578.59+551.916+548.927+519.962+551.321+482.825C553.715+445.688+587.259+417.432+626.244+419.713C665.228+421.994+694.891+453.948+692.497+491.085Z" opacity="1" fill="#00ac00"/>
</g>
<g opacity="1">
<path d="M659.08+736.679C656.686+773.816+623.142+802.072+584.157+799.791C545.173+797.51+515.51+765.556+517.904+728.419C520.298+691.283+553.842+663.026+592.827+665.307C631.811+667.588+661.474+699.543+659.08+736.679Z" opacity="0.5" fill="#000000"/>
<path d="M656.011+729.895C653.617+767.031+620.073+795.288+581.088+793.007C542.103+790.726+512.44+758.771+514.834+721.635C517.228+684.498+550.773+656.242+589.757+658.523C628.742+660.804+658.405+692.758+656.011+729.895Z" opacity="1" fill="#006400"/>
</g>
<g opacity="1">
<path d="M767.566+610.385C765.171+647.521+731.627+675.778+692.643+673.497C653.658+671.216+623.995+639.261+626.389+602.124C628.783+564.988+662.327+536.732+701.312+539.012C740.297+541.294+769.96+573.248+767.566+610.385Z" opacity="0.5" fill="#000000"/>
<path d="M760.628+609.979C758.234+647.115+724.69+675.372+685.705+673.091C646.721+670.81+617.057+638.855+619.451+601.719C621.845+564.582+655.39+536.326+694.375+538.607C733.359+540.888+763.022+572.842+760.628+609.979Z" opacity="1" fill="#007c00"/>
</g>
<g opacity="1">
<path d="M624.62+474.423C622.227+511.559+588.682+539.816+549.698+537.535C510.713+535.253+481.05+503.299+483.444+466.162C485.838+429.026+519.382+400.77+558.367+403.051C597.351+405.332+627.014+437.286+624.62+474.423Z" opacity="0.5" fill="#000000"/>
<path d="M614.077+477.108C611.683+514.245+578.139+542.501+539.154+540.22C500.17+537.939+470.507+505.985+472.901+468.848C475.295+431.712+508.839+403.455+547.824+405.736C586.808+408.017+616.471+439.971+614.077+477.108Z" opacity="1" fill="#009c00"/>
</g>
<g opacity="1">
<path d="M585.395+487.375C583.002+524.511+549.457+552.767+510.472+550.487C471.488+548.206+441.825+516.251+444.219+479.114C446.613+441.978+480.157+413.721+519.142+416.002C558.127+418.283+587.789+450.238+585.395+487.375Z" opacity="0.5" fill="#000000"/>
<path d="M584.969+493.983C582.575+531.12+549.031+559.376+510.046+557.095C471.062+554.814+441.399+522.86+443.793+485.723C446.187+448.587+479.731+420.33+518.716+422.611C557.7+424.892+587.364+456.846+584.969+493.983Z" opacity="1" fill="#008c00"/>
</g>
<g opacity="1">
<path d="M754.09+697.168C751.696+734.304+718.152+762.561+679.167+760.28C640.183+757.999+610.52+726.045+612.914+688.908C615.308+651.771+648.852+623.515+687.837+625.796C726.821+628.077+756.484+660.031+754.09+697.168Z" opacity="0.5" fill="#000000"/>
<path d="M747.395+693.474C745.001+730.61+711.457+758.867+672.472+756.586C633.487+754.305+603.824+722.35+606.218+685.214C608.612+648.077+642.156+619.821+681.141+622.102C720.126+624.383+749.789+656.337+747.395+693.474Z" opacity="1" fill="#008400"/>
</g>
<g opacity="1">
<path d="M754.898+640.599C752.504+677.735+718.96+705.991+679.975+703.71C640.99+701.429+611.327+669.475+613.721+632.338C616.115+595.202+649.659+566.945+688.644+569.226C727.629+571.507+757.292+603.462+754.898+640.599Z" opacity="0.5" fill="#000000"/>
<path d="M747.799+643.476C745.405+680.613+711.861+708.869+672.876+706.588C633.891+704.307+604.228+672.353+606.622+635.216C609.016+598.079+642.56+569.823+681.545+572.104C720.53+574.385+750.193+606.339+747.799+643.476Z" opacity="1" fill="#007800"/>
</g>
<g opacity="1">
<path d="M722.315+529.201C719.921+566.338+686.377+594.594+647.392+592.313C608.408+590.032+578.744+558.078+581.139+520.941C583.532+483.805+617.077+455.548+656.062+457.829C695.046+460.11+724.709+492.064+722.315+529.201Z" opacity="0.5" fill="#000400"/>
<path d="M715.216+532.079C712.822+569.215+679.278+597.472+640.293+595.191C601.309+592.91+571.645+560.956+574.04+523.819C576.434+486.682+609.978+458.426+648.963+460.707C687.947+462.988+717.61+494.942+715.216+532.079Z" opacity="1" fill="#339900"/>
</g>
<g opacity="1">
<path d="M530.474+490.165C528.08+527.301+557.742+559.256+596.727+561.537C635.711+563.818+669.256+535.562+671.65+498.425C674.044+461.288+644.382+429.334+605.397+427.053C566.412+424.772+532.868+453.028+530.474+490.165Z" opacity="0.5" fill="#000000"/>
<path d="M523.375+493.042C520.981+530.179+550.643+562.133+589.628+564.414C628.612+566.695+662.157+538.439+664.551+501.302C666.945+464.166+637.282+432.211+598.298+429.93C559.313+427.649+525.769+455.905+523.375+493.042Z" opacity="1" fill="#00b000"/>
</g>
<g opacity="1">
<path d="M725.095+694.93C722.701+732.066+689.157+760.323+650.172+758.042C611.188+755.761+581.524+723.807+583.919+686.67C586.313+649.533+619.857+621.277+658.841+623.558C697.826+625.839+727.489+657.793+725.095+694.93Z" opacity="0.5" fill="#000000"/>
<path d="M714.926+691.033C712.532+728.169+678.988+756.425+640.003+754.144C601.019+751.863+571.355+719.909+573.749+682.772C576.143+645.636+609.687+617.379+648.672+619.66C687.657+621.941+717.32+653.896+714.926+691.033Z" opacity="1" fill="#006000"/>
</g>
<g opacity="1">
<path d="M713.799+633.182C711.405+670.319+677.86+698.575+638.876+696.294C599.891+694.013+570.229+662.059+572.622+624.922C575.017+587.786+608.561+559.529+647.545+561.81C686.53+564.091+716.193+596.045+713.799+633.182Z" opacity="0.5" fill="#000400"/>
<path d="M706.649+636.066C704.255+673.203+670.711+701.459+631.726+699.178C592.742+696.897+563.079+664.943+565.473+627.806C567.867+590.67+601.411+562.413+640.396+564.694C679.38+566.975+709.043+598.929+706.649+636.066Z" opacity="1" fill="#009400"/>
</g>
<g opacity="1">
<path d="M694.253+525.385C691.859+562.521+658.314+590.777+619.33+588.496C580.345+586.216+550.682+554.261+553.076+517.124C555.47+479.988+589.014+451.731+627.999+454.012C666.983+456.293+696.647+488.248+694.253+525.385Z" opacity="0.5" fill="#000000"/>
<path d="M690.334+531.76C687.941+568.897+654.396+597.153+615.412+594.872C576.427+592.591+546.764+560.637+549.158+523.5C551.552+486.364+585.096+458.107+624.081+460.388C663.066+462.669+692.729+494.623+690.334+531.76Z" opacity="1" fill="#008400"/>
</g>
<g opacity="1">
<path d="M709.612+577.451C707.218+614.587+673.674+642.844+634.689+640.563C595.705+638.282+566.041+606.328+568.435+569.191C570.829+532.054+604.373+503.798+643.359+506.079C682.343+508.36+712.006+540.314+709.612+577.451Z" opacity="0.5" fill="#000000"/>
<path d="M702.512+580.338C700.118+617.475+666.574+645.731+627.589+643.45C588.605+641.169+558.942+609.215+561.336+572.078C563.73+534.941+597.274+506.685+636.259+508.966C675.243+511.247+704.906+543.201+702.512+580.338Z" opacity="1" fill="#007800"/>
</g>
<g opacity="1">
<path d="M457.344+721.309C454.95+758.445+484.613+790.4+523.598+792.681C562.582+794.962+596.127+766.706+598.521+729.569C600.915+692.433+571.252+660.478+532.267+658.197C493.283+655.916+459.738+684.172+457.344+721.309Z" opacity="0.5" fill="#000000"/>
<path d="M464.444+718.422C462.05+755.558+491.712+787.513+530.697+789.794C569.682+792.075+603.226+763.819+605.62+726.682C608.014+689.546+578.352+657.591+539.367+655.31C500.383+653.029+466.838+681.285+464.444+718.422Z" opacity="1" fill="#008c00"/>
</g>
<g opacity="1">
<path d="M337.914+604.562C335.52+641.698+365.182+673.653+404.167+675.934C443.152+678.215+476.696+649.959+479.09+612.822C481.484+575.685+451.822+543.731+412.837+541.45C373.853+539.169+340.308+567.425+337.914+604.562Z" opacity="0.5" fill="#000400"/>
<path d="M345.013+601.674C342.619+638.811+372.282+670.766+411.267+673.047C450.251+675.328+483.796+647.072+486.19+609.935C488.584+572.798+458.922+540.844+419.937+538.563C380.952+536.282+347.408+564.538+345.013+601.674Z" opacity="1" fill="#007400"/>
</g>
<g opacity="1">
<path d="M393.902+496.45C391.508+533.586+421.17+565.541+460.155+567.822C499.14+570.103+532.684+541.847+535.078+504.71C537.472+467.573+507.81+435.619+468.825+433.338C429.84+431.057+396.296+459.313+393.902+496.45Z" opacity="0.5" fill="#000000"/>
<path d="M398.88+500.048C396.486+537.184+426.148+569.139+465.134+571.42C504.118+573.701+537.662+545.445+540.057+508.308C542.451+471.172+512.788+439.217+473.803+436.936C434.819+434.655+401.274+462.911+398.88+500.048Z" opacity="1" fill="#007c00"/>
</g>
<g opacity="1">
<path d="M496.078+526.05C493.684+563.187+523.346+595.141+562.331+597.422C601.315+599.703+634.86+571.447+637.254+534.311C639.648+497.174+609.986+465.219+571.001+462.938C532.017+460.657+498.472+488.913+496.078+526.05Z" opacity="0.5" fill="#000000"/>
<path d="M492.16+532.426C489.766+569.562+519.428+601.517+558.414+603.798C597.398+606.079+630.942+577.823+633.336+540.686C635.731+503.55+606.068+471.595+567.083+469.314C528.099+467.033+494.554+495.289+492.16+532.426Z" opacity="1" fill="#006c00"/>
</g>
<g opacity="1">
<path d="M342.474+557.835C340.08+594.972+369.743+626.926+408.728+629.208C447.712+631.489+481.257+603.233+483.651+566.096C486.045+528.959+456.382+497.005+417.397+494.724C378.413+492.442+344.868+520.698+342.474+557.835Z" opacity="0.5" fill="#000000"/>
<path d="M349.836+551.661C347.442+588.797+377.104+620.752+416.089+623.033C455.074+625.314+488.618+597.058+491.012+559.921C493.406+522.785+463.744+490.83+424.759+488.549C385.775+486.268+352.23+514.524+349.836+551.661Z" opacity="1" fill="#008000"/>
</g>
<g opacity="1">
<path d="M379.901+540.262C377.507+577.398+407.169+609.353+446.154+611.634C485.138+613.915+518.683+585.659+521.077+548.522C523.471+511.386+493.808+479.431+454.823+477.15C415.839+474.869+382.295+503.125+379.901+540.262Z" opacity="0.5" fill="#000000"/>
<path d="M390.282+540.869C387.888+578.006+417.55+609.961+456.535+612.242C495.52+614.523+529.064+586.267+531.458+549.13C533.852+511.993+504.19+480.039+465.205+477.758C426.22+475.477+392.676+503.732+390.282+540.869Z" opacity="1" fill="url(#LinearGradient_2)"/>
</g>
<g opacity="1">
<path d="M525.728+662.319C523.334+699.456+489.79+727.712+450.805+725.431C411.82+723.15+382.157+691.195+384.551+654.059C386.945+616.922+420.489+588.666+459.474+590.947C498.459+593.228+528.122+625.182+525.728+662.319Z" opacity="0.5" fill="#000400"/>
<path d="M532.827+659.432C530.433+696.568+496.889+724.825+457.904+722.544C418.92+720.263+389.257+688.309+391.651+651.172C394.045+614.035+427.589+585.779+466.574+588.06C505.558+590.341+535.222+622.295+532.827+659.432Z" opacity="1" fill="#339900"/>
</g>
<g opacity="1">
<path d="M535.903+593.833C533.51+630.969+563.172+662.924+602.157+665.205C641.141+667.486+674.686+639.23+677.08+602.093C679.474+564.957+649.812+533.002+610.827+530.721C571.842+528.44+538.298+556.696+535.903+593.833Z" opacity="0.5" fill="#000000"/>
<path d="M532.036+600.211C529.642+637.348+559.304+669.303+598.289+671.584C637.273+673.865+670.818+645.609+673.212+608.472C675.606+571.335+645.944+539.381+606.958+537.1C567.974+534.819+534.43+563.075+532.036+600.211Z" opacity="1" fill="url(#LinearGradient_3)"/>
</g>
<g opacity="1">
<path d="M505.054+584.445C502.66+621.581+469.116+649.838+430.131+647.557C391.147+645.276+361.484+613.321+363.878+576.184C366.272+539.048+399.816+510.791+438.801+513.072C477.785+515.353+507.448+547.308+505.054+584.445Z" opacity="0.5" fill="#000000"/>
<path d="M511.73+588.138C509.336+625.274+475.792+653.531+436.807+651.25C397.822+648.969+368.159+617.014+370.553+579.877C372.947+542.741+406.491+514.484+445.476+516.766C484.461+519.047+514.124+551.001+511.73+588.138Z" opacity="1" fill="#339900"/>
</g>
<g opacity="1">
<path d="M397.681+587.028C395.287+624.165+424.949+656.12+463.934+658.401C502.919+660.682+536.463+632.426+538.857+595.289C541.251+558.152+511.589+526.198+472.604+523.917C433.62+521.635+400.075+549.891+397.681+587.028Z" opacity="0.5" fill="#000400"/>
<path d="M408.274+584.341C405.881+621.477+435.543+653.432+474.528+655.713C513.512+657.994+547.057+629.738+549.451+592.601C551.845+555.465+522.182+523.51+483.198+521.229C444.213+518.948+410.669+547.204+408.274+584.341Z" opacity="1" fill="#44aa00"/>
</g>
<g opacity="1">
<path d="M473.522+551.924C471.128+589.06+500.79+621.015+539.775+623.296C578.76+625.577+612.304+597.321+614.698+560.184C617.092+523.048+587.43+491.093+548.445+488.812C509.46+486.531+475.916+514.787+473.522+551.924Z" opacity="0.5" fill="#000000"/>
<path d="M473.098+558.504C470.704+595.64+500.366+627.595+539.351+629.876C578.335+632.157+611.88+603.901+614.274+566.764C616.668+529.628+587.006+497.673+548.021+495.392C509.036+493.111+475.492+521.367+473.098+558.504Z" opacity="1" fill="#009400"/>
</g>
<g opacity="1">
<path d="M546.342+675.679C543.948+712.816+573.611+744.77+612.596+747.051C651.58+749.332+685.125+721.076+687.519+683.94C689.913+646.803+660.25+614.848+621.265+612.567C582.281+610.286+548.736+638.542+546.342+675.679Z" opacity="0.5" fill="#000000"/>
<path d="M537.814+673.529C535.42+710.665+565.082+742.62+604.067+744.901C643.052+747.182+676.596+718.926+678.99+681.789C681.384+644.653+651.722+612.698+612.737+610.417C573.752+608.136+540.208+636.392+537.814+673.529Z" opacity="1" fill="#2ca02c"/>
</g>
<g opacity="1">
<path d="M514.837+627.589C512.443+664.725+542.105+696.68+581.09+698.961C620.074+701.242+653.619+672.986+656.013+635.849C658.407+598.713+628.744+566.758+589.76+564.477C550.775+562.196+517.23+590.452+514.837+627.589Z" opacity="0.5" fill="#000000"/>
<path d="M507.949+627.186C505.555+664.322+535.218+696.277+574.202+698.558C613.187+700.839+646.731+672.583+649.125+635.446C651.519+598.31+621.857+566.355+582.872+564.074C543.888+561.793+510.343+590.049+507.949+627.186Z" opacity="1" fill="#217821"/>
</g>
<g opacity="1">
<path d="M429.84+593.919C427.323+631.048+456.879+663.092+495.857+665.49C534.833+667.889+568.472+639.734+570.989+602.605C573.507+565.476+543.95+533.432+504.973+531.034C465.996+528.635+432.358+556.79+429.84+593.919Z" opacity="0.5" fill="#000000"/>
<path d="M429.416+600.499C426.899+637.628+456.455+669.672+495.432+672.07C534.409+674.469+568.048+646.314+570.565+609.185C573.082+572.056+543.526+540.013+504.549+537.614C465.572+535.215+431.933+563.37+429.416+600.499Z" opacity="1" fill="#217821"/>
</g>
<g opacity="1">
<path d="M417.814+673.947C415.42+711.083+445.083+743.038+484.068+745.319C523.052+747.6+556.597+719.344+558.991+682.207C561.385+645.071+531.722+613.116+492.737+610.835C453.753+608.554+420.208+636.81+417.814+673.947Z" opacity="0.5" fill="#000000"/>
<path d="M421.683+667.563C419.289+704.7+448.951+736.654+487.936+738.935C526.92+741.216+560.465+712.961+562.859+675.824C565.253+638.687+535.591+606.732+496.606+604.451C457.621+602.17+424.077+630.426+421.683+667.563Z" opacity="1" fill="#006400"/>
</g>
<g opacity="1">
<path d="M604.177+616.972C601.783+654.108+568.239+682.365+529.254+680.084C490.27+677.803+460.607+645.848+463.001+608.712C465.395+571.575+498.939+543.319+537.924+545.6C576.908+547.881+606.571+579.835+604.177+616.972Z" opacity="0.5" fill="#000000"/>
<path d="M608.045+610.593C605.651+647.73+572.107+675.986+533.122+673.705C494.138+671.424+464.475+639.47+466.868+602.333C469.263+565.196+502.807+536.94+541.791+539.221C580.776+541.502+610.439+573.456+608.045+610.593Z" opacity="1" fill="#00ac00"/>
</g>
<g opacity="1">
<path d="M498.238+701.842C495.844+738.978+525.506+770.933+564.491+773.214C603.476+775.495+637.02+747.239+639.414+710.102C641.808+672.966+612.146+641.011+573.161+638.73C534.176+636.449+500.632+664.705+498.238+701.842Z" opacity="0.5" fill="#000000"/>
<path d="M502.212+693.818C499.818+730.954+529.48+762.909+568.465+765.19C607.45+767.471+640.994+739.215+643.388+702.078C645.782+664.942+616.12+632.987+577.135+630.706C538.151+628.425+504.606+656.681+502.212+693.818Z" opacity="1" fill="#007800"/>
</g>
<g opacity="1">
<path d="M471.454+654.778C469.06+691.915+498.723+723.869+537.708+726.151C576.692+728.431+610.236+700.176+612.63+663.039C615.024+625.902+585.362+593.948+546.377+591.667C507.392+589.386+473.848+617.641+471.454+654.778Z" opacity="0.34496" fill="#000000"/>
<path d="M480.512+648.703C478.118+685.84+507.781+717.795+546.766+720.076C585.75+722.357+619.295+694.101+621.689+656.964C624.083+619.827+594.42+587.873+555.435+585.592C516.451+583.311+482.906+611.566+480.512+648.703Z" opacity="1" fill="#009800"/>
</g>
<path d="M389.795+1024.81C427.923+1010.04+471.073+1000.56+474.493+975.352C477.914+950.14+502.627+939.501+519.884+927.957C545.057+911.116+549.494+802.116+541.837+774.025C541.348+772.232+533.038+768.652+521.403+764.315C519.008+763.422+460.374+784.895+457.736+783.947C456.597+783.538+487.778+772.938+494.921+769.808C495.603+769.51+479.604+764.527+480.295+764.227C481.356+763.766+499.109+767.987+500.159+767.535C507.521+764.359+514.103+761.559+512.782+761.641C504.177+762.168+480.759+751.73+455.182+736.72C454.686+736.43+447.245+735.869+438.525+735.258C437.917+735.215+432.474+738.411+431.856+738.368C431.349+738.333+435.668+735.058+435.156+735.023C423.303+734.201+410.47+733.338+409.81+732.943C409.362+732.674+415.922+732.675+423.744+732.724C424.251+732.727+416.607+727.852+417.123+727.855C417.631+727.858+426.3+732.741+426.815+732.744C437.373+732.82+448.832+732.927+448.242+732.567C439.179+727.038+429.989+721.017+421.219+714.781C420.474+714.25+413.976+713.136+406.483+711.92C405.919+711.828+399.088+714.275+398.515+714.183C397.934+714.089+403.613+711.456+403.027+711.362C393.281+709.795+383.094+708.182+382.164+707.507C381.569+707.076+387.58+707.315+394.349+707.63C395.068+707.663+388.357+701.453+389.087+701.487C389.811+701.522+397.976+707.801+398.697+707.835C405.844+708.171+412.464+708.454+411.85+708.003C406.354+703.958+401.033+699.775+396.007+695.639C395.762+695.437+390.569+694.536+384.829+693.558C384.266+693.462+379.171+696.005+378.601+695.908C378.018+695.809+381.959+693.07+381.378+692.971C375.299+691.936+369.58+690.952+369.326+690.741C368.778+690.285+393.272+693.37+392.731+692.916C386.591+687.76+380.955+682.741+376.058+678.224C375.461+677.673+362.449+673.912+361.874+673.377C361.499+673.028+373.554+675.899+373.189+675.557C363.081+666.087+356.779+659.405+356.779+659.405C356.779+659.405+361.714+662.848+368.011+667.313C368.424+667.607+366.613+661.964+367.037+662.265C367.546+662.627+370.293+668.935+370.815+669.306C377.019+673.723+383.968+678.732+388.717+682.336C389.472+682.909+388.996+655.449+389.75+656.024C390.649+656.708+391.121+664.778+391.622+672.336C391.66+672.903+397.306+667.572+397.344+668.131C397.381+668.684+391.812+675.128+391.851+675.666C392.226+680.874+392.651+685.202+393.298+685.695C403.677+693.622+414.375+701.829+425.329+709.555C425.803+709.888+426.145+697.703+426.48+684.7C426.503+683.796+410.553+664.227+410.576+663.32C410.611+661.956+426.486+681.32+426.521+679.969C426.845+667.481+427.315+654.062+427.774+654.38C428.404+654.818+429.223+673.241+430.02+689.494C430.055+690.214+440.979+677.458+441.014+678.168C441.049+678.859+430.195+693.018+430.229+693.696C430.781+704.657+431.314+713.706+431.755+714.005C450.587+726.801+470.129+737.769+490.074+743.142L486.856+721.78L477.237+717.344L461.638+717.402L474.617+716.136L458.195+708.564L446.031+707.881L455.32+707.237L439.902+700.128L462.569+708.911L458.52+696.679L464.117+709.218L485.768+717.9L468.552+688.574L453.697+679.37L466.677+685.379L455.491+666.324L462.643+675.969L461.807+667.524L464.665+678.697L475.931+693.889L478.335+686.81L476.372+678.845L479.138+684.442L482.477+674.606L478.144+696.239L490.801+717.206L492.879+705.156L490.655+698.582L493.326+702.568L495.151+691.988L494.949+708.799L500.627+702.674L494.922+711.139L494.78+722.993L502.018+745.905L544.291+753.664C547.681+740.692+546.009+736.101+544.184+727.644C510.278+700.894+485.226+673.953+457.383+642.097C457.031+641.694+452.146+640.017+445.523+637.853C445.13+637.724+421.628+644.752+421.222+644.62C420.736+644.461+443.345+637.143+442.845+636.981C427.985+632.163+406.989+625.62+406.251+624.761C405.725+624.149+418.713+627.331+430.834+630.267C431.146+630.343+423.77+615.883+424.08+615.958C424.355+616.024+432.317+630.625+432.591+630.692C442.56+633.103+451.448+635.21+451.014+634.699C445.298+627.958+435.811+614.698+425.593+599.893C424.942+598.951+382.078+586.669+381.422+585.716C381.177+585.359+393.812+588.297+405.098+590.98C405.788+591.145+399.862+579.183+400.54+579.345C401.234+579.511+406.727+591.106+407.706+591.285C415.062+592.628+422.305+595.115+422.305+595.115L404.063+568.167L386.921+558.134C386.921+558.134+402.848+566.096+402.142+565.042C395.041+554.443+387.521+543.443+383.742+537.883C388.667+542.806+400.7+559.562+412.34+575.778C412.637+576.193+413.216+573.85+413.862+570.851C413.941+570.48+410.733+561.397+410.814+561.01C410.893+560.635+414.262+568.957+414.342+568.573C415.26+564.167+416.205+559.486+416.613+560.053C417.139+560.787+414.054+577.755+414.577+578.482C423.624+591.069+433.571+605.189+437.38+609.269C437.939+609.868+442.433+582.744+442.991+583.344C443.484+583.871+443.035+591.028+442.565+598.331C442.502+599.308+447.839+592.974+447.778+593.941C447.74+594.531+442.303+602.43+442.268+603.008C441.907+608.867+441.667+613.865+442.076+614.303C453.091+626.117+464.105+637.932+475.375+649.143C476.05+649.816+477.663+642.42+479.364+634.267C479.465+633.781+474.046+618.592+474.147+618.103C474.288+617.426+479.95+631.45+480.091+630.773C481.91+622.022+484.417+614.295+484.417+614.295C484.417+614.295+484.34+619.538+483.394+625.519C483.304+626.094+489.092+621.449+488.995+622.045C488.964+622.236+483.051+627.659+483.019+627.853C481.264+638.627+478.804+652.013+479.724+652.886C492.421+664.946+510.739+683.869+524.581+693.223L534.516+678.357L528.394+696.722L551.175+711.405L551.01+683.286L507.898+610.943L499.522+608.131L485.573+608.303L494.742+606.527L455.546+593.37L483.522+600.581L474.83+584.738L488.294+601.811L505.944+606.361L479.742+565.649L470.527+563.4L455.917+566.143L468.132+562.816L446.641+557.57L464.38+560.213L458.229+551.337L466.557+560.946L477.769+562.846L448.128+517.067L443.45+513.934L434.389+512.132L441.424+512.577L431.288+505.789L445.848+513.544L425.713+482.448L439.71+503.135L438.134+493.955L441.376+505.598L464.035+539.087L464.81+534.36L461.064+523.003L465.286+531.451L467.185+519.86L465.735+541.969L489.902+577.911L492.705+572.242L491.351+562.246L493.703+570.225L499.154+559.204L491.535+580.138L555.555+673.555L557.748+632.395L545.094+618.646L520.612+612.507L542.503+615.868L521.857+586.17L501.011+575.082L519.973+583.459L493.101+544.806L512.972+570.952L513.754+555.378L514.52+572.988L536.815+602.323L539.079+587.703L539.703+606.2L558.299+626.808L557.286+560.288L536.279+539.585L521.137+538.513L505.989+544.067L518.68+538.339L486.147+536.034L510.337+536.724L502.326+524.758L511.864+536.414L533.792+536.737L501.054+507.407L478.05+497.933L497.128+503.455L466.879+473.012L487.586+491.662L487.366+474.193L491.016+494.751L518.838+519.809L517.434+491.373L507.974+476.815L517.196+486.542L516.389+470.197L520.602+498.999L530.135+487.338L521.667+505.536L522.519+522.295L558.425+555.461L558.475+526.556L533.971+499.102L558.487+519.323L558.515+503.655L531.681+466.208L545.232+482.931L544.186+466.086L548.281+486.693L558.522+499.332L558.595+457.372L549.852+437.586L558.602+453.049L558.644+428.902L559.501+466.4L581.036+438.474L568.929+457.524L583.565+452.921L566.943+460.65L560.322+469.3L560.494+509.846L578.537+491.565L560.593+514.16L560.989+531.498L586.25+512.614L581.077+474.996L589.272+509.907L626.51+479.457L606.437+498.794L628.135+496.967L605.223+501.767L561.972+536.542L563.282+598.269L580.971+583.762L580.806+564.879L576.268+551.712L580.773+561.081L580.593+540.614L582.094+569.246L589.025+559.335L582.216+571.572L582.738+581.545L610.978+546.936L610.843+533.186L605.662+520.422L610.809+529.66L610.646+512.987L612.707+544.816L630.132+523.461L630.421+506.328L631.755+521.472L641.37+509.688L622.497+535.268L648.819+523.3L633.982+530.91L644.474+530.32L631.713+532.073L620.679+537.732L593.1+575.115L604.034+573.504L612.275+566.233L606.603+573.126L618.044+571.441L592.355+577.533L564.27+601.397L566.639+672.28L590.22+640.366L582.685+597.492L588.313+617.43L592.602+600.978L590.013+623.455L593.366+635.334L625.452+592.682L625.319+585.226L620.618+575.422L625.271+582.599L624.65+547.874L627.595+575.241L632.685+563.564L628.087+578.481L629.7+589.105L665.498+541.887L665.176+519.379L667.465+538.572L693.657+504.746L679.53+524.803L689.257+518.432L677.945+527.052L652.065+563.793L672.867+554.871L675.183+550.384L675.248+542.534L676.341+548.139L679.678+541.671L674.749+553.735L696.998+544.522L684.603+550.838L692.706+551.2L682.65+551.834L665.334+560.659L689.624+558.901L676.547+560.375L683.157+562.738L674.034+560.658L662.865+561.917L649.306+568.827L606.288+630.98L633.556+619.353L602.702+637.825L570.805+682.247L571.18+709.123L591.492+696.973L600.315+680.784L600.389+664.621L602.822+676.184L611.598+660.08L598.338+693.343C621.389+678.757+641.373+662.479+660.559+645.76C660.901+645.462+660.323+641.773+659.305+636.461C659.214+635.985+648.599+626.663+648.501+626.161C648.407+625.683+658.83+634.026+658.732+633.527C657.542+627.542+655.977+620.172+654.557+613.338C654.389+612.528+644.285+601.021+644.123+600.229C643.987+599.573+653.791+609.628+653.66+608.988C651.834+600.065+650.491+592.925+650.97+592.505C651.531+592.011+657.389+616.396+659.645+625.493C659.767+625.987+668.916+612.064+669.038+612.557C669.275+613.509+660.483+628.871+660.715+629.797C662.507+636.958+664.1+642.991+664.556+642.589C673.401+634.77+690.105+619.566+705.646+605.602C705.97+605.312+707.123+598.158+708.379+590.142C708.451+589.679+700.669+577.844+700.743+577.375C700.879+576.504+708.871+586.994+709.008+586.119C710.433+576.995+711.837+568.037+712.197+567.714C712.415+567.517+711.873+573.616+711.207+580.738C711.179+581.028+717.091+575.212+717.063+575.505C717.026+575.894+711.051+582.394+711.014+582.788C710.129+592.19+709.138+602.469+709.418+602.217C719.234+593.42+728.269+585.424+734.136+580.51C724.38+590.99+709.314+606.281+693.809+621.584C693.444+621.944+707.436+618.172+718.951+615.113C719.469+614.975+724.914+601.147+725.42+601.012C726.155+600.818+720.432+614.23+721.134+614.044C727.542+612.352+732.414+611.102+732.196+611.316C731.965+611.544+728.812+613.136+722.602+615.085C719.692+615.998+716.443+617.008+713.153+618.031C712.292+618.298+724.854+622.245+723.993+622.512C723.486+622.67+709.554+619.149+709.05+619.305C699.225+622.359+690.134+625.202+689.808+625.522C674.293+640.763+658.757+655.606+648.046+665.276C647.2+666.04+662.418+664.464+677.858+662.854C678.353+662.802+691.775+642.778+692.269+642.726C692.987+642.651+680.777+662.55+681.492+662.475C696.096+660.954+709.778+659.565+708.965+660.283C707.937+661.19+684.308+664.583+664.978+667.499C664.25+667.609+678.755+674.876+678.04+674.984C677.384+675.083+661.508+668.024+660.866+668.122C649.58+669.843+640.6+671.309+639.968+671.854C619.844+689.186+598.239+705.318+574.216+719.491C576.222+732.816+574.526+745.405+580.44+753.622L620.691+734.477L619.075+713.382L612.345+700.675L618.708+708.583L617.719+695.682L621.732+718.643L636.683+702.729L623.002+722.743L626.119+732.803C639.419+730.307+651.64+724.698+663.281+717.42C663.97+716.989+664.39+712.506+664.728+706.811C664.771+706.029+650.344+694.254+650.388+693.435C650.421+692.802+664.929+703.13+664.962+702.482C665.459+692.658+666.141+677.166+667.231+676.425C668.071+675.853+668.402+689.095+669.016+697.666C669.085+698.627+681.361+682.942+681.43+683.881C681.491+684.712+669.347+702.169+669.41+702.963C669.861+708.703+670.341+713.186+670.939+712.755C681.158+705.381+691.738+696.416+702.365+687.496C702.708+687.207+703.167+682.846+703.636+678.112C703.703+677.431+698.418+670.976+698.485+670.291C698.553+669.607+703.974+674.694+704.041+674.027C704.468+669.783+704.878+666.116+705.193+665.853C706.079+665.11+706.409+684.107+707.296+683.368C712.504+679.024+717.711+674.752+722.881+670.742C723.667+670.133+730.713+650.124+731.497+649.528C732.024+649.127+726.289+668.134+726.815+667.739C729.988+665.358+746.227+648.862+749.356+646.762C748.132+649.705+729.174+670.063+722.127+676.823C721.533+677.392+739.195+672.216+738.586+672.793C737.766+673.571+718.672+680.103+717.834+680.888C705.301+692.634+691.368+704.759+693.102+704.767C702.93+704.318+711.235+703.955+718.191+703.668C719.164+703.628+732.976+692.753+733.897+692.715C734.872+692.676+722.953+703.476+723.872+703.44C796.904+700.567+689.452+707.898+687.818+709.241C668.533+725.095+646.169+740.656+625.172+747.668C623.907+748.091+636.827+751.614+652.257+755.563C652.662+755.667+659.716+751.379+666.88+747.019C667.441+746.678+671.105+731.519+671.665+731.179C672.682+730.559+669.076+746.038+670.059+745.442C675.662+742.045+681.897+737.956+682.23+738.041C683.024+738.242+656.335+756.602+657.136+756.805C677.409+761.941+699.812+767.319+699.812+767.319C699.812+767.319+621.854+751.059+619.377+753.029C605.742+763.902+585.252+772.166+584.986+774.314C581.121+805.571+579.625+923.315+611.597+934.611C632.165+941.879+637.501+941.927+641.761+968.093C646.022+994.259+692.97+1021.13+730.96+1039.31C698.086+1016.96+647.362+1020.09+633.033+980.466C618.702+940.843+614.451+951.556+599.317+949.798C613.703+967.716+614.253+979.208+609.735+995.297C605.216+1011.39+605.852+1018.53+619.55+1038.16C633.247+1057.79+632.822+1089.9+637.292+1115.64C629.681+1089.24+627.731+1054.44+609.067+1037.4C590.402+1020.37+592.197+1009.7+597.707+993.795C603.217+977.89+592.792+968.3+579.003+954.06C576.46+968.45+564.122+986.407+578.682+1002.33C593.242+1018.25+592.813+1022.36+576.564+1039.57C560.316+1056.77+571.979+1088.12+574.461+1113.33C570.706+1089.43+549.869+1061.56+564.879+1041.33C579.89+1021.1+570.239+1016.29+559.689+1002.33C549.139+988.362+552.36+970.592+553.247+953.919C541.922+965.436+530.812+975.468+533.662+991.628C536.512+1007.79+533.515+1016.87+512.895+1031.61C492.275+1046.36+488.889+1074.1+479.707+1095.52C484.669+1072.66+484.719+1044.5+503.882+1028.78C523.045+1013.05+526.623+1001.35+519.587+985.425C512.551+969.499+524.614+961.976+531.945+951.309C515.55+942.181+500.14+945.961+483.972+981.173C467.805+1016.39+419.609+1009.39+389.792+1024.8L389.795+1024.81Z" opacity="1" fill="url(#LinearGradient_4)"/>
<path d="M377.488+1027.83C415.616+1013.06+458.766+1003.58+462.186+978.371C465.607+953.159+490.32+942.52+507.577+930.976C532.75+914.135+537.188+805.135+529.53+777.044C529.041+775.251+520.731+771.671+509.096+767.334C506.701+766.441+448.067+787.915+445.429+786.967C444.29+786.557+475.471+775.957+482.614+772.828C483.296+772.529+467.297+767.547+467.988+767.246C469.049+766.786+486.802+771.007+487.852+770.554C495.214+767.379+501.796+764.579+500.475+764.66C491.871+765.187+468.452+754.75+442.874+739.74C442.379+739.449+434.938+738.888+426.218+738.277C425.61+738.234+420.167+741.43+419.549+741.387C419.042+741.352+423.361+738.078+422.849+738.042C410.996+737.22+398.163+736.357+397.503+735.962C397.056+735.694+403.615+735.695+411.437+735.743C411.944+735.746+404.3+730.871+404.816+730.874C405.324+730.878+413.993+735.76+414.508+735.764C425.066+735.839+436.525+735.946+435.935+735.587C426.872+730.057+417.682+724.036+408.912+717.8C408.167+717.27+401.669+716.156+394.176+714.939C393.612+714.848+386.781+717.294+386.208+717.202C385.628+717.108+391.306+714.476+390.72+714.382C380.974+712.815+370.787+711.202+369.857+710.527C369.262+710.095+375.273+710.334+382.042+710.649C382.761+710.683+376.05+704.472+376.78+704.507C377.504+704.541+385.669+710.82+386.39+710.854C393.537+711.191+400.157+711.473+399.543+711.022C394.046+706.978+388.726+702.795+383.7+698.658C383.455+698.457+378.262+697.556+372.522+696.577C371.959+696.482+366.864+699.025+366.295+698.928C365.711+698.829+369.652+696.089+369.071+695.99C362.992+694.956+357.274+693.972+357.019+693.761C356.471+693.305+380.965+696.389+380.424+695.935C374.284+690.78+368.649+685.761+363.751+681.243C363.154+680.692+350.141+676.932+349.567+676.397C349.192+676.047+361.247+678.919+360.883+678.576C350.774+669.107+344.473+662.425+344.473+662.425C344.473+662.425+349.407+665.867+355.704+670.333C356.117+670.626+354.306+664.983+354.73+665.285C355.239+665.646+357.986+671.954+358.508+672.325C364.712+676.742+371.662+681.751+376.411+685.356C377.165+685.928+376.69+658.469+377.444+659.043C378.342+659.727+378.814+667.797+379.315+675.355C379.353+675.923+384.999+670.591+385.037+671.15C385.075+671.704+379.505+678.148+379.544+678.686C379.919+683.893+380.344+688.221+380.991+688.715C391.37+696.641+402.068+704.848+413.022+712.574C413.496+712.908+413.838+700.722+414.173+687.719C414.196+686.815+398.246+667.247+398.269+666.339C398.304+664.976+414.179+684.339+414.215+682.988C414.538+670.501+415.008+657.082+415.467+657.4C416.097+657.837+416.916+676.261+417.713+692.514C417.749+693.234+428.672+680.478+428.707+681.187C428.742+681.879+417.888+696.038+417.922+696.716C418.475+707.677+419.007+716.725+419.448+717.025C438.28+729.82+457.822+740.788+477.767+746.161L474.549+724.799L464.93+720.364L449.331+720.421L462.31+719.156L445.888+711.583L433.724+710.901L443.013+710.257L427.595+703.147L450.262+711.93L446.213+699.698L451.81+712.237L473.461+720.92L456.245+691.593L441.39+682.389L454.37+688.398L443.184+669.344L450.336+678.989L449.501+670.543L452.359+681.716L463.624+696.908L466.028+689.829L464.066+681.864L466.831+687.462L470.171+677.626L465.837+699.259L478.494+720.225L480.572+708.175L478.348+701.602L481.019+705.588L482.844+695.008L482.643+711.819L488.32+705.693L482.615+714.159L482.473+726.013L489.711+748.924L531.984+756.683C535.374+743.711+533.702+739.12+531.877+730.664C497.971+703.913+472.919+676.972+445.076+645.116C444.724+644.713+439.839+643.037+433.217+640.872C432.823+640.743+409.321+647.771+408.915+647.639C408.43+647.481+431.038+640.162+430.538+640C415.678+635.182+394.682+628.639+393.944+627.78C393.418+627.169+406.407+630.35+418.527+633.286C418.839+633.362+411.463+618.902+411.773+618.977C412.048+619.044+420.01+633.645+420.284+633.712C430.253+636.123+439.141+638.23+438.708+637.718C432.991+630.977+423.504+617.718+413.286+602.913C412.635+601.97+369.771+589.689+369.115+588.735C368.87+588.378+381.506+591.316+392.791+594C393.481+594.164+387.556+582.203+388.232+582.364C388.927+582.53+394.42+594.126+395.399+594.305C402.755+595.647+409.998+598.134+409.998+598.134L391.758+571.182L374.615+561.15C374.615+561.15+390.542+569.113+389.836+568.058C382.735+557.46+375.215+546.459+371.436+540.899C376.361+545.823+388.394+562.578+400.034+578.795C400.331+579.209+400.91+576.866+401.556+573.868C401.635+573.497+398.427+564.414+398.508+564.027C398.587+563.652+401.956+571.973+402.036+571.59C402.954+567.183+403.899+562.503+404.307+563.07C404.833+563.804+401.748+580.772+402.271+581.499C411.318+594.086+421.265+608.206+425.074+612.285C425.633+612.884+430.127+585.761+430.686+586.36C431.178+586.888+430.729+594.045+430.259+601.347C430.196+602.325+435.533+595.991+435.472+596.957C435.434+597.548+429.998+605.447+429.962+606.025C429.601+611.884+429.361+616.882+429.77+617.32C440.785+629.134+451.799+640.949+463.069+652.16C463.744+652.832+465.357+645.436+467.058+637.283C467.159+636.798+461.74+621.608+461.841+621.119C461.982+620.443+467.644+634.466+467.785+633.789C469.604+625.039+472.111+617.312+472.111+617.312C472.111+617.312+472.034+622.555+471.088+628.536C470.997+629.111+476.786+624.466+476.689+625.061C476.658+625.253+470.745+630.676+470.713+630.869C468.958+641.644+466.498+655.029+467.418+655.903C480.115+667.963+498.433+686.886+512.275+696.239L522.21+681.374L516.089+699.739L538.869+714.422L538.704+686.302L495.592+613.96L487.216+611.148L473.267+611.319L482.436+609.544L443.24+596.387L471.217+603.598L462.524+587.755L475.988+604.828L493.638+609.378L467.436+568.666L458.221+566.417L443.611+569.16L455.826+565.832L434.335+560.586L452.074+563.229L445.923+554.354L454.251+563.962L465.463+565.863L435.822+520.084L431.144+516.951L422.083+515.149L429.118+515.593L418.982+508.806L433.541+516.561L413.407+485.465L427.404+506.152L425.828+496.972L429.07+508.614L451.729+542.104L452.504+537.376L448.758+526.019L452.98+534.468L454.879+522.877L453.429+544.986L477.596+580.928L480.399+575.259L479.045+565.262L481.397+573.242L486.848+562.221L479.229+583.154L543.248+676.572L545.442+635.411L532.788+621.663L508.306+615.523L530.198+618.885L509.551+589.186L488.705+578.099L507.667+586.476L480.795+547.823L500.666+573.969L501.448+558.395L502.214+576.005L524.509+605.339L526.773+590.72L527.398+609.217L545.993+629.824L544.981+563.305L523.973+542.602L508.83+541.53L493.682+547.084L506.373+541.355L473.84+539.051L498.03+539.741L490.019+527.774L499.557+539.431L521.485+539.754L488.748+510.424L465.743+500.95L484.822+506.472L454.572+476.029L475.279+494.679L475.059+477.21L478.709+497.768L506.531+522.825L505.127+494.39L495.667+479.832L504.889+489.559L504.083+473.214L508.295+502.016L517.829+490.354L509.36+508.553L510.212+525.312L546.118+558.478L546.168+529.573L521.665+502.118L546.181+522.339L546.208+506.672L519.374+469.224L532.925+485.947L531.879+469.103L535.974+489.71L546.215+502.349L546.288+460.389L537.545+440.602L546.296+456.066L546.338+431.919L547.195+469.417L568.73+441.491L556.622+460.541L571.258+455.938L554.636+463.666L548.016+472.317L548.187+512.862L566.23+494.582L548.286+517.177L548.683+534.515L573.943+515.631L568.77+478.012L576.965+512.924L614.203+482.474L594.13+501.811L615.828+499.984L592.916+504.784L549.665+539.559L550.976+601.286L568.665+586.778L568.499+567.895L563.962+554.728L568.466+564.097L568.287+543.63L569.787+572.263L576.719+562.351L569.909+574.589L570.432+584.562L598.671+549.952L598.537+536.203L593.355+523.438L598.502+532.676L598.339+516.004L600.4+547.833L617.825+526.477L618.114+509.345L619.448+524.488L629.063+512.704L610.19+538.285L636.513+526.317L621.675+533.927L632.168+533.337L619.407+535.09L608.372+540.749L580.793+578.131L591.727+576.521L599.969+569.25L594.296+576.143L605.737+574.458L580.048+580.55L551.964+604.414L554.332+675.297L577.913+643.383L570.378+600.509L576.006+620.447L580.295+603.995L577.706+626.472L581.059+638.351L613.145+595.698L613.012+588.243L608.311+578.438L612.964+585.616L612.344+550.89L615.288+578.258L620.378+566.581L615.78+581.498L617.393+592.122L653.192+544.904L652.869+522.396L655.159+541.588L681.351+507.763L667.223+527.819L676.951+521.449L665.638+530.069L639.758+566.809L660.561+557.888L662.876+553.4L662.942+545.551L664.034+551.156L667.372+544.688L662.442+556.752L684.692+547.539L672.297+553.855L680.4+554.216L670.344+554.851L653.027+563.676L677.318+561.918L664.24+563.392L670.85+565.754L661.728+563.675L650.558+564.934L636.999+571.844L593.981+633.997L621.25+622.37L590.395+640.842L558.498+685.263L558.873+712.139L579.186+699.99L588.009+683.8L588.082+667.638L590.515+679.201L599.291+663.097L586.031+696.36C609.082+681.773+629.067+665.496+648.253+648.776C648.594+648.478+648.017+644.789+646.999+639.478C646.907+639.001+636.292+629.679+636.194+629.178C636.1+628.7+646.524+637.043+646.425+636.543C645.236+630.558+643.671+623.189+642.251+616.354C642.083+615.545+631.979+604.038+631.816+603.246C631.681+602.589+641.485+612.645+641.354+612.005C639.528+603.081+638.185+595.942+638.663+595.521C639.225+595.028+645.082+619.413+647.338+628.51C647.461+629.004+656.609+615.081+656.731+615.574C656.968+616.526+648.177+631.887+648.408+632.814C650.201+639.975+651.794+646.008+652.249+645.605C661.094+637.787+677.798+622.583+693.34+608.619C693.663+608.328+694.816+601.174+696.073+593.159C696.145+592.695+688.363+580.861+688.436+580.392C688.572+579.52+696.565+590.011+696.701+589.135C698.126+580.011+699.531+571.053+699.891+570.73C700.109+570.534+699.566+576.632+698.9+583.755C698.873+584.045+704.784+578.228+704.757+578.522C704.72+578.911+698.745+585.411+698.707+585.804C697.823+595.207+696.831+605.485+697.112+605.234C706.928+596.437+715.963+588.441+721.829+583.527C712.074+594.006+697.007+609.298+681.502+624.601C681.138+624.96+695.13+621.189+706.644+618.129C707.163+617.992+712.607+604.163+713.114+604.029C713.848+603.834+708.126+617.246+708.828+617.061C715.236+615.369+720.108+614.118+719.89+614.332C719.659+614.56+716.505+616.153+710.295+618.101C707.386+619.014+704.137+620.025+700.846+621.047C699.985+621.315+712.548+625.261+711.687+625.529C711.18+625.686+697.247+622.165+696.744+622.322C686.918+625.376+677.827+628.219+677.502+628.539C661.987+643.78+646.451+658.622+635.74+668.292C634.894+669.057+650.112+667.481+665.551+665.871C666.046+665.819+679.468+645.795+679.963+645.743C680.68+645.668+668.47+665.567+669.185+665.492C683.789+663.971+697.472+662.582+696.659+663.3C695.63+664.207+672.002+667.599+652.672+670.515C651.944+670.625+666.448+677.893+665.734+678.001C665.078+678.1+649.202+671.041+648.56+671.139C637.274+672.86+628.293+674.325+627.661+674.87C607.538+692.203+585.932+708.335+561.909+722.507C563.916+735.832+562.22+748.422+568.133+756.639L608.384+737.494L606.768+716.398L600.039+703.691L606.401+711.6L605.413+698.699L609.426+721.659L624.376+705.746L610.696+725.759L613.812+735.819C627.113+733.324+639.333+727.715+650.974+720.437C651.664+720.006+652.084+715.523+652.421+709.828C652.466+709.046+638.038+697.271+638.081+696.451C638.115+695.818+652.623+706.147+652.656+705.499C653.152+695.675+653.834+680.183+654.924+679.441C655.765+678.869+656.095+692.112+656.71+700.683C656.779+701.644+669.054+685.959+669.123+686.897C669.185+687.729+657.04+705.186+657.103+705.979C657.555+711.719+658.035+716.203+658.632+715.772C668.851+708.398+679.432+699.433+690.058+690.513C690.402+690.224+690.861+685.863+691.33+681.129C691.397+680.448+686.111+673.992+686.179+673.308C686.247+672.624+691.667+677.71+691.735+677.044C692.161+672.8+692.572+669.133+692.886+668.87C693.772+668.127+694.103+687.124+694.99+686.384C700.198+682.041+705.405+677.769+710.574+673.759C711.36+673.149+718.406+653.141+719.19+652.544C719.717+652.143+713.983+671.15+714.508+670.756C717.682+668.374+733.921+651.878+737.05+649.779C735.826+652.722+716.867+673.08+709.82+679.839C709.227+680.408+726.888+675.233+726.28+675.81C725.46+676.588+706.365+683.12+705.527+683.905C692.995+695.651+679.061+707.776+680.795+707.784C690.623+707.335+698.928+706.972+705.885+706.685C706.858+706.645+720.67+695.769+721.59+695.732C722.566+695.693+710.647+706.492+711.565+706.456C784.597+703.584+677.146+710.915+675.512+712.258C656.226+728.112+633.863+743.673+612.865+750.685C611.601+751.107+624.52+754.63+639.951+758.58C640.356+758.683+647.409+754.396+654.574+750.036C655.135+749.695+658.799+734.536+659.358+734.195C660.376+733.576+656.77+749.055+657.753+748.459C663.355+745.062+669.59+740.972+669.924+741.057C670.717+741.259+644.029+759.619+644.83+759.822C665.103+764.957+687.506+770.336+687.506+770.336C687.506+770.336+609.547+754.076+607.071+756.046C593.435+766.918+572.945+775.183+572.68+777.33C568.814+808.588+567.318+926.332+599.291+937.628C619.859+944.896+625.194+944.944+629.455+971.11C633.715+997.276+680.664+1024.14+718.653+1042.33C685.78+1019.98+635.056+1023.11+620.726+983.483C606.395+943.859+602.144+954.573+587.01+952.814C601.396+970.732+601.947+982.225+597.429+998.314C592.91+1014.4+593.546+1021.54+607.243+1041.18C620.941+1060.81+620.516+1092.92+624.986+1118.66C617.375+1092.26+615.425+1057.45+596.76+1040.42C578.096+1023.38+579.89+1012.72+585.4+996.811C590.91+980.906+580.486+971.317+566.696+957.077C564.154+971.466+551.816+989.424+566.376+1005.34C580.935+1021.26+580.507+1025.38+564.258+1042.58C548.009+1059.79+559.673+1091.13+562.154+1116.35C558.4+1092.44+537.562+1064.57+552.573+1044.35C567.583+1024.12+557.933+1019.31+547.382+1005.34C536.832+991.379+540.054+973.609+540.94+956.936C529.616+968.452+518.506+978.485+521.356+994.645C524.206+1010.8+521.209+1019.88+500.589+1034.63C479.969+1049.38+476.582+1077.12+467.401+1098.53C472.363+1075.68+472.412+1047.52+491.576+1031.8C510.739+1016.07+514.316+1004.37+507.28+988.442C500.244+972.516+512.308+964.993+519.638+954.326C503.244+945.197+487.833+948.978+471.665+984.19C455.499+1019.4+407.302+1012.41+377.486+1027.82L377.488+1027.83Z" opacity="0.33" fill="#000000"/>
</g>
</g>
</svg>
