<?xml version="1.0" encoding="UTF-8"?>
<!DOCTYPE svg PUBLIC "-//W3C//DTD SVG 1.1//EN"
  "http://www.w3.org/Graphics/SVG/1.1/DTD/svg11.dtd">
<!-- Created with Inkpad (http://www.taptrix.com/) --><svg xmlns:inkpad="http://taptrix.com/inkpad/svg_extensions" height="780pt" xmlns:xlink="http://www.w3.org/1999/xlink" xmlns="http://www.w3.org/2000/svg" width="972pt" version="1.1" viewBox="0,0,972,780">
<defs>
<linearGradient y1="422.46" id="LinearGradient" x1="28.926" y2="285.42" x2="-112.07" gradientUnits="userSpaceOnUse" gradientTransform="matrix(-0 -0.695082 -0.645927 0 751.403 553.736)">
<stop stop-color="#008400" offset="0"/>
<stop stop-color="#00a000" offset="1"/>
</linearGradient>
<linearGradient y1="422.46" id="LinearGradient_2" x1="28.926" y2="285.42" x2="-112.07" gradientUnits="userSpaceOnUse" gradientTransform="matrix(-0 -0.695082 -0.645927 0 980.111 325.664)">
<stop stop-color="#008400" offset="0"/>
<stop stop-color="#00a000" offset="1"/>
</linearGradient>
<linearGradient y1="456.75" id="LinearGradient_3" x1="-53.632" y2="216.93" x2="-135.5" gradientUnits="userSpaceOnUse" gradientTransform="matrix(-0 -0.695082 -0.645927 0 911.019 513.363)">
<stop stop-color="#006400" offset="0"/>
<stop stop-color="#00a000" offset="1"/>
</linearGradient>
<linearGradient y1="1272.6" id="LinearGradient_4" x1="462.51" y2="323.12" x2="428.25" gradientUnits="userSpaceOnUse" gradientTransform="matrix(0 0.645927 -0.645927 0 911.021 250.017)">
<stop stop-color="#000000" offset="0"/>
<stop stop-color="#986601" offset="0.5"/>
<stop stop-color="#000400" offset="1"/>
</linearGradient>
</defs>
<g id="layer1" inkpad:layerName="layer1">
<g opacity="1">
<g opacity="1">
<path d="M574.033+624.815C573.232+640.814+559.943+653.052+544.351+652.148C528.759+651.244+516.768+637.541+517.569+621.542C518.37+605.542+531.659+593.305+547.251+594.209C562.843+595.113+574.834+608.816+574.033+624.815Z" opacity="0.5" fill="#000000"/>
<path d="M571.27+624.655C570.469+640.654+557.18+652.892+541.588+651.987C525.996+651.083+514.005+637.381+514.806+621.381C515.607+605.382+528.897+593.145+544.489+594.049C560.081+594.953+572.071+608.656+571.27+624.655Z" opacity="1" fill="#015a01"/>
</g>
<g opacity="1">
<path d="M472.329+685.992C471.528+701.992+458.239+714.229+442.647+713.325C427.055+712.421+415.065+698.718+415.866+682.719C416.667+666.72+429.956+654.482+445.548+655.386C461.14+656.29+473.13+669.993+472.329+685.992Z" opacity="0.5" fill="#000400"/>
<path d="M475.246+683.318C474.445+699.318+461.156+711.555+445.564+710.651C429.972+709.747+417.981+696.044+418.782+680.045C419.583+664.046+432.872+651.808+448.464+652.712C464.056+653.616+476.047+667.319+475.246+683.318Z" opacity="1" fill="#006000"/>
</g>
<g opacity="1">
<path d="M433.636+695.145C432.835+711.145+444.826+724.847+460.418+725.752C476.01+726.656+489.299+714.419+490.1+698.419C490.901+682.42+478.91+668.717+463.318+667.813C447.726+666.909+434.437+679.146+433.636+695.145Z" opacity="0.5" fill="#000400"/>
<path d="M435.155+692.39C434.354+708.39+446.345+722.092+461.937+722.997C477.529+723.901+490.818+711.663+491.619+695.664C492.42+679.665+480.43+665.962+464.838+665.058C449.246+664.154+435.956+676.391+435.155+692.39Z" opacity="1" fill="#339900"/>
</g>
<g opacity="1">
<path d="M498.624+702.905C497.823+718.904+509.814+732.608+525.406+733.512C540.998+734.416+554.287+722.178+555.088+706.179C555.889+690.18+543.899+676.477+528.307+675.573C512.715+674.669+499.425+686.906+498.624+702.905Z" opacity="0.5" fill="#000000"/>
<path d="M494.543+701.247C493.742+717.246+505.733+730.949+521.325+731.853C536.917+732.757+550.206+720.52+551.007+704.521C551.808+688.522+539.818+674.819+524.226+673.915C508.634+673.011+495.344+685.248+494.543+701.247Z" opacity="1" fill="url(#LinearGradient)"/>
</g>
<g opacity="1">
<path d="M551.113+601.332C550.312+617.331+537.023+629.568+521.431+628.664C505.839+627.76+493.849+614.058+494.65+598.058C495.451+582.059+508.74+569.822+524.332+570.726C539.924+571.63+551.914+585.332+551.113+601.332Z" opacity="0.5" fill="#000000"/>
<path d="M548.28+602.585C547.479+618.584+534.19+630.821+518.598+629.917C503.006+629.013+491.015+615.311+491.816+599.311C492.617+583.312+505.906+571.075+521.498+571.979C537.09+572.883+549.081+586.586+548.28+602.585Z" opacity="1" fill="#00ac00"/>
</g>
<g opacity="1">
<path d="M535.954+708.428C535.153+724.427+521.864+736.664+506.272+735.76C490.68+734.856+478.689+721.153+479.49+705.154C480.291+689.155+493.58+676.918+509.173+677.822C524.764+678.725+536.755+692.428+535.954+708.428Z" opacity="0.5" fill="#000000"/>
<path d="M534.699+705.512C533.898+721.511+520.609+733.748+505.016+732.844C489.425+731.94+477.434+718.237+478.235+702.238C479.036+686.239+492.325+674.002+507.917+674.906C523.509+675.81+535.5+689.512+534.699+705.512Z" opacity="1" fill="#006400"/>
</g>
<g opacity="1">
<path d="M578.786+653.815C577.985+669.815+564.696+682.052+549.104+681.148C533.512+680.244+521.521+666.541+522.322+650.542C523.123+634.542+536.412+622.305+552.005+623.209C567.596+624.113+579.587+637.816+578.786+653.815Z" opacity="0.5" fill="#000000"/>
<path d="M576.011+653.655C575.21+669.654+561.921+681.891+546.329+680.987C530.737+680.083+518.747+666.38+519.548+650.381C520.349+634.382+533.638+622.144+549.23+623.048C564.822+623.952+576.812+637.655+576.011+653.655Z" opacity="1" fill="#007c00"/>
</g>
<g opacity="1">
<path d="M521.079+595.545C520.278+611.544+506.989+623.782+491.397+622.878C475.805+621.974+463.814+608.271+464.616+592.271C465.416+576.272+478.706+564.035+494.298+564.939C509.89+565.843+521.88+579.546+521.079+595.545Z" opacity="0.5" fill="#000000"/>
<path d="M516.876+596.723C516.075+612.722+502.786+624.959+487.194+624.056C471.602+623.151+459.612+609.449+460.413+593.449C461.214+577.45+474.503+565.213+490.095+566.117C505.687+567.021+517.677+580.724+516.876+596.723Z" opacity="1" fill="#009c00"/>
</g>
<g opacity="1">
<path d="M505.455+601.202C504.654+617.202+491.365+629.439+475.773+628.535C460.181+627.631+448.19+613.928+448.991+597.929C449.792+581.93+463.082+569.692+478.674+570.596C494.266+571.5+506.256+585.203+505.455+601.202Z" opacity="0.5" fill="#000000"/>
<path d="M505.313+604.05C504.512+620.049+491.222+632.286+475.63+631.382C460.038+630.478+448.048+616.775+448.849+600.776C449.65+584.777+462.939+572.539+478.531+573.443C494.123+574.347+506.114+588.05+505.313+604.05Z" opacity="1" fill="#008c00"/>
</g>
<g opacity="1">
<path d="M573.764+691.219C572.963+707.219+559.674+719.456+544.082+718.552C528.49+717.648+516.499+703.945+517.3+687.946C518.101+671.946+531.391+659.709+546.983+660.613C562.575+661.517+574.565+675.22+573.764+691.219Z" opacity="0.5" fill="#000000"/>
<path d="M571.073+689.642C570.271+705.641+556.982+717.878+541.39+716.974C525.798+716.07+513.808+702.367+514.609+686.368C515.41+670.369+528.699+658.131+544.291+659.035C559.883+659.94+571.874+673.642+571.073+689.642Z" opacity="1" fill="#008400"/>
</g>
<g opacity="1">
<path d="M573.85+666.854C573.049+682.853+559.759+695.09+544.167+694.186C528.575+693.282+516.585+679.579+517.386+663.58C518.187+647.581+531.476+635.344+547.068+636.248C562.66+637.152+574.651+650.854+573.85+666.854Z" opacity="0.5" fill="#000000"/>
<path d="M571.024+668.107C570.223+684.106+556.934+696.344+541.342+695.44C525.75+694.536+513.759+680.833+514.56+664.834C515.361+648.834+528.651+636.597+544.243+637.501C559.834+638.405+571.825+652.108+571.024+668.107Z" opacity="1" fill="#007800"/>
</g>
<g opacity="1">
<path d="M560.358+618.941C559.557+634.941+546.268+647.178+530.676+646.274C515.084+645.37+503.094+631.667+503.895+615.668C504.696+599.669+517.985+587.431+533.577+588.335C549.169+589.239+561.159+602.942+560.358+618.941Z" opacity="0.5" fill="#000400"/>
<path d="M557.533+620.195C556.732+636.194+543.443+648.431+527.851+647.527C512.259+646.623+500.268+632.921+501.069+616.921C501.87+600.922+515.159+588.685+530.751+589.589C546.343+590.493+558.334+604.196+557.533+620.195Z" opacity="1" fill="#339900"/>
</g>
<g opacity="1">
<path d="M483.514+602.514C482.713+618.514+494.704+632.217+510.296+633.12C525.888+634.025+539.177+621.787+539.978+605.788C540.779+589.789+528.789+576.086+513.197+575.182C497.605+574.278+484.315+586.515+483.514+602.514Z" opacity="0.5" fill="#000000"/>
<path d="M480.689+603.768C479.888+619.767+491.878+633.47+507.47+634.374C523.062+635.278+536.352+623.041+537.153+607.042C537.954+591.043+525.963+577.34+510.371+576.436C494.779+575.532+481.49+587.769+480.689+603.768Z" opacity="1" fill="#00b000"/>
</g>
<g opacity="1">
<path d="M562.165+690.314C561.364+706.313+548.075+718.55+532.483+717.646C516.891+716.742+504.9+703.039+505.701+687.04C506.503+671.041+519.792+658.804+535.384+659.707C550.976+660.611+562.966+674.314+562.165+690.314Z" opacity="0.5" fill="#000000"/>
<path d="M558.084+688.656C557.283+704.655+543.994+716.892+528.402+715.988C512.81+715.084+500.819+701.381+501.62+685.382C502.421+669.383+515.711+657.145+531.303+658.049C546.895+658.953+558.885+672.656+558.084+688.656Z" opacity="1" fill="#006000"/>
</g>
<g opacity="1">
<path d="M557.391+663.742C556.59+679.741+543.301+691.979+527.709+691.075C512.117+690.171+500.126+676.468+500.927+660.469C501.728+644.469+515.017+632.232+530.609+633.136C546.201+634.04+558.192+647.743+557.391+663.742Z" opacity="0.5" fill="#000400"/>
<path d="M554.545+664.999C553.744+680.998+540.455+693.235+524.863+692.331C509.271+691.427+497.281+677.725+498.082+661.725C498.883+645.726+512.172+633.489+527.764+634.393C543.356+635.297+555.346+648.999+554.545+664.999Z" opacity="1" fill="#009400"/>
</g>
<g opacity="1">
<path d="M549.126+617.354C548.325+633.353+535.036+645.59+519.443+644.686C503.851+643.783+491.861+630.08+492.662+614.08C493.463+598.081+506.752+585.844+522.344+586.748C537.936+587.652+549.927+601.355+549.126+617.354Z" opacity="0.5" fill="#000000"/>
<path d="M547.586+620.108C546.785+636.107+533.496+648.344+517.904+647.44C502.312+646.536+490.322+632.834+491.123+616.834C491.924+600.835+505.213+588.598+520.805+589.502C536.397+590.406+548.387+604.109+547.586+620.108Z" opacity="1" fill="#008400"/>
</g>
<g opacity="1">
<path d="M555.483+639.748C554.682+655.747+541.393+667.984+525.801+667.08C510.209+666.176+498.219+652.473+499.02+636.474C499.821+620.475+513.11+608.237+528.702+609.141C544.294+610.046+556.284+623.748+555.483+639.748Z" opacity="0.5" fill="#000000"/>
<path d="M552.658+641.005C551.857+657.005+538.568+669.242+522.975+668.338C507.384+667.434+495.393+653.731+496.194+637.732C496.995+621.733+510.284+609.495+525.876+610.399C541.468+611.303+553.459+625.006+552.658+641.005Z" opacity="1" fill="#007800"/>
</g>
<g opacity="1">
<path d="M455.254+702.214C454.453+718.213+466.444+731.916+482.036+732.82C497.628+733.724+510.917+721.487+511.718+705.487C512.519+689.488+500.529+675.785+484.937+674.881C469.345+673.977+456.055+686.214+455.254+702.214Z" opacity="0.5" fill="#000000"/>
<path d="M458.08+700.956C457.279+716.955+469.269+730.658+484.862+731.562C500.453+732.466+513.743+720.229+514.544+704.229C515.345+688.23+503.354+674.527+487.762+673.623C472.17+672.719+458.881+684.956+458.08+700.956Z" opacity="1" fill="#008c00"/>
</g>
<g opacity="1">
<path d="M407.027+652.172C406.226+668.171+418.217+681.874+433.809+682.778C449.401+683.682+462.69+671.445+463.491+655.445C464.292+639.446+452.301+625.743+436.709+624.839C421.118+623.935+407.828+636.172+407.027+652.172Z" opacity="0.5" fill="#000400"/>
<path d="M409.853+650.914C409.052+666.913+421.042+680.616+436.634+681.52C452.226+682.424+465.516+670.187+466.317+654.188C467.118+638.188+455.127+624.485+439.535+623.581C423.943+622.677+410.654+634.914+409.853+650.914Z" opacity="1" fill="#007400"/>
</g>
<g opacity="1">
<path d="M428.952+605.496C428.151+621.495+440.141+635.198+455.734+636.102C471.325+637.006+484.615+624.769+485.416+608.77C486.217+592.771+474.226+579.068+458.634+578.164C443.042+577.26+429.753+589.497+428.952+605.496Z" opacity="0.5" fill="#000000"/>
<path d="M430.957+607.036C430.156+623.035+442.146+636.738+457.739+637.642C473.33+638.546+486.62+626.309+487.421+610.31C488.222+594.31+476.231+580.607+460.639+579.703C445.047+578.799+431.758+591.036+430.957+607.036Z" opacity="1" fill="#007c00"/>
</g>
<g opacity="1">
<path d="M469.917+618.039C469.116+634.038+481.106+647.741+496.698+648.645C512.29+649.549+525.58+637.312+526.38+621.313C527.182+605.314+515.191+591.611+499.599+590.707C484.007+589.803+470.718+602.04+469.917+618.039Z" opacity="0.5" fill="#000000"/>
<path d="M468.377+620.793C467.576+636.792+479.567+650.495+495.159+651.399C510.751+652.303+524.04+640.066+524.841+624.067C525.642+608.068+513.652+594.365+498.06+593.461C482.468+592.557+469.178+604.794+468.377+620.793Z" opacity="1" fill="#006c00"/>
</g>
<g opacity="1">
<path d="M408.654+632.038C407.853+648.037+419.843+661.74+435.435+662.644C451.027+663.548+464.317+651.311+465.118+635.312C465.919+619.312+453.928+605.609+438.336+604.705C422.744+603.801+409.455+616.038+408.654+632.038Z" opacity="0.5" fill="#000000"/>
<path d="M411.57+629.364C410.769+645.363+422.76+659.066+438.352+659.97C453.944+660.874+467.233+648.637+468.034+632.637C468.835+616.638+456.845+602.935+441.253+602.031C425.661+601.127+412.371+613.364+411.57+629.364Z" opacity="1" fill="#008000"/>
</g>
<g opacity="1">
<path d="M423.54+624.394C422.739+640.393+434.729+654.096+450.321+655C465.913+655.904+479.202+643.667+480.003+627.667C480.804+611.668+468.814+597.965+453.222+597.061C437.63+596.157+424.341+608.394+423.54+624.394Z" opacity="0.5" fill="#000000"/>
<path d="M427.692+624.635C426.891+640.634+438.881+654.337+454.473+655.241C470.065+656.145+483.354+643.908+484.155+627.908C484.956+611.909+472.966+598.206+457.374+597.302C441.782+596.398+428.493+608.635+427.692+624.635Z" opacity="1" fill="url(#LinearGradient_2)"/>
</g>
<g opacity="1">
<path d="M482.34+676.669C481.539+692.669+468.25+704.906+452.658+704.002C437.066+703.098+425.075+689.395+425.876+673.396C426.677+657.397+439.966+645.159+455.558+646.063C471.15+646.967+483.141+660.67+482.34+676.669Z" opacity="0.5" fill="#000400"/>
<path d="M485.166+675.412C484.365+691.411+471.076+703.648+455.483+702.744C439.892+701.84+427.901+688.137+428.702+672.138C429.503+656.139+442.792+643.902+458.384+644.806C473.976+645.71+485.967+659.412+485.166+675.412Z" opacity="1" fill="#339900"/>
</g>
<g opacity="1">
<path d="M486.12+647.153C485.319+663.152+497.309+676.855+512.901+677.759C528.493+678.663+541.783+666.426+542.584+650.426C543.385+634.427+531.394+620.724+515.802+619.82C500.21+618.916+486.921+631.153+486.12+647.153Z" opacity="0.5" fill="#000000"/>
<path d="M484.601+649.908C483.8+665.907+495.79+679.61+511.382+680.514C526.974+681.418+540.263+669.181+541.064+653.181C541.865+637.182+529.875+623.479+514.283+622.575C498.691+621.671+485.402+633.908+484.601+649.908Z" opacity="1" fill="url(#LinearGradient_3)"/>
</g>
<g opacity="1">
<path d="M473.75+643.171C472.949+659.17+459.66+671.408+444.068+670.504C428.476+669.6+416.485+655.897+417.286+639.898C418.087+623.898+431.376+611.661+446.968+612.565C462.56+613.469+474.551+627.172+473.75+643.171Z" opacity="0.5" fill="#000000"/>
<path d="M476.434+644.748C475.633+660.747+462.343+672.985+446.751+672.081C431.159+671.177+419.169+657.474+419.97+641.475C420.771+625.475+434.06+613.238+449.652+614.142C465.244+615.046+477.235+628.749+476.434+644.748Z" opacity="1" fill="#339900"/>
</g>
<g opacity="1">
<path d="M430.843+644.5C430.042+660.499+442.032+674.202+457.624+675.106C473.216+676.01+486.506+663.773+487.307+647.774C488.108+631.774+476.117+618.072+460.525+617.167C444.933+616.264+431.644+628.501+430.843+644.5Z" opacity="0.5" fill="#000400"/>
<path d="M435.066+643.321C434.265+659.32+446.255+673.023+461.847+673.927C477.439+674.831+490.729+662.594+491.53+646.595C492.331+630.596+480.34+616.893+464.748+615.989C449.156+615.085+435.867+627.322+435.066+643.321Z" opacity="1" fill="#44aa00"/>
</g>
<g opacity="1">
<path d="M461.01+629.228C460.209+645.227+472.199+658.93+487.791+659.834C503.383+660.738+516.672+648.501+517.473+632.502C518.274+616.503+506.284+602.8+490.692+601.896C475.1+600.992+461.811+613.229+461.01+629.228Z" opacity="0.5" fill="#000000"/>
<path d="M460.868+632.063C460.067+648.062+472.057+661.765+487.649+662.669C503.241+663.573+516.53+651.336+517.331+635.337C518.132+619.338+506.142+605.635+490.55+604.731C474.958+603.827+461.669+616.064+460.868+632.063Z" opacity="1" fill="#009400"/>
</g>
<g opacity="1">
<path d="M490.636+682.382C489.835+698.381+501.825+712.084+517.417+712.988C533.009+713.892+546.299+701.655+547.1+685.656C547.901+669.657+535.91+655.954+520.318+655.05C504.726+654.146+491.437+666.383+490.636+682.382Z" opacity="0.5" fill="#000000"/>
<path d="M487.218+681.473C486.417+697.472+498.407+711.175+514+712.079C529.591+712.983+542.881+700.746+543.682+684.747C544.483+668.748+532.492+655.045+516.9+654.141C501.308+653.237+488.019+665.474+487.218+681.473Z" opacity="1" fill="#2ca02c"/>
</g>
<g opacity="1">
<path d="M477.841+661.733C477.04+677.733+489.03+691.435+504.622+692.339C520.214+693.243+533.504+681.006+534.305+665.007C535.106+649.008+523.115+635.305+507.523+634.401C491.931+633.497+478.642+645.734+477.841+661.733Z" opacity="0.5" fill="#000000"/>
<path d="M475.086+661.574C474.285+677.573+486.276+691.276+501.868+692.18C517.46+693.084+530.749+680.847+531.55+664.847C532.351+648.848+520.361+635.145+504.769+634.241C489.177+633.337+475.887+645.574+475.086+661.574Z" opacity="1" fill="#217821"/>
</g>
<g opacity="1">
<path d="M443.726+647.403C442.876+663.399+454.824+677.141+470.414+678.095C486.003+679.05+499.33+666.856+500.181+650.86C501.031+634.864+489.083+621.122+473.493+620.168C457.904+619.213+444.576+631.407+443.726+647.403Z" opacity="0.5" fill="#000000"/>
<path d="M443.584+650.238C442.734+666.234+454.682+679.976+470.272+680.93C485.861+681.885+499.188+669.691+500.039+653.695C500.889+637.699+488.941+623.957+473.351+623.003C457.762+622.048+444.435+634.242+443.584+650.238Z" opacity="1" fill="#217821"/>
</g>
<g opacity="1">
<path d="M439.255+681.894C438.454+697.894+450.445+711.597+466.037+712.501C481.629+713.405+494.918+701.167+495.719+685.168C496.52+669.169+484.53+655.466+468.937+654.562C453.346+653.658+440.056+665.895+439.255+681.894Z" opacity="0.5" fill="#000000"/>
<path d="M440.775+679.137C439.974+695.136+451.964+708.84+467.556+709.744C483.148+710.647+496.437+698.41+497.238+682.411C498.039+666.412+486.049+652.709+470.457+651.805C454.865+650.901+441.576+663.138+440.775+679.137Z" opacity="1" fill="#006400"/>
</g>
<g opacity="1">
<path d="M513.506+656.981C512.705+672.98+499.416+685.218+483.824+684.313C468.232+683.409+456.242+669.707+457.042+653.707C457.844+637.708+471.133+625.471+486.725+626.375C502.317+627.279+514.307+640.982+513.506+656.981Z" opacity="0.5" fill="#000000"/>
<path d="M515.026+654.226C514.225+670.225+500.935+682.462+485.343+681.558C469.751+680.654+457.761+666.952+458.562+650.952C459.363+634.953+472.652+622.716+488.244+623.62C503.836+624.524+515.827+638.227+515.026+654.226Z" opacity="1" fill="#00ac00"/>
</g>
<g opacity="1">
<path d="M471.518+693.747C470.717+709.746+482.707+723.449+498.3+724.353C513.891+725.257+527.181+713.02+527.982+697.02C528.783+681.021+516.792+667.318+501.2+666.414C485.608+665.51+472.319+677.747+471.518+693.747Z" opacity="0.5" fill="#000000"/>
<path d="M473.073+690.283C472.272+706.282+484.262+719.985+499.854+720.889C515.446+721.793+528.736+709.556+529.537+693.557C530.338+677.558+518.347+663.855+502.755+662.951C487.163+662.047+473.874+674.284+473.073+690.283Z" opacity="1" fill="#007800"/>
</g>
<g opacity="1">
<path d="M460.615+673.531C459.814+689.53+471.804+703.233+487.396+704.137C502.988+705.041+516.278+692.804+517.079+676.805C517.88+660.806+505.889+647.103+490.297+646.198C474.705+645.294+461.416+657.532+460.615+673.531Z" opacity="0.34496" fill="#000000"/>
<path d="M464.21+670.896C463.409+686.895+475.399+700.598+490.992+701.502C506.583+702.406+519.873+690.169+520.674+674.17C521.475+658.171+509.484+644.468+493.892+643.564C478.3+642.66+465.011+654.897+464.21+670.896Z" opacity="1" fill="#009800"/>
</g>
<path d="M429.529+833.064C444.707+826.625+461.914+822.459+463.175+811.593C464.437+800.727+474.27+796.096+481.119+791.089C491.111+783.785+492.427+736.831+489.248+724.748C489.045+723.977+485.708+722.451+481.04+720.607C480.078+720.227+456.732+729.593+455.674+729.19C455.217+729.016+467.636+724.388+470.478+723.026C470.749+722.896+464.333+720.782+464.608+720.652C465.03+720.451+472.144+722.234+472.562+722.036C475.491+720.654+478.11+719.435+477.582+719.472C474.145+719.717+464.741+715.268+454.455+708.855C454.255+708.731+451.279+708.505+447.791+708.259C447.548+708.242+445.385+709.629+445.138+709.612C444.935+709.598+446.648+708.179+446.443+708.165C441.702+707.834+436.569+707.489+436.304+707.32C436.123+707.205+438.745+707.192+441.872+707.197C442.075+707.198+438.999+705.113+439.205+705.114C439.408+705.114+442.894+707.2+443.099+707.2C447.32+707.211+451.901+707.234+451.663+707.081C448.017+704.717+444.319+702.143+440.787+699.474C440.487+699.248+437.885+698.781+434.885+698.272C434.66+698.234+431.939+699.301+431.71+699.263C431.478+699.223+433.736+698.078+433.502+698.039C429.6+697.383+425.521+696.709+425.146+696.42C424.907+696.236+427.31+696.327+430.017+696.449C430.305+696.462+427.596+693.8+427.888+693.814C428.178+693.827+431.468+696.515+431.756+696.528C434.614+696.659+437.261+696.767+437.014+696.574C434.8+694.843+432.656+693.052+430.629+691.281C430.531+691.195+428.452+690.817+426.153+690.407C425.927+690.367+423.902+691.473+423.674+691.432C423.44+691.391+425.004+690.203+424.771+690.161C422.337+689.728+420.047+689.316+419.945+689.225C419.724+689.03+429.527+690.309+429.309+690.115C426.833+687.906+424.559+685.756+422.583+683.821C422.342+683.585+417.125+681.991+416.893+681.762C416.742+681.612+421.572+682.824+421.425+682.678C417.345+678.62+414.798+675.754+414.798+675.754C414.798+675.754+416.785+677.227+419.32+679.138C419.487+679.263+418.739+676.837+418.91+676.965C419.115+677.12+420.24+679.831+420.45+679.99C422.948+681.88+425.747+684.024+427.66+685.566C427.964+685.812+427.659+673.986+427.963+674.232C428.325+674.524+428.547+677.999+428.779+681.253C428.797+681.498+431.031+679.19+431.048+679.431C431.066+679.669+428.867+682.456+428.885+682.687C429.056+684.929+429.245+686.792+429.505+687.004C433.687+690.397+437.997+693.91+442.408+697.215C442.599+697.358+442.685+692.109+442.764+686.508C442.769+686.119+436.312+677.723+436.317+677.332C436.326+676.745+442.752+685.053+442.761+684.47C442.838+679.092+442.969+673.311+443.154+673.447C443.407+673.634+443.812+681.568+444.199+688.566C444.216+688.876+448.529+683.36+448.546+683.666C448.563+683.963+444.284+690.083+444.3+690.376C444.567+695.095+444.818+698.991+444.996+699.119C452.577+704.593+460.434+709.277+468.428+711.551L467.052+702.357L463.189+700.466L456.954+700.522L462.137+699.951L455.541+696.722L450.676+696.453L454.386+696.157L448.194+693.126L457.291+696.863L455.621+691.603L457.911+696.992L466.601+700.688L459.597+688.092L453.621+684.158L458.834+686.72L454.283+678.536L457.182+682.675L456.812+679.04L458.002+683.846L462.569+690.366L463.5+687.313L462.682+683.886L463.811+686.291L465.104+682.048L463.463+691.374L468.61+700.379L469.39+695.185L468.473+692.358L469.558+694.07L470.243+689.509L470.233+696.75L472.477+694.1L470.232+697.758L470.225+702.864L473.214+712.717L490.143+715.973C491.444+710.38+490.756+708.406+489.991+704.767C476.327+693.314+466.2+681.761+454.937+668.097C454.795+667.924+452.835+667.212+450.179+666.293C450.021+666.239+440.657+669.313+440.494+669.257C440.299+669.189+449.305+665.992+449.105+665.923C443.145+663.878+434.725+661.102+434.427+660.734C434.214+660.471+439.419+661.815+444.276+663.056C444.401+663.088+441.392+656.875+441.516+656.906C441.626+656.935+444.87+663.207+444.98+663.235C448.975+664.254+452.536+665.143+452.361+664.924C450.047+662.032+446.2+656.341+442.053+649.985C441.789+649.58+424.605+644.377+424.339+643.967C424.239+643.814+429.302+645.054+433.824+646.187C434.101+646.256+431.682+641.117+431.953+641.185C432.231+641.255+434.476+646.238+434.868+646.313C437.813+646.877+440.719+647.933+440.719+647.933L433.314+636.364L426.421+632.077C426.421+632.077+432.82+635.474+432.533+635.022C429.651+630.471+426.599+625.748+425.065+623.361C427.054+625.472+431.934+632.664+436.655+639.625C436.775+639.803+436.997+638.793+437.242+637.5C437.273+637.34+435.952+633.435+435.983+633.268C436.013+633.106+437.395+636.683+437.425+636.518C437.773+634.618+438.131+632.6+438.297+632.844C438.51+633.159+437.348+640.473+437.56+640.785C441.229+646.188+445.265+652.249+446.804+653.999C447.03+654.256+448.712+642.565+448.938+642.822C449.137+643.048+448.988+646.131+448.831+649.278C448.81+649.698+450.916+646.96+450.896+647.376C450.883+647.631+448.743+651.044+448.732+651.292C448.612+653.817+448.537+655.97+448.702+656.158C453.155+661.224+457.607+666.29+462.158+671.096C462.431+671.384+463.045+668.196+463.69+664.681C463.729+664.472+461.499+657.94+461.537+657.729C461.591+657.438+463.913+663.466+463.966+663.174C464.657+659.402+465.626+656.069+465.626+656.069C465.626+656.069+465.617+658.327+465.265+660.905C465.231+661.153+467.525+659.141+467.489+659.398C467.477+659.48+465.136+661.828+465.125+661.911C464.468+666.555+463.541+672.325+463.912+672.699C469.038+677.868+476.439+685.981+482.012+689.982L485.92+683.559L483.55+691.481L492.717+697.759L492.534+685.649L474.998+654.578L471.638+653.384L466.063+653.486L469.721+652.702L453.999+647.115L465.211+650.164L461.67+643.358L467.123+650.685L474.198+652.609L463.553+635.127L459.861+634.177L454.032+635.388L458.901+633.93L450.289+631.714L457.39+632.816L454.894+629.006L458.264+633.128L462.753+633.924L450.713+614.267L448.83+612.927L445.201+612.169L448.015+612.346L443.935+609.443L449.787+612.754L441.608+599.402L447.29+608.283L446.621+604.333L447.966+609.341L457.164+623.719L457.454+621.681L455.909+616.797L457.632+620.427L458.342+615.431L457.855+624.957L467.666+640.388L468.763+637.941L468.179+633.638L469.153+637.07L471.285+632.312L468.328+641.344L494.309+681.449L495.013+663.717L489.898+657.821L480.086+655.226L488.85+656.63L480.473+643.88L472.094+639.147L479.709+642.717L468.806+626.123L476.858+637.344L477.105+630.635L477.485+638.218L486.52+650.807L487.363+644.506L487.691+652.471L495.21+661.31L494.526+632.662L486.042+623.788L479.985+623.356L473.954+625.779L479.003+623.286L465.989+622.359L475.661+622.608L472.409+617.47L476.27+622.471L485.036+622.566L471.828+610L462.593+605.966L470.242+608.306L458.023+595.255L466.378+603.246L466.217+595.722L467.762+604.569L478.988+615.305L478.307+603.061L474.465+596.81L478.192+600.981L477.801+593.943L479.605+606.339L483.367+601.298L480.059+609.153L480.47+616.369L494.961+630.581L494.859+618.132L484.95+606.357L494.834+615.016L494.779+608.268L483.896+592.194L489.383+599.369L488.894+592.117L490.617+600.984L494.764+606.407L494.617+588.335L491.039+579.83L494.602+586.473L494.517+576.073L495.017+592.221L503.508+580.15L498.748+588.379L504.579+586.367L497.967+589.729L495.357+593.468L495.596+610.931L502.731+603.021L495.654+612.789L495.885+620.255L505.903+612.071L503.677+595.88L507.099+610.899L521.856+597.71L513.914+606.078L522.579+605.248L513.441+607.361L496.299+622.426L497.082+649.008L504.091+642.724L503.946+634.592L502.077+628.93L503.917+632.956L503.759+624.142L504.479+636.47L507.208+632.188L504.538+637.472L504.788+641.766L515.931+626.803L515.819+620.882L513.695+615.395L515.791+619.363L515.656+612.183L516.613+625.887L523.488+616.654L523.532+609.275L524.128+615.795L527.922+610.7L520.486+621.755L530.957+616.548L525.058+619.855L529.25+619.58L524.156+620.361L519.77+622.82L508.903+638.976L513.267+638.26L516.53+635.112L514.292+638.092L518.858+637.344L508.615+640.019L497.49+650.353L498.734+680.877L508.026+667.085L504.834+648.635L507.167+657.21L508.812+650.116L507.872+659.802L509.262+664.911L521.908+646.477L521.823+643.266L519.903+639.053L521.794+642.134L521.4+627.18L522.691+638.961L524.677+633.922L522.902+640.355L523.591+644.928L537.702+624.519L537.478+614.826L538.474+623.087L548.801+608.466L543.238+617.133L547.1+614.37L542.614+618.105L532.424+633.981L540.702+630.096L541.608+628.159L541.602+624.779L542.062+627.19L543.368+624.398L541.449+629.604L550.303+625.591L545.376+628.336L548.616+628.475L544.599+628.769L537.715+632.604L547.416+631.799L542.195+632.46L544.847+633.464L541.192+632.587L536.733+633.151L531.343+636.155L514.409+663.01L525.259+657.948L513.004+665.965L500.441+685.161L500.704+696.736L508.772+691.462L512.231+684.472L512.192+677.511L513.213+682.486L516.653+675.532L511.493+689.885C520.645+683.557+528.565+676.506+536.164+669.266C536.299+669.137+536.052+667.549+535.623+665.264C535.585+665.059+531.303+661.065+531.261+660.85C531.222+660.644+535.423+664.216+535.381+664.001C534.881+661.426+534.225+658.255+533.628+655.314C533.558+654.966+529.471+650.031+529.403+649.69C529.346+649.407+533.307+653.718+533.252+653.443C532.484+649.603+531.918+646.531+532.107+646.349C532.329+646.135+534.773+656.626+535.713+660.539C535.764+660.752+539.362+654.737+539.413+654.949C539.512+655.359+536.062+661.993+536.159+662.391C536.905+665.472+537.567+668.067+537.747+667.892C541.25+664.507+547.863+657.925+554.016+651.88C554.145+651.754+554.575+648.671+555.044+645.216C555.071+645.016+551.911+639.935+551.938+639.733C551.989+639.357+555.227+643.859+555.278+643.482C555.81+639.549+556.333+635.688+556.476+635.549C556.562+635.464+556.371+638.091+556.135+641.16C556.125+641.285+558.463+638.768+558.454+638.894C558.44+639.062+556.079+641.874+556.066+642.043C555.752+646.095+555.399+650.523+555.51+650.415C559.397+646.606+562.974+643.144+565.299+641.016C561.443+645.549+555.485+652.165+549.352+658.787C549.208+658.943+554.785+657.29+559.374+655.95C559.581+655.889+561.699+649.922+561.901+649.864C562.194+649.778+559.963+655.566+560.243+655.485C562.797+654.743+564.739+654.195+564.653+654.287C564.561+654.386+563.307+655.078+560.833+655.93C559.674+656.329+558.38+656.771+557.069+657.218C556.726+657.335+561.764+659.009+561.421+659.126C561.219+659.195+555.635+657.707+555.435+657.775C551.52+659.11+547.898+660.353+547.77+660.491C541.632+667.087+535.484+673.51+531.244+677.697C530.909+678.028+536.985+677.319+543.15+676.594C543.347+676.571+548.628+667.919+548.825+667.896C549.112+667.862+544.315+676.457+544.6+676.423C550.431+675.739+555.895+675.113+555.573+675.424C555.165+675.817+545.735+677.325+538.021+678.62C537.731+678.669+543.559+681.77+543.273+681.818C543.012+681.862+536.636+678.853+536.38+678.897C531.876+679.661+528.293+680.31+528.042+680.546C520.072+688.051+511.504+695.043+501.961+701.195C502.819+706.93+502.194+712.356+504.592+715.883L520.6+707.556L519.866+698.474L517.122+693.015L519.699+696.408L519.25+690.854L520.95+700.734L526.859+693.85L521.475+702.498L522.763+706.824C528.069+705.722+532.93+703.282+537.552+700.124C537.826+699.937+537.975+698.006+538.086+695.552C538.1+695.215+532.284+690.173+532.298+689.82C532.309+689.547+538.151+693.966+538.161+693.687C538.319+689.455+538.526+682.782+538.959+682.46C539.292+682.212+539.48+687.915+539.762+691.605C539.793+692.018+544.634+685.239+544.666+685.643C544.694+686.001+539.913+693.544+539.941+693.885C540.146+696.357+540.357+698.287+540.593+698.1C544.647+694.903+548.838+691.021+553.049+687.158C553.185+687.033+553.35+685.153+553.517+683.113C553.542+682.82+551.402+680.05+551.426+679.755C551.45+679.461+553.638+681.641+553.662+681.353C553.815+679.525+553.963+677.945+554.088+677.831C554.439+677.509+554.651+685.69+555.002+685.37C557.066+683.489+559.129+681.638+561.179+679.901C561.49+679.637+564.223+671.005+564.533+670.746C564.742+670.573+562.53+678.77+562.739+678.599C563.997+677.567+570.419+670.43+571.661+669.519C571.184+670.789+563.691+679.596+560.903+682.521C560.668+682.767+567.706+680.503+567.465+680.752C567.14+681.089+559.536+683.941+559.204+684.281C554.244+689.364+548.726+694.615+549.419+694.615C553.345+694.402+556.663+694.229+559.443+694.091C559.831+694.072+565.306+689.36+565.674+689.342C566.064+689.323+561.345+693.999+561.712+693.981C590.891+692.597+547.973+695.971+547.326+696.553C539.684+703.419+530.81+710.166+522.447+713.229C521.943+713.413+527.122+714.904+533.306+716.574C533.468+716.618+536.27+714.757+539.115+712.865C539.338+712.717+540.739+706.181+540.961+706.033C541.365+705.764+539.989+712.438+540.379+712.179C542.604+710.705+545.079+708.931+545.213+708.967C545.531+709.053+534.94+717.013+535.262+717.099C543.386+719.271+552.364+721.542+552.364+721.542C552.364+721.542+521.135+714.695+520.153+715.549C514.749+720.259+506.593+723.86+506.496+724.785C505.082+738.255+504.979+788.97+517.806+793.771C526.057+796.859+528.19+796.869+530.003+808.13C531.816+819.391+550.694+830.868+565.955+838.625C552.721+829.063+532.46+830.514+526.566+813.477C520.672+796.44+519.017+801.063+512.961+800.336C518.786+808.024+519.055+812.973+517.316+819.911C515.578+826.849+515.862+829.923+521.419+838.352C526.977+846.781+526.941+860.609+528.836+871.687C525.683+860.333+524.758+845.345+517.226+838.046C509.694+830.747+510.366+826.15+512.502+819.288C514.638+812.427+510.431+808.318+504.859+802.213C503.903+808.415+499.047+816.174+504.934+823.002C510.82+829.829+510.666+831.602+504.243+839.044C497.821+846.487+502.615+859.963+503.712+870.818C502.111+860.531+493.665+848.569+499.58+839.827C505.495+831.084+501.618+829.033+497.342+823.04C493.066+817.046+494.279+809.387+494.564+802.204C490.086+807.187+485.687+811.53+486.894+818.484C488.101+825.438+486.941+829.355+478.761+835.747C470.581+842.14+469.344+854.096+465.764+863.336C467.651+853.483+467.553+841.356+475.147+834.544C482.74+827.732+484.121+822.686+481.242+815.841C478.363+808.996+483.153+805.731+486.038+801.122C479.447+797.224+473.303+798.883+466.989+814.081C460.674+829.279+441.381+826.363+429.527+833.062L429.529+833.064Z" opacity="1" fill="url(#LinearGradient_4)"/>
<path d="M424.622+834.389C439.8+827.95+457.008+823.784+458.269+812.918C459.53+802.053+469.364+797.421+476.213+792.414C486.204+785.11+487.52+738.156+484.341+726.073C484.138+725.302+480.802+723.777+476.133+721.932C475.172+721.552+451.826+730.919+450.768+730.516C450.31+730.342+462.729+725.714+465.571+724.351C465.842+724.221+459.427+722.108+459.702+721.977C460.124+721.776+467.238+723.559+467.655+723.362C470.585+721.979+473.204+720.76+472.676+720.798C469.239+721.042+459.834+716.594+449.548+710.18C449.349+710.056+446.372+709.83+442.884+709.584C442.641+709.567+440.479+710.954+440.232+710.937C440.029+710.923+441.741+709.504+441.537+709.49C436.796+709.159+431.662+708.814+431.397+708.645C431.217+708.53+433.839+708.517+436.966+708.523C437.168+708.523+434.092+706.438+434.299+706.439C434.502+706.439+437.987+708.525+438.193+708.525C442.414+708.536+446.994+708.559+446.757+708.406C443.111+706.042+439.413+703.468+435.881+700.8C435.581+700.573+432.979+700.106+429.979+699.597C429.753+699.559+427.033+700.626+426.804+700.588C426.571+700.549+428.83+699.403+428.595+699.364C424.693+698.708+420.615+698.034+420.24+697.746C420+697.561+422.404+697.652+425.111+697.774C425.398+697.787+422.69+695.125+422.982+695.139C423.271+695.152+426.561+697.84+426.85+697.854C429.708+697.984+432.355+698.092+432.108+697.899C429.894+696.168+427.749+694.378+425.723+692.606C425.624+692.52+423.545+692.142+421.246+691.733C421.021+691.692+418.995+692.798+418.767+692.757C418.534+692.716+420.098+691.528+419.865+691.486C417.431+691.053+415.141+690.641+415.038+690.55C414.817+690.355+424.62+691.634+424.402+691.44C421.926+689.232+419.653+687.081+417.676+685.146C417.435+684.91+412.218+683.316+411.986+683.087C411.835+682.937+416.666+684.149+416.519+684.003C412.439+679.945+409.892+677.08+409.892+677.08C409.892+677.08+411.878+678.552+414.414+680.463C414.58+680.588+413.833+678.162+414.003+678.291C414.209+678.445+415.333+681.156+415.543+681.315C418.042+683.205+420.84+685.349+422.754+686.892C423.058+687.137+422.752+675.311+423.056+675.557C423.418+675.85+423.641+679.324+423.873+682.578C423.89+682.823+426.124+680.515+426.142+680.756C426.16+680.994+423.96+683.781+423.978+684.012C424.15+686.255+424.338+688.118+424.599+688.329C428.781+691.722+433.091+695.235+437.502+698.541C437.693+698.683+437.778+693.435+437.857+687.833C437.863+687.444+431.405+679.048+431.411+678.657C431.419+678.07+437.846+686.378+437.854+685.796C437.931+680.417+438.063+674.637+438.247+674.773C438.501+674.96+438.906+682.893+439.293+689.891C439.31+690.201+443.622+684.685+443.64+684.991C443.656+685.289+439.377+691.409+439.394+691.701C439.661+696.42+439.911+700.316+440.089+700.445C447.67+705.918+455.527+710.602+463.522+712.876L462.146+703.682L458.282+701.791L452.048+701.847L457.23+701.276L450.634+698.048L445.77+697.778L449.48+697.482L443.287+694.451L452.384+698.188L450.714+692.928L453.004+698.318L461.695+702.013L454.69+689.417L448.714+685.483L453.927+688.045L449.376+679.861L452.276+684.001L451.906+680.365L453.095+685.171L457.662+691.692L458.593+688.638L457.775+685.211L458.904+687.617L460.198+683.374L458.556+692.699L463.703+701.704L464.484+696.51L463.567+693.683L464.651+695.395L465.336+690.835L465.326+698.075L467.57+695.426L465.325+699.083L465.318+704.189L468.307+714.042L485.237+717.299C486.537+711.705+485.85+709.731+485.085+706.093C471.42+694.639+461.293+683.086+450.031+669.422C449.888+669.25+447.929+668.538+445.273+667.619C445.115+667.564+435.75+670.638+435.588+670.582C435.393+670.515+444.399+667.317+444.198+667.248C438.239+665.203+429.819+662.427+429.52+662.059C429.307+661.797+434.512+663.141+439.369+664.381C439.494+664.413+436.485+658.2+436.61+658.232C436.72+658.26+439.964+664.532+440.073+664.561C444.068+665.579+447.63+666.468+447.454+666.249C445.141+663.357+441.294+657.666+437.147+651.31C436.883+650.905+419.698+645.702+419.432+645.292C419.333+645.139+424.395+646.379+428.918+647.512C429.194+647.582+426.775+642.442+427.047+642.51C427.325+642.58+429.569+647.563+429.961+647.638C432.907+648.202+435.813+649.258+435.813+649.258L428.409+637.687L421.515+633.401C421.515+633.401+427.914+636.798+427.627+636.346C424.745+631.795+421.693+627.072+420.159+624.685C422.148+626.796+427.028+633.988+431.749+640.949C431.869+641.127+432.091+640.117+432.336+638.824C432.367+638.664+431.046+634.758+431.077+634.592C431.107+634.43+432.489+638.007+432.519+637.842C432.867+635.942+433.225+633.924+433.391+634.168C433.604+634.483+432.442+641.797+432.654+642.109C436.323+647.512+440.358+653.573+441.898+655.323C442.124+655.58+443.806+643.889+444.032+644.146C444.231+644.372+444.082+647.455+443.925+650.602C443.904+651.022+446.01+648.284+445.99+648.7C445.977+648.955+443.837+652.368+443.826+652.617C443.706+655.141+443.631+657.294+443.796+657.482C448.249+662.548+452.7+667.614+457.252+672.42C457.525+672.708+458.139+669.52+458.784+666.005C458.823+665.796+456.593+659.264+456.631+659.054C456.685+658.762+459.007+664.79+459.06+664.499C459.75+660.726+460.72+657.393+460.72+657.393C460.72+657.393+460.711+659.651+460.359+662.229C460.325+662.477+462.619+660.465+462.583+660.722C462.571+660.804+460.23+663.152+460.218+663.235C459.562+667.879+458.635+673.649+459.006+674.023C464.132+679.192+471.533+687.305+477.105+691.306L481.014+684.883L478.644+692.805L487.811+699.083L487.627+686.973L470.092+655.902L466.732+654.708L461.157+654.81L464.815+654.026L449.092+648.439L460.305+651.489L456.764+644.682L462.217+652.009L469.291+653.933L458.647+636.451L454.955+635.501L449.126+636.712L453.995+635.254L445.383+633.038L452.484+634.14L449.988+630.33L453.358+634.452L457.847+635.248L445.807+615.591L443.924+614.251L440.295+613.493L443.108+613.67L439.029+610.767L444.881+614.078L436.702+600.726L442.384+609.607L441.715+605.657L443.06+610.665L452.258+625.043L452.547+623.005L451.003+618.121L452.726+621.752L453.436+616.755L452.949+626.28L462.76+641.712L463.857+639.265L463.273+634.962L464.247+638.394L466.379+633.636L463.422+642.667L489.403+682.773L490.107+665.041L484.991+659.145L475.18+656.55L483.944+657.954L475.567+645.204L467.188+640.471L474.802+644.041L463.899+627.447L471.952+638.668L472.199+631.959L472.579+639.542L481.614+652.131L482.457+645.83L482.785+653.795L490.304+662.634L489.62+633.986L481.136+625.112L475.079+624.68L469.048+627.103L474.096+624.61L461.083+623.683L470.755+623.932L467.502+618.794L471.364+623.795L480.13+623.89L466.921+611.324L457.686+607.29L465.335+609.63L453.117+596.579L461.472+604.57L461.31+597.046L462.856+605.893L474.081+616.629L473.401+604.385L469.558+598.134L473.286+602.305L472.894+595.267L474.699+607.663L478.461+602.622L475.152+610.477L475.563+617.693L490.054+631.905L489.953+619.456L480.043+607.681L489.927+616.34L489.873+609.592L478.99+593.518L484.476+600.693L483.988+593.441L485.711+602.307L489.858+607.731L489.711+589.659L486.133+581.154L489.695+587.797L489.611+577.397L490.111+593.545L498.601+581.474L493.842+589.703L499.673+587.691L493.061+591.053L490.451+594.792L490.69+612.255L497.825+604.345L490.748+614.113L490.979+621.579L500.996+613.395L498.771+597.204L502.193+612.223L516.949+599.034L509.007+607.402L517.672+606.572L508.534+608.685L491.393+623.75L492.176+650.332L499.185+644.048L499.04+635.916L497.171+630.254L499.01+634.28L498.853+625.466L499.573+637.794L502.302+633.512L499.631+638.796L499.882+643.09L511.024+628.127L510.913+622.206L508.788+616.719L510.884+620.687L510.749+613.507L511.707+627.211L518.582+617.978L518.625+610.599L519.222+617.119L523.016+612.024L515.579+623.079L526.051+617.872L520.152+621.179L524.343+620.904L519.25+621.685L514.863+624.144L503.997+640.3L508.36+639.584L511.624+636.436L509.385+639.416L513.952+638.668L503.709+641.343L492.584+651.677L493.828+682.201L503.119+668.409L499.928+649.959L502.261+658.534L503.906+651.44L502.966+661.126L504.356+666.235L517.002+647.801L516.917+644.59L514.997+640.377L516.887+643.458L516.493+628.504L517.785+640.285L519.77+635.246L517.995+641.679L518.685+646.252L532.795+625.843L532.572+616.15L533.567+624.411L543.895+609.79L538.332+618.457L542.193+615.694L537.708+619.429L527.518+635.305L535.795+631.42L536.702+629.483L536.695+626.102L537.155+628.514L538.462+625.722L536.543+630.928L545.397+626.915L540.469+629.66L543.71+629.799L539.693+630.093L532.808+633.928L542.51+633.123L537.289+633.784L539.941+634.788L536.286+633.911L531.827+634.475L526.436+637.479L509.502+664.334L520.353+659.271L508.098+667.289L495.535+686.485L495.798+698.06L503.866+692.786L507.324+685.796L507.286+678.835L508.307+683.81L511.747+676.856L506.587+691.209C515.739+684.881+523.659+677.83+531.257+670.59C531.393+670.461+531.146+668.874+530.717+666.588C530.678+666.383+526.396+662.389+526.355+662.174C526.316+661.968+530.517+665.54+530.475+665.325C529.975+662.75+529.318+659.579+528.722+656.638C528.651+656.29+524.565+651.354+524.496+651.014C524.439+650.731+528.4+655.042+528.345+654.767C527.578+650.927+527.011+647.855+527.201+647.673C527.423+647.459+529.867+657.95+530.806+661.863C530.858+662.076+534.456+656.061+534.507+656.273C534.605+656.683+531.156+663.317+531.252+663.715C531.999+666.796+532.661+669.391+532.841+669.216C536.344+665.831+542.956+659.25+549.11+653.204C549.238+653.078+549.669+649.995+550.138+646.54C550.165+646.34+547.004+641.259+547.032+641.057C547.082+640.681+550.321+645.183+550.372+644.806C550.903+640.873+551.427+637.013+551.57+636.873C551.656+636.788+551.465+639.415+551.228+642.484C551.219+642.609+553.557+640.092+553.547+640.218C553.534+640.386+551.173+643.198+551.16+643.367C550.846+647.419+550.493+651.848+550.604+651.739C554.49+647.93+558.068+644.468+560.392+642.34C556.537+646.873+550.579+653.489+544.446+660.111C544.302+660.267+549.879+658.614+554.468+657.273C554.675+657.213+556.793+651.246+556.995+651.188C557.288+651.102+555.056+656.89+555.336+656.809C557.891+656.067+559.833+655.519+559.747+655.611C559.655+655.71+558.401+656.402+555.927+657.254C554.768+657.653+553.474+658.095+552.163+658.542C551.82+658.659+556.858+660.333+556.514+660.45C556.313+660.519+550.729+659.031+550.528+659.099C546.614+660.434+542.992+661.677+542.863+661.815C536.726+668.411+530.578+674.835+526.338+679.021C526.003+679.352+532.079+678.643+538.243+677.918C538.441+677.895+543.722+669.243+543.919+669.22C544.206+669.186+539.409+677.781+539.694+677.747C545.525+677.063+550.988+676.437+550.666+676.748C550.259+677.141+540.829+678.649+533.115+679.944C532.824+679.993+538.652+683.094+538.367+683.142C538.105+683.186+531.73+680.177+531.474+680.221C526.97+680.985+523.387+681.634+523.136+681.87C515.165+689.375+506.597+696.367+497.055+702.519C497.913+708.254+497.288+713.68+499.686+717.207L515.694+708.88L514.959+699.798L512.216+694.339L514.792+697.732L514.343+692.178L516.044+702.058L521.953+695.175L516.569+703.822L517.857+708.148C523.162+707.047+528.023+704.606+532.646+701.448C532.92+701.261+533.068+699.33+533.18+696.876C533.194+696.54+527.378+691.497+527.392+691.144C527.402+690.871+533.245+695.29+533.255+695.011C533.412+690.779+533.62+684.106+534.053+683.784C534.386+683.536+534.574+689.239+534.855+692.929C534.887+693.343+539.728+686.563+539.759+686.967C539.787+687.325+535.006+694.868+535.035+695.209C535.239+697.681+535.45+699.611+535.687+699.424C539.741+696.227+543.932+692.345+548.142+688.482C548.278+688.357+548.443+686.477+548.611+684.438C548.635+684.144+546.495+681.374+546.519+681.08C546.544+680.785+548.732+682.965+548.756+682.677C548.908+680.849+549.057+679.269+549.182+679.155C549.533+678.833+549.745+687.014+550.096+686.694C552.159+684.813+554.223+682.962+556.272+681.225C556.584+680.961+559.316+672.329+559.627+672.07C559.836+671.897+557.624+680.094+557.832+679.923C559.091+678.891+565.512+671.754+566.754+670.844C566.277+672.113+558.785+680.92+555.997+683.845C555.762+684.091+562.799+681.827+562.559+682.076C562.234+682.413+554.629+685.265+554.298+685.605C549.337+690.689+543.819+695.939+544.512+695.939C548.439+695.726+551.757+695.553+554.536+695.415C554.925+695.396+560.4+690.684+560.768+690.666C561.157+690.647+556.439+695.323+556.806+695.305C585.985+693.921+543.067+697.295+542.419+697.877C534.777+704.743+525.904+711.49+517.54+714.553C517.037+714.737+522.215+716.228+528.4+717.898C528.562+717.942+531.363+716.081+534.209+714.189C534.432+714.041+535.833+707.505+536.055+707.357C536.459+707.088+535.083+713.762+535.473+713.503C537.698+712.029+540.173+710.255+540.307+710.291C540.625+710.377+530.034+718.338+530.355+718.423C538.48+720.594+547.457+722.866+547.457+722.866C547.457+722.866+516.228+716.02+515.247+716.873C509.842+721.583+501.687+725.184+501.59+726.109C500.176+739.579+500.072+790.294+512.899+795.095C521.151+798.183+523.284+798.193+525.097+809.454C526.909+820.715+545.788+832.192+561.049+839.948C547.815+830.387+527.554+831.838+521.66+814.801C515.765+797.764+514.111+802.387+508.054+801.66C513.88+809.348+514.148+814.297+512.41+821.235C510.671+828.173+510.955+831.247+516.513+839.676C522.07+848.105+522.035+861.934+523.93+873.011C520.777+861.657+519.851+846.669+512.32+839.37C504.788+832.071+505.46+827.474+507.596+820.612C509.731+813.751+505.524+809.642+499.953+803.537C498.997+809.739+494.141+817.498+500.027+824.326C505.914+831.153+505.76+832.926+499.337+840.368C492.915+847.811+497.708+861.288+498.806+872.142C497.205+861.855+488.759+849.893+494.674+841.151C500.589+832.408+496.711+830.357+492.436+824.364C488.16+818.37+489.373+810.71+489.657+803.528C485.179+808.511+480.781+812.854+481.988+819.808C483.195+826.762+482.035+830.679+473.855+837.071C465.675+843.464+464.438+855.42+460.858+864.66C462.745+854.807+462.647+842.68+470.24+835.868C477.834+829.056+479.215+824.01+476.335+817.165C473.456+810.32+478.247+807.055+481.132+802.447C474.541+798.548+468.397+800.207+462.082+815.405C455.768+830.603+436.474+827.687+424.621+834.386L424.622+834.389Z" opacity="0.33" fill="#000000"/>
</g>
</g>
</svg>
