<?xml version="1.0" encoding="UTF-8"?>
<!DOCTYPE svg PUBLIC "-//W3C//DTD SVG 1.1//EN"
  "http://www.w3.org/Graphics/SVG/1.1/DTD/svg11.dtd">
<!-- Created with Inkpad (http://www.taptrix.com/) --><svg xmlns:inkpad="http://taptrix.com/inkpad/svg_extensions" height="900pt" xmlns:xlink="http://www.w3.org/1999/xlink" xmlns="http://www.w3.org/2000/svg" width="1440pt" version="1.1" viewBox="0,0,1440,900">
<defs>
<linearGradient y1="422.46" id="LinearGradient" x1="28.926" y2="285.42" x2="-112.07" gradientUnits="userSpaceOnUse" gradientTransform="matrix(-0.695082 0 0 0.645927 553.736 220.597)">
<stop stop-color="#008400" offset="0"/>
<stop stop-color="#00a000" offset="1"/>
</linearGradient>
<linearGradient y1="422.46" id="LinearGradient_2" x1="28.926" y2="285.42" x2="-112.07" gradientUnits="userSpaceOnUse" gradientTransform="matrix(-0.695082 0 0 0.645927 325.664 -8.11093)">
<stop stop-color="#008400" offset="0"/>
<stop stop-color="#00a000" offset="1"/>
</linearGradient>
<linearGradient y1="456.75" id="LinearGradient_3" x1="-53.632" y2="216.93" x2="-135.5" gradientUnits="userSpaceOnUse" gradientTransform="matrix(-0.695082 0 0 0.645927 513.363 60.981)">
<stop stop-color="#006400" offset="0"/>
<stop stop-color="#00a000" offset="1"/>
</linearGradient>
<linearGradient y1="1272.6" id="LinearGradient_4" x1="462.51" y2="323.12" x2="428.25" gradientUnits="userSpaceOnUse" gradientTransform="matrix(0.645927 0 0 0.645927 250.017 60.9791)">
<stop stop-color="#000000" offset="0"/>
<stop stop-color="#986601" offset="0.5"/>
<stop stop-color="#000400" offset="1"/>
</linearGradient>
</defs>
<g id="layer1" inkpad:layerName="layer1">
<g opacity="1">
<g opacity="1">
<path d="M402.408+459.83C399.758+502.973+362.632+535.8+319.483+533.15C276.336+530.5+243.505+493.377+246.154+450.233C248.804+407.09+285.931+374.263+329.079+376.913C372.227+379.563+405.058+416.686+402.408+459.83Z" opacity="0.5" fill="#000000"/>
<path d="M394.763+459.36C392.113+502.504+354.987+535.331+311.838+532.681C268.691+530.031+235.86+492.908+238.509+449.764C241.159+406.621+278.285+373.794+321.434+376.444C364.581+379.094+397.412+416.217+394.763+459.36Z" opacity="1" fill="#015a01"/>
</g>
<g opacity="1">
<path d="M119.151+623.461C116.502+666.605+79.3753+699.432+36.227+696.782C-6.92071+694.132-39.7517+657.009-37.1019+613.865C-34.4522+570.722+2.67418+537.895+45.8225+540.545C88.9702+543.195+121.801+580.317+119.151+623.461Z" opacity="0.5" fill="#000400"/>
<path d="M127.299+616.288C124.649+659.432+87.5231+692.259+44.3748+689.609C1.22708+686.959-31.6039+649.836-28.9542+606.692C-26.3045+563.549+10.8219+530.722+53.9703+533.372C97.118+536.022+129.949+573.145+127.299+616.288Z" opacity="1" fill="#006000"/>
</g>
<g opacity="1">
<path d="M11.7673+647.624C9.11757+690.767+41.9479+727.891+85.0962+730.541C128.244+733.191+165.371+700.364+168.021+657.22C170.67+614.077+137.84+576.954+94.6916+574.304C51.5439+571.654+14.417+604.48+11.7673+647.624Z" opacity="0.5" fill="#000400"/>
<path d="M16.0482+640.214C13.3985+683.357+46.2289+720.48+89.3772+723.13C132.525+725.78+169.652+692.954+172.302+649.81C174.951+606.667+142.121+569.543+98.9727+566.893C55.8249+564.243+18.698+597.07+16.0482+640.214Z" opacity="1" fill="#339900"/>
</g>
<g opacity="1">
<path d="M191.503+669.437C188.853+712.58+221.684+749.704+264.832+752.354C307.979+755.004+345.106+722.177+347.756+679.034C350.406+635.89+317.576+598.767+274.427+596.117C231.28+593.467+194.153+626.293+191.503+669.437Z" opacity="0.5" fill="#000000"/>
<path d="M180.248+664.909C177.598+708.052+210.428+745.176+253.577+747.826C296.724+750.476+333.851+717.649+336.501+674.506C339.151+631.362+306.32+594.239+263.172+591.589C220.024+588.939+182.897+621.765+180.248+664.909Z" opacity="1" fill="url(#LinearGradient)"/>
</g>
<g opacity="1">
<path d="M339.58+396.177C336.931+439.321+299.804+472.148+256.656+469.498C213.508+466.848+180.677+429.725+183.327+386.581C185.977+343.438+223.103+310.611+266.251+313.261C309.399+315.911+342.23+353.034+339.58+396.177Z" opacity="0.5" fill="#000000"/>
<path d="M331.701+399.519C329.051+442.662+291.925+475.489+248.777+472.839C205.629+470.189+172.798+433.066+175.448+389.923C178.097+346.779+215.224+313.952+258.372+316.602C301.52+319.252+334.351+356.375+331.701+399.519Z" opacity="1" fill="#00ac00"/>
</g>
<g opacity="1">
<path d="M294.715+684.839C292.066+727.982+254.939+760.809+211.791+758.159C168.643+755.509+135.812+718.386+138.462+675.242C141.112+632.099+178.238+599.272+221.386+601.922C264.534+604.572+297.365+641.695+294.715+684.839Z" opacity="0.5" fill="#000000"/>
<path d="M291.318+676.957C288.668+720.1+251.542+752.927+208.394+750.277C165.246+747.627+132.415+710.504+135.065+667.36C137.714+624.217+174.841+591.39+217.989+594.04C261.137+596.69+293.968+633.813+291.318+676.957Z" opacity="1" fill="#006400"/>
</g>
<g opacity="1">
<path d="M414.786+538.116C412.137+581.259+375.01+614.086+331.862+611.436C288.714+608.786+255.883+571.663+258.533+528.519C261.183+485.376+298.309+452.549+341.457+455.199C384.605+457.849+417.436+494.972+414.786+538.116Z" opacity="0.5" fill="#000000"/>
<path d="M407.108+537.644C404.458+580.787+367.332+613.614+324.184+610.964C281.036+608.314+248.205+571.191+250.854+528.048C253.504+484.904+290.631+452.077+333.779+454.727C376.927+457.377+409.758+494.5+407.108+537.644Z" opacity="1" fill="#007c00"/>
</g>
<g opacity="1">
<path d="M256.576+380.162C253.926+423.305+216.799+456.132+173.651+453.482C130.503+450.832+97.6724+413.709+100.322+370.565C102.972+327.422+140.098+294.595+183.247+297.245C226.394+299.895+259.225+337.018+256.576+380.162Z" opacity="0.5" fill="#000000"/>
<path d="M244.906+383.282C242.256+426.425+205.13+459.252+161.982+456.602C118.834+453.952+86.003+416.829+88.6527+373.685C91.3025+330.542+128.429+297.715+171.577+300.365C214.725+303.015+247.556+340.138+244.906+383.282Z" opacity="1" fill="#009c00"/>
</g>
<g opacity="1">
<path d="M213.161+395.209C210.512+438.352+173.385+471.179+130.237+468.529C87.0893+465.879+54.2583+428.756+56.908+385.612C59.5577+342.469+96.6841+309.642+139.832+312.292C182.98+314.942+215.811+352.065+213.161+395.209Z" opacity="0.5" fill="#000000"/>
<path d="M212.69+402.886C210.04+446.029+172.914+478.856+129.765+476.206C86.6178+473.556+53.7868+436.434+56.4365+393.29C59.0862+350.146+96.2126+317.319+139.361+319.969C182.509+322.619+215.34+359.742+212.69+402.886Z" opacity="1" fill="#008c00"/>
</g>
<g opacity="1">
<path d="M399.872+638.936C397.222+682.08+360.096+714.906+316.947+712.256C273.8+709.607+240.969+672.484+243.618+629.34C246.268+586.197+283.395+553.37+326.543+556.02C369.691+558.67+402.522+595.792+399.872+638.936Z" opacity="0.5" fill="#000000"/>
<path d="M392.461+634.644C389.812+677.788+352.685+710.615+309.537+707.965C266.389+705.315+233.558+668.192+236.208+625.048C238.858+581.905+275.984+549.078+319.132+551.728C362.28+554.378+395.111+591.501+392.461+634.644Z" opacity="1" fill="#008400"/>
</g>
<g opacity="1">
<path d="M400.766+573.216C398.116+616.36+360.99+649.187+317.841+646.537C274.694+643.887+241.863+606.764+244.512+563.62C247.162+520.477+284.288+487.65+327.437+490.3C370.584+492.95+403.415+530.073+400.766+573.216Z" opacity="0.5" fill="#000000"/>
<path d="M392.909+576.56C390.259+619.703+353.132+652.53+309.984+649.88C266.836+647.23+234.006+610.107+236.655+566.963C239.305+523.82+276.431+490.993+319.58+493.643C362.727+496.293+395.558+533.416+392.909+576.56Z" opacity="1" fill="#007800"/>
</g>
<g opacity="1">
<path d="M364.703+443.801C362.054+486.944+324.927+519.771+281.779+517.121C238.631+514.471+205.8+477.348+208.45+434.204C211.1+391.061+248.226+358.234+291.374+360.884C334.522+363.534+367.353+400.657+364.703+443.801Z" opacity="0.5" fill="#000400"/>
<path d="M356.846+447.144C354.196+490.287+317.07+523.114+273.922+520.464C230.774+517.814+197.943+480.691+200.593+437.547C203.242+394.404+240.369+361.577+283.517+364.227C326.665+366.877+359.496+404+356.846+447.144Z" opacity="1" fill="#339900"/>
</g>
<g opacity="1">
<path d="M152.374+398.45C149.725+441.593+182.555+478.716+225.703+481.366C268.851+484.016+305.978+451.19+308.628+408.046C311.277+364.903+278.447+327.779+235.299+325.129C192.151+322.479+155.024+355.306+152.374+398.45Z" opacity="0.5" fill="#000000"/>
<path d="M144.517+401.793C141.867+444.936+174.698+482.059+217.846+484.709C260.994+487.359+298.121+454.533+300.77+411.389C303.42+368.246+270.59+331.122+227.441+328.472C184.294+325.822+147.167+358.649+144.517+401.793Z" opacity="1" fill="#00b000"/>
</g>
<g opacity="1">
<path d="M367.78+636.336C365.13+679.479+328.004+712.306+284.856+709.656C241.708+707.006+208.877+669.884+211.527+626.74C214.176+583.596+251.303+550.769+294.451+553.419C337.599+556.069+370.43+593.192+367.78+636.336Z" opacity="0.5" fill="#000000"/>
<path d="M356.525+631.808C353.875+674.952+316.749+707.779+273.601+705.129C230.453+702.479+197.622+665.356+200.272+622.212C202.921+579.069+240.048+546.242+283.196+548.892C326.344+551.542+359.175+588.664+356.525+631.808Z" opacity="1" fill="#006000"/>
</g>
<g opacity="1">
<path d="M355.278+564.601C352.628+607.744+315.501+640.571+272.353+637.921C229.206+635.271+196.375+598.148+199.024+555.004C201.674+511.861+238.8+479.034+281.949+481.684C325.096+484.334+357.927+521.457+355.278+564.601Z" opacity="0.5" fill="#000400"/>
<path d="M347.365+567.951C344.715+611.095+307.588+643.922+264.44+641.272C221.292+638.622+188.461+601.499+191.111+558.355C193.761+515.212+230.887+482.385+274.036+485.035C317.183+487.685+350.014+524.808+347.365+567.951Z" opacity="1" fill="#009400"/>
</g>
<g opacity="1">
<path d="M333.644+439.367C330.994+482.51+293.868+515.337+250.719+512.687C207.572+510.037+174.741+472.914+177.39+429.77C180.04+386.627+217.167+353.8+260.315+356.45C303.463+359.1+336.294+396.223+333.644+439.367Z" opacity="0.5" fill="#000000"/>
<path d="M329.308+446.774C326.658+489.917+289.531+522.744+246.383+520.094C203.235+517.444+170.405+480.321+173.054+437.177C175.704+394.034+212.83+361.207+255.979+363.857C299.126+366.507+331.957+403.63+329.308+446.774Z" opacity="1" fill="#008400"/>
</g>
<g opacity="1">
<path d="M350.644+499.855C347.994+542.998+310.867+575.825+267.719+573.175C224.571+570.525+191.74+533.402+194.39+490.258C197.04+447.115+234.166+414.288+277.315+416.938C320.462+419.588+353.293+456.711+350.644+499.855Z" opacity="0.5" fill="#000000"/>
<path d="M342.786+503.209C340.136+546.352+303.01+579.179+259.861+576.529C216.714+573.879+183.883+536.756+186.532+493.612C189.182+450.469+226.308+417.642+269.457+420.292C312.604+422.942+345.435+460.065+342.786+503.209Z" opacity="1" fill="#007800"/>
</g>
<g opacity="1">
<path d="M71.4349+666.982C68.7852+710.125+101.616+747.249+144.764+749.899C187.912+752.549+225.039+719.722+227.688+676.578C230.338+633.435+197.508+596.312+154.359+593.662C111.212+591.012+74.0846+623.838+71.4349+666.982Z" opacity="0.5" fill="#000000"/>
<path d="M79.2928+663.628C76.6431+706.771+109.473+743.895+152.622+746.545C195.769+749.195+232.896+716.368+235.546+673.224C238.196+630.081+205.366+592.958+162.217+590.308C119.069+587.658+81.9426+620.484+79.2928+663.628Z" opacity="1" fill="#008c00"/>
</g>
<g opacity="1">
<path d="M-60.75+531.351C-63.3997+574.494-30.5693+611.617+12.579+614.267C55.7267+616.917+92.8537+584.091+95.5034+540.947C98.1531+497.804+65.3227+460.68+22.1744+458.03C-20.9733+455.38-58.1003+488.207-60.75+531.351Z" opacity="0.5" fill="#000400"/>
<path d="M-52.8921+527.996C-55.5418+571.14-22.7115+608.263+20.4368+610.913C63.5845+613.563+100.712+580.737+103.361+537.593C106.011+494.45+73.1806+457.326+30.0323+454.676C-13.1154+452.026-50.2424+484.853-52.8921+527.996Z" opacity="1" fill="#007400"/>
</g>
<g opacity="1">
<path d="M1.21719+405.751C-1.4325+448.895+31.3979+486.018+74.5462+488.668C117.694+491.318+154.821+458.492+157.471+415.348C160.12+372.204+127.29+335.081+84.1416+332.431C40.9939+329.781+3.86692+362.607+1.21719+405.751Z" opacity="0.5" fill="#000000"/>
<path d="M6.72707+409.932C4.07737+453.075+36.9077+490.198+80.056+492.848C123.204+495.498+160.331+462.672+162.98+419.528C165.63+376.385+132.8+339.262+89.6515+336.612C46.5038+333.962+9.3768+366.788+6.72707+409.932Z" opacity="1" fill="#007c00"/>
</g>
<g opacity="1">
<path d="M114.305+440.14C111.655+483.283+144.486+520.407+187.634+523.057C230.782+525.707+267.909+492.88+270.559+449.736C273.208+406.593+240.378+369.47+197.229+366.82C154.082+364.17+116.955+396.996+114.305+440.14Z" opacity="0.5" fill="#000000"/>
<path d="M109.969+447.547C107.319+490.69+140.149+527.814+183.298+530.464C226.445+533.113+263.572+500.287+266.222+457.143C268.872+414+236.042+376.877+192.893+374.227C149.746+371.577+112.619+404.403+109.969+447.547Z" opacity="1" fill="#006c00"/>
</g>
<g opacity="1">
<path d="M-55.7026+477.066C-58.3523+520.21-25.522+557.333+17.6263+559.983C60.7741+562.633+97.901+529.807+100.551+486.663C103.2+443.519+70.3701+406.396+27.2218+403.746C-15.9259+401.096-53.0529+433.922-55.7026+477.066Z" opacity="0.5" fill="#000000"/>
<path d="M-47.5547+469.893C-50.2044+513.037-17.3741+550.16+25.7743+552.81C68.922+555.46+106.049+522.634+108.699+479.49C111.348+436.346+78.518+399.223+35.3697+396.573C-7.778+393.923-44.905+426.749-47.5547+469.893Z" opacity="1" fill="#008000"/>
</g>
<g opacity="1">
<path d="M-14.2793+456.65C-16.929+499.794+15.9013+536.917+59.0496+539.567C102.197+542.217+139.324+509.391+141.974+466.247C144.624+423.104+111.793+385.98+68.6451+383.33C25.4974+380.68-11.6296+413.507-14.2793+456.65Z" opacity="0.5" fill="#000000"/>
<path d="M-2.78943+457.356C-5.43913+500.499+27.3912+537.623+70.5395+540.273C113.687+542.923+150.814+510.096+153.464+466.953C156.114+423.809+123.283+386.686+80.135+384.036C36.9873+381.386-0.139719+414.212-2.78943+457.356Z" opacity="1" fill="url(#LinearGradient_2)"/>
</g>
<g opacity="1">
<path d="M147.121+598.45C144.472+641.594+107.345+674.421+64.1971+671.771C21.0494+669.121-11.7816+631.998-9.13188+588.854C-6.4822+545.711+30.6442+512.884+73.7925+515.534C116.94+518.184+149.771+555.306+147.121+598.45Z" opacity="0.5" fill="#000400"/>
<path d="M154.979+595.096C152.33+638.24+115.203+671.067+72.0549+668.417C28.9072+665.767-3.92373+628.644-1.27401+585.5C1.37569+542.356+38.5021+509.53+81.6504+512.18C124.798+514.829+157.629+551.952+154.979+595.096Z" opacity="1" fill="#339900"/>
</g>
<g opacity="1">
<path d="M158.384+518.886C155.734+562.03+188.565+599.153+231.713+601.803C274.861+604.453+311.988+571.627+314.637+528.483C317.287+485.34+284.457+448.216+241.308+445.566C198.161+442.916+161.034+475.743+158.384+518.886Z" opacity="0.5" fill="#000000"/>
<path d="M154.103+526.297C151.453+569.44+184.284+606.564+227.432+609.214C270.58+611.864+307.707+579.037+310.356+535.893C313.006+492.75+280.176+455.627+237.027+452.977C193.88+450.327+156.753+483.153+154.103+526.297Z" opacity="1" fill="url(#LinearGradient_3)"/>
</g>
<g opacity="1">
<path d="M124.24+507.98C121.591+551.123+84.4641+583.95+41.3159+581.3C-1.83188+578.65-34.6628+541.527-32.0131+498.383C-29.3634+455.24+7.76298+422.413+50.9113+425.063C94.059+427.713+126.89+464.836+124.24+507.98Z" opacity="0.5" fill="#000000"/>
<path d="M131.629+512.27C128.979+555.413+91.8525+588.24+48.7042+585.59C5.55652+582.94-27.2745+545.818-24.6247+502.674C-21.975+459.53+15.1514+426.703+58.2997+429.353C101.447+432.003+134.278+469.126+131.629+512.27Z" opacity="1" fill="#339900"/>
</g>
<g opacity="1">
<path d="M5.39994+510.981C2.75025+554.125+35.5806+591.248+78.7289+593.898C121.877+596.548+159.004+563.722+161.653+520.578C164.303+477.434+131.473+440.311+88.3243+437.661C45.1766+435.011+8.04967+467.837+5.39994+510.981Z" opacity="0.5" fill="#000400"/>
<path d="M17.1249+507.859C14.4752+551.003+47.3056+588.126+90.4539+590.776C133.602+593.426+170.729+560.6+173.378+517.456C176.028+474.312+143.198+437.189+100.049+434.539C56.9016+431.889+19.7747+464.715+17.1249+507.859Z" opacity="1" fill="#44aa00"/>
</g>
<g opacity="1">
<path d="M89.3402+470.199C86.6905+513.342+119.521+550.465+162.669+553.115C205.817+555.765+242.944+522.939+245.594+479.795C248.243+436.652+215.413+399.528+172.265+396.878C129.117+394.228+91.9899+427.055+89.3402+470.199Z" opacity="0.5" fill="#000000"/>
<path d="M88.8708+477.843C86.221+520.986+119.051+558.11+162.2+560.76C205.347+563.41+242.474+530.583+245.124+487.44C247.774+444.296+214.943+407.173+171.795+404.523C128.647+401.873+91.5205+434.699+88.8708+477.843Z" opacity="1" fill="#009400"/>
</g>
<g opacity="1">
<path d="M169.938+613.971C167.288+657.115+200.118+694.238+243.266+696.888C286.414+699.538+323.541+666.712+326.191+623.568C328.841+580.425+296.01+543.301+252.862+540.651C209.714+538.001+172.587+570.828+169.938+613.971Z" opacity="0.5" fill="#000000"/>
<path d="M160.498+611.473C157.849+654.617+190.679+691.74+233.827+694.39C276.975+697.04+314.102+664.214+316.752+621.07C319.401+577.927+286.571+540.803+243.423+538.153C200.275+535.503+163.148+568.33+160.498+611.473Z" opacity="1" fill="#2ca02c"/>
</g>
<g opacity="1">
<path d="M135.067+558.102C132.417+601.246+165.248+638.369+208.396+641.019C251.544+643.669+288.671+610.843+291.32+567.699C293.97+524.556+261.14+487.432+217.992+484.782C174.844+482.132+137.717+514.958+135.067+558.102Z" opacity="0.5" fill="#000000"/>
<path d="M127.444+557.634C124.794+600.777+157.625+637.901+200.773+640.551C243.921+643.201+281.048+610.375+283.697+567.231C286.347+524.087+253.517+486.964+210.368+484.314C167.221+481.664+130.094+514.49+127.444+557.634Z" opacity="1" fill="#217821"/>
</g>
<g opacity="1">
<path d="M40.9937+518.987C38.2074+562.121+70.9202+599.348+114.06+602.135C157.199+604.921+194.43+572.213+197.217+529.078C200.003+485.943+167.29+448.716+124.15+445.93C81.0108+443.143+43.78+475.852+40.9937+518.987Z" opacity="0.5" fill="#000000"/>
<path d="M40.5242+526.631C37.7379+569.766+70.4508+606.992+113.591+609.779C156.73+612.566+193.961+579.857+196.747+536.722C199.533+493.588+166.821+456.361+123.681+453.574C80.5413+450.788+43.3105+483.496+40.5242+526.631Z" opacity="1" fill="#217821"/>
</g>
<g opacity="1">
<path d="M27.6834+611.959C25.0337+655.102+57.8641+692.226+101.012+694.876C144.16+697.526+181.287+664.699+183.937+621.555C186.587+578.412+153.756+541.289+110.608+538.639C67.4601+535.989+30.3332+568.815+27.6834+611.959Z" opacity="0.5" fill="#000000"/>
<path d="M31.9649+604.543C29.3152+647.686+62.1455+684.81+105.294+687.46C148.442+690.11+185.569+657.283+188.218+614.139C190.868+570.996+158.038+533.873+114.889+531.223C71.7416+528.573+34.6146+561.399+31.9649+604.543Z" opacity="1" fill="#006400"/>
</g>
<g opacity="1">
<path d="M233.949+545.768C231.299+588.911+194.173+621.738+151.024+619.088C107.877+616.438+75.0457+579.316+77.6954+536.172C80.3451+493.028+117.472+460.201+160.62+462.851C203.768+465.501+236.599+502.624+233.949+545.768Z" opacity="0.5" fill="#000000"/>
<path d="M238.23+538.358C235.58+581.501+198.454+614.328+155.305+611.678C112.158+609.028+79.3267+571.905+81.9764+528.761C84.6261+485.618+121.753+452.791+164.901+455.441C208.049+458.091+240.88+495.214+238.23+538.358Z" opacity="1" fill="#00ac00"/>
</g>
<g opacity="1">
<path d="M116.696+644.366C114.046+687.509+146.876+724.633+190.025+727.283C233.172+729.933+270.299+697.106+272.949+653.962C275.599+610.819+242.768+573.696+199.62+571.046C156.472+568.396+119.345+601.222+116.696+644.366Z" opacity="0.5" fill="#000000"/>
<path d="M121.094+635.044C118.444+678.188+151.275+715.311+194.423+717.961C237.571+720.611+274.698+687.785+277.348+644.641C279.997+601.498+247.167+564.374+204.019+561.724C160.871+559.074+123.744+591.901+121.094+635.044Z" opacity="1" fill="#007800"/>
</g>
<g opacity="1">
<path d="M87.0515+589.69C84.4018+632.833+117.232+669.957+160.38+672.607C203.528+675.257+240.655+642.43+243.305+599.286C245.955+556.143+213.124+519.02+169.976+516.37C126.828+513.72+89.7012+546.546+87.0515+589.69Z" opacity="0.34496" fill="#000000"/>
<path d="M97.0774+582.632C94.4277+625.776+127.258+662.899+170.406+665.549C213.554+668.199+250.681+635.373+253.331+592.229C255.98+549.086+223.15+511.962+180.002+509.312C136.854+506.662+99.7271+539.489+97.0774+582.632Z" opacity="1" fill="#009800"/>
</g>
<path d="M-3.32801+1019.57C38.8719+1002.41+86.6294+991.407+90.415+962.117C94.2013+932.826+121.554+920.467+140.653+907.055C168.515+887.491+173.426+760.859+164.951+728.225C164.41+726.142+155.213+721.983+142.335+716.944C139.684+715.906+74.7884+740.854+71.8689+739.752C70.6075+739.276+105.119+726.962+113.025+723.326C113.779+722.979+96.0717+717.191+96.8369+716.842C98.011+716.307+117.66+721.211+118.822+720.685C126.97+716.996+134.255+713.743+132.793+713.837C123.27+714.449+97.3506+702.324+69.0412+684.886C68.4931+684.548+60.2573+683.897+50.606+683.187C49.9334+683.137+43.9088+686.85+43.2247+686.8C42.6631+686.759+47.4435+682.955+46.8768+682.914C33.7582+681.959+19.5548+680.957+18.8246+680.497C18.329+680.186+25.5888+680.187+34.2464+680.243C34.8074+680.247+26.3471+674.583+26.9178+674.587C27.4806+674.591+37.0749+680.263+37.6448+680.267C49.3307+680.354+62.0133+680.479+61.3606+680.061C51.3293+673.637+41.1587+666.643+31.4516+659.397C30.6269+658.782+23.4351+657.487+15.1416+656.074C14.5181+655.968+6.95702+658.81+6.32296+658.703C5.6804+658.594+11.965+655.536+11.3167+655.426C0.530231+653.606-10.7447+651.732-11.7747+650.948C-12.4327+650.447-5.77957+650.724+1.71196+651.09C2.50806+651.129-4.91958+643.914-4.11218+643.954C-3.3103+643.994+5.72663+651.289+6.52452+651.329C14.4343+651.719+21.7613+652.048+21.082+651.523C14.9986+646.825+9.10962+641.965+3.54662+637.16C3.27567+636.926-2.47126+635.879-8.82477+634.742C-9.44797+634.631-15.0869+637.585-15.7172+637.473C-16.3631+637.358-12.0005+634.175-12.6441+634.06C-19.372+632.858-25.7015+631.715-25.9829+631.47C-26.5899+630.94+0.519965+634.524-0.0791441+633.996C-6.87448+628.007-13.1119+622.176-18.5322+616.928C-19.1931+616.288-33.5952+611.919-34.2314+611.297C-34.6465+610.891-21.3035+614.227-21.7071+613.83C-32.8948+602.828-39.8695+595.065-39.8695+595.065C-39.8695+595.065-34.4087+599.065-27.439+604.253C-26.9814+604.593-28.9865+598.038-28.517+598.388C-27.9533+598.808-24.9126+606.136-24.3353+606.567C-17.4683+611.699-9.77699+617.518-4.52084+621.706C-3.68595+622.371-4.21193+590.469-3.37755+591.137C-2.38306+591.932-1.86079+601.307-1.3059+610.087C-1.26419+610.747+4.98434+604.553+5.02658+605.202C5.06848+605.845-1.09582+613.331-1.05299+613.957C-0.638004+620.006-0.166859+625.034+0.549262+625.608C12.0368+634.817+23.8766+644.351+36.0011+653.327C36.5248+653.714+36.904+639.558+37.2743+624.451C37.2999+623.401+19.6463+600.667+19.6723+599.613C19.7109+598.029+37.2812+620.524+37.3203+618.955C37.6788+604.447+38.1984+588.858+38.7063+589.228C39.4035+589.735+40.3103+611.139+41.1927+630.021C41.2318+630.858+53.322+616.038+53.3611+616.863C53.399+617.666+41.3863+634.115+41.4243+634.903C42.0355+647.637+42.6248+658.149+43.1133+658.497C63.9564+673.362+85.5849+686.104+107.659+692.346L104.099+667.529L93.4521+662.376L76.1877+662.443L90.5527+660.973L72.3767+652.175L58.9138+651.382L69.1941+650.634L52.1301+642.375L77.2175+652.579L72.7362+638.368L78.9306+652.935L102.895+663.022L83.8398+628.952L67.3985+618.259L81.7645+625.24L69.384+603.104L77.2997+614.308L76.3748+604.497L79.5381+617.477L92.0069+635.126L94.6669+626.902L92.4954+617.649L95.5564+624.152L99.2524+612.725L94.4557+637.857L108.464+662.215L110.765+648.216L108.303+640.579L111.259+645.21L113.279+632.919L113.056+652.449L119.34+645.332L113.025+655.167L112.868+668.939L120.879+695.556L167.667+704.57C171.419+689.5+169.568+684.167+167.549+674.342C130.022+643.264+102.294+611.966+71.4781+574.957C71.0881+574.489+65.6819+572.542+58.3517+570.027C57.916+569.877+31.9039+578.041+31.4555+577.888C30.9178+577.704+55.9408+569.202+55.3871+569.014C38.9405+563.416+15.7018+555.815+14.8853+554.817C14.3027+554.106+28.6786+557.802+42.0937+561.214C42.439+561.302+34.2747+544.503+34.6182+544.59C34.9225+544.667+43.735+561.63+44.0379+561.708C55.0718+564.509+64.9088+566.957+64.4292+566.363C58.1019+558.531+47.6026+543.127+36.2926+525.927C35.5726+524.832-11.8694+510.564-12.5952+509.456C-12.8667+509.042+1.1182+512.455+13.6089+515.573C14.3731+515.763+7.81438+501.867+8.5638+502.055C9.33192+502.247+15.4116+515.719+16.4959+515.927C24.6365+517.486+32.6536+520.376+32.6536+520.376L12.4632+489.069L-6.50878+477.413C-6.50878+477.413+11.1186+486.664+10.337+485.438C2.478+473.125-5.84496+460.345-10.028+453.886C-4.57621+459.606+8.74137+479.072+21.624+497.911C21.9534+498.393+22.5942+495.671+23.3087+492.187C23.397+491.757+19.8457+481.204+19.9357+480.755C20.0232+480.319+23.752+489.987+23.8404+489.541C24.8564+484.422+25.9023+478.984+26.3534+479.643C26.9366+480.496+23.5215+500.208+24.0998+501.053C34.1137+515.676+45.123+532.079+49.339+536.819C49.9578+537.515+54.9308+506.004+55.5494+506.701C56.094+507.313+55.5972+515.628+55.0776+524.112C55.008+525.247+60.9149+517.889+60.847+519.012C60.8054+519.698+54.788+528.875+54.7485+529.546C54.3486+536.353+54.084+542.159+54.5357+542.667C66.7278+556.393+78.9175+570.119+91.3909+583.144C92.1388+583.925+93.9236+575.332+95.8064+565.86C95.9184+565.297+89.9201+547.65+90.0327+547.082C90.1883+546.296+96.455+562.588+96.6107+561.801C98.6242+551.636+101.399+542.659+101.399+542.659C101.399+542.659+101.314+548.749+100.267+555.698C100.167+556.366+106.573+550.97+106.466+551.662C106.432+551.884+99.887+558.185+99.8521+558.409C97.9092+570.926+95.1866+586.477+96.2044+587.492C110.257+601.502+130.532+623.487+145.853+634.353L156.848+617.083L150.073+638.418L175.286+655.477L175.104+622.808L127.388+538.764L118.117+535.498L102.678+535.697L112.827+533.634L69.4449+518.349L100.409+526.727L90.788+508.321L105.69+528.156L125.225+533.441L96.2243+486.144L86.0259+483.531L69.8548+486.718L83.3744+482.852L59.5884+476.758L79.2218+479.828L72.4142+469.517L81.6319+480.68L94.0412+482.887L61.2347+429.703L56.0572+426.064L46.0281+423.971L53.8143+424.487L42.596+416.602L58.7103+425.611L36.4255+389.485L51.9174+413.519L50.1728+402.853L53.761+416.379L78.8404+455.286L79.6977+449.793L75.5524+436.599L80.2251+446.415L82.3269+432.949L80.7212+458.634L107.469+500.389L110.573+493.803L109.074+482.19L111.677+491.46L117.71+478.657L109.277+502.976L180.134+611.504L182.561+563.686L168.556+547.713L141.46+540.581L165.689+544.486L142.837+509.984L119.765+497.103L140.752+506.835L111.01+461.93L133.004+492.304L133.869+474.211L134.717+494.67L159.392+528.749L161.899+511.765L162.59+533.254L183.171+557.195L182.051+479.916L158.8+455.864L142.04+454.618L125.275+461.071L139.321+454.416L103.313+451.739L130.087+452.541L121.221+438.638L131.777+452.18L156.046+452.556L119.813+418.481L94.352+407.475L115.468+413.89L81.9878+378.523L104.906+400.189L104.663+379.895L108.703+403.778L139.496+432.889L137.942+399.854L127.471+382.941L137.679+394.242L136.786+375.252L141.448+408.713L152+395.166L142.627+416.308L143.57+435.778L183.31+474.308L183.366+440.728L156.245+408.832L183.38+432.324L183.41+414.122L153.711+370.618L168.709+390.046L167.551+370.477L172.083+394.417L183.418+409.1L183.499+360.353L173.822+337.366L183.507+355.331L183.553+327.278L184.502+370.841L208.337+338.398L194.937+360.53L211.135+355.182L192.738+364.161L185.411+374.211L185.601+421.314L205.57+400.077L185.71+426.327L186.149+446.469L214.108+424.531L208.381+380.827L217.452+421.386L258.667+386.01L236.45+408.475L260.465+406.353L235.106+411.929L187.236+452.329L188.687+524.04L208.265+507.186L208.082+485.249L203.059+469.952L208.045+480.837L207.846+457.059L209.507+490.323L217.179+478.808L209.642+493.025L210.22+504.612L241.476+464.404L241.327+448.43L235.592+433.601L241.289+444.333L241.109+424.964L243.39+461.941L262.676+437.131L262.995+417.228L264.472+434.821L275.113+421.131L254.225+450.849L283.359+436.945L266.936+445.786L278.55+445.101L264.426+447.137L252.213+453.712L221.688+497.14L233.79+495.27L242.912+486.822L236.633+494.831L249.297+492.873L220.864+499.951L189.78+527.674L192.402+610.023L218.501+572.946L210.162+523.138L216.39+546.301L221.137+527.187L218.272+553.3L221.983+567.101L257.496+517.549L257.348+508.888L252.145+497.497L257.296+505.835L256.608+465.493L259.868+497.288L265.501+483.722L260.412+501.052L262.197+513.394L301.819+458.539L301.462+432.39L303.996+454.687L332.985+415.39L317.349+438.69L328.115+431.29L315.595+441.304L286.951+483.987L309.975+473.622L312.538+468.409L312.61+459.291L313.819+465.802L317.513+458.288L312.057+472.303L336.683+461.599L322.965+468.938L331.933+469.357L320.803+470.094L301.637+480.347L328.521+478.305L314.048+480.017L321.363+482.762L311.267+480.346L298.904+481.809L283.897+489.836L236.285+562.042L266.466+548.535L232.316+569.995L197.013+621.601L197.428+652.824L219.909+638.71L229.675+619.901L229.756+601.125L232.449+614.558L242.162+595.849L227.486+634.493C252.999+617.547+275.118+598.636+296.352+579.213C296.731+578.866+296.091+574.581+294.964+568.41C294.863+567.856+283.115+557.027+283.006+556.444C282.902+555.888+294.439+565.581+294.329+565.001C293.013+558.048+291.281+549.487+289.71+541.546C289.523+540.606+278.341+527.237+278.16+526.318C278.01+525.555+288.861+537.237+288.717+536.493C286.695+526.126+285.209+517.832+285.739+517.343C286.361+516.77+292.844+545.099+295.34+555.668C295.476+556.242+305.601+540.067+305.737+540.639C305.998+541.745+296.268+559.592+296.525+560.668C298.509+568.987+300.272+575.996+300.775+575.529C310.565+566.445+329.053+548.782+346.255+532.56C346.613+532.222+347.889+523.911+349.279+514.599C349.359+514.06+340.746+500.311+340.827+499.766C340.978+498.754+349.823+510.942+349.975+509.925C351.552+499.324+353.106+488.918+353.505+488.542C353.747+488.315+353.146+495.399+352.409+503.674C352.378+504.011+358.921+497.253+358.891+497.594C358.85+498.046+352.237+505.598+352.196+506.055C351.216+516.978+350.119+528.919+350.429+528.627C361.294+518.407+371.293+509.118+377.786+503.409C366.989+515.583+350.314+533.348+333.152+551.127C332.749+551.544+348.236+547.162+360.98+543.609C361.553+543.448+367.58+527.383+368.141+527.227C368.953+527.001+362.619+542.583+363.397+542.367C370.489+540.401+375.881+538.948+375.64+539.197C375.384+539.462+371.894+541.312+365.021+543.576C361.8+544.636+358.205+545.81+354.562+546.998C353.61+547.309+367.514+551.894+366.561+552.205C366+552.388+350.579+548.297+350.022+548.479C339.147+552.027+329.085+555.33+328.725+555.702C311.553+573.408+294.358+590.651+282.503+601.885C281.566+602.773+298.41+600.943+315.498+599.072C316.046+599.012+330.902+575.749+331.449+575.688C332.243+575.602+318.729+598.719+319.52+598.632C335.684+596.865+350.828+595.251+349.928+596.085C348.79+597.139+322.637+601.08+301.243+604.468C300.437+604.596+316.491+613.038+315.7+613.164C314.974+613.279+297.403+605.078+296.692+605.192C284.201+607.191+274.262+608.894+273.561+609.527C251.289+629.663+227.376+648.405+200.788+664.87C203.008+680.35+201.131+694.976+207.677+704.522L252.226+682.28L250.438+657.773L242.989+643.01L250.031+652.198L248.937+637.21L253.379+663.884L269.926+645.397L254.784+668.648L258.234+680.335C272.955+677.435+286.48+670.92+299.364+662.464C300.128+661.963+300.592+656.755+300.966+650.139C301.013+649.231+285.046+635.551+285.094+634.599C285.131+633.863+301.189+645.863+301.225+645.11C301.775+633.696+302.53+615.699+303.737+614.837C304.666+614.173+305.032+629.558+305.713+639.515C305.789+640.631+319.375+622.41+319.452+623.5C319.52+624.465+306.079+644.747+306.148+645.668C306.648+652.337+307.179+657.545+307.84+657.045C319.151+648.477+330.861+638.063+342.622+627.7C343.003+627.365+343.51+622.298+344.03+616.798C344.104+616.007+338.254+608.507+338.329+607.712C338.403+606.917+344.403+612.827+344.477+612.052C344.95+607.122+345.404+602.862+345.752+602.556C346.733+601.693+347.099+623.763+348.08+622.904C353.844+617.858+359.607+612.895+365.329+608.236C366.199+607.528+373.998+584.283+374.866+583.59C375.449+583.124+369.102+605.206+369.684+604.747C373.196+601.981+391.169+582.816+394.633+580.377C393.278+583.796+372.294+607.447+364.495+615.3C363.838+615.961+383.385+609.949+382.712+610.618C381.804+611.522+360.671+619.111+359.744+620.023C345.872+633.669+330.451+647.756+332.37+647.764C343.248+647.243+352.44+646.821+360.14+646.488C361.216+646.441+376.503+633.807+377.522+633.763C378.602+633.718+365.41+646.264+366.426+646.222C447.258+642.885+328.331+651.402+326.522+652.963C305.177+671.381+280.425+689.458+257.185+697.605C255.786+698.095+270.085+702.189+287.164+706.777C287.611+706.897+295.419+701.916+303.348+696.851C303.969+696.454+308.025+678.844+308.644+678.448C309.77+677.729+305.779+695.711+306.867+695.019C313.067+691.072+319.968+686.321+320.338+686.42C321.216+686.654+291.677+707.984+292.564+708.22C315.002+714.186+339.798+720.434+339.798+720.434C339.798+720.434+253.513+701.544+250.772+703.833C235.681+716.464+213.002+726.065+212.708+728.56C208.43+764.873+206.774+901.663+242.161+914.786C264.926+923.23+270.831+923.285+275.547+953.684C280.262+984.082+332.225+1015.29+374.271+1036.42C337.887+1010.45+281.746+1014.09+265.886+968.058C250.025+922.026+245.32+934.472+228.569+932.429C244.492+953.245+245.101+966.597+240.101+985.288C235.099+1003.98+235.803+1012.27+250.963+1035.08C266.124+1057.89+265.653+1095.19+270.601+1125.1C262.177+1094.43+260.019+1053.99+239.361+1034.2C218.703+1014.41+220.689+1002.02+226.787+983.542C232.886+965.065+221.348+953.924+206.086+937.381C203.272+954.098+189.616+974.96+205.731+993.456C221.846+1011.95+221.372+1016.73+203.387+1036.72C185.403+1056.7+198.312+1093.12+201.059+1122.41C196.904+1094.64+173.84+1062.27+190.454+1038.77C207.068+1015.26+196.387+1009.68+184.71+993.455C173.033+977.232+176.598+956.587+177.579+937.217C165.045+950.596+152.749+962.252+155.903+981.025C159.058+999.798+155.74+1010.35+132.918+1027.48C110.096+1044.61+106.348+1076.84+96.1861+1101.72C101.678+1075.17+101.733+1042.46+122.943+1024.18C144.153+1005.91+148.112+992.321+140.325+973.819C132.537+955.318+145.889+946.578+154.003+934.185C135.857+923.58+118.801+927.971+100.906+968.88C83.013+1009.79+29.6694+1001.66-3.33126+1019.57L-3.32801+1019.57Z" opacity="1" fill="url(#LinearGradient_4)"/>
<path d="M-16.9493+1023.08C25.2507+1005.92+73.0082+994.915+76.7938+965.624C80.5802+936.334+107.933+923.975+127.032+910.563C154.894+890.998+159.805+764.367+151.329+731.732C150.788+729.65+141.591+725.49+128.714+720.451C126.063+719.414+61.1672+744.361+58.2476+743.26C56.9863+742.784+91.4977+730.47+99.4035+726.834C100.158+726.487+82.4505+720.699+83.2157+720.35C84.3898+719.814+104.039+724.718+105.201+724.193C113.349+720.504+120.634+717.251+119.172+717.345C109.648+717.957+83.7286+705.832+55.4199+688.394C54.8719+688.056+46.6361+687.405+36.9848+686.695C36.3122+686.645+30.2876+690.358+29.6034+690.308C29.0419+690.267+33.8223+686.463+33.2556+686.422C20.137+685.467+5.93355+684.465+5.20345+684.005C4.70782+683.693+11.9676+683.695+20.6251+683.751C21.1863+683.755+12.7259+678.091+13.2966+678.095C13.8594+678.099+23.4537+683.771+24.0236+683.775C35.7096+683.862+48.3921+683.987+47.7394+683.569C37.7082+677.145+27.5375+670.15+17.8304+662.905C17.0057+662.29+9.81386+660.995+1.52039+659.582C0.896878+659.476-6.66422+662.318-7.29828+662.211C-7.94082+662.102-1.65618+659.044-2.30455+658.934C-13.091+657.114-24.3659+655.24-25.3959+654.456C-26.0538+653.955-19.4008+654.232-11.9093+654.598C-11.1132+654.637-18.5408+647.422-17.7334+647.462C-16.9315+647.502-7.89455+654.797-7.09669+654.836C0.813106+655.227+8.14013+655.555+7.46086+655.031C1.3774+650.332-4.51156+645.473-10.0746+640.667C-10.3455+640.433-16.0925+639.387-22.446+638.25C-23.0692+638.138-28.7081+641.093-29.3384+640.981C-29.9843+640.865-25.6217+637.683-26.2653+637.568C-32.9932+636.366-39.3227+635.223-39.6041+634.978C-40.2111+634.448-13.1013+638.032-13.7004+637.504C-20.4957+631.514-26.7331+625.684-32.1534+620.435C-32.8143+619.795-47.2164+615.427-47.8526+614.805C-48.2677+614.399-34.9247+617.735-35.3283+617.337C-46.516+606.336-53.4907+598.573-53.4907+598.573C-53.4907+598.573-48.0299+602.573-41.0603+607.76C-40.6027+608.101-42.6077+601.546-42.1382+601.896C-41.5745+602.316-38.5338+609.644-37.9565+610.075C-31.0895+615.207-23.3982+621.026-18.142+625.213C-17.3071+625.879-17.8331+593.977-16.9988+594.645C-16.0043+595.439-15.482+604.815-14.9271+613.595C-14.8854+614.255-8.63686+608.061-8.5946+608.71C-8.55271+609.353-14.717+616.839-14.6742+617.464C-14.2592+623.514-13.7881+628.542-13.0719+629.116C-1.58442+638.324+10.2553+647.859+22.3799+656.834C22.9036+657.222+23.2828+643.065+23.6531+627.959C23.6787+626.909+6.02512+604.175+6.05107+603.121C6.08965+601.536+23.66+624.032+23.6991+622.463C24.0576+607.955+24.5772+592.366+25.0851+592.736C25.7823+593.243+26.6891+614.647+27.5715+633.529C27.6106+634.366+39.7008+619.546+39.7398+620.37C39.7778+621.174+27.7651+637.623+27.8031+638.411C28.4142+651.145+29.0036+661.657+29.4921+662.005C50.3352+676.87+71.9637+689.612+94.0383+695.854L90.4773+671.037L79.8309+665.884L62.5665+665.951L76.9315+664.481L58.7554+655.683L45.2926+654.89L55.5729+654.142L38.5089+645.883L63.5963+656.086L59.115+641.875L65.3094+656.443L89.2733+666.53L70.2186+632.46L53.7773+621.767L68.1433+628.748L55.7628+606.611L63.6785+617.816L62.7536+608.005L65.9169+620.985L78.3857+638.634L81.0457+630.41L78.8742+621.157L81.9352+627.66L85.6312+616.233L80.8344+641.365L94.8431+665.723L97.1438+651.724L94.6819+644.087L97.6378+648.718L99.6577+636.426L99.435+655.957L105.719+648.84L99.4041+658.675L99.2471+672.446L107.258+699.064L154.046+708.078C157.798+693.008+155.947+687.674+153.928+677.85C116.401+646.772+88.6728+615.473+57.8568+578.465C57.4669+577.997+52.0607+576.049+44.7305+573.534C44.2948+573.385+18.2827+581.549+17.8343+581.396C17.2967+581.212+42.3196+572.71+41.7659+572.521C25.3193+566.924+2.0806+559.323+1.264+558.325C0.681497+557.614+15.0574+561.31+28.4725+564.722C28.8178+564.809+20.6535+548.011+20.997+548.098C21.3013+548.175+30.1138+565.138+30.4167+565.216C41.4506+568.017+51.2875+570.465+50.808+569.871C44.4807+562.038+33.9814+546.635+22.6713+529.435C21.9514+528.34-25.4906+514.072-26.2164+512.964C-26.488+512.55-12.503+515.963-0.0123054+519.08C0.751921+519.271-5.80682+505.375-5.0574+505.563C-4.28927+505.755+1.79035+519.227+2.87469+519.435C11.0153+520.994+19.0324+523.884+19.0324+523.884L-1.15605+492.572L-20.129+480.918C-20.129+480.918-2.50159+490.168-3.28319+488.943C-11.1422+476.63-19.4652+463.85-23.6482+457.391C-18.1964+463.11-4.87883+482.576+8.00384+501.416C8.33317+501.898+8.97394+499.176+9.68847+495.692C9.77678+495.261+6.22547+484.709+6.31555+484.26C6.40295+483.824+10.1319+493.491+10.2202+493.046C11.2362+487.926+12.2822+482.489+12.7331+483.148C13.3164+484+9.90125+503.713+10.4796+504.557C20.4935+519.18+31.5028+535.584+35.7187+540.324C36.3376+541.02+41.3106+509.509+41.9292+510.205C42.4738+510.818+41.977+519.133+41.4573+527.617C41.3878+528.752+47.2947+521.393+47.2268+522.516C47.1852+523.203+41.1678+532.379+41.1284+533.05C40.7284+539.857+40.4637+545.664+40.9154+546.172C53.1076+559.897+65.2973+573.623+77.7706+586.648C78.5186+587.429+80.3034+578.837+82.1861+569.365C82.2982+568.801+76.2999+551.155+76.4125+550.586C76.5681+549.801+82.8348+566.093+82.9905+565.306C85.004+555.14+87.7789+546.163+87.7789+546.163C87.7789+546.163+87.6935+552.254+86.6469+559.203C86.5464+559.871+92.9525+554.475+92.8457+555.166C92.8115+555.389+86.2668+561.689+86.2319+561.914C84.289+574.431+81.5664+589.982+82.5842+590.996C96.6373+605.007+116.912+626.991+132.233+637.857L143.228+620.587L136.453+641.923L161.666+658.981L161.484+626.313L113.768+542.269L104.497+539.002L89.0578+539.202L99.2066+537.138L55.8247+521.853L86.7887+530.231L77.1679+511.825L92.0697+531.66L111.605+536.946L82.604+489.649L72.4058+487.036L56.2346+490.222L69.7542+486.357L45.9682+480.262L65.6017+483.333L58.794+473.022L68.0117+484.184L80.421+486.392L47.6146+433.208L42.437+429.569L32.4078+427.475L40.1941+427.992L28.9758+420.106L45.0901+429.115L22.8054+392.989L38.2972+417.023L36.5525+406.358L40.1408+419.884L65.2202+458.79L66.0774+453.298L61.9322+440.104L66.6048+449.919L68.7067+436.453L67.101+462.138L93.8492+503.894L96.9523+497.308L95.4535+485.695L98.0565+494.965L104.089+482.162L95.6564+506.481L166.514+615.008L168.941+567.19L154.936+551.218L127.84+544.085L152.068+547.991L129.217+513.488L106.145+500.607L127.132+510.34L97.3902+465.434L119.384+495.809L120.249+477.716L121.097+498.174L145.772+532.254L148.279+515.27L148.97+536.758L169.551+560.7L168.43+483.421L145.18+459.369L128.42+458.123L111.654+464.576L125.7+457.921L89.6924+455.244L116.466+456.045L107.6+442.143L118.156+455.685L142.425+456.06L106.192+421.986L80.7309+410.98L101.847+417.395L68.3668+382.028L91.2852+403.694L91.0416+383.399L95.0816+407.283L125.875+436.393L124.321+403.358L113.85+386.446L124.058+397.746L123.165+378.757L127.827+412.218L138.379+398.67L129.006+419.812L129.949+439.283L169.689+477.813L169.745+444.232L142.624+412.337L169.759+435.829L169.789+417.627L140.09+374.122L155.088+393.55L153.93+373.981L158.462+397.921L169.797+412.605L169.878+363.858L160.201+340.871L169.886+358.836L169.932+330.783L170.881+374.346L194.716+341.903L181.315+364.034L197.514+358.687L179.117+367.665L171.79+377.715L171.98+424.819L191.949+403.581L172.089+429.831L172.528+449.974L200.487+428.035L194.761+384.332L203.831+424.89L245.046+389.515L222.829+411.98L246.844+409.857L221.485+415.433L173.615+455.834L175.066+527.545L194.644+510.691L194.461+488.753L189.438+473.457L194.424+484.341L194.225+460.563L195.886+493.827L203.558+482.313L196.021+496.529L196.599+508.116L227.855+467.908L227.706+451.935L221.971+437.106L227.668+447.838L227.488+428.468L229.769+465.446L249.055+440.636L249.374+420.732L250.851+438.325L261.492+424.635L240.604+454.353L269.738+440.45L253.315+449.29L264.928+448.605L250.805+450.642L238.592+457.216L208.067+500.645L220.169+498.774L229.291+490.327L223.012+498.335L235.676+496.378L207.243+503.455L176.159+531.179L178.781+613.527L204.88+576.451L196.541+526.643L202.769+549.805L207.516+530.692L204.651+556.805L208.362+570.605L243.875+521.054L243.727+512.392L238.524+501.002L243.675+509.34L242.988+468.998L246.247+500.792L251.88+487.227L246.791+504.556L248.576+516.899L288.198+462.043L287.841+435.895L290.375+458.191L319.364+418.895L303.728+442.195L314.494+434.794L301.974+444.809L273.33+487.492L296.354+477.127L298.917+471.914L298.989+462.795L300.198+469.307L303.892+461.792L298.437+475.807L323.062+465.104L309.344+472.442L318.312+472.862L307.182+473.599L288.016+483.851L314.9+481.809L300.427+483.522L307.742+486.266L297.646+483.851L285.283+485.313L270.276+493.34L222.664+565.547L252.845+552.039L218.695+573.499L183.392+625.106L183.807+656.329L206.288+642.215L216.054+623.406L216.135+604.629L218.828+618.063L228.541+599.354L213.865+637.997C239.378+621.051+261.497+602.141+282.731+582.717C283.11+582.371+282.47+578.085+281.344+571.915C281.242+571.361+269.494+560.531+269.385+559.949C269.281+559.393+280.818+569.085+280.708+568.505C279.392+561.552+277.66+552.991+276.089+545.05C275.903+544.11+264.72+530.742+264.54+529.822C264.39+529.059+275.241+540.741+275.096+539.998C273.075+529.631+271.588+521.336+272.118+520.848C272.74+520.275+279.223+548.604+281.719+559.172C281.855+559.747+291.98+543.572+292.116+544.144C292.377+545.25+282.647+563.096+282.904+564.172C284.888+572.492+286.651+579.5+287.154+579.033C296.945+569.95+315.432+552.287+332.634+536.064C332.992+535.726+334.268+527.415+335.658+518.104C335.738+517.565+327.125+503.816+327.206+503.271C327.357+502.259+336.203+514.446+336.354+513.429C337.931+502.829+339.485+492.422+339.884+492.047C340.126+491.819+339.525+498.904+338.788+507.178C338.758+507.515+345.3+500.758+345.27+501.098C345.229+501.551+338.616+509.102+338.575+509.559C337.595+520.483+336.498+532.424+336.808+532.132C347.673+521.912+357.673+512.623+364.166+506.913C353.368+519.088+336.693+536.853+319.532+554.631C319.129+555.049+334.615+550.667+347.359+547.113C347.933+546.953+353.959+530.888+354.52+530.732C355.333+530.506+348.999+546.087+349.776+545.872C356.868+543.906+362.26+542.453+362.02+542.702C361.763+542.967+358.273+544.817+351.4+547.081C348.18+548.141+344.584+549.315+340.942+550.503C339.989+550.814+353.893+555.398+352.94+555.709C352.379+555.892+336.959+551.802+336.401+551.984C325.526+555.532+315.465+558.834+315.104+559.206C297.932+576.912+280.737+594.156+268.882+605.39C267.946+606.278+284.789+604.447+301.877+602.577C302.425+602.517+317.281+579.253+317.828+579.193C318.622+579.106+305.108+602.223+305.899+602.136C322.063+600.369+337.207+598.756+336.307+599.59C335.169+600.643+309.017+604.585+287.623+607.972C286.817+608.1+302.871+616.543+302.079+616.669C301.354+616.784+283.782+608.583+283.072+608.697C270.58+610.696+260.641+612.399+259.941+613.032C237.668+633.168+213.756+651.909+187.167+668.374C189.388+683.855+187.511+698.48+194.056+708.026L238.605+685.785L236.817+661.277L229.368+646.515L236.41+655.702L235.316+640.715L239.758+667.389L256.305+648.902L241.164+672.152L244.613+683.839C259.334+680.94+272.86+674.424+285.744+665.969C286.507+665.468+286.971+660.26+287.345+653.644C287.395+652.736+271.426+639.056+271.474+638.103C271.511+637.368+287.568+649.367+287.605+648.615C288.154+637.201+288.909+619.204+290.116+618.342C291.046+617.678+291.411+633.062+292.092+643.02C292.168+644.136+305.754+625.914+305.831+627.004C305.899+627.97+292.458+648.251+292.527+649.173C293.027+655.841+293.558+661.05+294.219+660.549C305.53+651.982+317.24+641.567+329.002+631.204C329.382+630.869+329.89+625.802+330.409+620.302C330.484+619.512+324.633+612.012+324.708+611.217C324.783+610.422+330.783+616.331+330.857+615.557C331.329+610.627+331.783+606.366+332.131+606.061C333.113+605.198+333.478+627.268+334.46+626.408C340.224+621.362+345.987+616.399+351.708+611.741C352.578+611.032+360.377+587.787+361.245+587.094C361.828+586.629+355.481+608.71+356.063+608.252C359.575+605.485+377.549+586.321+381.012+583.882C379.657+587.301+358.674+610.952+350.874+618.804C350.217+619.466+369.765+613.453+369.091+614.123C368.184+615.027+347.05+622.616+346.123+623.528C332.251+637.173+316.83+651.26+318.75+651.269C329.627+650.747+338.819+650.326+346.519+649.993C347.595+649.946+362.882+637.311+363.901+637.268C364.981+637.222+351.789+649.769+352.805+649.727C433.637+646.389+314.71+654.907+312.902+656.467C291.557+674.885+266.805+692.963+243.565+701.109C242.165+701.6+256.464+705.693+273.543+710.282C273.991+710.402+281.798+705.421+289.728+700.356C290.349+699.959+294.404+682.348+295.023+681.953C296.15+681.233+292.158+699.215+293.246+698.523C299.446+694.577+306.348+689.826+306.717+689.925C307.595+690.159+278.056+711.488+278.943+711.724C301.381+717.69+326.177+723.939+326.177+723.939C326.177+723.939+239.893+705.049+237.152+707.338C222.06+719.969+199.381+729.57+199.088+732.065C194.81+768.378+193.153+905.168+228.54+918.291C251.305+926.734+257.211+926.79+261.926+957.188C266.641+987.587+318.604+1018.8+360.651+1039.93C324.266+1013.96+268.125+1017.6+252.265+971.563C236.404+925.53+231.699+937.976+214.948+935.933C230.871+956.75+231.481+970.102+226.48+988.793C221.478+1007.48+222.182+1015.78+237.343+1038.59C252.503+1061.4+252.032+1098.7+256.98+1128.6C248.556+1097.93+246.398+1057.5+225.74+1037.71C205.082+1017.92+207.068+1005.53+213.167+987.047C219.265+968.57+207.727+957.429+192.465+940.886C189.651+957.603+175.995+978.465+192.11+996.96C208.225+1015.46+207.751+1020.23+189.766+1040.22C171.782+1060.21+184.692+1096.63+187.438+1125.92C183.283+1098.15+160.22+1065.77+176.833+1042.27C193.447+1018.77+182.766+1013.18+171.089+996.96C159.412+980.736+162.977+960.092+163.959+940.722C151.425+954.101+139.128+965.756+142.283+984.53C145.437+1003.3+142.12+1013.85+119.298+1030.98C96.4757+1048.12+92.7275+1080.35+82.5653+1105.22C88.0576+1078.67+88.1123+1045.96+109.322+1027.69C130.532+1009.42+134.491+995.826+126.704+977.324C118.916+958.822+132.268+950.082+140.382+937.69C122.236+927.084+105.18+931.476+87.2858+972.384C69.3923+1013.29+16.0487+1005.16-16.952+1023.07L-16.9493+1023.08Z" opacity="0.33" fill="#000000"/>
</g>
</g>
</svg>
