<?xml version="1.0" encoding="UTF-8"?>
<!DOCTYPE svg PUBLIC "-//W3C//DTD SVG 1.1//EN"
  "http://www.w3.org/Graphics/SVG/1.1/DTD/svg11.dtd">
<!-- Created with Inkpad (http://www.taptrix.com/) --><svg xmlns:inkpad="http://taptrix.com/inkpad/svg_extensions" height="900pt" xmlns:xlink="http://www.w3.org/1999/xlink" xmlns="http://www.w3.org/2000/svg" width="1440pt" version="1.1" viewBox="0,0,1440,900">
<defs>
<linearGradient y1="422.46" id="LinearGradient" x1="28.926" y2="285.42" x2="-112.07" gradientUnits="userSpaceOnUse" gradientTransform="matrix(-0.695082 0 0 0.645927 553.736 220.597)">
<stop stop-color="#008400" offset="0"/>
<stop stop-color="#00a000" offset="1"/>
</linearGradient>
<linearGradient y1="422.46" id="LinearGradient_2" x1="28.926" y2="285.42" x2="-112.07" gradientUnits="userSpaceOnUse" gradientTransform="matrix(-0.695082 0 0 0.645927 325.664 -8.11093)">
<stop stop-color="#008400" offset="0"/>
<stop stop-color="#00a000" offset="1"/>
</linearGradient>
<linearGradient y1="456.75" id="LinearGradient_3" x1="-53.632" y2="216.93" x2="-135.5" gradientUnits="userSpaceOnUse" gradientTransform="matrix(-0.695082 0 0 0.645927 513.363 60.981)">
<stop stop-color="#006400" offset="0"/>
<stop stop-color="#00a000" offset="1"/>
</linearGradient>
<linearGradient y1="1272.6" id="LinearGradient_4" x1="462.51" y2="323.12" x2="428.25" gradientUnits="userSpaceOnUse" gradientTransform="matrix(0.645927 0 0 0.645927 250.017 60.9791)">
<stop stop-color="#000000" offset="0"/>
<stop stop-color="#986601" offset="0.5"/>
<stop stop-color="#000400" offset="1"/>
</linearGradient>
</defs>
<g id="layer1" inkpad:layerName="layer1">
<g opacity="1">
<g opacity="1">
<path d="M1061.15+270.098C1057.25+328.154+1002.58+372.327+939.048+368.761C875.512+365.195+827.167+315.241+831.069+257.184C834.971+199.129+889.64+154.956+953.177+158.522C1016.71+162.087+1065.06+212.041+1061.15+270.098Z" opacity="0.5" fill="#000000"/>
<path d="M1049.9+269.466C1046+327.522+991.326+371.695+927.79+368.129C864.254+364.563+815.91+314.609+819.812+256.552C823.713+198.497+878.383+154.324+941.919+157.89C1005.46+161.455+1053.8+211.41+1049.9+269.466Z" opacity="1" fill="#015a01"/>
</g>
<g opacity="1">
<path d="M644.055+490.288C640.153+548.343+585.484+592.517+521.947+588.951C458.411+585.385+410.067+535.431+413.969+477.374C417.871+419.319+472.54+375.145+536.077+378.711C599.612+382.277+647.957+432.232+644.055+490.288Z" opacity="0.5" fill="#000400"/>
<path d="M656.053+480.636C652.151+538.691+597.482+582.865+533.945+579.298C470.409+575.733+422.065+525.778+425.967+467.722C429.868+409.666+484.538+365.493+548.074+369.059C611.61+372.625+659.954+422.579+656.053+480.636Z" opacity="1" fill="#006000"/>
</g>
<g opacity="1">
<path d="M485.93+522.802C482.028+580.858+530.371+630.812+593.908+634.378C657.444+637.944+712.114+593.772+716.016+535.716C719.917+477.66+671.574+427.705+608.037+424.139C544.502+420.573+489.831+464.746+485.93+522.802Z" opacity="0.5" fill="#000400"/>
<path d="M492.233+512.83C488.332+570.886+536.675+620.841+600.212+624.407C663.747+627.973+718.418+583.8+722.32+525.744C726.221+467.688+677.878+417.733+614.341+414.167C550.805+410.601+496.136+454.774+492.233+512.83Z" opacity="1" fill="#339900"/>
</g>
<g opacity="1">
<path d="M750.593+552.154C746.692+610.21+795.035+660.165+858.572+663.731C922.107+667.297+976.778+623.124+980.68+565.068C984.581+507.012+936.238+457.058+872.701+453.492C809.165+449.926+754.495+494.098+750.593+552.154Z" opacity="0.5" fill="#000000"/>
<path d="M734.02+546.062C730.118+604.117+778.462+654.072+841.999+657.638C905.534+661.204+960.204+617.031+964.106+558.975C968.008+500.92+919.665+450.965+856.128+447.399C792.592+443.833+737.922+488.005+734.02+546.062Z" opacity="1" fill="url(#LinearGradient)"/>
</g>
<g opacity="1">
<path d="M968.64+184.444C964.739+242.5+910.07+286.673+846.533+283.107C782.997+279.541+734.652+229.587+738.554+171.531C742.456+113.475+797.125+69.3018+860.662+72.8677C924.198+76.4336+972.542+126.388+968.64+184.444Z" opacity="0.5" fill="#000000"/>
<path d="M957.038+188.941C953.136+246.997+898.466+291.17+834.93+287.604C771.394+284.038+723.05+234.084+726.952+176.027C730.854+117.972+785.523+73.7985+849.06+77.3645C912.596+80.9303+960.94+130.885+957.038+188.941Z" opacity="1" fill="#00ac00"/>
</g>
<g opacity="1">
<path d="M902.576+572.88C898.674+630.935+844.005+675.109+780.468+671.543C716.932+667.977+668.588+618.023+672.49+559.966C676.392+501.911+731.061+457.737+794.598+461.303C858.134+464.869+906.477+514.823+902.576+572.88Z" opacity="0.5" fill="#000000"/>
<path d="M897.573+562.273C893.672+620.329+839.003+664.503+775.466+660.937C711.93+657.371+663.586+607.416+667.488+549.36C671.389+491.304+726.059+447.131+789.595+450.697C853.131+454.263+901.475+504.217+897.573+562.273Z" opacity="1" fill="#006400"/>
</g>
<g opacity="1">
<path d="M1079.38+375.442C1075.48+433.498+1020.81+477.671+957.275+474.106C893.739+470.54+845.395+420.586+849.297+362.529C853.198+304.474+907.868+260.3+971.405+263.866C1034.94+267.432+1083.28+317.386+1079.38+375.442Z" opacity="0.5" fill="#000000"/>
<path d="M1068.08+374.808C1064.17+432.864+1009.5+477.037+945.969+473.471C882.433+469.905+834.088+419.951+837.99+361.895C841.892+303.839+896.561+259.666+960.098+263.232C1023.63+266.797+1071.98+316.752+1068.08+374.808Z" opacity="1" fill="#007c00"/>
</g>
<g opacity="1">
<path d="M846.414+162.893C842.513+220.948+787.844+265.122+724.307+261.556C660.771+257.99+612.427+208.036+616.329+149.979C620.23+91.9236+674.899+47.7502+738.436+51.316C801.972+54.882+850.316+104.836+846.414+162.893Z" opacity="0.5" fill="#000000"/>
<path d="M829.231+167.091C825.329+225.146+770.66+269.32+707.123+265.754C643.587+262.188+595.243+212.234+599.145+154.178C603.047+96.1219+657.716+51.9486+721.253+55.5145C784.789+59.0804+833.133+109.035+829.231+167.091Z" opacity="1" fill="#009c00"/>
</g>
<g opacity="1">
<path d="M782.486+183.14C778.585+241.196+723.915+285.369+660.378+281.804C596.843+278.237+548.498+228.283+552.4+170.227C556.302+112.171+610.972+67.998+674.508+71.5639C738.044+75.1298+786.388+125.084+782.486+183.14Z" opacity="0.5" fill="#000000"/>
<path d="M781.792+193.472C777.89+251.528+723.221+295.701+659.684+292.135C596.148+288.569+547.804+238.614+551.706+180.558C555.608+122.503+610.277+78.3293+673.813+81.8954C737.35+85.4612+785.694+135.415+781.792+193.472Z" opacity="1" fill="#008c00"/>
</g>
<g opacity="1">
<path d="M1057.42+511.111C1053.52+569.167+998.85+613.34+935.313+609.774C871.777+606.209+823.433+556.254+827.335+498.198C831.236+440.143+885.906+395.969+949.442+399.535C1012.98+403.101+1061.32+453.055+1057.42+511.111Z" opacity="0.5" fill="#000000"/>
<path d="M1046.51+505.336C1042.61+563.392+987.938+607.565+924.401+603.999C860.865+600.433+812.521+550.479+816.423+492.423C820.325+434.367+874.994+390.194+938.531+393.76C1002.07+397.325+1050.41+447.28+1046.51+505.336Z" opacity="1" fill="#008400"/>
</g>
<g opacity="1">
<path d="M1058.74+422.676C1054.84+480.732+1000.17+524.905+936.629+521.339C873.093+517.773+824.749+467.819+828.651+409.763C832.553+351.707+887.222+307.533+950.759+311.099C1014.29+314.665+1062.64+364.62+1058.74+422.676Z" opacity="0.5" fill="#000000"/>
<path d="M1047.17+427.174C1043.27+485.23+988.596+529.404+925.06+525.838C861.524+522.272+813.18+472.317+817.081+414.261C820.983+356.206+875.652+312.032+939.189+315.598C1002.73+319.164+1051.07+369.118+1047.17+427.174Z" opacity="1" fill="#007800"/>
</g>
<g opacity="1">
<path d="M1005.63+248.528C1001.73+306.584+947.063+350.757+883.527+347.191C819.991+343.625+771.647+293.671+775.548+235.615C779.45+177.559+834.12+133.386+897.657+136.952C961.192+140.518+1009.54+190.472+1005.63+248.528Z" opacity="0.5" fill="#000400"/>
<path d="M994.064+253.027C990.163+311.082+935.494+355.256+871.957+351.69C808.421+348.124+760.076+298.17+763.979+240.113C767.88+182.058+822.55+137.884+886.086+141.45C949.622+145.016+997.967+194.97+994.064+253.027Z" opacity="1" fill="#339900"/>
</g>
<g opacity="1">
<path d="M692.976+187.502C689.074+245.557+737.418+295.512+800.954+299.078C864.49+302.644+919.16+258.472+923.062+200.415C926.964+142.36+878.621+92.4046+815.084+88.8388C751.548+85.2728+696.878+129.445+692.976+187.502Z" opacity="0.5" fill="#000000"/>
<path d="M681.406+192C677.505+250.056+725.848+300.011+789.384+303.577C852.92+307.143+907.59+262.97+911.492+204.914C915.394+146.858+867.05+96.9031+803.514+93.3373C739.978+89.7712+685.308+133.944+681.406+192Z" opacity="1" fill="#00b000"/>
</g>
<g opacity="1">
<path d="M1010.17+507.613C1006.26+565.668+951.594+609.842+888.057+606.276C824.522+602.71+776.177+552.755+780.08+494.699C783.981+436.644+838.65+392.47+902.187+396.036C965.723+399.602+1014.07+449.556+1010.17+507.613Z" opacity="0.5" fill="#000000"/>
<path d="M993.592+501.52C989.69+559.575+935.021+603.749+871.484+600.183C807.949+596.617+759.604+546.663+763.506+488.606C767.408+430.551+822.077+386.377+885.614+389.943C949.149+393.509+997.494+443.463+993.592+501.52Z" opacity="1" fill="#006000"/>
</g>
<g opacity="1">
<path d="M991.755+411.082C987.853+469.138+933.184+513.311+869.647+509.745C806.111+506.179+757.768+456.225+761.669+398.169C765.571+340.113+820.24+295.94+883.776+299.506C947.313+303.072+995.657+353.026+991.755+411.082Z" opacity="0.5" fill="#000400"/>
<path d="M980.103+415.591C976.201+473.646+921.532+517.82+857.995+514.254C794.46+510.688+746.115+460.734+750.017+402.677C753.919+344.622+808.588+300.449+872.125+304.015C935.66+307.58+984.005+357.535+980.103+415.591Z" opacity="1" fill="#009400"/>
</g>
<g opacity="1">
<path d="M959.899+242.561C955.997+300.617+901.328+344.79+837.791+341.225C774.255+337.659+725.911+287.705+729.813+229.648C733.714+171.592+788.384+127.419+851.921+130.985C915.456+134.551+963.801+184.505+959.899+242.561Z" opacity="0.5" fill="#000000"/>
<path d="M953.513+252.529C949.612+310.584+894.943+354.758+831.406+351.192C767.87+347.626+719.526+297.671+723.428+239.615C727.329+181.56+781.999+137.386+845.536+140.952C909.071+144.518+957.415+194.473+953.513+252.529Z" opacity="1" fill="#008400"/>
</g>
<g opacity="1">
<path d="M984.931+323.957C981.03+382.013+926.36+426.186+862.824+422.62C799.288+419.054+750.944+369.1+754.845+311.044C758.747+252.988+813.416+208.815+876.953+212.381C940.489+215.947+988.833+265.901+984.931+323.957Z" opacity="0.5" fill="#000000"/>
<path d="M973.36+328.47C969.459+386.526+914.789+430.699+851.253+427.134C787.717+423.567+739.373+373.613+743.274+315.557C747.176+257.502+801.845+213.328+865.382+216.894C928.919+220.46+977.262+270.414+973.36+328.47Z" opacity="1" fill="#007800"/>
</g>
<g opacity="1">
<path d="M573.791+548.851C569.89+606.907+618.233+656.862+681.77+660.428C745.306+663.994+799.976+619.821+803.877+561.764C807.779+503.709+759.436+453.754+695.899+450.188C632.363+446.622+577.693+490.795+573.791+548.851Z" opacity="0.5" fill="#000000"/>
<path d="M585.362+544.337C581.461+602.393+629.804+652.348+693.341+655.914C756.876+659.48+811.546+615.307+815.448+557.251C819.35+499.196+771.007+449.241+707.47+445.675C643.934+442.109+589.264+486.281+585.362+544.337Z" opacity="1" fill="#008c00"/>
</g>
<g opacity="1">
<path d="M379.147+366.339C375.245+424.395+423.588+474.35+487.125+477.916C550.661+481.481+605.331+437.309+609.233+379.253C613.134+321.197+564.791+271.242+501.254+267.676C437.719+264.11+383.048+308.283+379.147+366.339Z" opacity="0.5" fill="#000400"/>
<path d="M390.717+361.826C386.816+419.882+435.159+469.836+498.696+473.402C562.231+476.968+616.902+432.796+620.804+374.739C624.705+316.684+576.362+266.729+512.825+263.163C449.289+259.597+394.619+303.77+390.717+361.826Z" opacity="1" fill="#007400"/>
</g>
<g opacity="1">
<path d="M470.394+197.327C466.493+255.383+514.836+305.338+578.373+308.904C641.909+312.469+696.579+268.297+700.48+210.241C704.382+152.185+656.039+102.23+592.502+98.6641C528.966+95.0981+474.297+139.271+470.394+197.327Z" opacity="0.5" fill="#000000"/>
<path d="M478.508+202.953C474.606+261.008+522.949+310.963+586.486+314.529C650.022+318.095+704.692+273.922+708.594+215.866C712.496+157.81+664.152+107.856+600.616+104.29C537.08+100.724+482.41+144.896+478.508+202.953Z" opacity="1" fill="#007c00"/>
</g>
<g opacity="1">
<path d="M636.918+243.602C633.017+301.658+681.36+351.612+744.897+355.178C808.432+358.745+863.103+314.572+867.004+256.516C870.907+198.46+822.563+148.505+759.026+144.939C695.491+141.373+640.82+185.546+636.918+243.602Z" opacity="0.5" fill="#000000"/>
<path d="M630.533+253.569C626.631+311.625+674.975+361.58+738.512+365.146C802.047+368.711+856.717+324.539+860.619+266.483C864.521+208.427+816.178+158.472+752.641+154.906C689.105+151.34+634.435+195.513+630.533+253.569Z" opacity="1" fill="#006c00"/>
</g>
<g opacity="1">
<path d="M386.579+293.292C382.677+351.347+431.021+401.302+494.557+404.868C558.093+408.434+612.763+364.262+616.665+306.205C620.567+248.15+572.223+198.195+508.687+194.629C445.151+191.063+390.481+235.235+386.579+293.292Z" opacity="0.5" fill="#000000"/>
<path d="M398.577+283.64C394.675+341.695+443.018+391.65+506.555+395.216C570.091+398.782+624.761+354.609+628.663+296.553C632.565+238.498+584.221+188.543+520.685+184.977C457.149+181.411+402.479+225.583+398.577+283.64Z" opacity="1" fill="#008000"/>
</g>
<g opacity="1">
<path d="M447.576+265.82C443.674+323.875+492.017+373.83+555.554+377.396C619.09+380.962+673.76+336.789+677.661+278.733C681.563+220.677+633.22+170.722+569.683+167.156C506.148+163.59+451.477+207.763+447.576+265.82Z" opacity="0.5" fill="#000000"/>
<path d="M464.495+266.769C460.593+324.824+508.936+374.78+572.473+378.346C636.009+381.911+690.679+337.739+694.581+279.682C698.483+221.627+650.139+171.672+586.602+168.106C523.067+164.54+468.397+208.713+464.495+266.769Z" opacity="1" fill="url(#LinearGradient_2)"/>
</g>
<g opacity="1">
<path d="M685.241+456.632C681.339+514.687+626.67+558.861+563.134+555.295C499.598+551.729+451.254+501.775+455.156+443.718C459.057+385.663+513.726+341.489+577.263+345.055C640.799+348.621+689.143+398.575+685.241+456.632Z" opacity="0.5" fill="#000400"/>
<path d="M696.812+452.118C692.91+510.174+638.241+554.347+574.704+550.781C511.168+547.216+462.824+497.261+466.726+439.205C470.628+381.149+525.297+336.976+588.834+340.542C652.37+344.108+700.714+394.062+696.812+452.118Z" opacity="1" fill="#339900"/>
</g>
<g opacity="1">
<path d="M701.825+349.567C697.924+407.623+746.267+457.577+809.804+461.143C873.34+464.71+928.01+420.537+931.912+362.48C935.813+304.425+887.47+254.47+823.934+250.904C760.397+247.338+705.727+291.511+701.825+349.567Z" opacity="0.5" fill="#000000"/>
<path d="M695.522+359.538C691.62+417.594+739.963+467.549+803.5+471.115C867.036+474.681+921.706+430.509+925.608+372.452C929.509+314.397+881.166+264.442+817.629+260.876C754.094+257.31+699.423+301.483+695.522+359.538Z" opacity="1" fill="url(#LinearGradient_3)"/>
</g>
<g opacity="1">
<path d="M651.548+334.89C647.646+392.946+592.977+437.12+529.44+433.553C465.905+429.988+417.561+380.033+421.462+321.977C425.364+263.921+480.033+219.748+543.57+223.314C607.106+226.88+655.45+276.834+651.548+334.89Z" opacity="0.5" fill="#000000"/>
<path d="M662.428+340.664C658.526+398.719+603.857+442.893+540.32+439.327C476.784+435.761+428.44+385.807+432.342+327.75C436.244+269.695+490.913+225.521+554.45+229.087C617.985+232.653+666.329+282.607+662.428+340.664Z" opacity="1" fill="#339900"/>
</g>
<g opacity="1">
<path d="M476.554+338.93C472.652+396.985+520.995+446.94+584.532+450.506C648.068+454.072+702.738+409.899+706.64+351.843C710.541+293.787+662.198+243.832+598.662+240.266C535.126+236.701+480.455+280.873+476.554+338.93Z" opacity="0.5" fill="#000400"/>
<path d="M493.819+334.728C489.917+392.784+538.26+442.739+601.797+446.305C665.333+449.871+720.003+405.698+723.905+347.642C727.807+289.586+679.463+239.631+615.927+236.065C552.391+232.499+497.721+276.672+493.819+334.728Z" opacity="1" fill="#44aa00"/>
</g>
<g opacity="1">
<path d="M600.157+284.05C596.256+342.106+644.599+392.061+708.135+395.627C771.671+399.193+826.342+355.02+830.243+296.964C834.145+238.908+785.801+188.953+722.265+185.387C658.729+181.822+604.059+225.994+600.157+284.05Z" opacity="0.5" fill="#000000"/>
<path d="M599.466+294.337C595.564+352.393+643.908+402.348+707.444+405.914C770.98+409.48+825.65+365.307+829.552+307.251C833.453+249.195+785.111+199.24+721.574+195.674C658.038+192.108+603.368+236.281+599.466+294.337Z" opacity="1" fill="#009400"/>
</g>
<g opacity="1">
<path d="M718.838+477.518C714.937+535.573+763.28+585.528+826.816+589.094C890.352+592.66+945.022+548.487+948.924+490.431C952.826+432.375+904.483+382.421+840.946+378.855C777.41+375.289+722.74+419.462+718.838+477.518Z" opacity="0.5" fill="#000000"/>
<path d="M704.939+474.156C701.037+532.212+749.38+582.167+812.917+585.733C876.454+589.299+931.123+545.126+935.025+487.07C938.927+429.014+890.583+379.059+827.047+375.493C763.511+371.927+708.841+416.1+704.939+474.156Z" opacity="1" fill="#2ca02c"/>
</g>
<g opacity="1">
<path d="M667.491+402.338C663.589+460.393+711.933+510.348+775.469+513.914C839.005+517.48+893.675+473.308+897.577+415.251C901.479+357.196+853.135+307.241+789.599+303.675C726.063+300.109+671.393+344.281+667.491+402.338Z" opacity="0.5" fill="#000000"/>
<path d="M656.266+401.708C652.364+459.763+700.707+509.718+764.244+513.284C827.78+516.85+882.45+472.678+886.352+414.621C890.254+356.566+841.911+306.611+778.374+303.045C714.838+299.479+660.168+343.651+656.266+401.708Z" opacity="1" fill="#217821"/>
</g>
<g opacity="1">
<path d="M528.966+349.702C524.863+407.745+573.034+457.84+636.558+461.59C700.081+465.339+754.905+421.325+759.008+363.281C763.11+305.237+714.94+255.143+651.416+251.393C587.892+247.643+533.069+291.657+528.966+349.702Z" opacity="0.5" fill="#000000"/>
<path d="M528.275+359.988C524.172+418.032+572.342+468.126+635.867+471.876C699.39+475.626+754.213+431.612+758.316+373.567C762.418+315.524+714.249+265.429+650.724+261.679C587.201+257.93+532.377+301.944+528.275+359.988Z" opacity="1" fill="#217821"/>
</g>
<g opacity="1">
<path d="M509.366+474.809C505.465+532.865+553.808+582.82+617.345+586.386C680.88+589.952+735.551+545.779+739.453+487.723C743.354+429.667+695.011+379.713+631.474+376.146C567.938+372.581+513.268+416.753+509.366+474.809Z" opacity="0.5" fill="#000000"/>
<path d="M515.671+464.83C511.769+522.886+560.113+572.841+623.649+576.407C687.185+579.973+741.856+535.8+745.757+477.744C749.658+419.688+701.316+369.733+637.779+366.167C574.243+362.601+519.573+406.774+515.671+464.83Z" opacity="1" fill="#006400"/>
</g>
<g opacity="1">
<path d="M813.096+385.74C809.194+443.796+754.525+487.969+690.989+484.403C627.453+480.837+579.108+430.883+583.01+372.827C586.912+314.771+641.581+270.598+705.118+274.164C768.653+277.73+816.998+327.684+813.096+385.74Z" opacity="0.5" fill="#000000"/>
<path d="M819.4+375.768C815.498+433.824+760.829+477.997+697.292+474.431C633.757+470.866+585.412+420.911+589.314+362.855C593.216+304.799+647.885+260.626+711.422+264.192C774.958+267.758+823.301+317.712+819.4+375.768Z" opacity="1" fill="#00ac00"/>
</g>
<g opacity="1">
<path d="M640.439+518.418C636.537+576.473+684.88+626.428+748.417+629.995C811.953+633.56+866.623+589.387+870.525+531.331C874.427+473.276+826.083+423.321+762.546+419.755C699.011+416.189+644.341+460.362+640.439+518.418Z" opacity="0.5" fill="#000000"/>
<path d="M646.916+505.874C643.014+563.93+691.357+613.885+754.894+617.451C818.43+621.017+873.099+576.844+877.001+518.788C880.903+460.732+832.56+410.777+769.023+407.211C705.488+403.645+650.817+447.818+646.916+505.874Z" opacity="1" fill="#007800"/>
</g>
<g opacity="1">
<path d="M596.787+444.844C592.885+502.899+641.229+552.854+704.766+556.42C768.301+559.986+822.972+515.813+826.873+457.757C830.775+399.701+782.431+349.746+718.895+346.18C655.359+342.615+600.689+386.787+596.787+444.844Z" opacity="0.34496" fill="#000000"/>
<path d="M611.551+435.346C607.649+493.402+655.992+543.357+719.528+546.923C783.065+550.489+837.734+506.316+841.637+448.26C845.538+390.204+797.195+340.249+733.658+336.683C670.122+333.118+615.452+377.29+611.551+435.346Z" opacity="1" fill="#009800"/>
</g>
<path d="M463.702+1023.31C525.842+1000.22+596.166+985.412+601.74+945.998C607.315+906.583+647.592+889.952+675.716+871.905C716.744+845.577+723.975+675.177+711.495+631.262C710.698+628.459+697.156+622.862+678.193+616.082C674.29+614.686+578.73+648.256+574.43+646.774C572.573+646.133+623.392+629.563+635.033+624.67C636.144+624.203+610.069+616.414+611.196+615.945C612.925+615.224+641.859+621.824+643.57+621.116C655.568+616.152+666.295+611.775+664.142+611.901C650.119+612.725+611.953+596.409+570.267+572.944C569.46+572.489+557.332+571.613+543.121+570.657C542.13+570.59+533.259+575.586+532.251+575.519C531.424+575.464+538.464+570.346+537.629+570.29C518.312+569.005+497.397+567.656+496.322+567.038C495.592+566.618+506.282+566.62+519.031+566.696C519.857+566.701+507.399+559.079+508.239+559.084C509.068+559.09+523.196+566.723+524.035+566.728C541.243+566.846+559.918+567.014+558.957+566.451C544.186+557.806+529.209+548.394+514.915+538.645C513.701+537.816+503.111+536.074+490.898+534.173C489.98+534.03+478.846+537.855+477.913+537.71C476.967+537.564+486.221+533.449+485.266+533.301C469.383+530.851+452.781+528.33+451.264+527.275C450.295+526.601+460.092+526.974+471.123+527.467C472.295+527.519+461.358+517.81+462.547+517.864C463.728+517.917+477.035+527.734+478.21+527.787C489.857+528.313+500.646+528.755+499.646+528.049C490.688+521.726+482.016+515.187+473.825+508.721C473.426+508.406+464.963+506.997+455.608+505.468C454.69+505.318+446.386+509.294+445.458+509.142C444.507+508.987+450.931+504.705+449.983+504.549C440.077+502.932+430.756+501.395+430.342+501.064C429.448+500.351+469.368+505.174+468.486+504.464C458.479+496.404+449.295+488.558+441.313+481.496C440.34+480.634+419.133+474.756+418.196+473.919C417.585+473.373+437.232+477.862+436.638+477.327C420.164+462.523+409.893+452.077+409.893+452.077C409.893+452.077+417.935+457.459+428.198+464.44C428.872+464.898+425.919+456.077+426.61+456.548C427.44+457.113+431.918+466.974+432.768+467.554C442.88+474.459+454.205+482.29+461.945+487.925C463.175+488.82+462.4+445.892+463.629+446.79C465.093+447.86+465.862+460.476+466.679+472.291C466.741+473.178+475.942+464.844+476.004+465.717C476.065+466.583+466.988+476.656+467.052+477.498C467.663+485.639+468.356+492.404+469.411+493.176C486.327+505.568+503.761+518.398+521.614+530.476C522.386+530.997+522.944+511.948+523.489+491.62C523.527+490.207+497.532+459.615+497.57+458.197C497.627+456.064+523.499+486.336+523.557+484.224C524.085+464.702+524.85+443.724+525.598+444.221C526.625+444.905+527.96+473.706+529.259+499.115C529.317+500.241+547.12+480.299+547.177+481.408C547.233+482.49+529.544+504.624+529.6+505.684C530.5+522.819+531.368+536.965+532.087+537.433C562.779+557.437+594.627+574.583+627.133+582.982L621.889+549.587L606.212+542.653L580.79+542.743L601.943+540.765L575.178+528.926L555.354+527.859L570.492+526.853L545.365+515.739L582.306+529.469L575.708+510.346L584.829+529.949L620.116+543.522L592.058+497.676L567.848+483.287L589.002+492.681L570.771+462.893L582.427+477.971L581.066+464.768L585.723+482.235L604.084+505.985L608.001+494.918L604.803+482.466L609.311+491.217L614.753+475.841L607.69+509.659L628.318+542.436L631.706+523.599L628.081+513.322L632.433+519.553L635.407+503.014L635.079+529.294L644.333+519.718L635.034+532.953L634.803+551.484L646.599+587.301L715.496+599.431C721.02+579.152+718.295+571.975+715.32+558.755C660.062+516.936+619.232+474.819+573.855+425.018C573.281+424.388+565.32+421.768+554.526+418.384C553.885+418.182+515.581+429.169+514.921+428.962C514.129+428.715+550.976+417.274+550.161+417.021C525.943+409.488+491.723+399.259+490.521+397.917C489.663+396.961+510.832+401.934+530.586+406.524C531.094+406.643+519.072+384.037+519.578+384.155C520.026+384.259+533.003+407.085+533.449+407.189C549.696+410.959+564.182+414.253+563.475+413.453C554.158+402.914+538.698+382.186+522.044+359.041C520.984+357.568+451.124+338.368+450.056+336.877C449.656+336.32+470.249+340.912+488.641+345.108C489.767+345.364+480.109+326.665+481.212+326.918C482.344+327.177+491.296+345.304+492.893+345.584C504.88+347.683+516.685+351.571+516.685+351.571L486.954+309.444L459.018+293.759C459.018+293.759+484.974+306.206+483.824+304.558C472.251+287.988+459.995+270.792+453.835+262.1C461.864+269.796+481.474+295.991+500.444+321.342C500.929+321.99+501.872+318.327+502.925+313.639C503.055+313.06+497.825+298.86+497.958+298.255C498.087+297.669+503.577+310.678+503.708+310.079C505.204+303.19+506.744+295.872+507.408+296.759C508.267+297.906+503.238+324.433+504.09+325.569C518.835+345.246+535.047+367.32+541.255+373.698C542.166+374.634+549.489+332.232+550.4+333.169C551.202+333.994+550.47+345.182+549.705+356.599C549.603+358.126+558.301+348.224+558.201+349.736C558.139+350.659+549.279+363.008+549.221+363.911C548.632+373.07+548.242+380.884+548.907+381.568C566.86+400.037+584.809+418.507+603.177+436.034C604.278+437.085+606.906+425.523+609.679+412.777C609.844+412.019+601.011+388.273+601.177+387.508C601.406+386.451+610.634+408.373+610.863+407.315C613.828+393.636+617.914+381.556+617.914+381.556C617.914+381.556+617.789+389.752+616.247+399.102C616.099+400.001+625.532+392.74+625.375+393.671C625.325+393.97+615.688+402.448+615.636+402.75C612.775+419.594+608.766+440.52+610.265+441.885C630.958+460.739+660.812+490.322+683.373+504.943L699.564+481.705L689.587+510.415L726.714+533.369L726.446+489.409L656.183+376.316L642.532+371.92L619.797+372.188L634.742+369.411L570.861+348.844L616.456+360.117L602.289+335.349L624.233+362.04L652.998+369.153L610.294+305.508L595.277+301.992L571.465+306.279L591.373+301.077L556.347+292.877L585.258+297.008L575.233+283.134L588.806+298.154L607.08+301.125L558.771+229.558L551.147+224.661L536.379+221.844L547.845+222.539L531.326+211.928L555.054+224.051L522.24+175.438L545.052+207.779L542.482+193.428L547.766+211.628L584.696+263.983L585.958+256.592L579.854+238.838L586.735+252.046L589.83+233.925L587.466+268.488L626.853+324.676L631.422+315.814L629.215+300.186L633.048+312.661L641.932+295.432L629.514+328.157L733.852+474.197L737.427+409.851L716.804+388.357L676.904+378.76L712.582+384.015L678.933+337.587L644.959+320.254L675.862+333.35L632.067+272.923L664.453+313.797L665.727+289.45L666.975+316.98L703.31+362.839L707.001+339.984L708.019+368.901L738.325+401.117L736.675+297.127L702.438+264.762L677.759+263.085L653.072+271.768L673.755+262.813L620.733+259.211L660.158+260.289L647.102+241.581L662.646+259.804L698.383+260.309L645.029+214.457L607.537+199.647L638.631+208.279L589.331+160.688L623.078+189.843L622.72+162.533L628.669+194.672L674.012+233.845L671.724+189.391L656.306+166.633L671.336+181.839L670.022+156.287L676.887+201.313L692.425+183.083L678.622+211.532L680.011+237.732L738.53+289.581L738.612+244.393L698.677+201.473L738.632+233.085L738.677+208.592L694.944+150.05L717.028+176.193L715.324+149.86L721.997+182.075L738.689+201.834L738.808+136.237L724.558+105.305L738.819+129.479L738.888+91.73L740.284+150.351L775.382+106.694L755.65+136.475L779.503+129.279L752.413+141.361L741.623+154.885L741.903+218.27L771.308+189.691L742.064+225.014L742.71+252.119L783.879+222.598L775.448+163.789L788.804+218.366L849.494+170.763L816.779+200.993L852.142+198.136L814.801+205.64L744.311+260.004L746.447+356.502L775.276+333.823L775.006+304.303L767.611+283.719L774.952+298.365L774.66+266.369L777.105+311.13L788.402+295.636L777.304+314.767L778.156+330.358L824.18+276.253L823.96+254.758L815.516+234.803L823.905+249.245L823.639+223.18L826.998+272.939L855.397+239.554L855.867+212.77L858.041+236.445L873.711+218.023L842.954+258.012L885.853+239.303L861.672+251.199L878.772+250.278L857.974+253.018L839.99+261.865L795.042+320.305L812.863+317.787L826.294+306.42L817.049+317.196L835.696+314.562L793.829+324.086L748.057+361.392L751.917+472.204L790.349+422.312L778.069+355.288L787.241+386.457L794.231+360.737L790.012+395.876L795.476+414.447L847.769+347.768L847.552+336.112L839.891+320.785L847.475+332.005L846.463+277.719L851.262+320.503L859.557+302.248L852.064+325.568L854.692+342.176L913.036+268.36L912.511+233.173L916.242+263.177L958.929+210.298L935.904+241.652L951.758+231.693L933.321+245.168L891.142+302.605L925.046+288.658L928.819+281.643L928.927+269.372L930.706+278.134L936.146+268.023L928.112+286.882L964.374+272.479L944.173+282.354L957.379+282.918L940.99+283.91L912.768+297.706L952.356+294.958L931.043+297.262L941.815+300.956L926.948+297.705L908.744+299.673L886.646+310.475L816.536+407.639L860.978+389.463L810.691+418.34L758.707+487.785L759.318+529.8L792.423+510.807L806.802+485.497L806.922+460.231L810.887+478.307L825.19+453.132L803.58+505.132C841.148+482.329+873.718+456.882+904.986+430.745C905.543+430.279+904.602+424.512+902.943+416.208C902.794+415.463+885.494+400.89+885.334+400.106C885.181+399.358+902.169+412.401+902.008+411.621C900.069+402.264+897.519+390.744+895.205+380.059C894.931+378.793+878.464+360.804+878.199+359.567C877.977+358.54+893.956+374.26+893.742+373.259C890.766+359.309+888.578+348.148+889.358+347.491C890.273+346.719+899.82+384.84+903.496+399.061C903.695+399.834+918.606+378.069+918.805+378.838C919.191+380.327+904.863+404.342+905.241+405.79C908.162+416.985+910.757+426.416+911.5+425.787C925.915+413.565+953.139+389.796+978.468+367.966C978.996+367.512+980.875+356.328+982.922+343.798C983.039+343.073+970.356+324.572+970.476+323.838C970.698+322.476+983.724+338.876+983.947+337.507C986.269+323.244+988.558+309.239+989.144+308.734C989.501+308.428+988.616+317.962+987.531+329.096C987.485+329.55+997.12+320.456+997.075+320.915C997.015+321.524+987.277+331.685+987.217+332.3C985.774+346.999+984.158+363.068+984.616+362.675C1000.61+348.922+1015.34+336.422+1024.9+328.739C1009+345.122+984.445+369.027+959.175+392.951C958.582+393.513+981.386+387.616+1000.15+382.834C1001+382.619+1009.87+361.001+1010.7+360.791C1011.89+360.486+1002.57+381.454+1003.71+381.164C1014.15+378.518+1022.09+376.563+1021.74+376.898C1021.36+377.254+1016.22+379.744+1006.1+382.79C1001.36+384.217+996.065+385.797+990.702+387.395C989.299+387.813+1009.77+393.983+1008.37+394.401C1007.54+394.647+984.837+389.143+984.015+389.388C968.002+394.162+953.186+398.607+952.655+399.107C927.369+422.933+902.05+446.137+884.593+461.254C883.214+462.449+908.016+459.985+933.179+457.468C933.985+457.387+955.861+426.083+956.667+426.002C957.837+425.885+937.937+456.993+939.102+456.876C962.903+454.498+985.202+452.327+983.877+453.449C982.202+454.867+943.692+460.171+912.188+464.729C911.002+464.901+934.641+476.262+933.477+476.431C932.408+476.587+906.534+465.551+905.487+465.704C887.093+468.394+872.458+470.686+871.427+471.537C838.63+498.633+803.418+523.853+764.266+546.008C767.536+566.84+764.772+586.521+774.409+599.366L840.01+569.437L837.376+536.458L826.408+516.594L836.777+528.956L835.167+508.789L841.707+544.682L866.073+519.805L843.777+551.092L848.856+566.819C870.533+562.917+890.45+554.15+909.422+542.772C910.545+542.098+911.229+535.09+911.78+526.187C911.85+524.964+888.338+506.556+888.409+505.275C888.464+504.285+912.108+520.432+912.163+519.419C912.971+504.061+914.083+479.843+915.86+478.683C917.229+477.789+917.768+498.491+918.77+511.89C918.882+513.392+938.888+488.872+939.001+490.339C939.101+491.639+919.309+518.93+919.411+520.17C920.146+529.144+920.929+536.153+921.902+535.479C938.558+523.95+955.8+509.936+973.12+495.991C973.68+495.54+974.427+488.722+975.192+481.321C975.302+480.257+966.687+470.165+966.797+469.095C966.907+468.025+975.742+475.977+975.852+474.935C976.547+468.301+977.216+462.568+977.729+462.157C979.173+460.996+979.712+490.694+981.157+489.537C989.645+482.747+998.131+476.069+1006.56+469.8C1007.84+468.847+1019.32+437.567+1020.6+436.635C1021.46+436.008+1012.11+465.722+1012.97+465.105C1018.14+461.382+1044.61+435.594+1049.71+432.312C1047.71+436.912+1016.81+468.738+1005.33+479.305C1004.36+480.195+1033.14+472.104+1032.15+473.006C1030.82+474.222+999.697+484.434+998.332+485.661C977.905+504.023+955.198+522.979+958.024+522.991C974.041+522.289+987.576+521.721+998.914+521.273C1000.5+521.211+1023.01+504.209+1024.51+504.151C1026.1+504.089+1006.68+520.972+1008.17+520.916C1127.2+516.425+952.076+527.886+949.412+529.986C917.982+554.77+881.534+579.096+847.312+590.059C845.252+590.719+866.307+596.227+891.456+602.401C892.115+602.563+903.612+595.86+915.288+589.044C916.203+588.511+922.174+564.812+923.086+564.28C924.744+563.312+918.867+587.51+920.469+586.578C929.6+581.268+939.761+574.875+940.305+575.008C941.599+575.323+898.102+604.025+899.408+604.342C932.448+612.371+968.96+620.779+968.96+620.779C968.96+620.779+841.905+595.36+837.869+598.439C815.647+615.436+782.252+628.356+781.82+631.714C775.52+680.578+773.081+864.649+825.189+882.308C858.71+893.67+867.406+893.744+874.35+934.65C881.293+975.555+957.809+1017.56+1019.72+1045.99C966.147+1011.04+883.478+1015.94+860.124+953.993C836.768+892.049+829.84+908.798+805.174+906.048C828.621+934.06+829.518+952.026+822.155+977.178C814.79+1002.33+815.826+1013.49+838.15+1044.19C860.474+1074.88+859.781+1125.07+867.067+1165.31C854.663+1124.04+851.484+1069.63+821.065+1043C790.646+1016.37+793.571+999.694+802.551+974.829C811.531+949.965+794.541+934.974+772.067+912.712C767.924+935.207+747.815+963.281+771.546+988.169C795.274+1013.06+794.576+1019.49+768.093+1046.38C741.612+1073.28+760.62+1122.28+764.665+1161.7C758.546+1124.33+724.585+1080.76+749.049+1049.14C773.513+1017.52+757.785+1010+740.59+988.168C723.396+966.337+728.646+938.557+730.091+912.492C711.634+930.496+693.528+946.179+698.173+971.442C702.817+996.703+697.933+1010.9+664.327+1033.95C630.721+1057.01+625.202+1100.38+610.238+1133.85C618.326+1098.12+618.406+1054.1+649.638+1029.52C680.87+1004.93+686.7+986.642+675.233+961.745C663.766+936.848+683.427+925.087+695.374+908.411C668.654+894.141+643.539+900.05+617.189+955.098C590.84+1010.15+512.291+999.209+463.697+1023.31L463.702+1023.31Z" opacity="1" fill="url(#LinearGradient_4)"/>
<path d="M443.644+1028.03C505.784+1004.94+576.108+990.132+581.682+950.718C587.258+911.303+627.535+894.672+655.659+876.625C696.686+850.297+703.918+679.897+691.437+635.982C690.641+633.179+677.098+627.582+658.136+620.802C654.232+619.406+558.672+652.976+554.373+651.494C552.516+650.854+603.334+634.283+614.976+629.39C616.086+628.923+590.012+621.135+591.139+620.665C592.868+619.945+621.801+626.544+623.513+625.836C635.511+620.872+646.238+616.495+644.085+616.622C630.062+617.446+591.894+601.129+550.209+577.664C549.402+577.209+537.275+576.333+523.063+575.377C522.073+575.311+513.201+580.307+512.194+580.24C511.367+580.184+518.406+575.066+517.571+575.01C498.254+573.725+477.339+572.376+476.264+571.758C475.535+571.339+486.224+571.341+498.973+571.416C499.799+571.421+487.341+563.799+488.182+563.805C489.01+563.81+503.138+571.443+503.977+571.449C521.185+571.566+539.86+571.734+538.899+571.171C524.128+562.527+509.152+553.115+494.858+543.365C493.643+542.537+483.053+540.795+470.841+538.893C469.923+538.751+458.789+542.575+457.855+542.431C456.909+542.284+466.163+538.169+465.209+538.021C449.325+535.572+432.723+533.05+431.206+531.995C430.237+531.321+440.034+531.694+451.065+532.187C452.238+532.239+441.301+522.53+442.49+522.584C443.67+522.638+456.978+532.454+458.152+532.507C469.799+533.033+480.589+533.475+479.588+532.769C470.63+526.447+461.959+519.908+453.767+513.441C453.368+513.126+444.906+511.718+435.55+510.188C434.632+510.038+426.329+514.014+425.401+513.863C424.45+513.707+430.874+509.425+429.926+509.27C420.019+507.652+410.699+506.114+410.284+505.785C409.391+505.072+449.31+509.894+448.428+509.184C438.422+501.124+429.237+493.278+421.256+486.216C420.282+485.355+399.075+479.476+398.138+478.639C397.527+478.093+417.175+482.582+416.581+482.047C400.106+467.243+389.836+456.797+389.836+456.797C389.836+456.797+397.877+462.179+408.14+469.16C408.814+469.618+405.862+460.797+406.553+461.268C407.383+461.834+411.861+471.694+412.711+472.275C422.822+479.18+434.148+487.011+441.888+492.645C443.117+493.54+442.342+450.613+443.571+451.511C445.036+452.58+445.805+465.196+446.622+477.011C446.683+477.899+455.884+469.564+455.946+470.437C456.008+471.303+446.931+481.377+446.994+482.218C447.605+490.359+448.299+497.124+449.353+497.896C466.269+510.288+483.703+523.118+501.557+535.196C502.328+535.718+502.886+516.668+503.432+496.34C503.469+494.926+477.474+464.335+477.513+462.917C477.569+460.785+503.442+491.056+503.5+488.944C504.027+469.422+504.792+448.444+505.54+448.942C506.567+449.625+507.902+478.427+509.202+503.835C509.259+504.961+527.063+485.019+527.12+486.128C527.176+487.21+509.487+509.344+509.543+510.404C510.442+527.54+511.31+541.685+512.03+542.153C542.721+562.157+574.57+579.303+607.075+587.702L601.832+554.307L586.155+547.373L560.733+547.463L581.885+545.485L555.121+533.646L535.297+532.579L550.434+531.573L525.307+520.459L562.249+534.189L555.65+515.066L564.771+534.669L600.059+548.243L572+502.396L547.79+488.008L568.945+497.402L550.714+467.614L562.37+482.692L561.008+469.489L565.666+486.955L584.026+510.705L587.944+499.638L584.746+487.186L589.253+495.938L594.696+480.561L587.632+514.38L608.26+547.157L611.648+528.319L608.023+518.043L612.376+524.274L615.35+507.734L615.022+534.015L624.275+524.439L614.977+537.673L614.745+556.204L626.542+592.021L695.438+604.151C700.962+583.872+698.237+576.695+695.264+563.475C640.004+521.656+599.174+479.539+553.797+429.739C553.223+429.108+545.262+426.488+534.469+423.104C533.827+422.903+495.524+433.889+494.863+433.682C494.072+433.435+530.918+421.994+530.103+421.741C505.885+414.209+471.666+403.98+470.463+402.637C469.606+401.681+490.774+406.655+510.528+411.245C511.037+411.363+499.015+388.758+499.521+388.875C499.969+388.979+512.945+411.805+513.391+411.91C529.639+415.679+544.124+418.973+543.418+418.174C534.101+407.634+518.64+386.906+501.986+363.762C500.926+362.288+431.067+343.089+429.998+341.597C429.598+341.04+450.191+345.633+468.584+349.828C469.709+350.084+460.052+331.385+461.155+331.638C462.286+331.897+471.239+350.025+472.835+350.304C484.823+352.403+496.628+356.291+496.628+356.291L466.9+314.157L438.962+298.474C438.962+298.474+464.919+310.922+463.767+309.274C452.195+292.704+439.939+275.508+433.78+266.816C441.808+274.512+461.418+300.707+480.388+326.058C480.873+326.706+481.817+323.043+482.868+318.355C482.999+317.776+477.769+303.576+477.902+302.971C478.031+302.385+483.522+315.394+483.652+314.795C485.148+307.906+486.688+300.588+487.352+301.475C488.211+302.622+483.182+329.149+484.034+330.285C498.779+349.962+514.991+372.036+521.199+378.414C522.11+379.35+529.433+336.949+530.344+337.885C531.146+338.71+530.414+349.898+529.649+361.315C529.547+362.842+538.245+352.94+538.145+354.451C538.083+355.375+529.223+367.724+529.165+368.627C528.576+377.786+528.186+385.6+528.851+386.284C546.804+404.753+564.754+423.224+583.121+440.75C584.222+441.801+586.851+430.239+589.623+417.493C589.788+416.735+580.955+392.988+581.121+392.224C581.35+391.167+590.578+413.09+590.807+412.031C593.772+398.352+597.858+386.272+597.858+386.272C597.858+386.272+597.732+394.468+596.191+403.818C596.043+404.717+605.477+397.456+605.319+398.387C605.269+398.686+595.631+407.165+595.58+407.466C592.719+424.31+588.71+445.236+590.209+446.601C610.902+465.455+640.756+495.038+663.317+509.659L679.508+486.42L669.531+515.13L706.658+538.085L706.39+494.125L636.127+381.032L622.476+376.636L599.742+376.904L614.686+374.128L550.805+353.56L596.4+364.833L582.233+340.065L604.177+366.756L632.943+373.869L590.238+310.224L575.221+306.708L551.409+310.995L571.317+305.793L536.291+297.593L565.202+301.724L555.177+287.85L568.75+302.87L587.024+305.841L538.716+234.274L531.092+229.377L516.323+226.56L527.789+227.255L511.269+216.644L534.998+228.767L502.183+180.154L524.996+212.495L522.426+198.144L527.71+216.344L564.64+268.699L565.903+261.308L559.798+243.554L566.679+256.762L569.774+238.641L567.41+273.204L606.797+329.392L611.366+320.53L609.159+304.902L612.992+317.377L621.876+300.148L609.458+332.873L713.796+478.913L717.371+414.567L696.748+393.073L656.848+383.475L692.526+388.731L658.877+342.303L624.903+324.97L655.806+338.066L612.011+277.639L644.397+318.513L645.67+294.166L646.919+321.696L683.255+367.555L686.945+344.7L687.963+373.616L718.269+405.833L716.619+301.843L682.382+269.478L657.702+267.801L633.015+276.484L653.698+267.529L600.676+263.927L640.101+265.005L627.045+246.297L642.589+264.52L678.326+265.025L624.972+219.173L587.48+204.363L618.573+212.996L569.274+165.404L603.021+194.559L602.663+167.249L608.612+199.388L653.955+238.561L651.667+194.107L636.249+171.349L651.279+186.555L649.964+161.003L656.83+206.029L672.368+187.799L658.565+216.248L659.954+242.448L718.473+294.297L718.554+249.109L678.62+206.189L718.575+237.801L718.619+213.308L674.887+154.766L696.971+180.909L695.267+154.576L701.94+186.791L718.632+206.55L718.75+140.953L704.501+110.021L718.762+134.195L718.831+96.4458L720.227+155.066L755.325+111.41L735.593+141.191L759.446+133.995L732.355+146.077L721.566+159.601L721.845+222.985L751.252+194.407L722.007+229.73L722.653+256.835L763.822+227.313L755.39+168.504L768.747+223.082L829.437+175.479L796.722+205.709L832.085+202.852L794.744+210.356L724.254+264.72L726.39+361.218L755.219+338.538L754.949+309.018L747.554+288.435L754.895+303.081L754.603+271.085L757.048+315.846L768.346+300.352L757.247+319.482L758.099+335.074L804.123+280.969L803.904+259.474L795.459+239.519L803.848+253.961L803.582+227.896L806.941+277.655L835.339+244.27L835.81+217.486L837.985+241.16L853.654+222.738L822.896+262.728L865.796+244.019L841.614+255.915L858.714+254.994L837.917+257.734L819.933+266.581L774.985+325.02L792.805+322.503L806.237+311.136L796.992+321.912L815.639+319.278L773.772+328.802L728+366.108L731.86+476.92L770.291+427.029L758.012+360.004L767.183+391.173L774.174+365.453L769.955+400.592L775.419+419.163L827.712+352.483L827.495+340.828L819.833+325.501L827.418+336.721L826.406+282.435L831.205+325.219L839.5+306.964L832.006+330.284L834.635+346.892L892.979+273.076L892.454+237.889L896.185+267.893L938.871+215.014L915.846+246.368L931.701+236.409L913.264+249.885L871.085+307.321L904.989+293.374L908.763+286.359L908.869+274.088L910.65+282.85L916.089+272.739L908.056+291.598L944.317+277.195L924.117+287.07L937.322+287.634L920.933+288.626L892.711+302.422L932.299+299.674L910.986+301.978L921.759+305.672L906.891+302.421L888.687+304.389L866.589+315.191L796.479+412.355L840.921+394.179L790.634+423.056L738.65+492.501L739.261+534.516L772.365+515.523L786.745+490.213L786.865+464.947L790.831+483.023L805.133+457.847L783.523+509.848C821.091+487.045+853.661+461.598+884.929+435.461C885.487+434.995+884.545+429.228+882.886+420.924C882.737+420.179+865.436+405.606+865.276+404.822C865.124+404.074+882.112+417.117+881.95+416.337C880.012+406.98+877.462+395.46+875.148+384.775C874.874+383.509+858.407+365.52+858.142+364.283C857.921+363.256+873.899+378.976+873.686+377.975C870.709+364.025+868.521+352.864+869.301+352.207C870.216+351.435+879.763+389.556+883.439+403.777C883.638+404.55+898.549+382.785+898.748+383.554C899.133+385.043+884.806+409.058+885.183+410.506C888.105+421.701+890.701+431.132+891.442+430.503C905.858+418.28+933.082+394.512+958.411+372.682C958.939+372.228+960.818+361.044+962.865+348.514C962.983+347.788+950.3+329.287+950.419+328.554C950.641+327.192+963.667+343.592+963.89+342.223C966.212+327.959+968.501+313.955+969.088+313.451C969.444+313.144+968.56+322.677+967.473+333.812C967.429+334.265+977.063+325.173+977.018+325.631C976.959+326.239+967.22+336.401+967.159+337.016C965.718+351.715+964.102+367.784+964.559+367.391C980.557+353.638+995.281+341.138+1004.84+333.456C988.944+349.838+964.388+373.743+939.119+397.667C938.525+398.229+961.33+392.332+980.095+387.55C980.939+387.335+989.813+365.717+990.638+365.507C991.836+365.202+982.509+386.17+983.653+385.879C994.097+383.234+1002.04+381.279+1001.68+381.614C1001.3+381.971+996.166+384.46+986.045+387.506C981.303+388.933+976.008+390.513+970.645+392.111C969.242+392.53+989.717+398.699+988.312+399.117C987.487+399.363+964.78+393.859+963.959+394.104C947.945+398.878+933.13+403.323+932.599+403.823C907.313+427.649+881.993+450.853+864.536+465.97C863.157+467.165+887.959+464.702+913.122+462.184C913.929+462.104+935.804+430.799+936.61+430.718C937.779+430.601+917.88+461.709+919.045+461.592C942.846+459.214+965.145+457.043+963.82+458.165C962.145+459.583+923.635+464.887+892.132+469.445C890.945+469.617+914.585+480.978+913.42+481.147C912.351+481.302+886.477+470.267+885.431+470.42C867.036+473.11+852.4+475.401+851.37+476.253C818.573+503.349+783.361+528.569+744.209+550.724C747.479+571.556+744.715+591.237+754.353+604.082L819.953+574.153L817.319+541.174L806.351+521.309L816.721+533.672L815.11+513.505L821.65+549.399L846.016+524.521L823.72+555.808L828.799+571.535C850.476+567.633+870.393+558.866+889.366+547.488C890.488+546.814+891.173+539.805+891.723+530.903C891.797+529.68+868.281+511.272+868.353+509.991C868.407+509.001+892.052+525.148+892.105+524.135C892.914+508.777+894.026+484.558+895.803+483.399C897.172+482.505+897.711+503.207+898.713+516.606C898.825+518.108+918.831+493.589+918.944+495.055C919.045+496.355+899.252+523.646+899.354+524.886C900.09+533.86+900.872+540.868+901.846+540.195C918.501+528.667+935.744+514.652+953.063+500.707C953.623+500.256+954.371+493.437+955.135+486.037C955.245+484.973+946.63+474.881+946.74+473.811C946.851+472.741+955.686+480.693+955.795+479.651C956.491+473.017+957.159+467.284+957.672+466.873C959.117+465.711+959.655+495.41+961.1+494.253C969.588+487.463+978.075+480.785+986.5+474.516C987.78+473.563+999.263+442.283+1000.54+441.351C1001.4+440.724+992.055+470.438+992.912+469.821C998.083+466.098+1024.55+440.31+1029.65+437.028C1027.65+441.628+996.756+473.454+985.27+484.021C984.304+484.911+1013.09+476.82+1012.1+477.722C1010.76+478.938+979.64+489.15+978.274+490.378C957.849+508.739+935.141+527.695+937.967+527.707C953.984+527.005+967.52+526.438+978.857+525.989C980.443+525.927+1002.95+508.925+1004.45+508.866C1006.04+508.805+986.618+525.688+988.114+525.632C1107.14+521.141+932.019+532.602+929.356+534.702C897.925+559.486+861.477+583.812+827.256+594.775C825.195+595.435+846.25+600.943+871.399+607.117C872.059+607.279+883.555+600.576+895.231+593.76C896.146+593.227+902.118+569.529+903.029+568.996C904.688+568.028+898.811+592.226+900.413+591.294C909.543+585.984+919.705+579.591+920.249+579.724C921.542+580.039+878.046+608.741+879.351+609.058C912.391+617.087+948.903+625.495+948.903+625.495C948.903+625.495+821.848+600.075+817.813+603.155C795.589+620.152+762.195+633.072+761.763+636.43C755.463+685.294+753.024+869.365+805.132+887.024C838.654+898.386+847.35+898.46+854.294+939.366C861.236+980.271+937.752+1022.27+999.667+1050.7C946.09+1015.76+863.422+1020.65+840.067+958.709C816.712+896.765+809.783+913.513+785.118+910.764C808.564+938.776+809.461+956.742+802.098+981.894C794.733+1007.05+795.77+1018.21+818.094+1048.9C840.417+1079.6+839.724+1129.79+847.01+1170.03C834.606+1128.76+831.428+1074.35+801.009+1047.71C770.59+1021.08+773.514+1004.41+782.494+979.545C791.474+954.681+774.484+939.69+752.01+917.428C747.867+939.923+727.759+967.996+751.489+992.885C775.218+1017.77+774.519+1024.2+748.036+1051.1C721.555+1078+740.564+1127+744.608+1166.41C738.489+1129.05+704.529+1085.48+728.992+1053.86C753.456+1022.23+737.728+1014.72+720.533+992.884C703.339+971.053+708.589+943.273+710.034+917.208C691.578+935.211+673.471+950.895+678.116+976.158C682.761+1001.42+677.876+1015.61+644.27+1038.67C610.664+1061.72+605.145+1105.09+590.181+1138.56C598.269+1102.84+598.349+1058.82+629.581+1034.24C660.813+1009.65+666.643+991.357+655.176+966.461C643.709+941.564+663.37+929.803+675.317+913.127C648.597+898.857+623.482+904.766+597.132+959.814C570.784+1014.86+492.234+1003.93+443.64+1028.02L443.644+1028.03Z" opacity="0.33" fill="#000000"/>
</g>
</g>
</svg>
