<?xml version="1.0" encoding="UTF-8"?>
<!DOCTYPE svg PUBLIC "-//W3C//DTD SVG 1.1//EN"
  "http://www.w3.org/Graphics/SVG/1.1/DTD/svg11.dtd">
<!-- Created with Inkpad (http://www.taptrix.com/) --><svg xmlns:inkpad="http://taptrix.com/inkpad/svg_extensions" height="780pt" xmlns:xlink="http://www.w3.org/1999/xlink" xmlns="http://www.w3.org/2000/svg" width="972pt" version="1.1" viewBox="0,0,972,780">
<defs>
<linearGradient y1="422.46" id="LinearGradient" x1="28.926" y2="285.42" x2="-112.07" gradientUnits="userSpaceOnUse" gradientTransform="matrix(-0 -0.695082 -0.645927 0 751.403 553.736)">
<stop stop-color="#008400" offset="0"/>
<stop stop-color="#00a000" offset="1"/>
</linearGradient>
<linearGradient y1="422.46" id="LinearGradient_2" x1="28.926" y2="285.42" x2="-112.07" gradientUnits="userSpaceOnUse" gradientTransform="matrix(-0 -0.695082 -0.645927 0 980.111 325.664)">
<stop stop-color="#008400" offset="0"/>
<stop stop-color="#00a000" offset="1"/>
</linearGradient>
<linearGradient y1="456.75" id="LinearGradient_3" x1="-53.632" y2="216.93" x2="-135.5" gradientUnits="userSpaceOnUse" gradientTransform="matrix(-0 -0.695082 -0.645927 0 911.019 513.363)">
<stop stop-color="#006400" offset="0"/>
<stop stop-color="#00a000" offset="1"/>
</linearGradient>
<linearGradient y1="1272.6" id="LinearGradient_4" x1="462.51" y2="323.12" x2="428.25" gradientUnits="userSpaceOnUse" gradientTransform="matrix(0 0.645927 -0.645927 0 911.021 250.017)">
<stop stop-color="#000000" offset="0"/>
<stop stop-color="#986601" offset="0.5"/>
<stop stop-color="#000400" offset="1"/>
</linearGradient>
</defs>
<g id="layer1" inkpad:layerName="layer1">
<g opacity="1">
<g opacity="1">
<path d="M621.628+531.832C620.278+557.049+597.88+576.336+571.601+574.911C545.322+573.487+525.112+551.89+526.462+526.673C527.812+501.456+550.211+482.169+576.49+483.594C602.769+485.019+622.978+506.616+621.628+531.832Z" opacity="0.5" fill="#000000"/>
<path d="M616.972+531.58C615.622+556.796+593.224+576.084+566.945+574.659C540.666+573.234+520.456+551.637+521.806+526.42C523.156+501.204+545.554+481.916+571.834+483.341C598.113+484.766+618.322+506.363+616.972+531.58Z" opacity="1" fill="#015a01"/>
</g>
<g opacity="1">
<path d="M450.214+628.255C448.864+653.471+426.466+672.759+400.187+671.334C373.908+669.909+353.698+648.312+355.048+623.095C356.399+597.878+378.796+578.591+405.076+580.016C431.355+581.441+451.564+603.038+450.214+628.255Z" opacity="0.5" fill="#000400"/>
<path d="M455.13+624.04C453.78+649.257+431.382+668.544+405.103+667.119C378.824+665.694+358.614+644.097+359.964+618.88C361.314+593.664+383.712+574.377+409.992+575.801C436.27+577.226+456.48+598.823+455.13+624.04Z" opacity="1" fill="#006000"/>
</g>
<g opacity="1">
<path d="M384.999+642.681C383.649+667.897+403.858+689.495+430.138+690.919C456.417+692.344+478.815+673.057+480.165+647.84C481.515+622.624+461.306+601.026+435.027+599.602C408.748+598.177+386.35+617.464+384.999+642.681Z" opacity="0.5" fill="#000400"/>
<path d="M387.56+638.338C386.21+663.555+406.419+685.152+432.698+686.577C458.977+688.002+481.376+668.715+482.726+643.498C484.076+618.282+463.867+596.684+437.587+595.259C411.308+593.835+388.91+613.122+387.56+638.338Z" opacity="1" fill="#339900"/>
</g>
<g opacity="1">
<path d="M494.533+654.911C493.182+680.128+513.392+701.725+539.671+703.15C565.95+704.575+588.348+685.288+589.698+660.071C591.048+634.855+570.839+613.257+544.56+611.832C518.281+610.408+495.883+629.695+494.533+654.911Z" opacity="0.5" fill="#000000"/>
<path d="M487.654+652.298C486.304+677.514+506.513+699.112+532.793+700.537C559.072+701.961+581.47+682.675+582.82+657.458C584.17+632.241+563.961+610.644+537.682+609.219C511.403+607.794+489.004+627.081+487.654+652.298Z" opacity="1" fill="url(#LinearGradient)"/>
</g>
<g opacity="1">
<path d="M582.999+494.82C581.649+520.036+559.251+539.324+532.972+537.899C506.693+536.474+486.483+514.877+487.833+489.66C489.183+464.444+511.581+445.156+537.861+446.581C564.14+448.006+584.349+469.603+582.999+494.82Z" opacity="0.5" fill="#000000"/>
<path d="M578.223+496.795C576.873+522.011+554.476+541.299+528.196+539.874C501.917+538.449+481.708+516.852+483.058+491.635C484.408+466.419+506.806+447.131+533.085+448.556C559.364+449.981+579.574+471.578+578.223+496.795Z" opacity="1" fill="#00ac00"/>
</g>
<g opacity="1">
<path d="M557.449+663.615C556.099+688.831+533.701+708.119+507.422+706.694C481.143+705.269+460.933+683.672+462.283+658.455C463.633+633.239+486.031+613.951+512.311+615.376C538.59+616.801+558.799+638.398+557.449+663.615Z" opacity="0.5" fill="#000000"/>
<path d="M555.333+659.019C553.983+684.236+531.585+703.523+505.306+702.098C479.027+700.673+458.818+679.076+460.168+653.859C461.518+628.643+483.916+609.356+510.195+610.78C536.474+612.205+556.683+633.802+555.333+659.019Z" opacity="1" fill="#006400"/>
</g>
<g opacity="1">
<path d="M629.639+577.54C628.289+602.756+605.892+622.044+579.612+620.619C553.333+619.194+533.124+597.597+534.474+572.38C535.824+547.164+558.222+527.876+584.501+529.301C610.78+530.726+630.99+552.323+629.639+577.54Z" opacity="0.5" fill="#000000"/>
<path d="M624.963+577.286C623.613+602.503+601.215+621.79+574.936+620.365C548.657+618.941+528.447+597.343+529.797+572.126C531.147+546.91+553.545+527.623+579.825+529.048C606.104+530.472+626.313+552.069+624.963+577.286Z" opacity="1" fill="#007c00"/>
</g>
<g opacity="1">
<path d="M532.379+485.699C531.029+510.916+508.631+530.203+482.351+528.778C456.072+527.354+435.863+505.757+437.213+480.54C438.563+455.323+460.961+436.036+487.24+437.461C513.519+438.885+533.729+460.483+532.379+485.699Z" opacity="0.5" fill="#000000"/>
<path d="M525.295+487.556C523.945+512.772+501.547+532.06+475.268+530.635C448.989+529.21+428.779+507.613+430.129+482.396C431.479+457.18+453.877+437.892+480.157+439.317C506.436+440.742+526.645+462.339+525.295+487.556Z" opacity="1" fill="#009c00"/>
</g>
<g opacity="1">
<path d="M506.045+494.616C504.695+519.832+482.297+539.12+456.018+537.695C429.739+536.27+409.53+514.673+410.88+489.456C412.23+464.24+434.628+444.952+460.907+446.377C487.186+447.802+507.396+469.399+506.045+494.616Z" opacity="0.5" fill="#000000"/>
<path d="M505.805+499.103C504.455+524.32+482.057+543.607+455.778+542.182C429.499+540.757+409.289+519.16+410.639+493.943C411.99+468.727+434.387+449.44+460.667+450.864C486.946+452.289+507.155+473.886+505.805+499.103Z" opacity="1" fill="#008c00"/>
</g>
<g opacity="1">
<path d="M621.175+636.493C619.825+661.709+597.427+680.997+571.148+679.572C544.869+678.147+524.66+656.55+526.01+631.333C527.36+606.116+549.758+586.829+576.037+588.254C602.316+589.679+622.526+611.276+621.175+636.493Z" opacity="0.5" fill="#000000"/>
<path d="M616.639+634.006C615.289+659.223+592.891+678.51+566.611+677.085C540.333+675.66+520.123+654.063+521.473+628.846C522.823+603.63+545.221+584.343+571.5+585.767C597.779+587.192+617.989+608.789+616.639+634.006Z" opacity="1" fill="#008400"/>
</g>
<g opacity="1">
<path d="M621.319+598.09C619.969+623.306+597.571+642.594+571.292+641.169C545.013+639.744+524.803+618.147+526.154+592.93C527.504+567.714+549.902+548.426+576.181+549.851C602.46+551.276+622.669+572.873+621.319+598.09Z" opacity="0.5" fill="#000000"/>
<path d="M616.557+600.066C615.207+625.282+592.809+644.57+566.53+643.144C540.251+641.72+520.041+620.123+521.391+594.906C522.742+569.689+545.139+550.402+571.419+551.827C597.698+553.252+617.907+574.849+616.557+600.066Z" opacity="1" fill="#007800"/>
</g>
<g opacity="1">
<path d="M598.581+522.574C597.231+547.791+574.833+567.078+548.554+565.653C522.275+564.229+502.065+542.632+503.415+517.415C504.765+492.198+527.163+472.911+553.443+474.336C579.721+475.76+599.931+497.358+598.581+522.574Z" opacity="0.5" fill="#000400"/>
<path d="M593.819+524.55C592.469+549.767+570.071+569.054+543.791+567.629C517.512+566.205+497.303+544.607+498.653+519.391C500.003+494.174+522.401+474.887+548.68+476.312C574.959+477.736+595.169+499.334+593.819+524.55Z" opacity="1" fill="#339900"/>
</g>
<g opacity="1">
<path d="M469.066+496.684C467.716+521.9+487.925+543.498+514.204+544.922C540.483+546.347+562.881+527.06+564.231+501.843C565.581+476.627+545.372+455.029+519.093+453.605C492.814+452.18+470.416+471.467+469.066+496.684Z" opacity="0.5" fill="#000000"/>
<path d="M464.304+498.659C462.953+523.876+483.163+545.474+509.442+546.898C535.721+548.323+558.119+529.036+559.469+503.819C560.819+478.603+540.61+457.005+514.331+455.58C488.052+454.156+465.654+473.443+464.304+498.659Z" opacity="1" fill="#00b000"/>
</g>
<g opacity="1">
<path d="M601.626+635.065C600.276+660.282+577.878+679.569+551.599+678.144C525.32+676.72+505.111+655.122+506.461+629.906C507.811+604.689+530.208+585.402+556.488+586.827C582.767+588.251+602.976+609.849+601.626+635.065Z" opacity="0.5" fill="#000000"/>
<path d="M594.748+632.452C593.398+657.668+571+676.956+544.721+675.531C518.442+674.106+498.232+652.509+499.582+627.292C500.932+602.076+523.33+582.788+549.61+584.213C575.889+585.638+596.098+607.235+594.748+632.452Z" opacity="1" fill="#006000"/>
</g>
<g opacity="1">
<path d="M593.579+593.186C592.229+618.402+569.831+637.69+543.552+636.265C517.273+634.84+497.064+613.243+498.414+588.026C499.764+562.81+522.162+543.522+548.441+544.947C574.72+546.372+594.929+567.969+593.579+593.186Z" opacity="0.5" fill="#000400"/>
<path d="M588.783+595.166C587.433+620.383+565.035+639.67+538.756+638.245C512.477+636.82+492.268+615.223+493.618+590.007C494.968+564.79+517.366+545.503+543.645+546.927C569.924+548.352+590.133+569.949+588.783+595.166Z" opacity="1" fill="#009400"/>
</g>
<g opacity="1">
<path d="M579.649+520.073C578.299+545.289+555.901+564.576+529.622+563.152C503.342+561.727+483.133+540.13+484.483+514.913C485.833+489.696+508.231+470.409+534.51+471.834C560.789+473.259+580.999+494.856+579.649+520.073Z" opacity="0.5" fill="#000000"/>
<path d="M577.055+524.413C575.704+549.629+553.307+568.917+527.027+567.492C500.748+566.067+480.539+544.47+481.889+519.253C483.239+494.037+505.637+474.749+531.916+476.174C558.195+477.599+578.405+499.196+577.055+524.413Z" opacity="1" fill="#008400"/>
</g>
<g opacity="1">
<path d="M590.364+555.367C589.014+580.584+566.616+599.871+540.337+598.446C514.058+597.022+493.849+575.425+495.199+550.208C496.549+524.991+518.947+505.704+545.226+507.129C571.505+508.554+591.714+530.151+590.364+555.367Z" opacity="0.5" fill="#000000"/>
<path d="M585.602+557.35C584.252+582.566+561.854+601.854+535.575+600.429C509.296+599.004+489.086+577.407+490.436+552.19C491.786+526.974+514.184+507.686+540.464+509.111C566.743+510.536+586.952+532.133+585.602+557.35Z" opacity="1" fill="#007800"/>
</g>
<g opacity="1">
<path d="M421.436+653.821C420.086+679.037+440.295+700.635+466.574+702.06C492.853+703.484+515.251+684.197+516.601+658.98C517.951+633.764+497.742+612.167+471.463+610.742C445.184+609.317+422.786+628.604+421.436+653.821Z" opacity="0.5" fill="#000000"/>
<path d="M426.198+651.839C424.848+677.055+445.057+698.652+471.336+700.077C497.615+701.502+520.013+682.215+521.364+656.998C522.714+631.782+502.505+610.184+476.225+608.76C449.946+607.335+427.548+626.622+426.198+651.839Z" opacity="1" fill="#008c00"/>
</g>
<g opacity="1">
<path d="M340.152+574.949C338.802+600.166+359.011+621.763+385.29+623.188C411.569+624.613+433.968+605.326+435.318+580.109C436.668+554.892+416.459+533.295+390.179+531.87C363.9+530.445+341.502+549.732+340.152+574.949Z" opacity="0.5" fill="#000400"/>
<path d="M344.914+572.967C343.564+598.183+363.773+619.781+390.053+621.205C416.332+622.63+438.73+603.343+440.08+578.126C441.43+552.91+421.221+531.312+394.942+529.888C368.663+528.463+346.265+547.75+344.914+572.967Z" opacity="1" fill="#007400"/>
</g>
<g opacity="1">
<path d="M377.105+501.383C375.755+526.599+395.964+548.197+422.243+549.622C448.522+551.047+470.92+531.76+472.271+506.543C473.621+481.326+453.412+459.729+427.132+458.304C400.853+456.879+378.455+476.166+377.105+501.383Z" opacity="0.5" fill="#000000"/>
<path d="M380.484+503.81C379.134+529.026+399.343+550.624+425.622+552.049C451.901+553.474+474.3+534.186+475.65+508.97C477+483.753+456.791+462.156+430.511+460.731C404.232+459.306+381.834+478.593+380.484+503.81Z" opacity="1" fill="#007c00"/>
</g>
<g opacity="1">
<path d="M446.148+521.153C444.798+546.369+465.007+567.967+491.286+569.391C517.565+570.816+539.964+551.529+541.314+526.312C542.664+501.096+522.455+479.498+496.175+478.074C469.896+476.649+447.498+495.936+446.148+521.153Z" opacity="0.5" fill="#000000"/>
<path d="M443.554+525.493C442.204+550.709+462.413+572.307+488.692+573.732C514.971+575.156+537.369+555.87+538.719+530.653C540.069+505.436+519.86+483.839+493.581+482.414C467.302+480.989+444.904+500.276+443.554+525.493Z" opacity="1" fill="#006c00"/>
</g>
<g opacity="1">
<path d="M342.894+543.216C341.544+568.432+361.753+590.03+388.032+591.455C414.311+592.879+436.709+573.592+438.059+548.376C439.409+523.159+419.2+501.562+392.921+500.137C366.642+498.712+344.244+517.999+342.894+543.216Z" opacity="0.5" fill="#000000"/>
<path d="M347.809+539.001C346.459+564.218+366.668+585.815+392.948+587.24C419.227+588.665+441.625+569.378+442.975+544.161C444.325+518.945+424.116+497.347+397.837+495.922C371.558+494.497+349.159+513.785+347.809+539.001Z" opacity="1" fill="#008000"/>
</g>
<g opacity="1">
<path d="M367.982+531.168C366.632+556.385+386.841+577.982+413.121+579.407C439.4+580.832+461.798+561.545+463.148+536.328C464.498+511.111+444.289+489.514+418.01+488.089C391.731+486.664+369.333+505.951+367.982+531.168Z" opacity="0.5" fill="#000000"/>
<path d="M374.98+531.548C373.63+556.764+393.839+578.362+420.119+579.786C446.398+581.211+468.796+561.924+470.146+536.707C471.496+511.491+451.287+489.893+425.008+488.469C398.729+487.044+376.33+506.331+374.98+531.548Z" opacity="1" fill="url(#LinearGradient_2)"/>
</g>
<g opacity="1">
<path d="M467.087+613.56C465.736+638.777+443.339+658.064+417.059+656.64C390.78+655.215+370.571+633.618+371.921+608.401C373.271+583.184+395.669+563.897+421.948+565.322C448.227+566.747+468.437+588.344+467.087+613.56Z" opacity="0.5" fill="#000400"/>
<path d="M471.849+611.578C470.499+636.795+448.101+656.082+421.822+654.657C395.543+653.232+375.333+631.635+376.683+606.418C378.033+581.202+400.431+561.915+426.711+563.339C452.99+564.764+473.199+586.361+471.849+611.578Z" opacity="1" fill="#339900"/>
</g>
<g opacity="1">
<path d="M473.457+567.039C472.107+592.255+492.316+613.853+518.596+615.277C544.874+616.702+567.273+597.415+568.623+572.198C569.973+546.982+549.764+525.384+523.484+523.96C497.205+522.535+474.807+541.822+473.457+567.039Z" opacity="0.5" fill="#000000"/>
<path d="M470.897+571.381C469.547+596.597+489.756+618.195+516.035+619.62C542.314+621.044+564.712+601.757+566.062+576.54C567.412+551.324+547.203+529.726+520.924+528.302C494.645+526.877+472.247+546.164+470.897+571.381Z" opacity="1" fill="url(#LinearGradient_3)"/>
</g>
<g opacity="1">
<path d="M452.608+560.763C451.258+585.98+428.86+605.267+402.581+603.842C376.302+602.418+356.093+580.821+357.443+555.604C358.793+530.387+381.191+511.1+407.47+512.525C433.749+513.949+453.958+535.547+452.608+560.763Z" opacity="0.5" fill="#000000"/>
<path d="M457.132+563.249C455.781+588.466+433.384+607.753+407.104+606.328C380.825+604.903+360.616+583.306+361.966+558.089C363.316+532.873+385.714+513.586+411.993+515.01C438.272+516.435+458.482+538.032+457.132+563.249Z" opacity="1" fill="#339900"/>
</g>
<g opacity="1">
<path d="M380.292+562.858C378.942+588.074+399.151+609.672+425.43+611.096C451.709+612.521+474.107+593.234+475.457+568.017C476.807+542.801+456.598+521.203+430.319+519.779C404.04+518.354+381.642+537.641+380.292+562.858Z" opacity="0.5" fill="#000400"/>
<path d="M387.409+561C386.059+586.216+406.268+607.814+432.548+609.239C458.827+610.663+481.225+591.376+482.575+566.16C483.925+540.943+463.716+519.346+437.437+517.921C411.158+516.496+388.759+535.783+387.409+561Z" opacity="1" fill="#44aa00"/>
</g>
<g opacity="1">
<path d="M431.135+538.788C429.785+564.004+449.995+585.602+476.274+587.026C502.553+588.451+524.951+569.164+526.301+543.947C527.651+518.731+507.442+497.134+481.163+495.709C454.884+494.284+432.486+513.571+431.135+538.788Z" opacity="0.5" fill="#000000"/>
<path d="M430.896+543.256C429.546+568.472+449.755+590.07+476.035+591.495C502.314+592.919+524.712+573.632+526.062+548.415C527.412+523.199+507.203+501.602+480.924+500.177C454.645+498.752+432.246+518.039+430.896+543.256Z" opacity="1" fill="#009400"/>
</g>
<g opacity="1">
<path d="M481.069+622.564C479.719+647.781+499.927+669.378+526.207+670.803C552.486+672.228+574.884+652.941+576.234+627.724C577.584+602.507+557.375+580.91+531.096+579.485C504.817+578.06+482.419+597.347+481.069+622.564Z" opacity="0.5" fill="#000000"/>
<path d="M475.308+621.132C473.958+646.348+494.167+667.946+520.446+669.37C546.725+670.795+569.124+651.508+570.474+626.291C571.824+601.075+551.615+579.477+525.335+578.053C499.056+576.628+476.658+595.915+475.308+621.132Z" opacity="1" fill="#2ca02c"/>
</g>
<g opacity="1">
<path d="M459.504+590.019C458.154+615.236+478.363+636.833+504.642+638.258C530.921+639.683+553.319+620.396+554.669+595.179C556.019+569.963+535.81+548.365+509.531+546.94C483.252+545.516+460.854+564.803+459.504+590.019Z" opacity="0.5" fill="#000000"/>
<path d="M454.861+589.768C453.511+614.984+473.72+636.582+499.999+638.006C526.278+639.431+548.676+620.144+550.026+594.927C551.377+569.711+531.167+548.113+504.888+546.689C478.609+545.264+456.211+564.551+454.861+589.768Z" opacity="1" fill="#217821"/>
</g>
<g opacity="1">
<path d="M402.005+567.433C400.572+592.645+420.71+614.303+446.985+615.808C473.26+617.313+495.722+598.094+497.156+572.882C498.589+547.67+478.451+526.012+452.176+524.507C425.901+523.003+403.439+542.221+402.005+567.433Z" opacity="0.5" fill="#000000"/>
<path d="M401.766+571.901C400.333+597.113+420.471+618.771+446.746+620.276C473.021+621.781+495.483+602.562+496.916+577.35C498.35+552.138+478.211+530.48+451.936+528.976C425.662+527.471+403.199+546.689+401.766+571.901Z" opacity="1" fill="#217821"/>
</g>
<g opacity="1">
<path d="M394.47+621.796C393.12+647.012+413.329+668.61+439.608+670.034C465.887+671.459+488.286+652.172+489.636+626.955C490.986+601.739+470.777+580.141+444.497+578.717C418.218+577.292+395.82+596.579+394.47+621.796Z" opacity="0.5" fill="#000000"/>
<path d="M397.031+617.45C395.681+642.667+415.89+664.264+442.169+665.689C468.448+667.114+490.846+647.827+492.197+622.61C493.547+597.393+473.338+575.796+447.058+574.371C420.779+572.946+398.381+592.233+397.031+617.45Z" opacity="1" fill="#006400"/>
</g>
<g opacity="1">
<path d="M519.615+582.529C518.265+607.746+495.867+627.033+469.588+625.608C443.309+624.183+423.099+602.586+424.449+577.37C425.799+552.153+448.197+532.866+474.477+534.29C500.756+535.715+520.965+557.312+519.615+582.529Z" opacity="0.5" fill="#000000"/>
<path d="M522.176+578.187C520.826+603.403+498.428+622.691+472.148+621.266C445.869+619.841+425.66+598.244+427.01+573.027C428.36+547.811+450.758+528.523+477.037+529.948C503.316+531.373+523.526+552.97+522.176+578.187Z" opacity="1" fill="#00ac00"/>
</g>
<g opacity="1">
<path d="M448.847+640.476C447.497+665.693+467.706+687.29+493.985+688.715C520.264+690.14+542.662+670.853+544.012+645.636C545.363+620.419+525.153+598.822+498.874+597.397C472.595+595.973+450.197+615.26+448.847+640.476Z" opacity="0.5" fill="#000000"/>
<path d="M451.467+635.017C450.117+660.234+470.326+681.831+496.606+683.256C522.885+684.681+545.283+665.394+546.633+640.177C547.983+614.96+527.774+593.363+501.495+591.938C475.216+590.513+452.817+609.8+451.467+635.017Z" opacity="1" fill="#007800"/>
</g>
<g opacity="1">
<path d="M430.47+608.614C429.12+633.83+449.329+655.428+475.609+656.853C501.887+658.277+524.286+638.99+525.636+613.773C526.986+588.557+506.777+566.96+480.497+565.535C454.218+564.11+431.82+583.397+430.47+608.614Z" opacity="0.34496" fill="#000000"/>
<path d="M436.53+604.461C435.18+629.678+455.389+651.275+481.668+652.7C507.947+654.125+530.345+634.838+531.695+609.621C533.045+584.404+512.836+562.807+486.557+561.382C460.278+559.958+437.88+579.245+436.53+604.461Z" opacity="1" fill="#009800"/>
</g>
<path d="M378.077+860.056C403.658+849.908+432.66+843.341+434.786+826.216C436.912+809.09+453.485+801.79+465.029+793.899C481.869+782.387+484.087+708.382+478.729+689.337C478.387+688.122+472.764+685.718+464.895+682.811C463.275+682.212+423.927+696.975+422.143+696.34C421.372+696.065+442.303+688.771+447.093+686.624C447.55+686.419+436.737+683.088+437.201+682.882C437.912+682.565+449.902+685.375+450.606+685.064C455.543+682.885+459.957+680.964+459.068+681.023C453.275+681.408+437.425+674.397+420.087+664.289C419.752+664.093+414.735+663.736+408.856+663.349C408.447+663.322+404.802+665.509+404.385+665.481C404.043+665.459+406.93+663.223+406.585+663.2C398.594+662.68+389.943+662.135+389.495+661.869C389.192+661.688+393.611+661.668+398.881+661.676C399.222+661.677+394.038+658.391+394.385+658.392C394.728+658.393+400.602+661.679+400.949+661.68C408.063+661.698+415.783+661.734+415.383+661.492C409.238+657.767+403.005+653.709+397.053+649.504C396.547+649.146+392.161+648.41+387.105+647.609C386.725+647.548+382.14+649.231+381.753+649.17C381.361+649.108+385.168+647.303+384.773+647.241C378.196+646.208+371.322+645.145+370.69+644.69C370.287+644.399+374.338+644.542+378.9+644.735C379.385+644.755+374.82+640.561+375.312+640.582C375.8+640.603+381.345+644.84+381.831+644.86C386.648+645.066+391.11+645.237+390.693+644.932C386.961+642.204+383.347+639.382+379.932+636.59C379.766+636.454+376.261+635.859+372.387+635.213C372.007+635.149+368.593+636.892+368.209+636.828C367.815+636.763+370.451+634.89+370.058+634.825C365.956+634.142+362.096+633.492+361.924+633.35C361.551+633.042+378.074+635.058+377.706+634.752C373.533+631.271+369.701+627.882+366.37+624.831C365.964+624.459+357.171+621.948+356.78+621.586C356.525+621.351+364.667+623.261+364.419+623.03C357.542+616.634+353.249+612.118+353.249+612.118C353.249+612.118+356.598+614.439+360.872+617.451C361.152+617.648+359.892+613.824+360.18+614.027C360.525+614.271+362.421+618.544+362.775+618.794C366.986+621.773+371.703+625.151+374.928+627.583C375.44+627.969+374.925+609.331+375.437+609.718C376.047+610.18+376.422+615.656+376.814+620.785C376.843+621.17+380.609+617.533+380.638+617.913C380.668+618.288+376.961+622.68+376.991+623.045C377.28+626.579+377.598+629.516+378.037+629.849C385.086+635.196+392.35+640.734+399.785+645.943C400.106+646.168+400.25+637.895+400.384+629.068C400.393+628.454+389.509+615.221+389.519+614.605C389.533+613.679+400.364+626.773+400.378+625.856C400.508+617.378+400.73+608.268+401.041+608.482C401.468+608.777+402.151+621.281+402.803+632.311C402.832+632.8+410.1+624.106+410.129+624.587C410.157+625.057+402.946+634.702+402.973+635.163C403.423+642.602+403.846+648.742+404.145+648.944C416.922+657.57+430.165+664.953+443.639+668.537L441.32+654.047L434.809+651.066L424.301+651.155L433.035+650.255L421.919+645.166L413.719+644.741L419.972+644.275L409.535+639.498L424.867+645.388L422.053+637.098L425.912+645.591L440.56+651.417L428.754+631.564L418.682+625.363L427.469+629.401L419.798+616.502L424.684+623.026L424.062+617.296L426.066+624.872L433.763+635.148L435.332+630.335L433.954+624.935L435.857+628.726L438.037+622.038L435.27+636.737L443.945+650.929L445.26+642.743L443.715+638.288L445.543+640.985L446.697+633.797L446.681+645.21L450.462+641.034L446.678+646.798L446.667+654.845L451.705+670.375L480.239+675.508C482.43+666.692+481.271+663.581+479.982+657.846C456.951+639.795+439.883+621.586+420.901+600.05C420.661+599.777+417.359+598.655+412.882+597.207C412.615+597.12+396.832+601.965+396.558+601.877C396.23+601.771+411.409+596.732+411.071+596.623C401.026+593.4+386.835+589.025+386.332+588.444C385.973+588.03+394.746+590.149+402.932+592.104C403.143+592.154+398.071+582.362+398.281+582.412C398.466+582.456+403.934+592.342+404.119+592.387C410.852+593.992+416.854+595.394+416.558+595.048C412.66+590.49+406.175+581.52+399.186+571.502C398.741+570.864+369.778+562.663+369.329+562.018C369.161+561.777+377.694+563.731+385.316+565.517C385.783+565.626+381.706+557.525+382.163+557.633C382.632+557.743+386.414+565.597+387.076+565.716C392.04+566.604+396.937+568.269+396.937+568.269L384.457+550.034L372.839+543.278C372.839+543.278+383.624+548.632+383.141+547.919C378.283+540.746+373.139+533.303+370.553+529.541C373.907+532.867+382.131+544.203+390.087+555.174C390.291+555.455+390.664+553.862+391.078+551.825C391.129+551.573+388.903+545.417+388.955+545.155C389.006+544.9+391.334+550.538+391.385+550.277C391.973+547.283+392.576+544.103+392.855+544.487C393.215+544.983+391.256+556.511+391.613+557.003C397.798+565.518+404.599+575.072+407.194+577.829C407.574+578.234+410.409+559.808+410.79+560.213C411.125+560.569+410.874+565.429+410.609+570.388C410.574+571.051+414.124+566.734+414.09+567.391C414.069+567.792+410.462+573.171+410.442+573.564C410.24+577.542+410.114+580.936+410.392+581.231C417.897+589.216+425.4+597.202+433.071+604.776C433.532+605.23+434.566+600.205+435.654+594.665C435.719+594.335+431.96+584.041+432.025+583.709C432.115+583.249+436.029+592.751+436.119+592.291C437.282+586.345+438.917+581.092+438.917+581.092C438.917+581.092+438.902+584.651+438.307+588.714C438.25+589.105+442.116+585.934+442.056+586.338C442.036+586.468+438.091+590.168+438.071+590.299C436.965+597.619+435.402+606.713+436.028+607.303C444.667+615.449+457.141+628.237+466.533+634.542L473.12+624.42L469.126+636.906L484.577+646.801L484.267+627.713L454.712+578.742L449.049+576.86L439.653+577.021L445.817+575.786L419.319+566.979L438.217+571.786L432.249+561.058L441.44+572.605L453.363+575.638L435.423+548.085L429.199+546.588L419.376+548.496L427.581+546.198L413.066+542.705L425.035+544.443L420.829+538.438L426.507+544.934L434.074+546.188L413.782+515.207L410.608+513.095L404.491+511.9L409.233+512.18L402.357+507.605L412.22+512.822L398.436+491.778L408.012+505.776L406.885+499.55L409.152+507.442L424.654+530.104L425.142+526.892L422.539+519.195L425.442+524.917L426.64+517.042L425.819+532.055L442.354+556.376L444.203+552.519L443.22+545.738L444.861+551.147L448.455+543.649L443.47+557.883L487.26+621.093L488.446+593.146L479.824+583.853L463.288+579.763L478.059+581.976L463.94+561.881L449.818+554.421L462.651+560.047L444.275+533.894L457.847+551.579L458.263+541.005L458.904+552.956L474.131+572.799L475.553+562.867L476.105+575.422L488.778+589.352L487.625+544.2L473.326+530.213L463.118+529.533L452.952+533.351L461.461+529.423L439.528+527.962L455.829+528.353L450.348+520.255L456.856+528.138L471.63+528.288L449.369+508.481L433.804+502.124L446.696+505.812L426.102+485.242L440.184+497.836L439.912+485.979L442.516+499.922L461.437+516.844L460.29+497.545L453.813+487.693L460.095+494.267L459.436+483.174L462.478+502.712L468.818+494.766L463.241+507.146L463.934+518.52L488.358+540.92L488.187+521.298L471.485+502.739L488.144+516.388L488.052+505.753L469.71+480.417L478.957+491.727L478.133+480.296L481.037+494.271L488.026+502.818L487.778+474.335L481.748+460.931L487.753+471.4L487.61+455.008L488.453+480.46L502.763+461.435L494.741+474.405L504.569+471.234L493.425+476.533L489.026+482.426L489.429+509.948L501.455+497.482L489.526+512.877L489.916+524.645L506.8+511.746L503.048+486.227L508.816+509.899L533.687+489.111L520.301+502.301L534.906+500.992L519.505+504.323L490.613+528.066L491.933+569.963L503.747+560.059L503.502+547.241L500.352+538.318L503.453+544.664L503.187+530.771L504.4+550.202L509+543.452L504.499+551.781L504.922+558.549L523.701+534.966L523.513+525.633L519.932+516.985L523.465+523.239L523.237+511.922L524.851+533.522L536.439+518.97L536.512+507.339L537.518+517.615L543.912+509.585L531.379+527.009L549.027+518.802L539.085+524.014L546.149+523.581L537.565+524.811L530.171+528.688L511.856+554.151L519.211+553.023L524.712+548.061L520.939+552.758L528.635+551.578L511.372+555.795L492.621+572.083L494.718+620.193L510.378+598.454L504.999+569.374L508.931+582.891L511.704+571.709L510.119+586.975L512.462+595.028L533.776+565.973L533.633+560.913L530.397+554.272L533.583+559.129L532.919+535.559L535.096+554.128L538.442+546.185L535.45+556.325L536.612+563.532L560.394+531.366L560.018+516.088L561.696+529.109L579.102+506.065L569.726+519.724L576.234+515.369L568.675+521.256L551.5+546.278L565.451+540.156L566.979+537.103L566.968+531.774L567.743+535.576L569.946+531.174L566.71+539.379L581.634+533.055L573.329+537.382L578.79+537.601L572.02+538.064L560.416+544.109L576.768+542.839L567.969+543.881L572.438+545.464L566.278+544.081L558.762+544.971L549.677+549.704L521.136+592.032L539.424+584.053L518.769+596.69L497.595+626.945L498.038+645.188L511.636+636.876L517.465+625.858L517.4+614.887L519.121+622.728L524.919+611.768L516.222+634.39C531.647+624.415+544.995+613.302+557.802+601.892C558.03+601.689+557.615+599.187+556.892+595.584C556.827+595.261+549.61+588.967+549.54+588.627C549.473+588.302+556.555+593.932+556.484+593.594C555.641+589.535+554.534+584.538+553.529+579.902C553.41+579.353+546.522+571.574+546.407+571.038C546.311+570.592+552.987+577.387+552.894+576.953C551.601+570.901+550.646+566.059+550.965+565.772C551.34+565.435+555.459+581.97+557.042+588.138C557.129+588.473+563.193+578.993+563.279+579.327C563.445+579.972+557.632+590.428+557.794+591.056C559.052+595.911+560.168+600.001+560.472+599.727C566.375+594.392+577.521+584.018+587.892+574.49C588.108+574.291+588.834+569.432+589.624+563.987C589.669+563.672+584.343+555.663+584.389+555.344C584.474+554.752+589.933+561.848+590.019+561.253C590.914+555.055+591.797+548.97+592.037+548.749C592.183+548.616+591.86+552.757+591.462+557.594C591.446+557.791+595.387+553.824+595.37+554.023C595.348+554.287+591.369+558.719+591.347+558.986C590.817+565.371+590.222+572.352+590.409+572.18C596.96+566.177+602.99+560.721+606.907+557.366C600.409+564.511+590.368+574.939+580.03+585.376C579.788+585.621+589.187+583.017+596.922+580.904C597.27+580.808+600.841+571.404+601.181+571.311C601.675+571.177+597.914+580.299+598.386+580.171C602.691+579.002+605.964+578.138+605.819+578.284C605.664+578.439+603.551+579.53+599.382+580.873C597.428+581.502+595.246+582.198+593.037+582.903C592.459+583.087+600.95+585.726+600.371+585.91C600.031+586.019+590.621+583.673+590.282+583.781C583.684+585.885+577.58+587.844+577.363+588.062C567.019+598.457+556.658+608.582+549.51+615.18C548.946+615.701+559.187+614.583+569.577+613.441C569.91+613.405+578.81+599.769+579.143+599.733C579.626+599.68+571.541+613.226+572.022+613.173C581.85+612.094+591.057+611.108+590.515+611.598C589.829+612.216+573.934+614.594+560.933+616.635C560.443+616.712+570.266+621.599+569.785+621.675C569.344+621.745+558.599+617.003+558.167+617.071C550.576+618.275+544.537+619.299+544.115+619.671C530.68+631.5+516.24+642.519+500.156+652.216C501.602+661.255+500.549+669.806+504.591+675.365L531.571+662.242L530.333+647.927L525.71+639.322L530.052+644.671L529.295+635.916L532.161+651.49L542.12+640.64L533.046+654.269L535.216+661.088C544.159+659.352+552.352+655.506+560.143+650.528C560.604+650.233+560.855+647.189+561.042+643.322C561.066+642.791+551.264+634.844+551.287+634.287C551.305+633.857+561.152+640.823+561.17+640.382C561.435+633.712+561.784+623.194+562.514+622.687C563.075+622.296+563.392+631.284+563.867+637.101C563.92+637.752+572.079+627.067+572.132+627.703C572.179+628.267+564.121+640.156+564.169+640.695C564.514+644.59+564.869+647.632+565.268+647.337C572.101+642.299+579.165+636.18+586.261+630.091C586.49+629.894+586.768+626.932+587.051+623.717C587.091+623.255+583.485+618.889+583.526+618.424C583.566+617.96+587.254+621.396+587.295+620.943C587.552+618.061+587.803+615.57+588.012+615.391C588.605+614.883+588.961+627.778+589.554+627.273C593.031+624.308+596.509+621.392+599.963+618.653C600.488+618.237+605.094+604.632+605.618+604.225C605.97+603.951+602.241+616.872+602.593+616.602C604.713+614.976+615.537+603.726+617.63+602.291C616.826+604.293+604.198+618.172+599.499+622.783C599.103+623.171+610.964+619.602+610.558+619.996C610.011+620.526+597.194+625.021+596.635+625.557C588.275+633.569+578.975+641.845+580.143+641.845C586.761+641.508+592.353+641.236+597.037+641.019C597.693+640.989+606.92+633.562+607.54+633.534C608.197+633.504+600.244+640.873+600.862+640.846C650.042+638.664+577.706+643.981+576.615+644.898C563.735+655.721+548.779+666.355+534.683+671.182C533.835+671.473+542.563+673.823+552.986+676.455C553.26+676.524+557.981+673.591+562.777+670.609C563.152+670.376+565.514+660.074+565.888+659.841C566.569+659.417+564.25+669.936+564.907+669.528C568.657+667.205+572.829+664.409+573.055+664.466C573.59+664.6+555.741+677.147+556.282+677.283C569.976+680.705+585.106+684.285+585.106+684.285C585.106+684.285+532.472+673.494+530.818+674.839C521.709+682.263+507.964+687.938+507.8+689.397C505.417+710.627+505.242+790.559+526.861+798.125C540.769+802.994+544.364+803.009+547.419+820.758C550.474+838.506+582.293+856.595+608.014+868.82C585.709+853.75+551.56+856.037+541.626+829.185C531.692+802.333+528.904+809.619+518.695+808.473C528.514+820.591+528.966+828.39+526.036+839.326C523.106+850.261+523.585+855.106+532.951+868.391C542.318+881.675+542.259+903.471+545.452+920.931C540.138+903.035+538.578+879.413+525.884+867.908C513.19+856.404+514.323+849.159+517.922+838.344C521.522+827.53+514.431+821.054+505.041+811.431C503.43+821.207+495.245+833.436+505.166+844.197C515.088+854.958+514.828+857.751+504.003+869.482C493.178+881.212+501.258+902.453+503.108+919.56C500.409+903.347+486.174+884.494+496.143+870.715C506.113+856.936+499.577+853.703+492.371+844.257C485.165+834.811+487.209+822.738+487.689+811.417C480.141+819.27+472.727+826.116+474.762+837.076C476.796+848.036+474.841+854.21+461.054+864.285C447.268+874.361+445.182+893.205+439.149+907.768C442.33+892.239+442.164+873.125+454.962+862.389C467.761+851.653+470.088+843.699+465.236+832.91C460.383+822.122+468.457+816.977+473.32+809.713C462.21+803.568+451.855+806.183+441.213+830.137C430.571+854.091+398.052+849.495+378.075+860.053L378.077+860.056Z" opacity="1" fill="url(#LinearGradient_4)"/>
<path d="M369.807+862.144C395.389+851.997+424.39+845.43+426.516+828.304C428.642+811.179+445.216+803.879+456.759+795.988C473.599+784.476+475.817+710.471+470.459+691.426C470.117+690.211+464.494+687.807+456.625+684.899C455.005+684.301+415.657+699.064+413.873+698.428C413.103+698.154+434.034+690.86+438.824+688.713C439.281+688.508+428.468+685.176+428.931+684.97C429.643+684.654+441.632+687.463+442.336+687.153C447.274+684.974+451.688+683.052+450.798+683.111C445.005+683.497+429.155+676.486+411.818+666.378C411.482+666.182+406.465+665.825+400.587+665.438C400.177+665.411+396.533+667.597+396.116+667.57C395.774+667.548+398.66+665.312+398.315+665.289C390.324+664.768+381.673+664.224+381.226+663.957C380.922+663.777+385.341+663.756+390.611+663.765C390.953+663.765+385.768+660.48+386.116+660.481C386.459+660.481+392.333+663.768+392.68+663.769C399.793+663.786+407.513+663.823+407.114+663.581C400.969+659.856+394.736+655.798+388.783+651.592C388.277+651.235+383.892+650.499+378.835+649.697C378.455+649.637+373.87+651.319+373.484+651.258C373.092+651.197+376.899+649.392+376.503+649.33C369.927+648.297+363.053+647.234+362.421+646.779C362.017+646.488+366.069+646.631+370.631+646.824C371.115+646.844+366.551+642.649+367.042+642.671C367.531+642.692+373.076+646.928+373.561+646.949C378.378+647.155+382.84+647.325+382.423+647.021C378.692+644.293+375.078+641.471+371.663+638.678C371.496+638.542+367.992+637.947+364.118+637.302C363.738+637.238+360.323+638.981+359.939+638.917C359.545+638.851+362.181+636.979+361.789+636.914C357.686+636.231+353.827+635.581+353.654+635.438C353.281+635.131+369.804+637.147+369.436+636.84C365.264+633.36+361.432+629.971+358.101+626.92C357.694+626.548+348.902+624.037+348.511+623.675C348.255+623.439+356.397+625.35+356.149+625.119C349.273+618.723+344.98+614.207+344.98+614.207C344.98+614.207+348.328+616.528+352.602+619.539C352.883+619.737+351.622+615.912+351.91+616.116C352.256+616.36+354.151+620.633+354.505+620.883C358.716+623.862+363.433+627.24+366.658+629.672C367.17+630.058+366.656+611.419+367.168+611.807C367.778+612.268+368.153+617.745+368.544+622.874C368.573+623.259+372.339+619.622+372.369+620.001C372.398+620.377+368.692+624.769+368.722+625.134C369.011+628.668+369.328+631.604+369.768+631.937C376.816+637.285+384.081+642.822+391.515+648.032C391.836+648.257+391.981+639.984+392.114+631.156C392.124+630.542+381.24+617.309+381.249+616.694C381.263+615.768+392.095+628.862+392.109+627.945C392.239+619.467+392.46+610.356+392.771+610.571C393.199+610.865+393.881+623.369+394.533+634.4C394.562+634.888+401.831+626.194+401.86+626.676C401.888+627.146+394.676+636.791+394.704+637.251C395.154+644.69+395.576+650.831+395.876+651.033C408.653+659.659+421.895+667.042+435.369+670.626L433.051+656.135L426.539+653.155L416.031+653.244L424.766+652.343L413.649+647.255L405.45+646.83L411.703+646.364L401.266+641.587L416.598+647.477L413.784+639.186L417.643+647.68L432.291+653.505L420.485+633.653L410.412+627.452L419.199+631.49L411.529+618.591L416.415+625.115L415.792+619.385L417.797+626.96L425.494+637.237L427.063+632.424L425.684+627.023L427.587+630.815L429.767+624.127L427.001+638.826L435.676+653.018L436.991+644.832L435.446+640.376L437.273+643.074L438.428+635.886L438.411+647.298L442.193+643.122L438.409+648.887L438.397+656.934L443.435+672.464L471.969+677.597C474.161+668.78+473.002+665.669+471.713+659.935C448.682+641.883+431.614+623.675+412.632+602.139C412.392+601.866+409.089+600.744+404.612+599.295C404.346+599.209+388.563+604.054+388.289+603.966C387.961+603.86+403.14+598.82+402.801+598.712C392.757+595.488+378.566+591.113+378.063+590.533C377.704+590.119+386.476+592.237+394.663+594.192C394.873+594.243+389.802+584.45+390.011+584.5C390.197+584.545+395.664+594.431+395.849+594.476C402.582+596.081+408.585+597.483+408.289+597.137C404.39+592.579+397.906+583.608+390.917+573.591C390.472+572.953+361.508+564.752+361.06+564.107C360.892+563.865+369.425+565.82+377.047+567.606C377.513+567.715+373.436+559.614+373.894+559.722C374.362+559.832+378.145+567.686+378.806+567.804C383.771+568.692+388.668+570.358+388.668+570.358L376.189+552.12L364.57+545.364C364.57+545.364+375.355+550.719+374.872+550.005C370.014+542.833+364.87+535.39+362.284+531.628C365.638+534.954+373.862+546.29+381.818+557.261C382.022+557.542+382.395+555.949+382.809+553.912C382.86+553.66+380.634+547.504+380.686+547.241C380.737+546.986+383.065+552.624+383.116+552.364C383.704+549.37+384.307+546.19+384.586+546.573C384.946+547.07+382.987+558.598+383.344+559.09C389.529+567.605+396.33+577.158+398.925+579.916C399.305+580.321+402.14+561.894+402.521+562.299C402.857+562.656+402.605+567.516+402.34+572.474C402.305+573.138+405.855+568.821+405.821+569.478C405.8+569.879+402.193+575.258+402.173+575.65C401.971+579.629+401.845+583.022+402.123+583.318C409.628+591.303+417.131+599.288+424.803+606.863C425.263+607.317+426.297+602.292+427.385+596.752C427.45+596.422+423.691+586.128+423.756+585.796C423.846+585.336+427.76+594.838+427.85+594.378C429.013+588.432+430.648+583.179+430.648+583.179C430.648+583.179+430.633+586.738+430.038+590.801C429.981+591.192+433.847+588.02+433.787+588.425C433.767+588.555+429.822+592.255+429.802+592.386C428.696+599.706+427.133+608.8+427.759+609.39C436.398+617.536+448.872+630.324+458.264+636.629L464.851+626.506L460.858+638.992L476.308+648.887L475.998+629.8L446.443+580.829L440.78+578.947L431.384+579.107L437.549+577.873L411.05+569.066L429.948+573.872L423.98+563.145L433.171+574.692L445.094+577.725L427.154+550.172L420.93+548.674L411.107+550.582L419.312+548.285L404.797+544.792L416.766+546.53L412.56+540.525L418.239+547.021L425.805+548.275L405.513+517.293L402.339+515.182L396.222+513.987L400.965+514.267L394.088+509.691L403.951+514.909L390.167+493.864L399.743+507.863L398.616+501.636L400.883+509.529L416.385+532.191L416.873+528.979L414.27+521.282L417.174+527.004L418.371+519.129L417.55+534.142L434.085+558.463L435.934+554.606L434.951+547.825L436.592+553.234L440.186+545.735L435.201+559.969L478.991+623.18L480.177+595.232L471.555+585.94L455.019+581.85L469.79+584.062L455.671+563.968L441.549+556.508L454.382+562.134L436.006+535.981L449.578+553.666L449.995+543.092L450.635+555.043L465.862+574.885L467.284+564.954L467.836+577.508L480.509+591.438L479.356+546.287L465.057+532.3L454.849+531.62L444.683+535.438L453.192+531.509L431.259+530.048L447.56+530.44L442.079+522.342L448.586+530.224L463.361+530.375L441.099+510.568L425.535+504.21L438.426+507.898L417.832+487.329L431.914+499.923L431.642+488.065L434.247+502.009L453.167+518.93L452.02+499.632L445.544+489.78L451.826+496.354L451.167+485.261L454.208+504.799L460.548+496.853L454.972+509.233L455.665+520.607L480.088+543.007L479.917+523.385L463.216+504.826L479.875+518.475L479.782+507.839L461.44+482.504L470.687+493.813L469.863+482.382L472.768+496.357L479.757+504.905L479.509+476.421L473.479+463.017L479.483+473.487L479.341+457.095L480.183+482.547L494.493+463.522L486.472+476.492L496.299+473.321L485.156+478.62L480.757+484.513L481.159+512.035L493.185+499.569L481.257+514.964L481.646+526.732L498.53+513.833L494.779+488.313L500.547+511.986L525.418+491.198L512.032+504.388L526.636+503.079L511.235+506.409L482.344+530.153L483.664+572.05L495.478+562.146L495.233+549.328L492.082+540.405L495.183+546.75L494.918+532.857L496.131+552.289L500.731+545.539L496.23+553.867L496.652+560.636L515.432+537.053L515.244+527.72L511.663+519.071L515.196+525.326L514.968+514.009L516.582+535.608L528.169+521.057L528.243+509.426L529.248+519.701L535.642+511.672L523.109+529.096L540.758+520.888L530.815+526.101L537.88+525.668L529.296+526.898L521.902+530.775L503.587+556.238L510.942+555.11L516.442+550.148L512.669+554.845L520.365+553.665L503.102+557.882L484.351+574.17L486.448+622.279L502.108+600.541L496.729+571.461L500.661+584.977L503.435+573.796L501.85+589.062L504.192+597.115L525.506+568.06L525.364+563L522.127+556.359L525.313+561.216L524.649+537.646L526.827+556.214L530.173+548.272L527.181+558.412L528.343+565.619L552.125+533.453L551.749+518.175L553.427+531.196L570.832+508.152L561.457+521.811L567.965+517.456L560.405+523.343L543.23+548.365L557.181+542.243L558.709+539.19L558.698+533.861L559.474+537.662L561.676+533.261L558.441+541.466L573.365+535.141L565.059+539.468L570.521+539.688L563.75+540.15L552.147+546.196L568.499+544.926L559.699+545.968L564.169+547.55L558.009+546.168L550.493+547.058L541.407+551.791L512.867+594.118L531.155+586.139L510.499+598.776L489.326+629.032L489.768+647.274L503.366+638.963L509.196+627.945L509.131+616.973L510.852+624.815L516.65+613.855L507.953+636.477C523.378+626.502+536.726+615.389+549.533+603.979C549.761+603.776+549.346+601.273+548.622+597.671C548.557+597.348+541.34+591.054+541.271+590.714C541.204+590.389+548.285+596.019+548.215+595.681C547.371+591.622+546.265+586.624+545.26+581.989C545.141+581.44+538.253+573.661+538.138+573.124C538.042+572.679+544.718+579.474+544.625+579.04C543.332+572.988+542.377+568.146+542.696+567.859C543.071+567.522+547.189+584.056+548.773+590.224C548.859+590.56+554.924+581.079+555.01+581.413C555.176+582.059+549.362+592.515+549.525+593.143C550.783+597.998+551.899+602.088+552.203+601.814C558.106+596.478+569.251+586.105+579.623+576.577C579.839+576.378+580.565+571.518+581.354+566.073C581.4+565.758+576.073+557.749+576.12+557.431C576.205+556.839+581.664+563.935+581.75+563.34C582.645+557.142+583.528+551.057+583.768+550.836C583.914+550.702+583.591+554.844+583.193+559.681C583.177+559.878+587.118+555.911+587.101+556.11C587.079+556.374+583.1+560.805+583.078+561.073C582.548+567.458+581.953+574.438+582.14+574.267C588.691+568.264+594.72+562.808+598.638+559.453C592.14+566.598+582.098+577.026+571.761+587.463C571.518+587.708+580.918+585.103+588.653+582.99C589.001+582.895+592.571+573.491+592.912+573.398C593.405+573.263+589.645+582.386+590.117+582.258C594.421+581.089+597.695+580.225+597.55+580.37C597.395+580.526+595.282+581.617+591.112+582.96C589.159+583.589+586.977+584.285+584.768+584.989C584.19+585.174+592.681+587.813+592.102+587.997C591.762+588.106+582.351+585.76+582.013+585.868C575.415+587.972+569.311+589.93+569.094+590.149C558.75+600.544+548.388+610.668+541.241+617.267C540.677+617.788+550.917+616.67+561.307+615.528C561.64+615.492+570.541+601.856+570.874+601.819C571.357+601.766+563.272+615.313+563.753+615.26C573.581+614.181+582.788+613.195+582.245+613.684C581.559+614.303+565.665+616.681+552.664+618.722C552.174+618.799+561.997+623.686+561.516+623.762C561.075+623.831+550.33+619.089+549.898+619.158C542.307+620.362+536.268+621.385+535.845+621.757C522.411+633.587+507.971+644.606+491.887+654.303C493.333+663.342+492.28+671.893+496.322+677.452L523.302+664.328L522.064+650.014L517.441+641.409L521.783+646.757L521.026+638.003L523.892+653.576L533.851+642.727L524.776+656.356L526.947+663.175C535.89+661.438+544.083+657.592+551.873+652.615C552.335+652.32+552.586+649.276+552.773+645.409C552.798+644.878+542.994+636.93+543.018+636.374C543.036+635.944+552.883+642.909+552.9+642.469C553.165+635.799+553.515+625.281+554.244+624.774C554.806+624.383+555.123+633.371+555.597+639.187C555.651+639.839+563.809+629.153+563.863+629.79C563.91+630.354+555.852+642.243+555.9+642.781C556.245+646.676+556.6+649.718+556.999+649.424C563.832+644.386+570.896+638.267+577.991+632.178C578.221+631.981+578.499+629.019+578.782+625.804C578.822+625.342+575.216+620.976+575.256+620.511C575.297+620.047+578.985+623.482+579.025+623.03C579.283+620.147+579.533+617.657+579.743+617.477C580.335+616.97+580.692+629.865+581.285+629.36C584.762+626.395+588.24+623.478+591.694+620.74C592.219+620.324+596.824+606.719+597.348+606.312C597.7+606.038+593.972+618.958+594.323+618.689C596.444+617.063+607.267+605.813+609.361+604.378C608.557+606.38+595.929+620.259+591.229+624.87C590.833+625.258+602.695+621.689+602.289+622.082C601.742+622.613+588.925+627.108+588.366+627.644C580.006+635.656+570.706+643.931+571.874+643.931C578.491+643.595+584.084+643.323+588.768+643.106C589.423+643.076+598.651+635.649+599.271+635.621C599.928+635.591+591.975+642.96+592.593+642.933C641.773+640.751+569.437+646.068+568.346+646.985C555.466+657.808+540.51+668.442+526.414+673.269C525.565+673.559+534.294+675.91+544.717+678.542C544.99+678.611+549.712+675.678+554.508+672.696C554.883+672.462+557.244+662.161+557.619+661.928C558.3+661.504+555.98+672.023+556.638+671.615C560.388+669.291+564.56+666.496+564.785+666.552C565.321+666.687+547.471+679.234+548.013+679.37C561.706+682.791+576.837+686.372+576.837+686.372C576.837+686.372+524.203+675.581+522.548+676.926C513.44+684.35+499.694+690.025+499.531+691.483C497.148+712.714+496.973+792.646+518.592+800.212C532.5+805.081+536.095+805.096+539.15+822.845C542.205+840.593+574.023+858.682+599.745+870.907C577.44+855.837+543.291+858.123+533.357+831.271C523.423+804.42+520.634+811.706+510.426+810.56C520.245+822.677+520.697+830.477+517.767+841.413C514.837+852.348+515.315+857.193+524.682+870.478C534.049+883.762+533.989+905.558+537.183+923.018C531.869+905.122+530.309+881.5+517.615+869.995C504.92+858.491+506.054+851.245+509.653+840.431C513.253+829.617+506.162+823.14+496.771+813.518C495.16+823.294+486.976+835.523+496.897+846.284C506.818+857.045+506.559+859.838+495.734+871.568C484.909+883.299+492.988+904.54+494.839+921.647C492.14+905.434+477.905+886.581+487.874+872.802C497.843+859.023+491.308+855.79+484.102+846.343C476.896+836.897+478.94+824.824+479.419+813.504C471.872+821.357+464.458+828.203+466.493+839.163C468.527+850.123+466.572+856.297+452.785+866.372C438.998+876.448+436.913+895.292+430.879+909.855C434.061+894.326+433.895+875.212+446.693+864.476C459.492+853.74+461.819+845.786+456.966+834.997C452.114+824.209+460.187+819.064+465.05+811.799C453.941+805.655+443.586+808.27+432.943+832.224C422.301+856.178+389.783+851.582+369.805+862.14L369.807+862.144Z" opacity="0.33" fill="#000000"/>
</g>
</g>
</svg>
